%TF.GenerationSoftware,KiCad,Pcbnew,(7.0.0)*%
%TF.CreationDate,2023-03-02T18:54:12-05:00*%
%TF.ProjectId,STM32_XTW2,53544d33-325f-4585-9457-322e6b696361,rev?*%
%TF.SameCoordinates,Original*%
%TF.FileFunction,Legend,Top*%
%TF.FilePolarity,Positive*%
%FSLAX46Y46*%
G04 Gerber Fmt 4.6, Leading zero omitted, Abs format (unit mm)*
G04 Created by KiCad (PCBNEW (7.0.0)) date 2023-03-02 18:54:12*
%MOMM*%
%LPD*%
G01*
G04 APERTURE LIST*
%ADD10C,0.120000*%
%ADD11C,0.127000*%
%ADD12C,0.812800*%
%ADD13C,0.177800*%
%ADD14C,0.190500*%
%ADD15C,0.215900*%
%ADD16C,0.300000*%
%ADD17C,0.114300*%
%ADD18C,0.508000*%
%ADD19C,0.203200*%
%ADD20C,0.150000*%
%ADD21C,0.100000*%
G04 APERTURE END LIST*
D10*
G36*
X174091600Y-78511400D02*
G01*
X173431200Y-78892400D01*
X173431200Y-78130400D01*
X174091600Y-78511400D01*
G37*
X174091600Y-78511400D02*
X173431200Y-78892400D01*
X173431200Y-78130400D01*
X174091600Y-78511400D01*
D11*
X187911778Y-101600000D02*
X188673778Y-101600000D01*
X188673778Y-101600000D02*
X188673778Y-102108000D01*
X188673778Y-102108000D02*
X187911778Y-102108000D01*
X187911778Y-102108000D02*
X187911778Y-101600000D01*
X191721778Y-99568000D02*
G75*
G03*
X191721778Y-100584000I-9J-508000D01*
G01*
X186133778Y-98552000D02*
X191721778Y-98552000D01*
X191721778Y-98552000D02*
X191721778Y-101600000D01*
X191721778Y-101600000D02*
X186133778Y-101600000D01*
X186133778Y-101600000D02*
X186133778Y-98552000D01*
X190451778Y-98044000D02*
X191213778Y-98044000D01*
X191213778Y-98044000D02*
X191213778Y-98552000D01*
X191213778Y-98552000D02*
X190451778Y-98552000D01*
X190451778Y-98552000D02*
X190451778Y-98044000D01*
D12*
X128270000Y-103124000D02*
X128270000Y-97790000D01*
D11*
X189181778Y-101600000D02*
X189943778Y-101600000D01*
X189943778Y-101600000D02*
X189943778Y-102108000D01*
X189943778Y-102108000D02*
X189181778Y-102108000D01*
X189181778Y-102108000D02*
X189181778Y-101600000D01*
D12*
X128270000Y-82296000D02*
X128270000Y-77216000D01*
D11*
X190451778Y-101600000D02*
X191213778Y-101600000D01*
X191213778Y-101600000D02*
X191213778Y-102108000D01*
X191213778Y-102108000D02*
X190451778Y-102108000D01*
X190451778Y-102108000D02*
X190451778Y-101600000D01*
D10*
G36*
X188290200Y-81356200D02*
G01*
X187629800Y-81737200D01*
X187629800Y-80975200D01*
X188290200Y-81356200D01*
G37*
X188290200Y-81356200D02*
X187629800Y-81737200D01*
X187629800Y-80975200D01*
X188290200Y-81356200D01*
D12*
X194056000Y-103124000D02*
G75*
G03*
X194056000Y-77216000I0J12954000D01*
G01*
D11*
X187911778Y-98044000D02*
X188673778Y-98044000D01*
X188673778Y-98044000D02*
X188673778Y-98552000D01*
X188673778Y-98552000D02*
X187911778Y-98552000D01*
X187911778Y-98552000D02*
X187911778Y-98044000D01*
D12*
X128270000Y-103124000D02*
X148336000Y-103124000D01*
X167132000Y-103124000D02*
X189230000Y-103124000D01*
X147320000Y-77216000D02*
X194056000Y-77216000D01*
D11*
X189181778Y-98044000D02*
X189943778Y-98044000D01*
X189943778Y-98044000D02*
X189943778Y-98552000D01*
X189943778Y-98552000D02*
X189181778Y-98552000D01*
X189181778Y-98552000D02*
X189181778Y-98044000D01*
D12*
X128270000Y-77216000D02*
X137160000Y-77216000D01*
D11*
X186641778Y-101600000D02*
X187403778Y-101600000D01*
X187403778Y-101600000D02*
X187403778Y-102108000D01*
X187403778Y-102108000D02*
X186641778Y-102108000D01*
X186641778Y-102108000D02*
X186641778Y-101600000D01*
X186641778Y-98044000D02*
X187403778Y-98044000D01*
X187403778Y-98044000D02*
X187403778Y-98552000D01*
X187403778Y-98552000D02*
X186641778Y-98552000D01*
X186641778Y-98552000D02*
X186641778Y-98044000D01*
D12*
X189230000Y-103124000D02*
X194056000Y-103124000D01*
D13*
X188637333Y-80886071D02*
X188874400Y-81749671D01*
X188874400Y-81749671D02*
X189111466Y-80886071D01*
X189754933Y-81667423D02*
X189721066Y-81708547D01*
X189721066Y-81708547D02*
X189619466Y-81749671D01*
X189619466Y-81749671D02*
X189551733Y-81749671D01*
X189551733Y-81749671D02*
X189450133Y-81708547D01*
X189450133Y-81708547D02*
X189382400Y-81626299D01*
X189382400Y-81626299D02*
X189348533Y-81544052D01*
X189348533Y-81544052D02*
X189314666Y-81379556D01*
X189314666Y-81379556D02*
X189314666Y-81256185D01*
X189314666Y-81256185D02*
X189348533Y-81091690D01*
X189348533Y-81091690D02*
X189382400Y-81009442D01*
X189382400Y-81009442D02*
X189450133Y-80927195D01*
X189450133Y-80927195D02*
X189551733Y-80886071D01*
X189551733Y-80886071D02*
X189619466Y-80886071D01*
X189619466Y-80886071D02*
X189721066Y-80927195D01*
X189721066Y-80927195D02*
X189754933Y-80968318D01*
X190466133Y-81667423D02*
X190432266Y-81708547D01*
X190432266Y-81708547D02*
X190330666Y-81749671D01*
X190330666Y-81749671D02*
X190262933Y-81749671D01*
X190262933Y-81749671D02*
X190161333Y-81708547D01*
X190161333Y-81708547D02*
X190093600Y-81626299D01*
X190093600Y-81626299D02*
X190059733Y-81544052D01*
X190059733Y-81544052D02*
X190025866Y-81379556D01*
X190025866Y-81379556D02*
X190025866Y-81256185D01*
X190025866Y-81256185D02*
X190059733Y-81091690D01*
X190059733Y-81091690D02*
X190093600Y-81009442D01*
X190093600Y-81009442D02*
X190161333Y-80927195D01*
X190161333Y-80927195D02*
X190262933Y-80886071D01*
X190262933Y-80886071D02*
X190330666Y-80886071D01*
X190330666Y-80886071D02*
X190432266Y-80927195D01*
X190432266Y-80927195D02*
X190466133Y-80968318D01*
X191570186Y-80927195D02*
X191502453Y-80886071D01*
X191502453Y-80886071D02*
X191400853Y-80886071D01*
X191400853Y-80886071D02*
X191299253Y-80927195D01*
X191299253Y-80927195D02*
X191231520Y-81009442D01*
X191231520Y-81009442D02*
X191197653Y-81091690D01*
X191197653Y-81091690D02*
X191163786Y-81256185D01*
X191163786Y-81256185D02*
X191163786Y-81379556D01*
X191163786Y-81379556D02*
X191197653Y-81544052D01*
X191197653Y-81544052D02*
X191231520Y-81626299D01*
X191231520Y-81626299D02*
X191299253Y-81708547D01*
X191299253Y-81708547D02*
X191400853Y-81749671D01*
X191400853Y-81749671D02*
X191468586Y-81749671D01*
X191468586Y-81749671D02*
X191570186Y-81708547D01*
X191570186Y-81708547D02*
X191604053Y-81667423D01*
X191604053Y-81667423D02*
X191604053Y-81379556D01*
X191604053Y-81379556D02*
X191468586Y-81379556D01*
X191908853Y-81749671D02*
X191908853Y-80886071D01*
X191908853Y-80886071D02*
X192315253Y-81749671D01*
X192315253Y-81749671D02*
X192315253Y-80886071D01*
X192653920Y-81749671D02*
X192653920Y-80886071D01*
X192653920Y-80886071D02*
X192823253Y-80886071D01*
X192823253Y-80886071D02*
X192924853Y-80927195D01*
X192924853Y-80927195D02*
X192992587Y-81009442D01*
X192992587Y-81009442D02*
X193026453Y-81091690D01*
X193026453Y-81091690D02*
X193060320Y-81256185D01*
X193060320Y-81256185D02*
X193060320Y-81379556D01*
X193060320Y-81379556D02*
X193026453Y-81544052D01*
X193026453Y-81544052D02*
X192992587Y-81626299D01*
X192992587Y-81626299D02*
X192924853Y-81708547D01*
X192924853Y-81708547D02*
X192823253Y-81749671D01*
X192823253Y-81749671D02*
X192653920Y-81749671D01*
X193791840Y-81749671D02*
X193791840Y-80886071D01*
X193791840Y-80886071D02*
X193961173Y-80886071D01*
X193961173Y-80886071D02*
X194062773Y-80927195D01*
X194062773Y-80927195D02*
X194130507Y-81009442D01*
X194130507Y-81009442D02*
X194164373Y-81091690D01*
X194164373Y-81091690D02*
X194198240Y-81256185D01*
X194198240Y-81256185D02*
X194198240Y-81379556D01*
X194198240Y-81379556D02*
X194164373Y-81544052D01*
X194164373Y-81544052D02*
X194130507Y-81626299D01*
X194130507Y-81626299D02*
X194062773Y-81708547D01*
X194062773Y-81708547D02*
X193961173Y-81749671D01*
X193961173Y-81749671D02*
X193791840Y-81749671D01*
X194503040Y-81749671D02*
X194503040Y-80886071D01*
X194977174Y-80886071D02*
X195112640Y-80886071D01*
X195112640Y-80886071D02*
X195180374Y-80927195D01*
X195180374Y-80927195D02*
X195248107Y-81009442D01*
X195248107Y-81009442D02*
X195281974Y-81173937D01*
X195281974Y-81173937D02*
X195281974Y-81461804D01*
X195281974Y-81461804D02*
X195248107Y-81626299D01*
X195248107Y-81626299D02*
X195180374Y-81708547D01*
X195180374Y-81708547D02*
X195112640Y-81749671D01*
X195112640Y-81749671D02*
X194977174Y-81749671D01*
X194977174Y-81749671D02*
X194909440Y-81708547D01*
X194909440Y-81708547D02*
X194841707Y-81626299D01*
X194841707Y-81626299D02*
X194807840Y-81461804D01*
X194807840Y-81461804D02*
X194807840Y-81173937D01*
X194807840Y-81173937D02*
X194841707Y-81009442D01*
X194841707Y-81009442D02*
X194909440Y-80927195D01*
X194909440Y-80927195D02*
X194977174Y-80886071D01*
X196419894Y-81667423D02*
X196386027Y-81708547D01*
X196386027Y-81708547D02*
X196284427Y-81749671D01*
X196284427Y-81749671D02*
X196216694Y-81749671D01*
X196216694Y-81749671D02*
X196115094Y-81708547D01*
X196115094Y-81708547D02*
X196047361Y-81626299D01*
X196047361Y-81626299D02*
X196013494Y-81544052D01*
X196013494Y-81544052D02*
X195979627Y-81379556D01*
X195979627Y-81379556D02*
X195979627Y-81256185D01*
X195979627Y-81256185D02*
X196013494Y-81091690D01*
X196013494Y-81091690D02*
X196047361Y-81009442D01*
X196047361Y-81009442D02*
X196115094Y-80927195D01*
X196115094Y-80927195D02*
X196216694Y-80886071D01*
X196216694Y-80886071D02*
X196284427Y-80886071D01*
X196284427Y-80886071D02*
X196386027Y-80927195D01*
X196386027Y-80927195D02*
X196419894Y-80968318D01*
X197063361Y-81749671D02*
X196724694Y-81749671D01*
X196724694Y-81749671D02*
X196724694Y-80886071D01*
X197300427Y-81749671D02*
X197300427Y-80886071D01*
X197706827Y-81749671D02*
X197402027Y-81256185D01*
X197706827Y-80886071D02*
X197300427Y-81379556D01*
X198404480Y-81708547D02*
X198506080Y-81749671D01*
X198506080Y-81749671D02*
X198675414Y-81749671D01*
X198675414Y-81749671D02*
X198743147Y-81708547D01*
X198743147Y-81708547D02*
X198777014Y-81667423D01*
X198777014Y-81667423D02*
X198810880Y-81585175D01*
X198810880Y-81585175D02*
X198810880Y-81502928D01*
X198810880Y-81502928D02*
X198777014Y-81420680D01*
X198777014Y-81420680D02*
X198743147Y-81379556D01*
X198743147Y-81379556D02*
X198675414Y-81338433D01*
X198675414Y-81338433D02*
X198539947Y-81297309D01*
X198539947Y-81297309D02*
X198472214Y-81256185D01*
X198472214Y-81256185D02*
X198438347Y-81215061D01*
X198438347Y-81215061D02*
X198404480Y-81132814D01*
X198404480Y-81132814D02*
X198404480Y-81050566D01*
X198404480Y-81050566D02*
X198438347Y-80968318D01*
X198438347Y-80968318D02*
X198472214Y-80927195D01*
X198472214Y-80927195D02*
X198539947Y-80886071D01*
X198539947Y-80886071D02*
X198709280Y-80886071D01*
X198709280Y-80886071D02*
X198810880Y-80927195D01*
X199047947Y-80886071D02*
X199217280Y-81749671D01*
X199217280Y-81749671D02*
X199352747Y-81132814D01*
X199352747Y-81132814D02*
X199488213Y-81749671D01*
X199488213Y-81749671D02*
X199657547Y-80886071D01*
X200063947Y-80886071D02*
X200199413Y-80886071D01*
X200199413Y-80886071D02*
X200267147Y-80927195D01*
X200267147Y-80927195D02*
X200334880Y-81009442D01*
X200334880Y-81009442D02*
X200368747Y-81173937D01*
X200368747Y-81173937D02*
X200368747Y-81461804D01*
X200368747Y-81461804D02*
X200334880Y-81626299D01*
X200334880Y-81626299D02*
X200267147Y-81708547D01*
X200267147Y-81708547D02*
X200199413Y-81749671D01*
X200199413Y-81749671D02*
X200063947Y-81749671D01*
X200063947Y-81749671D02*
X199996213Y-81708547D01*
X199996213Y-81708547D02*
X199928480Y-81626299D01*
X199928480Y-81626299D02*
X199894613Y-81461804D01*
X199894613Y-81461804D02*
X199894613Y-81173937D01*
X199894613Y-81173937D02*
X199928480Y-81009442D01*
X199928480Y-81009442D02*
X199996213Y-80927195D01*
X199996213Y-80927195D02*
X200063947Y-80886071D01*
D14*
G36*
X183839744Y-100325731D02*
G01*
X183882731Y-100368718D01*
X183909774Y-100476889D01*
X183909774Y-100707439D01*
X183882732Y-100815609D01*
X183839745Y-100858596D01*
X183801110Y-100877914D01*
X183700938Y-100877914D01*
X183662304Y-100858596D01*
X183619317Y-100815610D01*
X183592274Y-100707437D01*
X183592274Y-100476891D01*
X183619316Y-100368718D01*
X183662303Y-100325731D01*
X183700939Y-100306414D01*
X183801111Y-100306414D01*
X183839744Y-100325731D01*
G37*
G36*
X183077743Y-100325730D02*
G01*
X183092171Y-100340158D01*
X183111489Y-100378792D01*
X183111489Y-100442679D01*
X183092172Y-100481311D01*
X183077744Y-100495739D01*
X183039110Y-100515057D01*
X182957662Y-100515057D01*
X182934740Y-100512681D01*
X182930038Y-100515057D01*
X182866560Y-100515057D01*
X182866560Y-100306414D01*
X183039111Y-100306414D01*
X183077743Y-100325730D01*
G37*
G36*
X182315743Y-100325730D02*
G01*
X182330171Y-100340158D01*
X182349489Y-100378792D01*
X182349489Y-100442679D01*
X182330172Y-100481311D01*
X182315744Y-100495739D01*
X182277110Y-100515057D01*
X182104560Y-100515057D01*
X182104560Y-100306414D01*
X182277111Y-100306414D01*
X182315743Y-100325730D01*
G37*
G36*
X182657300Y-99425760D02*
G01*
X182558748Y-99425760D01*
X182608024Y-99277931D01*
X182657300Y-99425760D01*
G37*
G36*
X179917257Y-99091290D02*
G01*
X179931685Y-99105718D01*
X179951003Y-99144352D01*
X179951003Y-99208239D01*
X179931686Y-99246871D01*
X179917258Y-99261299D01*
X179878624Y-99280617D01*
X179706074Y-99280617D01*
X179706074Y-99071974D01*
X179878625Y-99071974D01*
X179917257Y-99091290D01*
G37*
G36*
X185577557Y-101706952D02*
G01*
X177584721Y-101706952D01*
X177584721Y-100986858D01*
X178227431Y-100986858D01*
X178239169Y-101026834D01*
X178281442Y-101063464D01*
X178336809Y-101071425D01*
X178387690Y-101048188D01*
X178417931Y-101001132D01*
X178417931Y-100987292D01*
X178514706Y-100987292D01*
X178519185Y-100997101D01*
X178519955Y-101007855D01*
X178530577Y-101022045D01*
X178537943Y-101038173D01*
X178547014Y-101044002D01*
X178553476Y-101052635D01*
X178570086Y-101058830D01*
X178584999Y-101068414D01*
X178595782Y-101068414D01*
X178605885Y-101072182D01*
X178623206Y-101068414D01*
X179098375Y-101068414D01*
X179138351Y-101056676D01*
X179174981Y-101014403D01*
X179182942Y-100959036D01*
X179159705Y-100908155D01*
X179112649Y-100877914D01*
X178842921Y-100877914D01*
X179078272Y-100642561D01*
X179275777Y-100642561D01*
X179279716Y-100658317D01*
X179279716Y-100660286D01*
X179283028Y-100671568D01*
X179314730Y-100798377D01*
X179313550Y-100809317D01*
X179321381Y-100824979D01*
X179322167Y-100828122D01*
X179327483Y-100837183D01*
X179357003Y-100896223D01*
X179360410Y-100911883D01*
X179378979Y-100930452D01*
X179396845Y-100949659D01*
X179398646Y-100950119D01*
X179449129Y-101000602D01*
X179463455Y-101018396D01*
X179481926Y-101024553D01*
X179499008Y-101033880D01*
X179507981Y-101033238D01*
X179587515Y-101059749D01*
X179600998Y-101068414D01*
X179627263Y-101068414D01*
X179653472Y-101069362D01*
X179655071Y-101068414D01*
X179689597Y-101068414D01*
X179705126Y-101072370D01*
X179730025Y-101064070D01*
X179755208Y-101056676D01*
X179756426Y-101055270D01*
X179835656Y-101028860D01*
X179857971Y-101024006D01*
X179871737Y-101010239D01*
X179887719Y-100999132D01*
X179891158Y-100990818D01*
X179894684Y-100987292D01*
X180532191Y-100987292D01*
X180540980Y-101006538D01*
X180546940Y-101026834D01*
X180552416Y-101031579D01*
X180555428Y-101038173D01*
X180573225Y-101049610D01*
X180589213Y-101063464D01*
X180596386Y-101064495D01*
X180602484Y-101068414D01*
X180623639Y-101068414D01*
X180644580Y-101071425D01*
X180651173Y-101068414D01*
X181007003Y-101068414D01*
X181046979Y-101056676D01*
X181083609Y-101014403D01*
X181087507Y-100987292D01*
X181221620Y-100987292D01*
X181230409Y-101006538D01*
X181236369Y-101026834D01*
X181241845Y-101031579D01*
X181244857Y-101038173D01*
X181262654Y-101049610D01*
X181278642Y-101063464D01*
X181285815Y-101064495D01*
X181291913Y-101068414D01*
X181313068Y-101068414D01*
X181334009Y-101071425D01*
X181340602Y-101068414D01*
X181696432Y-101068414D01*
X181736408Y-101056676D01*
X181773038Y-101014403D01*
X181780999Y-100959036D01*
X181757762Y-100908155D01*
X181710706Y-100877914D01*
X181415131Y-100877914D01*
X181415131Y-100669271D01*
X181587575Y-100669271D01*
X181627551Y-100657533D01*
X181656231Y-100624435D01*
X181911049Y-100624435D01*
X181914060Y-100631028D01*
X181914060Y-100986858D01*
X181925798Y-101026834D01*
X181968071Y-101063464D01*
X182023438Y-101071425D01*
X182074319Y-101048188D01*
X182104560Y-101001132D01*
X182104560Y-100705557D01*
X182294466Y-100705557D01*
X182317178Y-100708009D01*
X182334590Y-100699302D01*
X182353266Y-100693819D01*
X182359158Y-100687018D01*
X182404084Y-100664555D01*
X182419743Y-100661149D01*
X182438304Y-100642587D01*
X182457519Y-100624714D01*
X182457590Y-100624435D01*
X182673049Y-100624435D01*
X182676060Y-100631028D01*
X182676060Y-100986858D01*
X182687798Y-101026834D01*
X182730071Y-101063464D01*
X182785438Y-101071425D01*
X182836319Y-101048188D01*
X182866560Y-101001132D01*
X182866560Y-100705557D01*
X182903147Y-100705557D01*
X183136560Y-101039004D01*
X183169101Y-101065023D01*
X183224738Y-101070789D01*
X183274662Y-101045560D01*
X183303020Y-100997345D01*
X183300809Y-100941454D01*
X183142385Y-100715133D01*
X183397835Y-100715133D01*
X183401774Y-100730889D01*
X183401774Y-100732858D01*
X183405086Y-100744140D01*
X183440550Y-100885997D01*
X183446182Y-100911883D01*
X183457330Y-100923030D01*
X183465308Y-100936629D01*
X183476702Y-100942402D01*
X183530085Y-100995785D01*
X183538269Y-101009564D01*
X183561737Y-101021298D01*
X183584781Y-101033881D01*
X183586637Y-101033748D01*
X183631267Y-101056063D01*
X183650485Y-101068414D01*
X183669954Y-101068414D01*
X183689109Y-101071861D01*
X183697421Y-101068414D01*
X183818466Y-101068414D01*
X183841178Y-101070866D01*
X183858590Y-101062159D01*
X183877266Y-101056676D01*
X183883158Y-101049875D01*
X183928082Y-101027413D01*
X183943742Y-101024007D01*
X183962306Y-101005442D01*
X183981519Y-100987571D01*
X183981979Y-100985769D01*
X184035056Y-100932693D01*
X184054362Y-100914541D01*
X184058185Y-100899245D01*
X184065741Y-100885409D01*
X184064830Y-100872667D01*
X184093627Y-100757473D01*
X184100274Y-100747132D01*
X184100274Y-100730888D01*
X184100751Y-100728980D01*
X184100274Y-100717244D01*
X184100274Y-100480840D01*
X184104213Y-100469196D01*
X184100274Y-100453440D01*
X184100274Y-100451470D01*
X184096960Y-100440185D01*
X184061503Y-100298354D01*
X184055867Y-100272445D01*
X184044718Y-100261296D01*
X184036741Y-100247699D01*
X184025346Y-100241924D01*
X184009522Y-100226100D01*
X184233455Y-100226100D01*
X184236346Y-100232295D01*
X184236346Y-100986858D01*
X184248084Y-101026834D01*
X184290357Y-101063464D01*
X184345724Y-101071425D01*
X184396605Y-101048188D01*
X184426846Y-101001132D01*
X184426846Y-100640510D01*
X184498952Y-100795023D01*
X184510039Y-100819839D01*
X184522652Y-100828092D01*
X184532615Y-100839401D01*
X184545571Y-100843089D01*
X184556845Y-100850467D01*
X184571917Y-100850590D01*
X184586413Y-100854718D01*
X184599307Y-100850816D01*
X184612780Y-100850927D01*
X184625525Y-100842883D01*
X184639952Y-100838518D01*
X184648690Y-100828263D01*
X184660083Y-100821074D01*
X184666456Y-100807415D01*
X184676233Y-100795944D01*
X184678040Y-100782593D01*
X184744346Y-100640510D01*
X184744346Y-100986858D01*
X184756084Y-101026834D01*
X184798357Y-101063464D01*
X184853724Y-101071425D01*
X184904605Y-101048188D01*
X184934846Y-101001132D01*
X184934846Y-100218371D01*
X184937970Y-100197845D01*
X184929177Y-100178166D01*
X184923108Y-100157494D01*
X184917942Y-100153017D01*
X184915153Y-100146775D01*
X184897119Y-100134974D01*
X184880835Y-100120864D01*
X184874068Y-100119891D01*
X184868347Y-100116147D01*
X184846796Y-100115969D01*
X184825468Y-100112903D01*
X184819248Y-100115743D01*
X184812413Y-100115687D01*
X184794189Y-100127187D01*
X184774587Y-100136140D01*
X184770891Y-100141891D01*
X184765109Y-100145540D01*
X184755995Y-100165069D01*
X184744346Y-100183196D01*
X184744346Y-100190032D01*
X184585595Y-100530211D01*
X184420956Y-100177413D01*
X184415108Y-100157494D01*
X184398821Y-100143381D01*
X184384577Y-100127213D01*
X184378001Y-100125340D01*
X184372835Y-100120864D01*
X184351506Y-100117797D01*
X184330780Y-100111896D01*
X184324235Y-100113876D01*
X184317468Y-100112903D01*
X184297866Y-100121854D01*
X184277240Y-100128096D01*
X184272804Y-100133300D01*
X184266587Y-100136140D01*
X184254937Y-100154266D01*
X184240959Y-100170670D01*
X184240041Y-100177445D01*
X184236346Y-100183196D01*
X184236346Y-100204745D01*
X184233455Y-100226100D01*
X184009522Y-100226100D01*
X183971964Y-100188543D01*
X183963780Y-100174764D01*
X183940289Y-100163018D01*
X183917268Y-100150448D01*
X183915413Y-100150580D01*
X183870781Y-100128264D01*
X183851564Y-100115914D01*
X183832095Y-100115914D01*
X183812940Y-100112467D01*
X183804628Y-100115914D01*
X183683583Y-100115914D01*
X183660871Y-100113462D01*
X183643458Y-100122168D01*
X183624783Y-100127652D01*
X183618890Y-100134452D01*
X183573966Y-100156914D01*
X183558307Y-100160321D01*
X183539742Y-100178885D01*
X183520530Y-100196757D01*
X183520069Y-100198558D01*
X183467001Y-100251625D01*
X183447687Y-100269786D01*
X183443862Y-100285083D01*
X183436308Y-100298919D01*
X183437219Y-100311658D01*
X183408420Y-100426854D01*
X183401774Y-100437196D01*
X183401774Y-100453439D01*
X183401297Y-100455347D01*
X183401774Y-100467083D01*
X183401774Y-100703489D01*
X183397835Y-100715133D01*
X183142385Y-100715133D01*
X183122303Y-100686445D01*
X183166084Y-100664555D01*
X183181743Y-100661149D01*
X183200304Y-100642587D01*
X183219519Y-100624714D01*
X183219979Y-100622912D01*
X183229360Y-100613531D01*
X183243139Y-100605348D01*
X183254878Y-100581869D01*
X183267455Y-100558837D01*
X183267322Y-100556981D01*
X183289638Y-100512349D01*
X183301989Y-100493132D01*
X183301989Y-100473663D01*
X183305436Y-100454508D01*
X183301989Y-100446196D01*
X183301989Y-100361437D01*
X183304441Y-100338725D01*
X183295734Y-100321312D01*
X183290251Y-100302637D01*
X183283450Y-100296744D01*
X183260986Y-100251817D01*
X183257580Y-100236158D01*
X183239015Y-100217593D01*
X183221146Y-100198383D01*
X183219343Y-100197922D01*
X183209962Y-100188541D01*
X183201780Y-100174764D01*
X183178307Y-100163027D01*
X183155267Y-100150447D01*
X183153411Y-100150579D01*
X183108781Y-100128264D01*
X183089564Y-100115914D01*
X183070095Y-100115914D01*
X183050940Y-100112467D01*
X183042628Y-100115914D01*
X182778123Y-100115914D01*
X182757182Y-100112903D01*
X182737935Y-100121692D01*
X182717640Y-100127652D01*
X182712894Y-100133128D01*
X182706301Y-100136140D01*
X182694863Y-100153937D01*
X182681010Y-100169925D01*
X182679978Y-100177098D01*
X182676060Y-100183196D01*
X182676060Y-100204351D01*
X182673049Y-100225292D01*
X182676060Y-100231885D01*
X182676060Y-100603494D01*
X182673049Y-100624435D01*
X182457590Y-100624435D01*
X182457979Y-100622912D01*
X182467360Y-100613531D01*
X182481139Y-100605348D01*
X182492878Y-100581869D01*
X182505455Y-100558837D01*
X182505322Y-100556981D01*
X182527638Y-100512349D01*
X182539989Y-100493132D01*
X182539989Y-100473663D01*
X182543436Y-100454508D01*
X182539989Y-100446196D01*
X182539989Y-100361437D01*
X182542441Y-100338725D01*
X182533734Y-100321312D01*
X182528251Y-100302637D01*
X182521450Y-100296744D01*
X182498986Y-100251817D01*
X182495580Y-100236158D01*
X182477015Y-100217593D01*
X182459146Y-100198383D01*
X182457343Y-100197922D01*
X182447962Y-100188541D01*
X182439780Y-100174764D01*
X182416307Y-100163027D01*
X182393267Y-100150447D01*
X182391411Y-100150579D01*
X182346781Y-100128264D01*
X182327564Y-100115914D01*
X182308095Y-100115914D01*
X182288940Y-100112467D01*
X182280628Y-100115914D01*
X182016123Y-100115914D01*
X181995182Y-100112903D01*
X181975935Y-100121692D01*
X181955640Y-100127652D01*
X181950894Y-100133128D01*
X181944301Y-100136140D01*
X181932863Y-100153937D01*
X181919010Y-100169925D01*
X181917978Y-100177098D01*
X181914060Y-100183196D01*
X181914060Y-100204351D01*
X181911049Y-100225292D01*
X181914060Y-100231885D01*
X181914060Y-100603494D01*
X181911049Y-100624435D01*
X181656231Y-100624435D01*
X181664181Y-100615260D01*
X181672142Y-100559893D01*
X181648905Y-100509012D01*
X181601849Y-100478771D01*
X181415131Y-100478771D01*
X181415131Y-100306414D01*
X181696432Y-100306414D01*
X181736408Y-100294676D01*
X181773038Y-100252403D01*
X181780999Y-100197036D01*
X181757762Y-100146155D01*
X181710706Y-100115914D01*
X181326694Y-100115914D01*
X181305753Y-100112903D01*
X181286506Y-100121692D01*
X181266211Y-100127652D01*
X181261465Y-100133128D01*
X181254872Y-100136140D01*
X181243434Y-100153937D01*
X181229581Y-100169925D01*
X181228549Y-100177098D01*
X181224631Y-100183196D01*
X181224631Y-100204351D01*
X181221620Y-100225292D01*
X181224631Y-100231885D01*
X181224631Y-100567208D01*
X181221620Y-100588149D01*
X181224631Y-100594742D01*
X181224631Y-100966351D01*
X181221620Y-100987292D01*
X181087507Y-100987292D01*
X181091570Y-100959036D01*
X181068333Y-100908155D01*
X181021277Y-100877914D01*
X180725702Y-100877914D01*
X180725702Y-100669271D01*
X180898146Y-100669271D01*
X180938122Y-100657533D01*
X180974752Y-100615260D01*
X180982713Y-100559893D01*
X180959476Y-100509012D01*
X180912420Y-100478771D01*
X180725702Y-100478771D01*
X180725702Y-100306414D01*
X181007003Y-100306414D01*
X181046979Y-100294676D01*
X181083609Y-100252403D01*
X181091570Y-100197036D01*
X181068333Y-100146155D01*
X181021277Y-100115914D01*
X180637265Y-100115914D01*
X180616324Y-100112903D01*
X180597077Y-100121692D01*
X180576782Y-100127652D01*
X180572036Y-100133128D01*
X180565443Y-100136140D01*
X180554005Y-100153937D01*
X180540152Y-100169925D01*
X180539120Y-100177098D01*
X180535202Y-100183196D01*
X180535202Y-100204351D01*
X180532191Y-100225292D01*
X180535202Y-100231885D01*
X180535202Y-100567208D01*
X180532191Y-100588149D01*
X180535202Y-100594742D01*
X180535202Y-100966351D01*
X180532191Y-100987292D01*
X179894684Y-100987292D01*
X179923716Y-100958261D01*
X179943683Y-100921694D01*
X179939693Y-100865901D01*
X179906172Y-100821121D01*
X179853763Y-100801574D01*
X179799105Y-100813464D01*
X179758942Y-100853626D01*
X179686080Y-100877914D01*
X179644423Y-100877914D01*
X179571561Y-100853626D01*
X179525819Y-100807885D01*
X179501122Y-100758489D01*
X179470216Y-100634865D01*
X179470216Y-100549462D01*
X179501121Y-100425837D01*
X179525818Y-100376444D01*
X179571561Y-100330701D01*
X179644424Y-100306414D01*
X179686080Y-100306414D01*
X179758942Y-100330701D01*
X179789013Y-100360771D01*
X179825581Y-100380737D01*
X179881373Y-100376746D01*
X179926153Y-100343225D01*
X179945699Y-100290815D01*
X179933808Y-100236158D01*
X179881368Y-100183719D01*
X179867048Y-100165932D01*
X179848580Y-100159776D01*
X179831495Y-100150447D01*
X179822519Y-100151089D01*
X179742989Y-100124579D01*
X179729506Y-100115914D01*
X179703241Y-100115914D01*
X179677031Y-100114966D01*
X179675432Y-100115914D01*
X179640907Y-100115914D01*
X179625377Y-100111958D01*
X179600471Y-100120259D01*
X179575296Y-100127652D01*
X179574077Y-100129057D01*
X179494846Y-100155468D01*
X179472534Y-100160322D01*
X179458770Y-100174085D01*
X179442784Y-100185196D01*
X179439343Y-100193511D01*
X179388630Y-100244224D01*
X179374852Y-100252408D01*
X179363110Y-100275890D01*
X179350536Y-100298920D01*
X179350668Y-100300774D01*
X179333646Y-100334818D01*
X179325629Y-100342357D01*
X179321381Y-100359348D01*
X179319934Y-100362243D01*
X179318075Y-100372572D01*
X179286362Y-100499425D01*
X179279716Y-100509767D01*
X179279716Y-100526010D01*
X179279239Y-100527918D01*
X179279716Y-100539654D01*
X179279716Y-100630917D01*
X179275777Y-100642561D01*
X179078272Y-100642561D01*
X179112119Y-100608714D01*
X179129913Y-100594389D01*
X179136070Y-100575917D01*
X179145397Y-100558836D01*
X179144755Y-100549862D01*
X179171266Y-100470328D01*
X179179931Y-100456846D01*
X179179931Y-100430581D01*
X179180879Y-100404372D01*
X179179931Y-100402773D01*
X179179931Y-100361437D01*
X179182383Y-100338725D01*
X179173676Y-100321312D01*
X179168193Y-100302637D01*
X179161392Y-100296744D01*
X179138929Y-100251818D01*
X179135523Y-100236160D01*
X179116963Y-100217599D01*
X179099088Y-100198383D01*
X179097285Y-100197922D01*
X179087905Y-100188542D01*
X179079722Y-100174763D01*
X179056233Y-100163019D01*
X179033211Y-100150448D01*
X179031356Y-100150580D01*
X178986722Y-100128263D01*
X178967506Y-100115914D01*
X178948037Y-100115914D01*
X178928882Y-100112467D01*
X178920570Y-100115914D01*
X178763240Y-100115914D01*
X178740528Y-100113462D01*
X178723115Y-100122168D01*
X178704440Y-100127652D01*
X178698547Y-100134452D01*
X178653623Y-100156914D01*
X178637963Y-100160321D01*
X178619388Y-100178895D01*
X178600186Y-100196757D01*
X178599725Y-100198557D01*
X178572218Y-100226065D01*
X178552250Y-100262632D01*
X178556239Y-100318425D01*
X178589760Y-100363205D01*
X178642169Y-100382753D01*
X178696826Y-100370864D01*
X178741959Y-100325732D01*
X178780595Y-100306414D01*
X178917052Y-100306414D01*
X178955687Y-100325731D01*
X178970113Y-100340157D01*
X178989431Y-100378792D01*
X178989431Y-100413421D01*
X178965143Y-100486282D01*
X178562804Y-100888621D01*
X178559297Y-100889652D01*
X178543211Y-100908215D01*
X178535932Y-100915495D01*
X178534276Y-100918527D01*
X178522667Y-100931925D01*
X178521132Y-100942599D01*
X178515965Y-100952063D01*
X178517229Y-100969742D01*
X178514706Y-100987292D01*
X178417931Y-100987292D01*
X178417931Y-100197470D01*
X178406193Y-100157494D01*
X178363920Y-100120864D01*
X178308553Y-100112903D01*
X178257672Y-100136140D01*
X178227431Y-100183196D01*
X178227431Y-100986858D01*
X177584721Y-100986858D01*
X177584721Y-99132523D01*
X178750127Y-99132523D01*
X178753574Y-99140835D01*
X178753574Y-99189308D01*
X178751122Y-99212020D01*
X178759828Y-99229432D01*
X178765312Y-99248108D01*
X178772112Y-99254000D01*
X178794574Y-99298925D01*
X178797982Y-99314587D01*
X178816557Y-99333161D01*
X178834417Y-99352362D01*
X178836218Y-99352822D01*
X178845599Y-99362203D01*
X178853783Y-99375981D01*
X178877263Y-99387721D01*
X178900296Y-99400297D01*
X178902149Y-99400164D01*
X178936193Y-99417186D01*
X178943732Y-99425204D01*
X178960723Y-99429451D01*
X178963618Y-99430899D01*
X178973947Y-99432757D01*
X179105865Y-99465737D01*
X179155259Y-99490433D01*
X179169684Y-99504859D01*
X179189003Y-99543495D01*
X179189003Y-99571096D01*
X179169685Y-99609729D01*
X179155259Y-99624156D01*
X179116625Y-99643474D01*
X178973139Y-99643474D01*
X178865953Y-99607745D01*
X178824317Y-99606240D01*
X178776199Y-99634760D01*
X178751138Y-99684768D01*
X178757092Y-99740386D01*
X178792171Y-99783956D01*
X178916231Y-99825309D01*
X178929714Y-99833974D01*
X178955979Y-99833974D01*
X178982189Y-99834922D01*
X178983788Y-99833974D01*
X179133980Y-99833974D01*
X179156692Y-99836426D01*
X179174104Y-99827719D01*
X179192780Y-99822236D01*
X179198672Y-99815435D01*
X179243597Y-99792973D01*
X179259259Y-99789566D01*
X179277833Y-99770990D01*
X179297034Y-99753131D01*
X179297494Y-99751329D01*
X179306875Y-99741948D01*
X179320653Y-99733765D01*
X179332393Y-99710284D01*
X179344969Y-99687252D01*
X179344836Y-99685398D01*
X179367152Y-99640766D01*
X179379503Y-99621549D01*
X179379503Y-99602080D01*
X179382950Y-99582925D01*
X179379503Y-99574613D01*
X179379503Y-99526140D01*
X179381955Y-99503428D01*
X179373248Y-99486015D01*
X179367765Y-99467340D01*
X179360964Y-99461447D01*
X179338502Y-99416523D01*
X179335096Y-99400863D01*
X179324228Y-99389995D01*
X179512563Y-99389995D01*
X179515574Y-99396588D01*
X179515574Y-99752418D01*
X179527312Y-99792394D01*
X179569585Y-99829024D01*
X179624952Y-99836985D01*
X179675833Y-99813748D01*
X179706074Y-99766692D01*
X179706074Y-99752418D01*
X180277574Y-99752418D01*
X180289312Y-99792394D01*
X180331585Y-99829024D01*
X180386952Y-99836985D01*
X180437833Y-99813748D01*
X180468074Y-99766692D01*
X180468074Y-99353709D01*
X181094620Y-99353709D01*
X181097631Y-99360302D01*
X181097631Y-99752418D01*
X181109369Y-99792394D01*
X181151642Y-99829024D01*
X181207009Y-99836985D01*
X181257890Y-99813748D01*
X181288131Y-99766692D01*
X181288131Y-99752852D01*
X181747763Y-99752852D01*
X181756552Y-99772098D01*
X181762512Y-99792394D01*
X181767988Y-99797139D01*
X181771000Y-99803733D01*
X181788797Y-99815170D01*
X181804785Y-99829024D01*
X181811958Y-99830055D01*
X181818056Y-99833974D01*
X181839211Y-99833974D01*
X181860152Y-99836985D01*
X181866745Y-99833974D01*
X182222575Y-99833974D01*
X182262551Y-99822236D01*
X182280512Y-99801507D01*
X182286346Y-99811349D01*
X182336354Y-99836410D01*
X182391972Y-99830456D01*
X182435542Y-99795377D01*
X182495248Y-99616260D01*
X182720800Y-99616260D01*
X182775992Y-99781836D01*
X182799770Y-99816049D01*
X182851457Y-99837431D01*
X182906500Y-99827475D01*
X182947422Y-99789341D01*
X182961230Y-99735137D01*
X182886939Y-99512265D01*
X182887714Y-99506882D01*
X182878204Y-99486059D01*
X182760359Y-99132523D01*
X182981041Y-99132523D01*
X182984488Y-99140835D01*
X182984488Y-99189308D01*
X182982036Y-99212020D01*
X182990742Y-99229432D01*
X182996226Y-99248108D01*
X183003026Y-99254000D01*
X183025488Y-99298925D01*
X183028896Y-99314587D01*
X183047471Y-99333161D01*
X183065331Y-99352362D01*
X183067132Y-99352822D01*
X183076513Y-99362203D01*
X183084697Y-99375981D01*
X183108177Y-99387721D01*
X183131210Y-99400297D01*
X183133063Y-99400164D01*
X183167107Y-99417186D01*
X183174646Y-99425204D01*
X183191637Y-99429451D01*
X183194532Y-99430899D01*
X183204861Y-99432757D01*
X183336779Y-99465737D01*
X183386173Y-99490433D01*
X183400598Y-99504859D01*
X183419917Y-99543495D01*
X183419917Y-99571096D01*
X183400599Y-99609729D01*
X183386173Y-99624156D01*
X183347539Y-99643474D01*
X183204053Y-99643474D01*
X183096867Y-99607745D01*
X183055231Y-99606240D01*
X183007113Y-99634760D01*
X182982052Y-99684768D01*
X182988006Y-99740386D01*
X183023085Y-99783956D01*
X183147145Y-99825309D01*
X183160628Y-99833974D01*
X183186893Y-99833974D01*
X183213103Y-99834922D01*
X183214702Y-99833974D01*
X183364894Y-99833974D01*
X183387606Y-99836426D01*
X183405018Y-99827719D01*
X183423694Y-99822236D01*
X183429586Y-99815435D01*
X183474511Y-99792973D01*
X183490173Y-99789566D01*
X183508747Y-99770990D01*
X183527948Y-99753131D01*
X183528408Y-99751329D01*
X183537789Y-99741948D01*
X183551567Y-99733765D01*
X183563307Y-99710284D01*
X183575883Y-99687252D01*
X183575750Y-99685398D01*
X183598066Y-99640766D01*
X183610417Y-99621549D01*
X183610417Y-99602080D01*
X183613864Y-99582925D01*
X183610417Y-99574613D01*
X183610417Y-99526140D01*
X183612869Y-99503428D01*
X183604162Y-99486015D01*
X183598679Y-99467340D01*
X183591878Y-99461447D01*
X183569416Y-99416523D01*
X183566010Y-99400863D01*
X183547435Y-99382288D01*
X183529574Y-99363086D01*
X183527773Y-99362625D01*
X183518857Y-99353709D01*
X183743477Y-99353709D01*
X183746488Y-99360302D01*
X183746488Y-99752418D01*
X183758226Y-99792394D01*
X183800499Y-99829024D01*
X183855866Y-99836985D01*
X183906747Y-99813748D01*
X183936988Y-99766692D01*
X183936988Y-99434831D01*
X184181917Y-99434831D01*
X184181917Y-99752418D01*
X184193655Y-99792394D01*
X184235928Y-99829024D01*
X184291295Y-99836985D01*
X184342176Y-99813748D01*
X184372417Y-99766692D01*
X184372417Y-99346394D01*
X184375428Y-99325453D01*
X184372417Y-99318860D01*
X184372417Y-98963030D01*
X184360679Y-98923054D01*
X184318406Y-98886424D01*
X184263039Y-98878463D01*
X184212158Y-98901700D01*
X184181917Y-98948756D01*
X184181917Y-99244331D01*
X183936988Y-99244331D01*
X183936988Y-98963030D01*
X183925250Y-98923054D01*
X183882977Y-98886424D01*
X183827610Y-98878463D01*
X183776729Y-98901700D01*
X183746488Y-98948756D01*
X183746488Y-99332768D01*
X183743477Y-99353709D01*
X183518857Y-99353709D01*
X183518393Y-99353245D01*
X183510208Y-99339465D01*
X183486724Y-99327723D01*
X183463699Y-99315150D01*
X183461842Y-99315282D01*
X183427795Y-99298259D01*
X183420259Y-99290244D01*
X183403269Y-99285996D01*
X183400372Y-99284548D01*
X183390035Y-99282688D01*
X183258126Y-99249711D01*
X183208732Y-99225013D01*
X183194305Y-99210587D01*
X183174988Y-99171953D01*
X183174988Y-99144353D01*
X183194305Y-99105717D01*
X183208731Y-99091292D01*
X183247367Y-99071974D01*
X183390852Y-99071974D01*
X183498037Y-99107702D01*
X183539673Y-99109208D01*
X183587792Y-99080688D01*
X183612853Y-99030680D01*
X183606898Y-98975062D01*
X183571820Y-98931492D01*
X183447761Y-98890139D01*
X183434278Y-98881474D01*
X183408013Y-98881474D01*
X183381803Y-98880526D01*
X183380204Y-98881474D01*
X183230011Y-98881474D01*
X183207299Y-98879022D01*
X183189886Y-98887728D01*
X183171211Y-98893212D01*
X183165318Y-98900012D01*
X183120393Y-98922474D01*
X183104735Y-98925881D01*
X183086168Y-98944446D01*
X183066958Y-98962317D01*
X183066497Y-98964117D01*
X183057116Y-98973499D01*
X183043337Y-98981683D01*
X183031594Y-99005168D01*
X183019022Y-99028192D01*
X183019154Y-99030048D01*
X182996837Y-99074682D01*
X182984488Y-99093899D01*
X182984488Y-99113368D01*
X182981041Y-99132523D01*
X182760359Y-99132523D01*
X182703834Y-98962948D01*
X182704223Y-98952217D01*
X182695161Y-98936929D01*
X182694056Y-98933612D01*
X182688208Y-98925198D01*
X182675702Y-98904098D01*
X182672390Y-98902438D01*
X182670278Y-98899399D01*
X182647629Y-98890029D01*
X182625694Y-98879037D01*
X182622010Y-98879431D01*
X182618591Y-98878017D01*
X182594467Y-98882380D01*
X182570076Y-98884992D01*
X182567192Y-98887313D01*
X182563548Y-98887973D01*
X182545608Y-98904690D01*
X182526506Y-98920070D01*
X182525334Y-98923583D01*
X182522626Y-98926108D01*
X182516573Y-98949867D01*
X182342217Y-99472936D01*
X182336295Y-99479771D01*
X182333530Y-99498995D01*
X182276810Y-99669155D01*
X182236849Y-99643474D01*
X181941274Y-99643474D01*
X181941274Y-98963030D01*
X181929536Y-98923054D01*
X181887263Y-98886424D01*
X181831896Y-98878463D01*
X181781015Y-98901700D01*
X181750774Y-98948756D01*
X181750774Y-99731911D01*
X181747763Y-99752852D01*
X181288131Y-99752852D01*
X181288131Y-99434831D01*
X181460575Y-99434831D01*
X181500551Y-99423093D01*
X181537181Y-99380820D01*
X181545142Y-99325453D01*
X181521905Y-99274572D01*
X181474849Y-99244331D01*
X181288131Y-99244331D01*
X181288131Y-99071974D01*
X181569432Y-99071974D01*
X181609408Y-99060236D01*
X181646038Y-99017963D01*
X181653999Y-98962596D01*
X181630762Y-98911715D01*
X181583706Y-98881474D01*
X181199694Y-98881474D01*
X181178753Y-98878463D01*
X181159506Y-98887252D01*
X181139211Y-98893212D01*
X181134465Y-98898688D01*
X181127872Y-98901700D01*
X181116434Y-98919497D01*
X181102581Y-98935485D01*
X181101549Y-98942658D01*
X181097631Y-98948756D01*
X181097631Y-98969911D01*
X181094620Y-98990852D01*
X181097631Y-98997445D01*
X181097631Y-99332768D01*
X181094620Y-99353709D01*
X180468074Y-99353709D01*
X180468074Y-98963030D01*
X180456336Y-98923054D01*
X180414063Y-98886424D01*
X180358696Y-98878463D01*
X180307815Y-98901700D01*
X180277574Y-98948756D01*
X180277574Y-99752418D01*
X179706074Y-99752418D01*
X179706074Y-99471117D01*
X179895980Y-99471117D01*
X179918692Y-99473569D01*
X179936104Y-99464862D01*
X179954780Y-99459379D01*
X179960672Y-99452578D01*
X180005598Y-99430115D01*
X180021257Y-99426709D01*
X180039818Y-99408147D01*
X180059033Y-99390274D01*
X180059493Y-99388472D01*
X180068874Y-99379091D01*
X180082653Y-99370908D01*
X180094392Y-99347429D01*
X180106969Y-99324397D01*
X180106836Y-99322541D01*
X180129152Y-99277909D01*
X180141503Y-99258692D01*
X180141503Y-99239223D01*
X180144950Y-99220068D01*
X180141503Y-99211756D01*
X180141503Y-99126997D01*
X180143955Y-99104285D01*
X180135248Y-99086872D01*
X180129765Y-99068197D01*
X180122964Y-99062304D01*
X180100500Y-99017377D01*
X180097094Y-99001718D01*
X180078529Y-98983153D01*
X180060660Y-98963943D01*
X180058857Y-98963482D01*
X180049476Y-98954101D01*
X180041294Y-98940324D01*
X180017821Y-98928587D01*
X179994781Y-98916007D01*
X179992925Y-98916139D01*
X179948295Y-98893824D01*
X179929078Y-98881474D01*
X179909609Y-98881474D01*
X179890454Y-98878027D01*
X179882142Y-98881474D01*
X179617637Y-98881474D01*
X179596696Y-98878463D01*
X179577449Y-98887252D01*
X179557154Y-98893212D01*
X179552408Y-98898688D01*
X179545815Y-98901700D01*
X179534377Y-98919497D01*
X179520524Y-98935485D01*
X179519492Y-98942658D01*
X179515574Y-98948756D01*
X179515574Y-98969911D01*
X179512563Y-98990852D01*
X179515574Y-98997445D01*
X179515574Y-99369054D01*
X179512563Y-99389995D01*
X179324228Y-99389995D01*
X179316521Y-99382288D01*
X179298660Y-99363086D01*
X179296859Y-99362625D01*
X179287479Y-99353245D01*
X179279294Y-99339465D01*
X179255810Y-99327723D01*
X179232785Y-99315150D01*
X179230928Y-99315282D01*
X179196881Y-99298259D01*
X179189345Y-99290244D01*
X179172355Y-99285996D01*
X179169458Y-99284548D01*
X179159121Y-99282688D01*
X179027212Y-99249711D01*
X178977818Y-99225013D01*
X178963391Y-99210587D01*
X178944074Y-99171953D01*
X178944074Y-99144353D01*
X178963391Y-99105717D01*
X178977817Y-99091292D01*
X179016453Y-99071974D01*
X179159938Y-99071974D01*
X179267123Y-99107702D01*
X179308759Y-99109208D01*
X179356878Y-99080688D01*
X179381939Y-99030680D01*
X179375984Y-98975062D01*
X179340906Y-98931492D01*
X179216847Y-98890139D01*
X179203364Y-98881474D01*
X179177099Y-98881474D01*
X179150889Y-98880526D01*
X179149290Y-98881474D01*
X178999097Y-98881474D01*
X178976385Y-98879022D01*
X178958972Y-98887728D01*
X178940297Y-98893212D01*
X178934404Y-98900012D01*
X178889479Y-98922474D01*
X178873821Y-98925881D01*
X178855254Y-98944446D01*
X178836044Y-98962317D01*
X178835583Y-98964117D01*
X178826202Y-98973499D01*
X178812423Y-98981683D01*
X178800680Y-99005168D01*
X178788108Y-99028192D01*
X178788240Y-99030048D01*
X178765923Y-99074682D01*
X178753574Y-99093899D01*
X178753574Y-99113368D01*
X178750127Y-99132523D01*
X177584721Y-99132523D01*
X177584721Y-98445048D01*
X185577557Y-98445048D01*
X185577557Y-101706952D01*
G37*
D15*
G36*
X136107355Y-80602506D02*
G01*
X136156249Y-80633064D01*
X136176708Y-80656080D01*
X136200921Y-80707534D01*
X136200921Y-80890108D01*
X135964459Y-80860551D01*
X135964459Y-80686218D01*
X135990209Y-80612184D01*
X135995056Y-80607943D01*
X136034005Y-80593337D01*
X136107355Y-80602506D01*
G37*
G36*
X135654992Y-80587085D02*
G01*
X135703888Y-80617645D01*
X135724346Y-80640660D01*
X135747366Y-80689578D01*
X135747133Y-80694336D01*
X135748559Y-80696815D01*
X135748559Y-80833563D01*
X135553221Y-80809146D01*
X135553221Y-80643563D01*
X135572347Y-80607699D01*
X135583818Y-80597662D01*
X135622766Y-80583057D01*
X135654992Y-80587085D01*
G37*
G36*
X137140496Y-81799913D02*
G01*
X134842704Y-81799913D01*
X134842704Y-80906517D01*
X135332783Y-80906517D01*
X135341973Y-80935808D01*
X135350624Y-80965268D01*
X135351439Y-80965974D01*
X135351762Y-80967003D01*
X135375338Y-80986683D01*
X135398534Y-81006782D01*
X135399600Y-81006935D01*
X135400429Y-81007627D01*
X135430911Y-81011437D01*
X135461282Y-81015804D01*
X135462262Y-81015356D01*
X135842121Y-81062838D01*
X135872520Y-81067209D01*
X135873501Y-81066760D01*
X136294480Y-81119382D01*
X136324882Y-81123754D01*
X136340518Y-81116612D01*
X136357488Y-81113853D01*
X136368760Y-81103715D01*
X136382547Y-81097419D01*
X136391840Y-81082958D01*
X136404624Y-81071462D01*
X136408625Y-81056840D01*
X136416821Y-81044089D01*
X136416821Y-81026898D01*
X136421359Y-81010317D01*
X136416821Y-80995854D01*
X136416821Y-80690503D01*
X136420043Y-80666118D01*
X136410097Y-80644983D01*
X136403518Y-80622576D01*
X136396822Y-80616774D01*
X136372002Y-80564031D01*
X136369488Y-80547985D01*
X136348344Y-80524199D01*
X136327486Y-80500676D01*
X136327417Y-80500656D01*
X136317619Y-80489634D01*
X136310716Y-80475007D01*
X136207865Y-80410725D01*
X136189216Y-80395159D01*
X136165737Y-80392224D01*
X136142957Y-80385846D01*
X136134790Y-80388356D01*
X136039112Y-80376396D01*
X136012779Y-80370717D01*
X135993115Y-80378090D01*
X135972387Y-80381462D01*
X135963991Y-80389012D01*
X135911561Y-80408673D01*
X135891524Y-80411653D01*
X135870691Y-80429881D01*
X135848570Y-80446503D01*
X135847067Y-80450552D01*
X135845748Y-80451707D01*
X135755504Y-80395304D01*
X135736856Y-80379738D01*
X135713377Y-80376803D01*
X135690597Y-80370425D01*
X135682430Y-80372935D01*
X135627874Y-80366115D01*
X135601541Y-80360436D01*
X135581877Y-80367809D01*
X135561149Y-80371181D01*
X135552753Y-80378731D01*
X135500323Y-80398392D01*
X135480286Y-80401372D01*
X135459453Y-80419600D01*
X135437332Y-80436222D01*
X135435829Y-80440271D01*
X135423837Y-80450765D01*
X135406061Y-80460700D01*
X135393083Y-80485032D01*
X135378293Y-80508294D01*
X135378314Y-80512725D01*
X135352086Y-80561903D01*
X135337321Y-80584878D01*
X135337321Y-80605508D01*
X135333135Y-80625705D01*
X135337321Y-80636600D01*
X135337321Y-80889936D01*
X135332783Y-80906517D01*
X134842704Y-80906517D01*
X134842704Y-79934756D01*
X135334099Y-79934756D01*
X135344045Y-79955891D01*
X135350624Y-79978297D01*
X135357318Y-79984098D01*
X135382140Y-80036842D01*
X135384654Y-80052886D01*
X135405530Y-80076372D01*
X135426656Y-80100196D01*
X135426723Y-80100214D01*
X135436522Y-80111239D01*
X135443426Y-80125865D01*
X135457144Y-80134438D01*
X135457146Y-80134441D01*
X135474942Y-80145562D01*
X135546272Y-80190144D01*
X135564924Y-80205713D01*
X135588403Y-80208647D01*
X135611184Y-80215026D01*
X135619350Y-80212516D01*
X135673906Y-80219335D01*
X135700239Y-80225015D01*
X135719901Y-80217641D01*
X135740631Y-80214270D01*
X135749026Y-80206719D01*
X135801454Y-80187058D01*
X135821493Y-80184079D01*
X135842324Y-80165850D01*
X135864447Y-80149229D01*
X135865949Y-80145178D01*
X135877942Y-80134684D01*
X135895719Y-80124750D01*
X135908696Y-80100417D01*
X135923487Y-80077156D01*
X135923465Y-80072724D01*
X135943200Y-80035721D01*
X135953114Y-80026541D01*
X135957817Y-80008313D01*
X135959062Y-80005981D01*
X135961681Y-79993342D01*
X135998942Y-79848960D01*
X136024710Y-79800643D01*
X136036179Y-79790608D01*
X136075128Y-79776002D01*
X136107355Y-79780030D01*
X136156249Y-79810588D01*
X136176708Y-79833605D01*
X136200921Y-79885057D01*
X136200921Y-80048306D01*
X136160690Y-80163970D01*
X136158371Y-80211131D01*
X136189983Y-80266081D01*
X136246284Y-80295216D01*
X136309400Y-80289287D01*
X136359292Y-80250177D01*
X136406616Y-80114118D01*
X136416821Y-80098241D01*
X136416821Y-80069188D01*
X136418247Y-80040188D01*
X136416821Y-80037709D01*
X136416821Y-79868025D01*
X136420043Y-79843640D01*
X136410096Y-79822504D01*
X136403518Y-79800099D01*
X136396823Y-79794297D01*
X136372002Y-79741553D01*
X136369488Y-79725509D01*
X136348587Y-79701997D01*
X136327486Y-79678200D01*
X136327417Y-79678180D01*
X136317619Y-79667158D01*
X136310716Y-79652531D01*
X136207867Y-79588251D01*
X136189217Y-79572683D01*
X136165736Y-79569748D01*
X136142957Y-79563370D01*
X136134791Y-79565879D01*
X136080235Y-79559060D01*
X136053903Y-79553381D01*
X136034239Y-79560754D01*
X136013511Y-79564126D01*
X136005115Y-79571676D01*
X135952687Y-79591336D01*
X135932650Y-79594316D01*
X135911818Y-79612543D01*
X135889694Y-79629167D01*
X135888191Y-79633216D01*
X135876196Y-79643712D01*
X135858421Y-79653647D01*
X135845448Y-79677971D01*
X135830654Y-79701237D01*
X135830675Y-79705671D01*
X135810940Y-79742675D01*
X135801028Y-79751855D01*
X135796324Y-79770080D01*
X135795079Y-79772416D01*
X135792458Y-79785062D01*
X135755199Y-79929435D01*
X135729432Y-79977750D01*
X135717960Y-79987788D01*
X135679012Y-80002393D01*
X135646786Y-79998365D01*
X135597891Y-79967806D01*
X135577434Y-79944792D01*
X135553221Y-79893339D01*
X135553221Y-79730090D01*
X135593452Y-79614426D01*
X135595771Y-79567265D01*
X135564159Y-79512315D01*
X135507858Y-79483180D01*
X135444742Y-79489109D01*
X135394850Y-79528219D01*
X135347525Y-79664277D01*
X135337321Y-79680155D01*
X135337321Y-79709208D01*
X135335895Y-79738208D01*
X135337321Y-79740687D01*
X135337321Y-79910371D01*
X135334099Y-79934756D01*
X134842704Y-79934756D01*
X134842704Y-79346719D01*
X135332874Y-79346719D01*
X135353410Y-79406694D01*
X135403112Y-79446046D01*
X135466198Y-79452281D01*
X135917204Y-79221652D01*
X136310881Y-79270862D01*
X136357487Y-79263282D01*
X136404623Y-79220891D01*
X136421359Y-79159746D01*
X136402379Y-79099260D01*
X136353712Y-79058636D01*
X135940976Y-79007044D01*
X135939793Y-79006107D01*
X135938690Y-79005998D01*
X135498316Y-78670713D01*
X135454210Y-78653853D01*
X135392157Y-78666824D01*
X135346968Y-78711283D01*
X135332989Y-78773117D01*
X135354659Y-78832692D01*
X135695765Y-79092398D01*
X135382304Y-79252690D01*
X135348023Y-79285162D01*
X135332874Y-79346719D01*
X134842704Y-79346719D01*
X134842704Y-78112136D01*
X137140496Y-78112136D01*
X137140496Y-81799913D01*
G37*
D16*
G36*
X203695933Y-90203520D02*
G01*
X203685543Y-90189776D01*
X203676539Y-90175837D01*
X203668920Y-90161703D01*
X203662686Y-90147375D01*
X203657837Y-90132852D01*
X203654374Y-90118134D01*
X203652296Y-90103222D01*
X203651603Y-90088115D01*
X203652943Y-90067884D01*
X203656961Y-90049643D01*
X203663659Y-90033391D01*
X203673035Y-90019130D01*
X203685091Y-90006859D01*
X203699826Y-89996577D01*
X203717240Y-89988286D01*
X203737332Y-89981984D01*
X203752216Y-89978889D01*
X203768290Y-89976678D01*
X203785555Y-89975351D01*
X203804011Y-89974909D01*
X203826505Y-89975102D01*
X203848100Y-89975682D01*
X203868797Y-89976648D01*
X203888595Y-89978000D01*
X203907494Y-89979739D01*
X203925495Y-89981864D01*
X203942597Y-89984376D01*
X203958800Y-89987274D01*
X203974104Y-89990558D01*
X203988509Y-89994229D01*
X204008433Y-90000459D01*
X204026334Y-90007560D01*
X204042213Y-90015529D01*
X204056069Y-90024368D01*
X204068313Y-90033938D01*
X204079352Y-90044100D01*
X204092198Y-90058571D01*
X204102902Y-90074096D01*
X204111466Y-90090674D01*
X204117889Y-90108305D01*
X204122171Y-90126990D01*
X204123977Y-90141695D01*
X204124579Y-90156992D01*
X204123726Y-90174194D01*
X204121166Y-90190218D01*
X204116900Y-90205063D01*
X204110927Y-90218730D01*
X204103247Y-90231218D01*
X204093861Y-90242528D01*
X204082768Y-90252659D01*
X204069968Y-90261612D01*
X204055462Y-90269386D01*
X204039249Y-90275982D01*
X204027493Y-90279724D01*
X204011857Y-90284537D01*
X203996805Y-90290510D01*
X203983810Y-90297808D01*
X203973271Y-90308667D01*
X203968248Y-90323908D01*
X203965838Y-90340452D01*
X203964676Y-90355232D01*
X203963978Y-90372481D01*
X203963755Y-90388057D01*
X203963745Y-90392198D01*
X203964835Y-90412120D01*
X203968102Y-90432778D01*
X203973547Y-90454172D01*
X203981171Y-90476301D01*
X203990972Y-90499166D01*
X204002952Y-90522766D01*
X204017110Y-90547103D01*
X204025006Y-90559546D01*
X204033446Y-90572174D01*
X204042431Y-90584986D01*
X204051961Y-90597981D01*
X204062035Y-90611161D01*
X204072653Y-90624524D01*
X204083816Y-90638071D01*
X204095524Y-90651803D01*
X204107776Y-90665718D01*
X204120572Y-90679817D01*
X204133913Y-90694099D01*
X204147799Y-90708566D01*
X204162229Y-90723217D01*
X204177204Y-90738051D01*
X204192724Y-90753070D01*
X204208787Y-90768272D01*
X204225396Y-90783658D01*
X204242549Y-90799228D01*
X204259882Y-90814623D01*
X204277077Y-90829529D01*
X204294134Y-90843947D01*
X204311053Y-90857875D01*
X204327834Y-90871315D01*
X204344477Y-90884266D01*
X204360981Y-90896729D01*
X204377348Y-90908703D01*
X204393576Y-90920188D01*
X204409667Y-90931184D01*
X204425619Y-90941691D01*
X204441433Y-90951710D01*
X204457109Y-90961240D01*
X204472647Y-90970282D01*
X204488047Y-90978835D01*
X204503308Y-90986898D01*
X204518432Y-90994474D01*
X204533418Y-91001560D01*
X204548265Y-91008158D01*
X204562974Y-91014267D01*
X204577546Y-91019887D01*
X204591979Y-91025019D01*
X204606274Y-91029662D01*
X204620431Y-91033816D01*
X204648330Y-91040658D01*
X204675677Y-91045545D01*
X204702472Y-91048478D01*
X204728714Y-91049455D01*
X204745397Y-91048927D01*
X204761648Y-91047343D01*
X204777468Y-91044702D01*
X204792856Y-91041006D01*
X204807813Y-91036253D01*
X204822339Y-91030444D01*
X204836433Y-91023579D01*
X204850095Y-91015658D01*
X204863326Y-91006681D01*
X204876126Y-90996647D01*
X204884419Y-90989371D01*
X204896073Y-90977725D01*
X204906581Y-90965453D01*
X204915943Y-90952557D01*
X204924158Y-90939036D01*
X204931227Y-90924891D01*
X204937150Y-90910121D01*
X204941926Y-90894726D01*
X204945556Y-90878707D01*
X204948040Y-90862062D01*
X204949377Y-90844794D01*
X204949632Y-90832934D01*
X204949374Y-90816835D01*
X204948601Y-90800961D01*
X204947313Y-90785313D01*
X204945510Y-90769891D01*
X204943192Y-90754693D01*
X204940358Y-90739721D01*
X204937009Y-90724975D01*
X204933145Y-90710454D01*
X204928766Y-90696158D01*
X204923872Y-90682088D01*
X204920323Y-90672833D01*
X204914225Y-90658314D01*
X204906923Y-90642372D01*
X204898417Y-90625006D01*
X204888707Y-90606217D01*
X204881564Y-90592901D01*
X204873886Y-90578952D01*
X204865673Y-90564370D01*
X204856924Y-90549156D01*
X204847641Y-90533309D01*
X204837822Y-90516830D01*
X204827468Y-90499718D01*
X204816579Y-90481974D01*
X204805154Y-90463597D01*
X204793194Y-90444588D01*
X204783439Y-90428392D01*
X204774643Y-90413053D01*
X204766806Y-90398571D01*
X204759929Y-90384945D01*
X204752253Y-90368109D01*
X204746282Y-90352796D01*
X204741218Y-90335797D01*
X204738819Y-90321176D01*
X204738606Y-90315994D01*
X204739474Y-90299093D01*
X204742076Y-90283193D01*
X204746414Y-90268295D01*
X204752488Y-90254399D01*
X204760296Y-90241505D01*
X204769840Y-90229612D01*
X204774143Y-90225136D01*
X204785590Y-90215003D01*
X204797950Y-90206588D01*
X204811222Y-90199891D01*
X204825406Y-90194911D01*
X204840502Y-90191648D01*
X204856511Y-90190102D01*
X204863170Y-90189965D01*
X204879177Y-90190877D01*
X204894683Y-90193614D01*
X204909688Y-90198176D01*
X204924192Y-90204562D01*
X204938196Y-90212773D01*
X204951698Y-90222809D01*
X204956959Y-90227334D01*
X204967858Y-90237941D01*
X204979857Y-90251262D01*
X204989577Y-90263033D01*
X204999915Y-90276331D01*
X205010872Y-90291154D01*
X205022447Y-90307505D01*
X205034640Y-90325381D01*
X205043112Y-90338146D01*
X205051859Y-90351590D01*
X205060881Y-90365712D01*
X205070177Y-90380513D01*
X205074928Y-90388168D01*
X205084312Y-90403599D01*
X205093413Y-90419028D01*
X205102230Y-90434454D01*
X205110763Y-90449877D01*
X205119014Y-90465297D01*
X205126981Y-90480715D01*
X205134664Y-90496129D01*
X205142065Y-90511541D01*
X205149181Y-90526950D01*
X205156015Y-90542356D01*
X205162565Y-90557759D01*
X205168832Y-90573159D01*
X205174816Y-90588556D01*
X205180516Y-90603951D01*
X205185932Y-90619342D01*
X205191066Y-90634731D01*
X205195902Y-90650104D01*
X205200425Y-90665448D01*
X205204637Y-90680764D01*
X205208537Y-90696051D01*
X205212125Y-90711310D01*
X205215400Y-90726539D01*
X205218364Y-90741741D01*
X205221016Y-90756913D01*
X205223356Y-90772057D01*
X205225384Y-90787173D01*
X205227100Y-90802259D01*
X205228504Y-90817318D01*
X205229596Y-90832347D01*
X205230376Y-90847348D01*
X205230844Y-90862320D01*
X205231000Y-90877264D01*
X205230469Y-90903227D01*
X205228876Y-90928544D01*
X205226221Y-90953213D01*
X205222504Y-90977236D01*
X205217726Y-91000611D01*
X205211886Y-91023340D01*
X205204983Y-91045422D01*
X205197019Y-91066857D01*
X205187993Y-91087646D01*
X205177905Y-91107787D01*
X205166756Y-91127282D01*
X205154544Y-91146130D01*
X205141270Y-91164330D01*
X205126935Y-91181884D01*
X205111538Y-91198792D01*
X205095078Y-91215052D01*
X205077854Y-91230446D01*
X205060251Y-91244848D01*
X205042270Y-91258256D01*
X205023912Y-91270671D01*
X205005176Y-91282092D01*
X204986062Y-91292521D01*
X204966570Y-91301956D01*
X204946701Y-91310398D01*
X204926453Y-91317847D01*
X204905828Y-91324303D01*
X204884825Y-91329765D01*
X204863445Y-91334235D01*
X204841686Y-91337711D01*
X204819550Y-91340194D01*
X204797035Y-91341684D01*
X204774143Y-91342180D01*
X204753531Y-91341843D01*
X204732817Y-91340832D01*
X204712003Y-91339147D01*
X204691087Y-91336788D01*
X204670071Y-91333755D01*
X204648954Y-91330047D01*
X204627736Y-91325666D01*
X204606417Y-91320611D01*
X204584997Y-91314881D01*
X204563477Y-91308478D01*
X204541855Y-91301400D01*
X204520133Y-91293648D01*
X204498309Y-91285223D01*
X204476385Y-91276123D01*
X204454360Y-91266349D01*
X204432234Y-91255901D01*
X204410007Y-91244780D01*
X204387679Y-91232984D01*
X204365250Y-91220514D01*
X204342721Y-91207370D01*
X204320090Y-91193552D01*
X204297359Y-91179059D01*
X204274527Y-91163893D01*
X204251593Y-91148053D01*
X204228559Y-91131539D01*
X204205424Y-91114350D01*
X204182188Y-91096488D01*
X204158852Y-91077951D01*
X204135414Y-91058741D01*
X204111875Y-91038856D01*
X204088236Y-91018298D01*
X204064496Y-90997065D01*
X204041054Y-90975513D01*
X204018357Y-90954043D01*
X203996403Y-90932654D01*
X203975194Y-90911347D01*
X203954729Y-90890122D01*
X203935009Y-90868978D01*
X203916032Y-90847915D01*
X203897800Y-90826935D01*
X203880312Y-90806035D01*
X203863568Y-90785218D01*
X203847568Y-90764482D01*
X203832312Y-90743827D01*
X203817801Y-90723254D01*
X203804034Y-90702763D01*
X203791010Y-90682353D01*
X203778732Y-90662025D01*
X203767197Y-90641778D01*
X203756406Y-90621613D01*
X203746360Y-90601530D01*
X203737058Y-90581528D01*
X203728500Y-90561608D01*
X203720686Y-90541769D01*
X203713616Y-90522012D01*
X203707290Y-90502336D01*
X203701709Y-90482742D01*
X203696872Y-90463229D01*
X203692779Y-90443799D01*
X203689430Y-90424449D01*
X203686826Y-90405181D01*
X203684965Y-90385995D01*
X203683849Y-90366891D01*
X203683477Y-90347868D01*
X203683586Y-90330849D01*
X203683915Y-90314551D01*
X203684462Y-90298975D01*
X203685228Y-90284120D01*
X203686591Y-90265436D01*
X203688343Y-90248033D01*
X203690484Y-90231913D01*
X203693014Y-90217076D01*
X203695933Y-90203520D01*
G37*
G36*
X205062472Y-89691343D02*
G01*
X205085719Y-89695625D01*
X205107466Y-89700777D01*
X205127713Y-89706799D01*
X205146461Y-89713691D01*
X205163709Y-89721453D01*
X205179457Y-89730086D01*
X205193705Y-89739588D01*
X205206453Y-89749961D01*
X205217702Y-89761204D01*
X205227450Y-89773317D01*
X205235699Y-89786300D01*
X205242448Y-89800153D01*
X205247698Y-89814876D01*
X205251447Y-89830470D01*
X205253697Y-89846933D01*
X205254447Y-89864267D01*
X205253863Y-89879070D01*
X205251491Y-89896447D01*
X205247294Y-89912572D01*
X205241273Y-89927445D01*
X205233427Y-89941066D01*
X205223756Y-89953434D01*
X205217078Y-89960254D01*
X205204809Y-89970127D01*
X205191361Y-89977764D01*
X205176731Y-89983164D01*
X205160921Y-89986329D01*
X205143930Y-89987257D01*
X205125759Y-89985950D01*
X205118159Y-89984801D01*
X203719747Y-89758387D01*
X203702089Y-89754454D01*
X203685522Y-89748606D01*
X203670046Y-89740844D01*
X203655662Y-89731168D01*
X203642369Y-89719578D01*
X203630167Y-89706073D01*
X203625591Y-89700136D01*
X203617176Y-89687714D01*
X203609883Y-89674994D01*
X203602345Y-89658676D01*
X203596560Y-89641892D01*
X203592528Y-89624644D01*
X203590249Y-89606930D01*
X203589688Y-89592424D01*
X203590266Y-89577409D01*
X203592615Y-89559944D01*
X203596770Y-89543928D01*
X203602732Y-89529362D01*
X203610502Y-89516244D01*
X203620078Y-89504575D01*
X203626690Y-89498269D01*
X203638622Y-89489072D01*
X203651520Y-89481861D01*
X203665384Y-89476636D01*
X203680214Y-89473396D01*
X203696010Y-89472142D01*
X203712772Y-89472874D01*
X203719747Y-89473722D01*
X205062472Y-89691343D01*
G37*
G36*
X204586560Y-88440015D02*
G01*
X204603309Y-88440534D01*
X204619957Y-88441398D01*
X204636505Y-88442607D01*
X204652953Y-88444163D01*
X204669300Y-88446064D01*
X204685548Y-88448310D01*
X204701695Y-88450902D01*
X204717742Y-88453840D01*
X204733689Y-88457123D01*
X204749535Y-88460752D01*
X204765282Y-88464727D01*
X204780928Y-88469047D01*
X204796474Y-88473713D01*
X204811920Y-88478724D01*
X204827266Y-88484081D01*
X204842512Y-88489784D01*
X204857657Y-88495832D01*
X204872702Y-88502226D01*
X204887647Y-88508965D01*
X204902492Y-88516050D01*
X204917237Y-88523481D01*
X204931882Y-88531257D01*
X204946426Y-88539379D01*
X204960870Y-88547847D01*
X204975214Y-88556660D01*
X204989458Y-88565818D01*
X205003602Y-88575323D01*
X205017645Y-88585173D01*
X205031589Y-88595368D01*
X205045432Y-88605910D01*
X205059175Y-88616796D01*
X205072631Y-88627918D01*
X205085660Y-88639210D01*
X205098262Y-88650673D01*
X205110437Y-88662306D01*
X205122185Y-88674109D01*
X205133505Y-88686082D01*
X205144398Y-88698226D01*
X205154864Y-88710540D01*
X205164903Y-88723024D01*
X205174515Y-88735679D01*
X205183700Y-88748504D01*
X205192457Y-88761499D01*
X205200787Y-88774664D01*
X205208690Y-88788000D01*
X205216166Y-88801506D01*
X205223214Y-88815183D01*
X205229836Y-88829029D01*
X205236030Y-88843046D01*
X205241797Y-88857234D01*
X205247137Y-88871591D01*
X205252049Y-88886119D01*
X205256535Y-88900817D01*
X205260593Y-88915686D01*
X205264224Y-88930725D01*
X205267428Y-88945934D01*
X205270205Y-88961313D01*
X205272554Y-88976863D01*
X205274477Y-88992583D01*
X205275972Y-89008473D01*
X205277040Y-89024534D01*
X205277681Y-89040765D01*
X205277894Y-89057166D01*
X205277426Y-89079796D01*
X205276022Y-89101891D01*
X205273682Y-89123451D01*
X205270407Y-89144475D01*
X205266195Y-89164965D01*
X205261047Y-89184919D01*
X205254963Y-89204337D01*
X205247944Y-89223221D01*
X205239988Y-89241569D01*
X205231097Y-89259382D01*
X205221269Y-89276660D01*
X205210506Y-89293403D01*
X205198807Y-89309610D01*
X205186171Y-89325282D01*
X205172600Y-89340419D01*
X205158093Y-89355020D01*
X205142872Y-89368862D01*
X205127158Y-89381811D01*
X205110952Y-89393866D01*
X205094254Y-89405029D01*
X205077064Y-89415299D01*
X205059381Y-89424675D01*
X205041206Y-89433159D01*
X205022538Y-89440750D01*
X205003379Y-89447447D01*
X204983727Y-89453252D01*
X204963582Y-89458163D01*
X204942946Y-89462182D01*
X204921817Y-89465308D01*
X204900195Y-89467540D01*
X204878082Y-89468880D01*
X204855476Y-89469326D01*
X204839458Y-89469144D01*
X204823505Y-89468596D01*
X204807618Y-89467684D01*
X204791797Y-89466407D01*
X204776042Y-89464764D01*
X204760353Y-89462757D01*
X204744730Y-89460385D01*
X204729172Y-89457648D01*
X204713680Y-89454546D01*
X204698254Y-89451079D01*
X204682894Y-89447248D01*
X204667600Y-89443051D01*
X204652371Y-89438489D01*
X204637209Y-89433563D01*
X204622112Y-89428271D01*
X204607081Y-89422615D01*
X204592116Y-89416593D01*
X204577217Y-89410207D01*
X204562383Y-89403456D01*
X204547616Y-89396339D01*
X204532914Y-89388858D01*
X204518278Y-89381012D01*
X204503708Y-89372801D01*
X204489203Y-89364225D01*
X204474765Y-89355284D01*
X204460392Y-89345979D01*
X204446086Y-89336308D01*
X204431845Y-89326272D01*
X204417669Y-89315872D01*
X204403560Y-89305106D01*
X204389517Y-89293976D01*
X204375539Y-89282480D01*
X204361812Y-89270675D01*
X204348521Y-89258662D01*
X204335666Y-89246441D01*
X204323246Y-89234011D01*
X204311262Y-89221374D01*
X204299714Y-89208528D01*
X204288602Y-89195473D01*
X204277926Y-89182211D01*
X204267685Y-89168740D01*
X204257880Y-89155061D01*
X204248511Y-89141174D01*
X204239578Y-89127079D01*
X204231080Y-89112775D01*
X204223018Y-89098263D01*
X204215392Y-89083543D01*
X204208202Y-89068615D01*
X204201448Y-89053479D01*
X204195129Y-89038134D01*
X204189246Y-89022581D01*
X204183799Y-89006820D01*
X204178787Y-88990850D01*
X204174212Y-88974673D01*
X204170072Y-88958287D01*
X204166368Y-88941693D01*
X204163100Y-88924891D01*
X204160267Y-88907880D01*
X204157870Y-88890661D01*
X204155909Y-88873234D01*
X204154865Y-88861161D01*
X204424632Y-88861161D01*
X204425143Y-88878023D01*
X204426675Y-88894535D01*
X204429230Y-88910698D01*
X204432806Y-88926512D01*
X204437404Y-88941976D01*
X204443024Y-88957092D01*
X204449666Y-88971858D01*
X204457330Y-88986275D01*
X204466015Y-89000343D01*
X204475722Y-89014061D01*
X204486451Y-89027431D01*
X204498202Y-89040451D01*
X204510975Y-89053122D01*
X204524769Y-89065444D01*
X204539586Y-89077416D01*
X204555424Y-89089040D01*
X204571718Y-89100131D01*
X204587996Y-89110507D01*
X204604256Y-89120167D01*
X204620499Y-89129111D01*
X204636725Y-89137340D01*
X204652934Y-89144853D01*
X204669126Y-89151651D01*
X204685300Y-89157733D01*
X204701457Y-89163100D01*
X204717597Y-89167751D01*
X204733720Y-89171687D01*
X204749826Y-89174907D01*
X204765914Y-89177411D01*
X204781986Y-89179200D01*
X204798040Y-89180273D01*
X204814077Y-89180631D01*
X204830120Y-89180258D01*
X204845551Y-89179137D01*
X204860371Y-89177269D01*
X204879179Y-89173617D01*
X204896899Y-89168637D01*
X204913531Y-89162329D01*
X204929076Y-89154692D01*
X204943533Y-89145728D01*
X204953662Y-89138133D01*
X204965855Y-89126827D01*
X204976422Y-89114342D01*
X204985364Y-89100678D01*
X204992680Y-89085834D01*
X204998370Y-89069812D01*
X205002434Y-89052610D01*
X205004873Y-89034228D01*
X205005685Y-89014668D01*
X205005248Y-88998166D01*
X205003934Y-88982090D01*
X205001744Y-88966441D01*
X204998679Y-88951218D01*
X204994737Y-88936422D01*
X204989920Y-88922052D01*
X204984227Y-88908109D01*
X204977659Y-88894592D01*
X204970214Y-88881502D01*
X204961893Y-88868838D01*
X204952697Y-88856600D01*
X204942625Y-88844789D01*
X204931677Y-88833405D01*
X204919853Y-88822447D01*
X204907154Y-88811915D01*
X204893578Y-88801810D01*
X204879270Y-88792183D01*
X204864463Y-88783177D01*
X204849159Y-88774792D01*
X204833357Y-88767029D01*
X204817057Y-88759886D01*
X204800258Y-88753364D01*
X204782962Y-88747464D01*
X204765167Y-88742185D01*
X204746875Y-88737526D01*
X204728084Y-88733489D01*
X204708796Y-88730073D01*
X204689009Y-88727278D01*
X204668725Y-88725104D01*
X204647942Y-88723552D01*
X204626662Y-88722620D01*
X204604883Y-88722309D01*
X204583056Y-88722852D01*
X204562637Y-88724479D01*
X204543626Y-88727191D01*
X204526023Y-88730988D01*
X204509829Y-88735869D01*
X204495042Y-88741835D01*
X204481664Y-88748886D01*
X204464238Y-88761497D01*
X204449980Y-88776548D01*
X204438890Y-88794041D01*
X204430969Y-88813973D01*
X204427448Y-88828618D01*
X204425336Y-88844347D01*
X204424632Y-88861161D01*
X204154865Y-88861161D01*
X204154384Y-88855599D01*
X204153295Y-88837756D01*
X204152641Y-88819704D01*
X204152423Y-88801444D01*
X204152871Y-88780616D01*
X204154215Y-88760354D01*
X204156455Y-88740659D01*
X204159590Y-88721531D01*
X204163622Y-88702969D01*
X204168549Y-88684975D01*
X204174372Y-88667546D01*
X204181091Y-88650685D01*
X204188706Y-88634391D01*
X204197217Y-88618663D01*
X204206624Y-88603501D01*
X204216926Y-88588907D01*
X204228125Y-88574879D01*
X204240219Y-88561418D01*
X204253209Y-88548524D01*
X204267095Y-88536196D01*
X204281715Y-88524528D01*
X204296908Y-88513613D01*
X204312673Y-88503451D01*
X204329011Y-88494042D01*
X204345921Y-88485385D01*
X204363403Y-88477481D01*
X204381458Y-88470329D01*
X204400085Y-88463931D01*
X204419285Y-88458285D01*
X204439057Y-88453392D01*
X204459402Y-88449252D01*
X204480319Y-88445865D01*
X204501809Y-88443230D01*
X204523871Y-88441348D01*
X204546505Y-88440219D01*
X204569712Y-88439842D01*
X204586560Y-88440015D01*
G37*
G36*
X204259401Y-87934993D02*
G01*
X204240768Y-87913271D01*
X204223337Y-87891613D01*
X204207109Y-87870017D01*
X204192082Y-87848485D01*
X204178257Y-87827015D01*
X204165635Y-87805609D01*
X204154215Y-87784265D01*
X204143997Y-87762984D01*
X204134981Y-87741767D01*
X204127167Y-87720612D01*
X204120555Y-87699520D01*
X204115146Y-87678492D01*
X204110938Y-87657526D01*
X204107933Y-87636623D01*
X204106130Y-87615783D01*
X204105528Y-87595006D01*
X204105819Y-87579026D01*
X204106691Y-87563552D01*
X204108143Y-87548586D01*
X204112791Y-87520176D01*
X204119764Y-87493794D01*
X204129060Y-87469443D01*
X204140681Y-87447120D01*
X204154626Y-87426827D01*
X204170894Y-87408563D01*
X204189487Y-87392329D01*
X204210405Y-87378123D01*
X204233646Y-87365948D01*
X204259211Y-87355801D01*
X204287101Y-87347684D01*
X204301917Y-87344386D01*
X204317314Y-87341596D01*
X204333293Y-87339313D01*
X204349852Y-87337537D01*
X204366992Y-87336269D01*
X204384714Y-87335508D01*
X204403016Y-87335254D01*
X204418442Y-87335409D01*
X204434358Y-87335872D01*
X204450762Y-87336645D01*
X204467657Y-87337727D01*
X204485040Y-87339118D01*
X204502913Y-87340818D01*
X204521276Y-87342828D01*
X204540128Y-87345146D01*
X204559470Y-87347774D01*
X204579300Y-87350710D01*
X204592793Y-87352840D01*
X204666432Y-87365296D01*
X204685530Y-87368402D01*
X204704357Y-87371307D01*
X204722911Y-87374012D01*
X204741193Y-87376516D01*
X204759204Y-87378820D01*
X204776943Y-87380924D01*
X204794409Y-87382827D01*
X204811604Y-87384530D01*
X204828527Y-87386033D01*
X204845178Y-87387335D01*
X204861557Y-87388437D01*
X204877664Y-87389339D01*
X204893499Y-87390040D01*
X204909063Y-87390541D01*
X204924354Y-87390841D01*
X204939374Y-87390942D01*
X204956500Y-87390970D01*
X204972982Y-87391056D01*
X204988820Y-87391199D01*
X205004014Y-87391400D01*
X205025598Y-87391807D01*
X205045732Y-87392344D01*
X205064418Y-87393010D01*
X205081655Y-87393804D01*
X205097442Y-87394727D01*
X205116238Y-87396158D01*
X205132459Y-87397818D01*
X205136111Y-87398269D01*
X205153508Y-87401498D01*
X205170207Y-87406605D01*
X205186209Y-87413591D01*
X205201513Y-87422455D01*
X205216119Y-87433197D01*
X205227302Y-87443143D01*
X205235396Y-87451392D01*
X205245356Y-87463121D01*
X205253989Y-87475411D01*
X205261293Y-87488263D01*
X205267270Y-87501675D01*
X205271918Y-87515649D01*
X205275238Y-87530183D01*
X205277230Y-87545278D01*
X205277894Y-87560935D01*
X205277433Y-87575797D01*
X205275014Y-87596292D01*
X205270521Y-87614630D01*
X205263954Y-87630810D01*
X205255314Y-87644833D01*
X205244600Y-87656699D01*
X205231812Y-87666407D01*
X205216951Y-87673958D01*
X205200016Y-87679352D01*
X205181007Y-87682588D01*
X205159925Y-87683667D01*
X205143871Y-87683652D01*
X205128085Y-87683607D01*
X205112569Y-87683531D01*
X205097322Y-87683426D01*
X205082344Y-87683291D01*
X205067635Y-87683126D01*
X205039025Y-87682705D01*
X205011490Y-87682164D01*
X204985032Y-87681503D01*
X204959650Y-87680721D01*
X204935344Y-87679820D01*
X204912114Y-87678798D01*
X204889960Y-87677656D01*
X204868883Y-87676394D01*
X204848882Y-87675011D01*
X204829957Y-87673509D01*
X204812108Y-87671886D01*
X204795335Y-87670143D01*
X204779639Y-87668279D01*
X204764330Y-87666274D01*
X204748813Y-87664106D01*
X204733086Y-87661775D01*
X204717151Y-87659281D01*
X204701006Y-87656623D01*
X204684653Y-87653802D01*
X204668091Y-87650818D01*
X204651320Y-87647671D01*
X204634340Y-87644361D01*
X204617150Y-87640888D01*
X204599752Y-87637251D01*
X204582145Y-87633452D01*
X204564330Y-87629489D01*
X204546305Y-87625363D01*
X204528071Y-87621074D01*
X204509628Y-87616622D01*
X204492485Y-87612506D01*
X204477006Y-87609087D01*
X204460627Y-87605906D01*
X204444546Y-87603464D01*
X204428662Y-87602334D01*
X204413886Y-87603183D01*
X204399460Y-87606446D01*
X204385836Y-87614604D01*
X204378172Y-87628981D01*
X204377371Y-87637138D01*
X204378411Y-87655654D01*
X204381531Y-87674383D01*
X204386731Y-87693324D01*
X204394012Y-87712478D01*
X204403372Y-87731844D01*
X204410768Y-87744873D01*
X204419089Y-87757996D01*
X204428334Y-87771214D01*
X204438503Y-87784526D01*
X204449597Y-87797933D01*
X204461616Y-87811434D01*
X204474559Y-87825029D01*
X204488426Y-87838719D01*
X204495706Y-87845600D01*
X204510520Y-87859129D01*
X204525376Y-87872241D01*
X204540275Y-87884935D01*
X204555218Y-87897211D01*
X204570203Y-87909069D01*
X204585231Y-87920510D01*
X204600302Y-87931532D01*
X204615416Y-87942137D01*
X204630573Y-87952323D01*
X204645773Y-87962092D01*
X204661015Y-87971443D01*
X204676301Y-87980376D01*
X204691630Y-87988891D01*
X204707001Y-87996988D01*
X204722416Y-88004668D01*
X204737873Y-88011929D01*
X204753568Y-88018765D01*
X204769787Y-88025261D01*
X204786530Y-88031416D01*
X204803796Y-88037231D01*
X204821586Y-88042705D01*
X204839900Y-88047838D01*
X204858738Y-88052631D01*
X204878099Y-88057083D01*
X204897984Y-88061195D01*
X204918393Y-88064966D01*
X204939326Y-88068396D01*
X204960783Y-88071486D01*
X204982763Y-88074235D01*
X205005268Y-88076644D01*
X205028296Y-88078712D01*
X205051847Y-88080439D01*
X205068463Y-88081269D01*
X205084099Y-88082247D01*
X205098756Y-88083373D01*
X205116777Y-88085104D01*
X205133057Y-88087099D01*
X205147597Y-88089357D01*
X205163325Y-88092551D01*
X205178609Y-88096926D01*
X205193839Y-88103635D01*
X205206642Y-88111646D01*
X205219213Y-88121744D01*
X205231552Y-88133929D01*
X205241657Y-88145676D01*
X205245654Y-88150781D01*
X205254942Y-88164253D01*
X205262656Y-88178566D01*
X205268795Y-88193720D01*
X205273360Y-88209714D01*
X205276351Y-88226549D01*
X205277768Y-88244225D01*
X205277894Y-88251531D01*
X205277143Y-88267782D01*
X205274889Y-88283102D01*
X205271132Y-88297491D01*
X205264641Y-88313531D01*
X205255985Y-88328232D01*
X205247120Y-88339459D01*
X205234961Y-88351162D01*
X205221566Y-88360444D01*
X205206934Y-88367305D01*
X205191066Y-88371745D01*
X205173961Y-88373762D01*
X205167985Y-88373897D01*
X205056976Y-88365837D01*
X205042348Y-88364592D01*
X205026671Y-88362963D01*
X205009947Y-88360951D01*
X204992176Y-88358555D01*
X204973357Y-88355776D01*
X204953490Y-88352613D01*
X204932576Y-88349067D01*
X204910614Y-88345137D01*
X204887605Y-88340824D01*
X204863548Y-88336127D01*
X204838443Y-88331047D01*
X204812291Y-88325583D01*
X204785091Y-88319735D01*
X204756844Y-88313504D01*
X204742328Y-88310245D01*
X204727549Y-88306889D01*
X204712509Y-88303438D01*
X204697207Y-88299891D01*
X204669270Y-88293115D01*
X204642430Y-88286708D01*
X204616685Y-88280670D01*
X204592037Y-88275001D01*
X204568486Y-88269702D01*
X204546030Y-88264772D01*
X204524671Y-88260211D01*
X204504408Y-88256019D01*
X204485241Y-88252197D01*
X204467170Y-88248743D01*
X204450196Y-88245659D01*
X204434317Y-88242945D01*
X204419536Y-88240599D01*
X204399418Y-88237773D01*
X204381767Y-88235778D01*
X204364097Y-88234260D01*
X204347219Y-88232729D01*
X204331133Y-88231186D01*
X204315839Y-88229630D01*
X204296679Y-88227534D01*
X204278928Y-88225416D01*
X204262584Y-88223275D01*
X204247649Y-88221112D01*
X204234122Y-88218925D01*
X204218301Y-88215247D01*
X204203124Y-88209708D01*
X204188592Y-88202310D01*
X204174703Y-88193050D01*
X204161458Y-88181931D01*
X204148857Y-88168950D01*
X204143997Y-88163237D01*
X204134981Y-88151268D01*
X204127167Y-88138806D01*
X204119090Y-88122536D01*
X204112892Y-88105496D01*
X204108571Y-88087688D01*
X204106468Y-88072888D01*
X204105566Y-88057595D01*
X204105528Y-88053695D01*
X204106087Y-88037517D01*
X204107761Y-88022508D01*
X204112366Y-88002183D01*
X204119482Y-87984486D01*
X204129110Y-87969416D01*
X204141249Y-87956974D01*
X204155900Y-87947160D01*
X204173063Y-87939973D01*
X204192737Y-87935413D01*
X204214923Y-87933481D01*
X204231108Y-87933653D01*
X204248411Y-87934993D01*
X204259401Y-87934993D01*
G37*
G36*
X204420927Y-86218600D02*
G01*
X204441138Y-86220870D01*
X204460718Y-86224653D01*
X204479667Y-86229950D01*
X204497984Y-86236761D01*
X204515670Y-86245084D01*
X204532726Y-86254921D01*
X204549150Y-86266272D01*
X204564943Y-86279136D01*
X204580105Y-86293513D01*
X204589862Y-86303939D01*
X204599561Y-86315266D01*
X204609422Y-86327815D01*
X204619447Y-86341587D01*
X204629635Y-86356581D01*
X204639987Y-86372797D01*
X204650501Y-86390235D01*
X204661179Y-86408895D01*
X204672019Y-86428777D01*
X204683023Y-86449882D01*
X204694190Y-86472209D01*
X204705520Y-86495758D01*
X204717013Y-86520529D01*
X204728670Y-86546522D01*
X204734559Y-86559977D01*
X204740489Y-86573737D01*
X204746460Y-86587803D01*
X204752472Y-86602175D01*
X204758524Y-86616852D01*
X204764618Y-86631835D01*
X204919590Y-87002962D01*
X204932766Y-86991542D01*
X204945092Y-86979446D01*
X204956568Y-86966675D01*
X204967194Y-86953228D01*
X204976970Y-86939106D01*
X204985896Y-86924308D01*
X204993972Y-86908835D01*
X205001198Y-86892686D01*
X205007573Y-86875862D01*
X205013099Y-86858362D01*
X205017774Y-86840187D01*
X205021599Y-86821337D01*
X205024575Y-86801811D01*
X205026700Y-86781609D01*
X205027975Y-86760732D01*
X205028400Y-86739180D01*
X205028178Y-86722305D01*
X205027513Y-86705663D01*
X205026404Y-86689252D01*
X205024851Y-86673074D01*
X205022855Y-86657127D01*
X205020414Y-86641412D01*
X205017531Y-86625929D01*
X205014203Y-86610677D01*
X205010432Y-86595658D01*
X205006218Y-86580870D01*
X205001560Y-86566314D01*
X204996458Y-86551990D01*
X204990912Y-86537898D01*
X204984923Y-86524038D01*
X204978490Y-86510409D01*
X204971614Y-86497013D01*
X204962578Y-86479601D01*
X204954432Y-86462949D01*
X204947174Y-86447058D01*
X204940805Y-86431926D01*
X204935324Y-86417554D01*
X204929399Y-86399573D01*
X204925055Y-86382944D01*
X204922290Y-86367665D01*
X204921055Y-86350467D01*
X204921744Y-86334295D01*
X204923812Y-86319714D01*
X204928712Y-86302747D01*
X204936062Y-86288607D01*
X204945862Y-86277296D01*
X204958113Y-86268812D01*
X204972813Y-86263156D01*
X204989963Y-86260329D01*
X204999457Y-86259975D01*
X205014362Y-86260612D01*
X205028944Y-86262522D01*
X205050210Y-86267776D01*
X205063983Y-86272871D01*
X205077432Y-86279240D01*
X205090559Y-86286882D01*
X205103361Y-86295798D01*
X205115841Y-86305987D01*
X205127996Y-86317450D01*
X205139829Y-86330187D01*
X205151338Y-86344198D01*
X205162523Y-86359482D01*
X205173385Y-86376040D01*
X205183924Y-86393872D01*
X205194139Y-86412977D01*
X205199126Y-86423007D01*
X205208664Y-86443461D01*
X205217587Y-86464154D01*
X205225895Y-86485089D01*
X205233587Y-86506263D01*
X205240664Y-86527679D01*
X205247125Y-86549334D01*
X205252971Y-86571230D01*
X205258202Y-86593367D01*
X205262817Y-86615743D01*
X205266817Y-86638361D01*
X205270202Y-86661218D01*
X205272971Y-86684316D01*
X205275125Y-86707655D01*
X205276663Y-86731234D01*
X205277586Y-86755053D01*
X205277894Y-86779113D01*
X205277790Y-86793896D01*
X205276954Y-86822853D01*
X205275282Y-86851000D01*
X205272775Y-86878337D01*
X205269432Y-86904864D01*
X205265253Y-86930581D01*
X205260239Y-86955488D01*
X205254388Y-86979585D01*
X205247702Y-87002872D01*
X205240180Y-87025349D01*
X205231822Y-87047016D01*
X205222629Y-87067873D01*
X205212600Y-87087920D01*
X205201735Y-87107157D01*
X205190034Y-87125584D01*
X205177497Y-87143201D01*
X205170916Y-87151706D01*
X205157254Y-87167987D01*
X205143015Y-87183219D01*
X205128197Y-87197400D01*
X205112801Y-87210530D01*
X205096827Y-87222610D01*
X205080275Y-87233640D01*
X205063145Y-87243619D01*
X205045436Y-87252547D01*
X205027149Y-87260426D01*
X205008284Y-87267254D01*
X204988841Y-87273031D01*
X204968820Y-87277758D01*
X204948221Y-87281434D01*
X204927043Y-87284061D01*
X204905287Y-87285636D01*
X204882953Y-87286161D01*
X204867145Y-87285986D01*
X204851366Y-87285460D01*
X204835615Y-87284584D01*
X204819893Y-87283356D01*
X204804199Y-87281779D01*
X204788535Y-87279850D01*
X204772898Y-87277571D01*
X204757290Y-87274941D01*
X204741711Y-87271961D01*
X204726161Y-87268630D01*
X204710639Y-87264949D01*
X204695146Y-87260917D01*
X204679681Y-87256534D01*
X204664245Y-87251800D01*
X204648838Y-87246716D01*
X204633459Y-87241282D01*
X204618109Y-87235497D01*
X204602788Y-87229361D01*
X204587495Y-87222874D01*
X204572231Y-87216037D01*
X204556995Y-87208849D01*
X204541788Y-87201311D01*
X204526610Y-87193422D01*
X204511460Y-87185182D01*
X204496339Y-87176592D01*
X204481246Y-87167651D01*
X204466183Y-87158360D01*
X204451147Y-87148718D01*
X204436141Y-87138725D01*
X204421163Y-87128381D01*
X204406213Y-87117688D01*
X204391293Y-87106643D01*
X204376597Y-87095286D01*
X204362367Y-87083701D01*
X204348604Y-87071887D01*
X204335308Y-87059846D01*
X204322478Y-87047576D01*
X204310114Y-87035077D01*
X204298217Y-87022351D01*
X204286787Y-87009396D01*
X204275823Y-86996213D01*
X204265326Y-86982802D01*
X204255296Y-86969162D01*
X204245731Y-86955294D01*
X204236634Y-86941198D01*
X204228003Y-86926874D01*
X204219838Y-86912321D01*
X204212140Y-86897540D01*
X204204909Y-86882531D01*
X204198144Y-86867294D01*
X204191846Y-86851828D01*
X204186014Y-86836134D01*
X204180649Y-86820212D01*
X204175750Y-86804062D01*
X204171318Y-86787683D01*
X204167352Y-86771076D01*
X204163853Y-86754241D01*
X204160821Y-86737177D01*
X204158255Y-86719886D01*
X204156155Y-86702366D01*
X204154523Y-86684617D01*
X204153380Y-86667006D01*
X204400818Y-86667006D01*
X204401823Y-86690570D01*
X204404837Y-86713637D01*
X204409860Y-86736206D01*
X204416892Y-86758276D01*
X204425934Y-86779849D01*
X204436985Y-86800923D01*
X204450045Y-86821500D01*
X204465115Y-86841578D01*
X204482194Y-86861159D01*
X204501282Y-86880241D01*
X204522379Y-86898826D01*
X204545486Y-86916912D01*
X204557793Y-86925768D01*
X204570602Y-86934500D01*
X204583914Y-86943108D01*
X204597727Y-86951591D01*
X204612044Y-86959949D01*
X204626862Y-86968183D01*
X204642183Y-86976292D01*
X204658006Y-86984277D01*
X204558355Y-86735150D01*
X204550977Y-86718240D01*
X204543591Y-86701581D01*
X204536197Y-86685175D01*
X204528794Y-86669021D01*
X204521382Y-86653118D01*
X204513962Y-86637468D01*
X204506533Y-86622069D01*
X204499095Y-86606922D01*
X204491649Y-86592027D01*
X204484195Y-86577384D01*
X204476731Y-86562993D01*
X204469259Y-86548853D01*
X204461779Y-86534966D01*
X204454290Y-86521330D01*
X204446792Y-86507946D01*
X204439286Y-86494815D01*
X204430270Y-86510809D01*
X204422456Y-86528383D01*
X204417385Y-86542600D01*
X204412990Y-86557706D01*
X204409271Y-86573701D01*
X204406228Y-86590584D01*
X204403861Y-86608357D01*
X204402170Y-86627018D01*
X204401156Y-86646567D01*
X204400818Y-86667006D01*
X204153380Y-86667006D01*
X204153356Y-86666641D01*
X204152656Y-86648436D01*
X204152423Y-86630003D01*
X204152675Y-86605978D01*
X204153431Y-86582628D01*
X204154690Y-86559953D01*
X204156453Y-86537954D01*
X204158720Y-86516630D01*
X204161491Y-86495982D01*
X204164765Y-86476010D01*
X204168543Y-86456713D01*
X204172825Y-86438091D01*
X204177611Y-86420145D01*
X204182900Y-86402874D01*
X204188693Y-86386279D01*
X204194990Y-86370359D01*
X204201791Y-86355115D01*
X204209095Y-86340547D01*
X204216903Y-86326653D01*
X204225175Y-86313477D01*
X204233870Y-86301151D01*
X204242989Y-86289675D01*
X204257462Y-86274055D01*
X204272888Y-86260347D01*
X204289267Y-86248552D01*
X204306599Y-86238670D01*
X204324885Y-86230701D01*
X204344123Y-86224644D01*
X204364315Y-86220500D01*
X204385459Y-86218268D01*
X204400085Y-86217843D01*
X204420927Y-86218600D01*
G37*
D17*
X192626342Y-98327210D02*
X192582800Y-98305438D01*
X192582800Y-98305438D02*
X192517485Y-98305438D01*
X192517485Y-98305438D02*
X192452171Y-98327210D01*
X192452171Y-98327210D02*
X192408628Y-98370752D01*
X192408628Y-98370752D02*
X192386857Y-98414295D01*
X192386857Y-98414295D02*
X192365085Y-98501381D01*
X192365085Y-98501381D02*
X192365085Y-98566695D01*
X192365085Y-98566695D02*
X192386857Y-98653781D01*
X192386857Y-98653781D02*
X192408628Y-98697324D01*
X192408628Y-98697324D02*
X192452171Y-98740867D01*
X192452171Y-98740867D02*
X192517485Y-98762638D01*
X192517485Y-98762638D02*
X192561028Y-98762638D01*
X192561028Y-98762638D02*
X192626342Y-98740867D01*
X192626342Y-98740867D02*
X192648114Y-98719095D01*
X192648114Y-98719095D02*
X192648114Y-98566695D01*
X192648114Y-98566695D02*
X192561028Y-98566695D01*
X192844057Y-98762638D02*
X192844057Y-98305438D01*
X192844057Y-98305438D02*
X193105314Y-98762638D01*
X193105314Y-98762638D02*
X193105314Y-98305438D01*
X193323028Y-98762638D02*
X193323028Y-98305438D01*
X193323028Y-98305438D02*
X193431885Y-98305438D01*
X193431885Y-98305438D02*
X193497199Y-98327210D01*
X193497199Y-98327210D02*
X193540742Y-98370752D01*
X193540742Y-98370752D02*
X193562513Y-98414295D01*
X193562513Y-98414295D02*
X193584285Y-98501381D01*
X193584285Y-98501381D02*
X193584285Y-98566695D01*
X193584285Y-98566695D02*
X193562513Y-98653781D01*
X193562513Y-98653781D02*
X193540742Y-98697324D01*
X193540742Y-98697324D02*
X193497199Y-98740867D01*
X193497199Y-98740867D02*
X193431885Y-98762638D01*
X193431885Y-98762638D02*
X193323028Y-98762638D01*
X194011005Y-98305438D02*
X194119862Y-98762638D01*
X194119862Y-98762638D02*
X194206948Y-98436067D01*
X194206948Y-98436067D02*
X194294033Y-98762638D01*
X194294033Y-98762638D02*
X194402891Y-98305438D01*
X194577062Y-98762638D02*
X194577062Y-98305438D01*
X194577062Y-98305438D02*
X194751233Y-98305438D01*
X194751233Y-98305438D02*
X194794776Y-98327210D01*
X194794776Y-98327210D02*
X194816547Y-98348981D01*
X194816547Y-98348981D02*
X194838319Y-98392524D01*
X194838319Y-98392524D02*
X194838319Y-98457838D01*
X194838319Y-98457838D02*
X194816547Y-98501381D01*
X194816547Y-98501381D02*
X194794776Y-98523152D01*
X194794776Y-98523152D02*
X194751233Y-98544924D01*
X194751233Y-98544924D02*
X194577062Y-98544924D01*
X195308582Y-98762638D02*
X195308582Y-98305438D01*
X195308582Y-98305438D02*
X195417439Y-98305438D01*
X195417439Y-98305438D02*
X195482753Y-98327210D01*
X195482753Y-98327210D02*
X195526296Y-98370752D01*
X195526296Y-98370752D02*
X195548067Y-98414295D01*
X195548067Y-98414295D02*
X195569839Y-98501381D01*
X195569839Y-98501381D02*
X195569839Y-98566695D01*
X195569839Y-98566695D02*
X195548067Y-98653781D01*
X195548067Y-98653781D02*
X195526296Y-98697324D01*
X195526296Y-98697324D02*
X195482753Y-98740867D01*
X195482753Y-98740867D02*
X195417439Y-98762638D01*
X195417439Y-98762638D02*
X195308582Y-98762638D01*
X195852867Y-98305438D02*
X195939953Y-98305438D01*
X195939953Y-98305438D02*
X195983496Y-98327210D01*
X195983496Y-98327210D02*
X196027039Y-98370752D01*
X196027039Y-98370752D02*
X196048810Y-98457838D01*
X196048810Y-98457838D02*
X196048810Y-98610238D01*
X196048810Y-98610238D02*
X196027039Y-98697324D01*
X196027039Y-98697324D02*
X195983496Y-98740867D01*
X195983496Y-98740867D02*
X195939953Y-98762638D01*
X195939953Y-98762638D02*
X195852867Y-98762638D01*
X195852867Y-98762638D02*
X195809325Y-98740867D01*
X195809325Y-98740867D02*
X195765782Y-98697324D01*
X195765782Y-98697324D02*
X195744010Y-98610238D01*
X195744010Y-98610238D02*
X195744010Y-98457838D01*
X195744010Y-98457838D02*
X195765782Y-98370752D01*
X195765782Y-98370752D02*
X195809325Y-98327210D01*
X195809325Y-98327210D02*
X195852867Y-98305438D01*
X196780330Y-98719095D02*
X196758558Y-98740867D01*
X196758558Y-98740867D02*
X196693244Y-98762638D01*
X196693244Y-98762638D02*
X196649701Y-98762638D01*
X196649701Y-98762638D02*
X196584387Y-98740867D01*
X196584387Y-98740867D02*
X196540844Y-98697324D01*
X196540844Y-98697324D02*
X196519073Y-98653781D01*
X196519073Y-98653781D02*
X196497301Y-98566695D01*
X196497301Y-98566695D02*
X196497301Y-98501381D01*
X196497301Y-98501381D02*
X196519073Y-98414295D01*
X196519073Y-98414295D02*
X196540844Y-98370752D01*
X196540844Y-98370752D02*
X196584387Y-98327210D01*
X196584387Y-98327210D02*
X196649701Y-98305438D01*
X196649701Y-98305438D02*
X196693244Y-98305438D01*
X196693244Y-98305438D02*
X196758558Y-98327210D01*
X196758558Y-98327210D02*
X196780330Y-98348981D01*
X196954501Y-98740867D02*
X197019816Y-98762638D01*
X197019816Y-98762638D02*
X197128673Y-98762638D01*
X197128673Y-98762638D02*
X197172216Y-98740867D01*
X197172216Y-98740867D02*
X197193987Y-98719095D01*
X197193987Y-98719095D02*
X197215758Y-98675552D01*
X197215758Y-98675552D02*
X197215758Y-98632010D01*
X197215758Y-98632010D02*
X197193987Y-98588467D01*
X197193987Y-98588467D02*
X197172216Y-98566695D01*
X197172216Y-98566695D02*
X197128673Y-98544924D01*
X197128673Y-98544924D02*
X197041587Y-98523152D01*
X197041587Y-98523152D02*
X196998044Y-98501381D01*
X196998044Y-98501381D02*
X196976273Y-98479610D01*
X196976273Y-98479610D02*
X196954501Y-98436067D01*
X196954501Y-98436067D02*
X196954501Y-98392524D01*
X196954501Y-98392524D02*
X196976273Y-98348981D01*
X196976273Y-98348981D02*
X196998044Y-98327210D01*
X196998044Y-98327210D02*
X197041587Y-98305438D01*
X197041587Y-98305438D02*
X197150444Y-98305438D01*
X197150444Y-98305438D02*
X197215758Y-98327210D01*
X192386857Y-99503302D02*
X192386857Y-99046102D01*
X192386857Y-99046102D02*
X192495714Y-99046102D01*
X192495714Y-99046102D02*
X192561028Y-99067874D01*
X192561028Y-99067874D02*
X192604571Y-99111416D01*
X192604571Y-99111416D02*
X192626342Y-99154959D01*
X192626342Y-99154959D02*
X192648114Y-99242045D01*
X192648114Y-99242045D02*
X192648114Y-99307359D01*
X192648114Y-99307359D02*
X192626342Y-99394445D01*
X192626342Y-99394445D02*
X192604571Y-99437988D01*
X192604571Y-99437988D02*
X192561028Y-99481531D01*
X192561028Y-99481531D02*
X192495714Y-99503302D01*
X192495714Y-99503302D02*
X192386857Y-99503302D01*
X192844057Y-99503302D02*
X192844057Y-99046102D01*
X193597348Y-99459759D02*
X193575576Y-99481531D01*
X193575576Y-99481531D02*
X193510262Y-99503302D01*
X193510262Y-99503302D02*
X193466719Y-99503302D01*
X193466719Y-99503302D02*
X193401405Y-99481531D01*
X193401405Y-99481531D02*
X193357862Y-99437988D01*
X193357862Y-99437988D02*
X193336091Y-99394445D01*
X193336091Y-99394445D02*
X193314319Y-99307359D01*
X193314319Y-99307359D02*
X193314319Y-99242045D01*
X193314319Y-99242045D02*
X193336091Y-99154959D01*
X193336091Y-99154959D02*
X193357862Y-99111416D01*
X193357862Y-99111416D02*
X193401405Y-99067874D01*
X193401405Y-99067874D02*
X193466719Y-99046102D01*
X193466719Y-99046102D02*
X193510262Y-99046102D01*
X193510262Y-99046102D02*
X193575576Y-99067874D01*
X193575576Y-99067874D02*
X193597348Y-99089645D01*
X194011005Y-99503302D02*
X193793291Y-99503302D01*
X193793291Y-99503302D02*
X193793291Y-99046102D01*
X194163405Y-99503302D02*
X194163405Y-99046102D01*
X194424662Y-99503302D02*
X194228719Y-99242045D01*
X194424662Y-99046102D02*
X194163405Y-99307359D01*
X194894925Y-99503302D02*
X194894925Y-99046102D01*
X194894925Y-99263816D02*
X195156182Y-99263816D01*
X195156182Y-99503302D02*
X195156182Y-99046102D01*
X195373896Y-99503302D02*
X195373896Y-99046102D01*
X195373896Y-99046102D02*
X195482753Y-99046102D01*
X195482753Y-99046102D02*
X195548067Y-99067874D01*
X195548067Y-99067874D02*
X195591610Y-99111416D01*
X195591610Y-99111416D02*
X195613381Y-99154959D01*
X195613381Y-99154959D02*
X195635153Y-99242045D01*
X195635153Y-99242045D02*
X195635153Y-99307359D01*
X195635153Y-99307359D02*
X195613381Y-99394445D01*
X195613381Y-99394445D02*
X195591610Y-99437988D01*
X195591610Y-99437988D02*
X195548067Y-99481531D01*
X195548067Y-99481531D02*
X195482753Y-99503302D01*
X195482753Y-99503302D02*
X195373896Y-99503302D01*
X196040101Y-99046102D02*
X196192501Y-99503302D01*
X196192501Y-99503302D02*
X196344901Y-99046102D01*
X196758559Y-99459759D02*
X196736787Y-99481531D01*
X196736787Y-99481531D02*
X196671473Y-99503302D01*
X196671473Y-99503302D02*
X196627930Y-99503302D01*
X196627930Y-99503302D02*
X196562616Y-99481531D01*
X196562616Y-99481531D02*
X196519073Y-99437988D01*
X196519073Y-99437988D02*
X196497302Y-99394445D01*
X196497302Y-99394445D02*
X196475530Y-99307359D01*
X196475530Y-99307359D02*
X196475530Y-99242045D01*
X196475530Y-99242045D02*
X196497302Y-99154959D01*
X196497302Y-99154959D02*
X196519073Y-99111416D01*
X196519073Y-99111416D02*
X196562616Y-99067874D01*
X196562616Y-99067874D02*
X196627930Y-99046102D01*
X196627930Y-99046102D02*
X196671473Y-99046102D01*
X196671473Y-99046102D02*
X196736787Y-99067874D01*
X196736787Y-99067874D02*
X196758559Y-99089645D01*
X197215759Y-99459759D02*
X197193987Y-99481531D01*
X197193987Y-99481531D02*
X197128673Y-99503302D01*
X197128673Y-99503302D02*
X197085130Y-99503302D01*
X197085130Y-99503302D02*
X197019816Y-99481531D01*
X197019816Y-99481531D02*
X196976273Y-99437988D01*
X196976273Y-99437988D02*
X196954502Y-99394445D01*
X196954502Y-99394445D02*
X196932730Y-99307359D01*
X196932730Y-99307359D02*
X196932730Y-99242045D01*
X196932730Y-99242045D02*
X196954502Y-99154959D01*
X196954502Y-99154959D02*
X196976273Y-99111416D01*
X196976273Y-99111416D02*
X197019816Y-99067874D01*
X197019816Y-99067874D02*
X197085130Y-99046102D01*
X197085130Y-99046102D02*
X197128673Y-99046102D01*
X197128673Y-99046102D02*
X197193987Y-99067874D01*
X197193987Y-99067874D02*
X197215759Y-99089645D01*
X192626342Y-100549202D02*
X192582800Y-100527430D01*
X192582800Y-100527430D02*
X192517485Y-100527430D01*
X192517485Y-100527430D02*
X192452171Y-100549202D01*
X192452171Y-100549202D02*
X192408628Y-100592744D01*
X192408628Y-100592744D02*
X192386857Y-100636287D01*
X192386857Y-100636287D02*
X192365085Y-100723373D01*
X192365085Y-100723373D02*
X192365085Y-100788687D01*
X192365085Y-100788687D02*
X192386857Y-100875773D01*
X192386857Y-100875773D02*
X192408628Y-100919316D01*
X192408628Y-100919316D02*
X192452171Y-100962859D01*
X192452171Y-100962859D02*
X192517485Y-100984630D01*
X192517485Y-100984630D02*
X192561028Y-100984630D01*
X192561028Y-100984630D02*
X192626342Y-100962859D01*
X192626342Y-100962859D02*
X192648114Y-100941087D01*
X192648114Y-100941087D02*
X192648114Y-100788687D01*
X192648114Y-100788687D02*
X192561028Y-100788687D01*
X192844057Y-100984630D02*
X192844057Y-100527430D01*
X192844057Y-100527430D02*
X193105314Y-100984630D01*
X193105314Y-100984630D02*
X193105314Y-100527430D01*
X193323028Y-100984630D02*
X193323028Y-100527430D01*
X193323028Y-100527430D02*
X193431885Y-100527430D01*
X193431885Y-100527430D02*
X193497199Y-100549202D01*
X193497199Y-100549202D02*
X193540742Y-100592744D01*
X193540742Y-100592744D02*
X193562513Y-100636287D01*
X193562513Y-100636287D02*
X193584285Y-100723373D01*
X193584285Y-100723373D02*
X193584285Y-100788687D01*
X193584285Y-100788687D02*
X193562513Y-100875773D01*
X193562513Y-100875773D02*
X193540742Y-100919316D01*
X193540742Y-100919316D02*
X193497199Y-100962859D01*
X193497199Y-100962859D02*
X193431885Y-100984630D01*
X193431885Y-100984630D02*
X193323028Y-100984630D01*
X194032776Y-100854002D02*
X194250491Y-100854002D01*
X193989233Y-100984630D02*
X194141633Y-100527430D01*
X194141633Y-100527430D02*
X194294033Y-100984630D01*
X194424662Y-100570973D02*
X194446434Y-100549202D01*
X194446434Y-100549202D02*
X194489977Y-100527430D01*
X194489977Y-100527430D02*
X194598834Y-100527430D01*
X194598834Y-100527430D02*
X194642377Y-100549202D01*
X194642377Y-100549202D02*
X194664148Y-100570973D01*
X194664148Y-100570973D02*
X194685919Y-100614516D01*
X194685919Y-100614516D02*
X194685919Y-100658059D01*
X194685919Y-100658059D02*
X194664148Y-100723373D01*
X194664148Y-100723373D02*
X194402891Y-100984630D01*
X194402891Y-100984630D02*
X194685919Y-100984630D01*
X195134411Y-100854002D02*
X195352126Y-100854002D01*
X195090868Y-100984630D02*
X195243268Y-100527430D01*
X195243268Y-100527430D02*
X195395668Y-100984630D01*
X195787554Y-100984630D02*
X195526297Y-100984630D01*
X195656926Y-100984630D02*
X195656926Y-100527430D01*
X195656926Y-100527430D02*
X195613383Y-100592744D01*
X195613383Y-100592744D02*
X195569840Y-100636287D01*
X195569840Y-100636287D02*
X195526297Y-100658059D01*
X196236046Y-100854002D02*
X196453761Y-100854002D01*
X196192503Y-100984630D02*
X196344903Y-100527430D01*
X196344903Y-100527430D02*
X196497303Y-100984630D01*
X196736789Y-100527430D02*
X196780332Y-100527430D01*
X196780332Y-100527430D02*
X196823875Y-100549202D01*
X196823875Y-100549202D02*
X196845647Y-100570973D01*
X196845647Y-100570973D02*
X196867418Y-100614516D01*
X196867418Y-100614516D02*
X196889189Y-100701602D01*
X196889189Y-100701602D02*
X196889189Y-100810459D01*
X196889189Y-100810459D02*
X196867418Y-100897544D01*
X196867418Y-100897544D02*
X196845647Y-100941087D01*
X196845647Y-100941087D02*
X196823875Y-100962859D01*
X196823875Y-100962859D02*
X196780332Y-100984630D01*
X196780332Y-100984630D02*
X196736789Y-100984630D01*
X196736789Y-100984630D02*
X196693247Y-100962859D01*
X196693247Y-100962859D02*
X196671475Y-100941087D01*
X196671475Y-100941087D02*
X196649704Y-100897544D01*
X196649704Y-100897544D02*
X196627932Y-100810459D01*
X196627932Y-100810459D02*
X196627932Y-100701602D01*
X196627932Y-100701602D02*
X196649704Y-100614516D01*
X196649704Y-100614516D02*
X196671475Y-100570973D01*
X196671475Y-100570973D02*
X196693247Y-100549202D01*
X196693247Y-100549202D02*
X196736789Y-100527430D01*
X192365085Y-101703523D02*
X192430400Y-101725294D01*
X192430400Y-101725294D02*
X192539257Y-101725294D01*
X192539257Y-101725294D02*
X192582800Y-101703523D01*
X192582800Y-101703523D02*
X192604571Y-101681751D01*
X192604571Y-101681751D02*
X192626342Y-101638208D01*
X192626342Y-101638208D02*
X192626342Y-101594666D01*
X192626342Y-101594666D02*
X192604571Y-101551123D01*
X192604571Y-101551123D02*
X192582800Y-101529351D01*
X192582800Y-101529351D02*
X192539257Y-101507580D01*
X192539257Y-101507580D02*
X192452171Y-101485808D01*
X192452171Y-101485808D02*
X192408628Y-101464037D01*
X192408628Y-101464037D02*
X192386857Y-101442266D01*
X192386857Y-101442266D02*
X192365085Y-101398723D01*
X192365085Y-101398723D02*
X192365085Y-101355180D01*
X192365085Y-101355180D02*
X192386857Y-101311637D01*
X192386857Y-101311637D02*
X192408628Y-101289866D01*
X192408628Y-101289866D02*
X192452171Y-101268094D01*
X192452171Y-101268094D02*
X192561028Y-101268094D01*
X192561028Y-101268094D02*
X192626342Y-101289866D01*
X192822286Y-101725294D02*
X192822286Y-101268094D01*
X192822286Y-101268094D02*
X192931143Y-101268094D01*
X192931143Y-101268094D02*
X192996457Y-101289866D01*
X192996457Y-101289866D02*
X193040000Y-101333408D01*
X193040000Y-101333408D02*
X193061771Y-101376951D01*
X193061771Y-101376951D02*
X193083543Y-101464037D01*
X193083543Y-101464037D02*
X193083543Y-101529351D01*
X193083543Y-101529351D02*
X193061771Y-101616437D01*
X193061771Y-101616437D02*
X193040000Y-101659980D01*
X193040000Y-101659980D02*
X192996457Y-101703523D01*
X192996457Y-101703523D02*
X192931143Y-101725294D01*
X192931143Y-101725294D02*
X192822286Y-101725294D01*
X193257714Y-101594666D02*
X193475429Y-101594666D01*
X193214171Y-101725294D02*
X193366571Y-101268094D01*
X193366571Y-101268094D02*
X193518971Y-101725294D01*
X193923920Y-101703523D02*
X193989235Y-101725294D01*
X193989235Y-101725294D02*
X194098092Y-101725294D01*
X194098092Y-101725294D02*
X194141635Y-101703523D01*
X194141635Y-101703523D02*
X194163406Y-101681751D01*
X194163406Y-101681751D02*
X194185177Y-101638208D01*
X194185177Y-101638208D02*
X194185177Y-101594666D01*
X194185177Y-101594666D02*
X194163406Y-101551123D01*
X194163406Y-101551123D02*
X194141635Y-101529351D01*
X194141635Y-101529351D02*
X194098092Y-101507580D01*
X194098092Y-101507580D02*
X194011006Y-101485808D01*
X194011006Y-101485808D02*
X193967463Y-101464037D01*
X193967463Y-101464037D02*
X193945692Y-101442266D01*
X193945692Y-101442266D02*
X193923920Y-101398723D01*
X193923920Y-101398723D02*
X193923920Y-101355180D01*
X193923920Y-101355180D02*
X193945692Y-101311637D01*
X193945692Y-101311637D02*
X193967463Y-101289866D01*
X193967463Y-101289866D02*
X194011006Y-101268094D01*
X194011006Y-101268094D02*
X194119863Y-101268094D01*
X194119863Y-101268094D02*
X194185177Y-101289866D01*
X194642378Y-101681751D02*
X194620606Y-101703523D01*
X194620606Y-101703523D02*
X194555292Y-101725294D01*
X194555292Y-101725294D02*
X194511749Y-101725294D01*
X194511749Y-101725294D02*
X194446435Y-101703523D01*
X194446435Y-101703523D02*
X194402892Y-101659980D01*
X194402892Y-101659980D02*
X194381121Y-101616437D01*
X194381121Y-101616437D02*
X194359349Y-101529351D01*
X194359349Y-101529351D02*
X194359349Y-101464037D01*
X194359349Y-101464037D02*
X194381121Y-101376951D01*
X194381121Y-101376951D02*
X194402892Y-101333408D01*
X194402892Y-101333408D02*
X194446435Y-101289866D01*
X194446435Y-101289866D02*
X194511749Y-101268094D01*
X194511749Y-101268094D02*
X194555292Y-101268094D01*
X194555292Y-101268094D02*
X194620606Y-101289866D01*
X194620606Y-101289866D02*
X194642378Y-101311637D01*
X195056035Y-101725294D02*
X194838321Y-101725294D01*
X194838321Y-101725294D02*
X194838321Y-101268094D01*
X195439212Y-101268094D02*
X195548069Y-101725294D01*
X195548069Y-101725294D02*
X195635155Y-101398723D01*
X195635155Y-101398723D02*
X195722240Y-101725294D01*
X195722240Y-101725294D02*
X195831098Y-101268094D01*
X196005269Y-101725294D02*
X196005269Y-101268094D01*
X196005269Y-101268094D02*
X196179440Y-101268094D01*
X196179440Y-101268094D02*
X196222983Y-101289866D01*
X196222983Y-101289866D02*
X196244754Y-101311637D01*
X196244754Y-101311637D02*
X196266526Y-101355180D01*
X196266526Y-101355180D02*
X196266526Y-101420494D01*
X196266526Y-101420494D02*
X196244754Y-101464037D01*
X196244754Y-101464037D02*
X196222983Y-101485808D01*
X196222983Y-101485808D02*
X196179440Y-101507580D01*
X196179440Y-101507580D02*
X196005269Y-101507580D01*
X196671474Y-101268094D02*
X196823874Y-101725294D01*
X196823874Y-101725294D02*
X196976274Y-101268094D01*
X197389932Y-101681751D02*
X197368160Y-101703523D01*
X197368160Y-101703523D02*
X197302846Y-101725294D01*
X197302846Y-101725294D02*
X197259303Y-101725294D01*
X197259303Y-101725294D02*
X197193989Y-101703523D01*
X197193989Y-101703523D02*
X197150446Y-101659980D01*
X197150446Y-101659980D02*
X197128675Y-101616437D01*
X197128675Y-101616437D02*
X197106903Y-101529351D01*
X197106903Y-101529351D02*
X197106903Y-101464037D01*
X197106903Y-101464037D02*
X197128675Y-101376951D01*
X197128675Y-101376951D02*
X197150446Y-101333408D01*
X197150446Y-101333408D02*
X197193989Y-101289866D01*
X197193989Y-101289866D02*
X197259303Y-101268094D01*
X197259303Y-101268094D02*
X197302846Y-101268094D01*
X197302846Y-101268094D02*
X197368160Y-101289866D01*
X197368160Y-101289866D02*
X197389932Y-101311637D01*
X197847132Y-101681751D02*
X197825360Y-101703523D01*
X197825360Y-101703523D02*
X197760046Y-101725294D01*
X197760046Y-101725294D02*
X197716503Y-101725294D01*
X197716503Y-101725294D02*
X197651189Y-101703523D01*
X197651189Y-101703523D02*
X197607646Y-101659980D01*
X197607646Y-101659980D02*
X197585875Y-101616437D01*
X197585875Y-101616437D02*
X197564103Y-101529351D01*
X197564103Y-101529351D02*
X197564103Y-101464037D01*
X197564103Y-101464037D02*
X197585875Y-101376951D01*
X197585875Y-101376951D02*
X197607646Y-101333408D01*
X197607646Y-101333408D02*
X197651189Y-101289866D01*
X197651189Y-101289866D02*
X197716503Y-101268094D01*
X197716503Y-101268094D02*
X197760046Y-101268094D01*
X197760046Y-101268094D02*
X197825360Y-101289866D01*
X197825360Y-101289866D02*
X197847132Y-101311637D01*
D18*
G36*
X201480917Y-96266035D02*
G01*
X201507257Y-96250601D01*
X201533561Y-96235262D01*
X201559830Y-96220020D01*
X201586062Y-96204873D01*
X201612258Y-96189823D01*
X201638418Y-96174869D01*
X201664543Y-96160010D01*
X201690631Y-96145248D01*
X201716684Y-96130581D01*
X201742700Y-96116010D01*
X201760024Y-96106350D01*
X201794416Y-96087392D01*
X201828239Y-96068646D01*
X201861495Y-96050115D01*
X201894183Y-96031796D01*
X201926303Y-96013691D01*
X201957855Y-95995799D01*
X201988840Y-95978120D01*
X202019256Y-95960654D01*
X202049105Y-95943402D01*
X202078387Y-95926363D01*
X202107100Y-95909537D01*
X202135246Y-95892925D01*
X202162823Y-95876525D01*
X202189833Y-95860339D01*
X202216276Y-95844367D01*
X202242150Y-95828607D01*
X202267457Y-95813061D01*
X202292196Y-95797728D01*
X202316367Y-95782608D01*
X202339970Y-95767702D01*
X202363005Y-95753008D01*
X202407373Y-95724262D01*
X202449469Y-95696368D01*
X202489295Y-95669327D01*
X202526849Y-95643140D01*
X202562132Y-95617805D01*
X202578922Y-95605458D01*
X202605544Y-95588174D01*
X202634061Y-95575135D01*
X202664472Y-95566342D01*
X202692046Y-95562184D01*
X202716087Y-95561101D01*
X202749988Y-95563550D01*
X202783022Y-95570897D01*
X202808826Y-95580302D01*
X202834075Y-95592841D01*
X202858770Y-95608515D01*
X202882911Y-95627324D01*
X202906497Y-95649268D01*
X202918082Y-95661416D01*
X202939674Y-95686654D01*
X202958387Y-95712554D01*
X202974221Y-95739115D01*
X202987176Y-95766337D01*
X202997252Y-95794220D01*
X203004450Y-95822764D01*
X203008768Y-95851969D01*
X203010208Y-95881836D01*
X203006429Y-95917570D01*
X202995093Y-95954145D01*
X202983338Y-95978994D01*
X202968223Y-96004217D01*
X202949750Y-96029813D01*
X202927918Y-96055782D01*
X202902727Y-96082124D01*
X202874178Y-96108840D01*
X202842270Y-96135928D01*
X202807003Y-96163390D01*
X202768377Y-96191225D01*
X202726392Y-96219433D01*
X202681049Y-96248015D01*
X202657118Y-96262446D01*
X202632347Y-96276970D01*
X202606737Y-96291587D01*
X202580286Y-96306297D01*
X202542631Y-96325530D01*
X202505754Y-96344502D01*
X202469655Y-96363212D01*
X202434335Y-96381661D01*
X202399793Y-96399849D01*
X202366030Y-96417776D01*
X202333044Y-96435442D01*
X202300838Y-96452846D01*
X202269409Y-96469989D01*
X202238759Y-96486871D01*
X202208888Y-96503491D01*
X202179794Y-96519850D01*
X202151480Y-96535948D01*
X202123943Y-96551785D01*
X202097185Y-96567361D01*
X202071205Y-96582675D01*
X202045178Y-96598526D01*
X202017852Y-96614943D01*
X201989226Y-96631927D01*
X201965389Y-96645922D01*
X201940721Y-96660279D01*
X201915221Y-96674999D01*
X201888889Y-96690082D01*
X201882176Y-96693909D01*
X201939872Y-96754360D01*
X201995926Y-96813137D01*
X202050338Y-96870238D01*
X202103108Y-96925663D01*
X202154236Y-96979413D01*
X202203722Y-97031488D01*
X202251565Y-97081887D01*
X202297767Y-97130611D01*
X202342326Y-97177660D01*
X202385244Y-97223033D01*
X202426519Y-97266731D01*
X202466153Y-97308754D01*
X202504144Y-97349101D01*
X202540493Y-97387772D01*
X202575200Y-97424769D01*
X202608265Y-97460090D01*
X202639689Y-97493735D01*
X202669470Y-97525705D01*
X202697608Y-97556000D01*
X202724105Y-97584620D01*
X202748960Y-97611564D01*
X202772173Y-97636832D01*
X202793744Y-97660426D01*
X202813672Y-97682344D01*
X202848603Y-97721153D01*
X202876966Y-97753261D01*
X202898761Y-97778668D01*
X202913987Y-97797373D01*
X202931183Y-97820201D01*
X202951479Y-97850003D01*
X202968769Y-97879080D01*
X202983052Y-97907432D01*
X202994327Y-97935060D01*
X203002596Y-97961962D01*
X203008704Y-97994570D01*
X203010208Y-98019840D01*
X203008575Y-98051389D01*
X203003677Y-98081204D01*
X202995513Y-98109287D01*
X202984084Y-98135637D01*
X202969389Y-98160255D01*
X202951429Y-98183140D01*
X202943331Y-98191809D01*
X202922046Y-98211468D01*
X202899560Y-98227795D01*
X202870995Y-98242990D01*
X202840702Y-98253386D01*
X202808682Y-98258984D01*
X202786376Y-98260050D01*
X202757322Y-98258803D01*
X202730044Y-98255060D01*
X202700464Y-98247540D01*
X202673300Y-98236624D01*
X202651940Y-98224565D01*
X202626893Y-98205548D01*
X202605397Y-98186525D01*
X202580063Y-98162427D01*
X202558543Y-98141023D01*
X202534863Y-98116764D01*
X202509025Y-98089650D01*
X202481027Y-98059681D01*
X202461162Y-98038116D01*
X202440338Y-98015282D01*
X202418554Y-97991179D01*
X202396450Y-97966574D01*
X202373813Y-97941466D01*
X202350643Y-97915857D01*
X202326940Y-97889744D01*
X202302704Y-97863129D01*
X202277934Y-97836012D01*
X202252632Y-97808392D01*
X202226796Y-97780270D01*
X202200427Y-97751645D01*
X202173525Y-97722518D01*
X202146090Y-97692888D01*
X202118121Y-97662756D01*
X202089620Y-97632121D01*
X202060585Y-97600984D01*
X202031017Y-97569345D01*
X202000917Y-97537203D01*
X201970283Y-97504558D01*
X201939115Y-97471411D01*
X201907415Y-97437761D01*
X201875182Y-97403609D01*
X201842415Y-97368955D01*
X201809115Y-97333798D01*
X201775283Y-97298138D01*
X201740917Y-97261976D01*
X201706018Y-97225312D01*
X201670585Y-97188145D01*
X201634620Y-97150475D01*
X201598121Y-97112304D01*
X201561090Y-97073629D01*
X201523525Y-97034452D01*
X201485427Y-96994773D01*
X201446796Y-96954591D01*
X201415846Y-96975761D01*
X201385437Y-96996533D01*
X201355570Y-97016908D01*
X201326243Y-97036886D01*
X201297458Y-97056467D01*
X201269214Y-97075650D01*
X201241510Y-97094437D01*
X201214349Y-97112826D01*
X201187728Y-97130818D01*
X201161648Y-97148413D01*
X201136109Y-97165610D01*
X201111112Y-97182411D01*
X201086656Y-97198814D01*
X201062741Y-97214820D01*
X201039367Y-97230429D01*
X201016534Y-97245641D01*
X200972491Y-97274873D01*
X200930613Y-97302516D01*
X200890900Y-97328570D01*
X200853351Y-97353036D01*
X200817967Y-97375913D01*
X200784747Y-97397201D01*
X200753692Y-97416900D01*
X200724801Y-97435011D01*
X200697550Y-97452063D01*
X200671413Y-97468758D01*
X200646390Y-97485096D01*
X200622482Y-97501077D01*
X200599688Y-97516701D01*
X200567585Y-97539466D01*
X200537990Y-97561428D01*
X200510902Y-97582586D01*
X200486322Y-97602941D01*
X200464248Y-97622492D01*
X200438716Y-97647309D01*
X200422492Y-97664985D01*
X200398241Y-97688183D01*
X200373257Y-97707449D01*
X200347539Y-97722783D01*
X200321089Y-97734186D01*
X200293906Y-97741656D01*
X200265990Y-97745195D01*
X200254618Y-97745510D01*
X200226756Y-97743963D01*
X200199470Y-97739325D01*
X200172760Y-97731595D01*
X200146626Y-97720772D01*
X200121067Y-97706857D01*
X200096084Y-97689850D01*
X200071677Y-97669751D01*
X200047846Y-97646559D01*
X200025614Y-97621449D01*
X200006347Y-97595592D01*
X199990044Y-97568988D01*
X199976704Y-97541638D01*
X199966330Y-97513542D01*
X199958919Y-97484699D01*
X199954473Y-97455110D01*
X199952991Y-97424775D01*
X199956223Y-97390863D01*
X199965922Y-97355920D01*
X199982086Y-97319945D01*
X199996454Y-97295389D01*
X200013695Y-97270374D01*
X200033811Y-97244901D01*
X200056800Y-97218969D01*
X200082662Y-97192579D01*
X200111398Y-97165730D01*
X200143008Y-97138423D01*
X200177491Y-97110657D01*
X200214848Y-97082433D01*
X200255078Y-97053750D01*
X200298182Y-97024609D01*
X200320812Y-97009867D01*
X200343749Y-96995018D01*
X200366667Y-96980158D01*
X200389567Y-96965285D01*
X200435310Y-96935504D01*
X200480978Y-96905675D01*
X200526572Y-96875798D01*
X200572091Y-96845873D01*
X200617536Y-96815900D01*
X200662906Y-96785879D01*
X200708201Y-96755811D01*
X200753421Y-96725694D01*
X200798567Y-96695529D01*
X200843639Y-96665316D01*
X200888636Y-96635055D01*
X200933558Y-96604746D01*
X200978405Y-96574390D01*
X201023178Y-96543985D01*
X201045536Y-96528764D01*
X200413620Y-95947347D01*
X200387094Y-95922666D01*
X200360232Y-95896990D01*
X200333034Y-95870318D01*
X200305500Y-95842650D01*
X200277631Y-95813987D01*
X200249425Y-95784328D01*
X200230435Y-95764002D01*
X200211295Y-95743233D01*
X200192006Y-95722023D01*
X200172568Y-95700369D01*
X200152981Y-95678273D01*
X200133244Y-95655735D01*
X200113358Y-95632754D01*
X200093939Y-95609880D01*
X200075772Y-95587832D01*
X200050871Y-95556310D01*
X200028789Y-95526647D01*
X200009526Y-95498843D01*
X199993082Y-95472899D01*
X199979457Y-95448814D01*
X199965676Y-95419592D01*
X199956906Y-95393677D01*
X199952991Y-95365930D01*
X199954640Y-95335348D01*
X199959588Y-95306299D01*
X199967835Y-95278782D01*
X199979381Y-95252799D01*
X199994225Y-95228348D01*
X200012369Y-95205429D01*
X200020550Y-95196691D01*
X200042295Y-95176835D01*
X200065306Y-95160345D01*
X200089584Y-95147220D01*
X200115128Y-95137460D01*
X200141938Y-95131066D01*
X200170014Y-95128037D01*
X200181599Y-95127767D01*
X200214880Y-95130250D01*
X200247762Y-95137697D01*
X200273779Y-95147230D01*
X200299540Y-95159940D01*
X200325045Y-95175827D01*
X200350294Y-95194892D01*
X200375288Y-95217134D01*
X200387689Y-95229447D01*
X200408156Y-95250355D01*
X200428274Y-95270853D01*
X200448040Y-95290943D01*
X200467456Y-95310623D01*
X200505237Y-95348755D01*
X200541616Y-95385251D01*
X200576592Y-95420110D01*
X200610166Y-95453333D01*
X200642339Y-95484918D01*
X200673109Y-95514867D01*
X200702476Y-95543179D01*
X200730442Y-95569855D01*
X200757006Y-95594894D01*
X200782167Y-95618296D01*
X200805926Y-95640061D01*
X200828283Y-95660189D01*
X200849238Y-95678681D01*
X200868791Y-95695536D01*
X200900851Y-95723915D01*
X200933738Y-95753264D01*
X200967450Y-95783584D01*
X201001990Y-95814874D01*
X201037355Y-95847134D01*
X201073547Y-95880364D01*
X201110566Y-95914565D01*
X201148410Y-95949736D01*
X201187081Y-95985877D01*
X201226579Y-96022989D01*
X201246637Y-96041908D01*
X201266902Y-96061071D01*
X201287374Y-96080475D01*
X201308053Y-96100123D01*
X201328938Y-96120013D01*
X201350029Y-96140145D01*
X201371327Y-96160521D01*
X201392832Y-96181138D01*
X201414543Y-96201999D01*
X201436461Y-96223101D01*
X201458586Y-96244447D01*
X201480917Y-96266035D01*
G37*
G36*
X200475038Y-93530918D02*
G01*
X201371048Y-93620996D01*
X201399966Y-93623883D01*
X201428373Y-93626743D01*
X201456270Y-93629577D01*
X201483657Y-93632384D01*
X201536899Y-93637918D01*
X201588098Y-93643345D01*
X201637256Y-93648666D01*
X201684372Y-93653880D01*
X201729446Y-93658988D01*
X201772478Y-93663988D01*
X201813468Y-93668883D01*
X201852417Y-93673670D01*
X201889323Y-93678351D01*
X201924188Y-93682925D01*
X201957010Y-93687393D01*
X201987791Y-93691754D01*
X202016529Y-93696009D01*
X202043226Y-93700156D01*
X202071546Y-93704933D01*
X202101295Y-93708516D01*
X202131658Y-93711501D01*
X202159594Y-93713890D01*
X202190772Y-93716278D01*
X202225191Y-93718667D01*
X202234302Y-93719264D01*
X202278406Y-93722535D01*
X202320638Y-93726547D01*
X202360999Y-93731299D01*
X202399489Y-93736793D01*
X202436108Y-93743028D01*
X202470855Y-93750005D01*
X202503731Y-93757722D01*
X202534735Y-93766180D01*
X202563869Y-93775379D01*
X202591130Y-93785320D01*
X202616521Y-93796001D01*
X202651098Y-93813412D01*
X202681465Y-93832491D01*
X202707621Y-93853238D01*
X202715405Y-93860524D01*
X202736869Y-93882564D01*
X202756221Y-93904411D01*
X202773463Y-93926067D01*
X202793168Y-93954644D01*
X202809119Y-93982879D01*
X202821317Y-94010772D01*
X202829762Y-94038325D01*
X202834454Y-94065536D01*
X202835510Y-94085721D01*
X202833927Y-94117809D01*
X202829179Y-94147964D01*
X202821265Y-94176187D01*
X202810186Y-94202477D01*
X202795941Y-94226835D01*
X202778531Y-94249260D01*
X202770680Y-94257689D01*
X202749608Y-94276759D01*
X202727336Y-94292596D01*
X202699027Y-94307335D01*
X202668990Y-94317419D01*
X202637225Y-94322849D01*
X202615090Y-94323883D01*
X202586830Y-94320900D01*
X202558478Y-94314982D01*
X202528282Y-94307215D01*
X202498397Y-94298634D01*
X202468058Y-94290177D01*
X202436753Y-94282720D01*
X202404481Y-94276262D01*
X202371244Y-94270804D01*
X202343958Y-94267157D01*
X202316053Y-94264151D01*
X202287531Y-94261783D01*
X202251480Y-94258798D01*
X202215191Y-94255551D01*
X202186594Y-94252907D01*
X202154472Y-94249879D01*
X202118827Y-94246466D01*
X202079657Y-94242671D01*
X202036964Y-94238491D01*
X201990746Y-94233927D01*
X201941005Y-94228980D01*
X201887739Y-94223648D01*
X201859785Y-94220839D01*
X201830949Y-94217933D01*
X201801233Y-94214931D01*
X201770636Y-94211834D01*
X201739157Y-94208640D01*
X201706798Y-94205351D01*
X201673558Y-94201966D01*
X201639436Y-94198484D01*
X201604434Y-94194907D01*
X200507111Y-94081626D01*
X200515300Y-94287033D01*
X200516697Y-94330142D01*
X200517646Y-94372121D01*
X200518147Y-94412970D01*
X200518200Y-94452689D01*
X200517806Y-94491277D01*
X200516964Y-94528735D01*
X200515673Y-94565063D01*
X200513935Y-94600261D01*
X200511749Y-94634328D01*
X200509116Y-94667266D01*
X200506034Y-94699073D01*
X200502505Y-94729749D01*
X200498528Y-94759296D01*
X200494103Y-94787712D01*
X200489230Y-94814998D01*
X200483909Y-94841153D01*
X200474493Y-94877618D01*
X200463133Y-94910496D01*
X200449830Y-94939787D01*
X200434583Y-94965491D01*
X200417394Y-94987609D01*
X200391451Y-95011520D01*
X200362054Y-95029055D01*
X200329202Y-95040214D01*
X200292896Y-95044996D01*
X200283279Y-95045195D01*
X200252464Y-95043830D01*
X200222459Y-95039736D01*
X200193264Y-95032912D01*
X200164880Y-95023358D01*
X200137306Y-95011075D01*
X200110543Y-94996061D01*
X200084590Y-94978319D01*
X200059447Y-94957846D01*
X200036256Y-94935188D01*
X200016157Y-94910888D01*
X199999150Y-94884945D01*
X199985235Y-94857361D01*
X199974412Y-94828134D01*
X199966682Y-94797266D01*
X199962043Y-94764755D01*
X199960497Y-94730602D01*
X199995300Y-94187400D01*
X199995114Y-94158669D01*
X199994557Y-94126471D01*
X199993627Y-94090806D01*
X199992325Y-94051674D01*
X199991251Y-94023661D01*
X199990012Y-93994106D01*
X199988607Y-93963011D01*
X199987037Y-93930375D01*
X199985301Y-93896199D01*
X199983401Y-93860481D01*
X199981335Y-93823223D01*
X199979104Y-93784424D01*
X199976707Y-93744084D01*
X199974145Y-93702204D01*
X199971584Y-93660563D01*
X199969187Y-93620602D01*
X199966956Y-93582320D01*
X199964890Y-93545717D01*
X199962990Y-93510794D01*
X199961254Y-93477551D01*
X199959684Y-93445986D01*
X199958279Y-93416101D01*
X199957040Y-93387896D01*
X199955490Y-93348736D01*
X199954313Y-93313355D01*
X199953507Y-93281753D01*
X199953073Y-93253929D01*
X199952991Y-93237479D01*
X199964592Y-92634907D01*
X199964658Y-92607443D01*
X199964951Y-92573755D01*
X199965479Y-92543414D01*
X199966468Y-92510196D01*
X199967824Y-92482210D01*
X199970339Y-92451818D01*
X199972098Y-92439054D01*
X199981255Y-92410798D01*
X199997131Y-92384456D01*
X200014480Y-92363370D01*
X200032833Y-92344881D01*
X200057357Y-92325470D01*
X200084950Y-92310827D01*
X200111044Y-92302070D01*
X200139394Y-92296816D01*
X200169998Y-92295065D01*
X200199811Y-92296568D01*
X200228857Y-92301079D01*
X200257134Y-92308596D01*
X200284644Y-92319120D01*
X200311386Y-92332651D01*
X200337361Y-92349189D01*
X200362567Y-92368734D01*
X200387006Y-92391285D01*
X200409398Y-92415447D01*
X200428804Y-92440163D01*
X200445225Y-92465434D01*
X200458660Y-92491259D01*
X200469109Y-92517639D01*
X200476573Y-92544573D01*
X200481051Y-92572061D01*
X200482544Y-92600104D01*
X200475038Y-93425826D01*
X200475038Y-93530918D01*
G37*
G36*
X202767950Y-90402729D02*
G01*
X202731946Y-90411038D01*
X202694562Y-90418819D01*
X202655798Y-90426073D01*
X202615655Y-90432798D01*
X202588126Y-90436989D01*
X202559985Y-90440945D01*
X202531230Y-90444666D01*
X202501862Y-90448153D01*
X202471881Y-90451405D01*
X202441287Y-90454422D01*
X202410080Y-90457205D01*
X202378260Y-90459754D01*
X202345826Y-90462067D01*
X202312780Y-90464147D01*
X202277118Y-90466042D01*
X202236840Y-90467975D01*
X202191945Y-90469945D01*
X202142432Y-90471952D01*
X202088303Y-90473996D01*
X202059507Y-90475033D01*
X202029557Y-90476078D01*
X201998452Y-90477133D01*
X201966193Y-90478197D01*
X201932780Y-90479271D01*
X201898213Y-90480354D01*
X201862492Y-90481446D01*
X201825616Y-90482548D01*
X201787586Y-90483659D01*
X201748402Y-90484779D01*
X201708063Y-90485909D01*
X201666571Y-90487048D01*
X201623924Y-90488196D01*
X201580123Y-90489353D01*
X201535167Y-90490520D01*
X201489058Y-90491696D01*
X201441794Y-90492882D01*
X201393376Y-90494077D01*
X201343803Y-90495281D01*
X201293077Y-90496495D01*
X201241196Y-90497718D01*
X201188161Y-90498950D01*
X201236151Y-90521531D01*
X201283560Y-90544234D01*
X201330388Y-90567061D01*
X201376635Y-90590009D01*
X201422301Y-90613081D01*
X201467386Y-90636275D01*
X201511889Y-90659592D01*
X201555812Y-90683031D01*
X201599153Y-90706593D01*
X201641913Y-90730278D01*
X201684092Y-90754085D01*
X201725690Y-90778015D01*
X201766707Y-90802067D01*
X201807143Y-90826242D01*
X201846997Y-90850540D01*
X201886271Y-90874960D01*
X201915618Y-90893115D01*
X201944545Y-90910899D01*
X201973053Y-90928312D01*
X202001140Y-90945356D01*
X202028808Y-90962028D01*
X202056056Y-90978330D01*
X202082884Y-90994261D01*
X202109293Y-91009822D01*
X202135281Y-91025013D01*
X202160849Y-91039833D01*
X202185998Y-91054282D01*
X202210727Y-91068361D01*
X202235036Y-91082069D01*
X202258925Y-91095407D01*
X202305444Y-91120971D01*
X202350283Y-91145052D01*
X202393444Y-91167652D01*
X202434924Y-91188770D01*
X202474725Y-91208405D01*
X202512847Y-91226558D01*
X202549290Y-91243229D01*
X202584053Y-91258419D01*
X202617137Y-91272125D01*
X202645216Y-91266737D01*
X202673777Y-91264619D01*
X202702343Y-91266240D01*
X202730034Y-91271102D01*
X202756851Y-91279206D01*
X202782793Y-91290551D01*
X202807861Y-91305137D01*
X202832055Y-91322965D01*
X202855374Y-91344035D01*
X202877819Y-91368346D01*
X202898612Y-91394928D01*
X202916632Y-91422811D01*
X202931879Y-91451995D01*
X202944355Y-91482480D01*
X202954058Y-91514265D01*
X202960988Y-91547352D01*
X202965147Y-91581739D01*
X202966533Y-91617427D01*
X202965414Y-91651964D01*
X202962055Y-91684602D01*
X202956457Y-91715343D01*
X202948620Y-91744186D01*
X202938543Y-91771130D01*
X202926228Y-91796177D01*
X202911673Y-91819326D01*
X202894880Y-91840577D01*
X202871085Y-91863492D01*
X202844058Y-91881908D01*
X202813800Y-91895826D01*
X202787265Y-91903722D01*
X202758663Y-91908739D01*
X202727991Y-91910877D01*
X202695251Y-91910136D01*
X202686743Y-91909501D01*
X202460182Y-91932703D01*
X201776402Y-91982519D01*
X201742903Y-91985038D01*
X201708939Y-91987818D01*
X201674512Y-91990860D01*
X201639621Y-91994163D01*
X201604266Y-91997727D01*
X201568447Y-92001552D01*
X201532164Y-92005638D01*
X201495418Y-92009986D01*
X201458208Y-92014595D01*
X201420534Y-92019465D01*
X201382396Y-92024597D01*
X201343794Y-92029989D01*
X201304728Y-92035643D01*
X201265199Y-92041558D01*
X201225206Y-92047735D01*
X201184749Y-92054172D01*
X201143100Y-92060965D01*
X201099532Y-92068205D01*
X201054045Y-92075892D01*
X201006639Y-92084028D01*
X200957313Y-92092612D01*
X200906068Y-92101643D01*
X200852903Y-92111122D01*
X200825601Y-92116030D01*
X200797820Y-92121049D01*
X200769558Y-92126181D01*
X200740817Y-92131424D01*
X200711596Y-92136779D01*
X200681895Y-92142247D01*
X200651714Y-92147826D01*
X200621053Y-92153517D01*
X200589913Y-92159320D01*
X200558292Y-92165235D01*
X200526192Y-92171263D01*
X200493612Y-92177402D01*
X200460552Y-92183653D01*
X200427013Y-92190016D01*
X200392993Y-92196491D01*
X200358494Y-92203077D01*
X200323515Y-92209776D01*
X200288056Y-92216587D01*
X200259487Y-92221975D01*
X200230733Y-92224094D01*
X200197409Y-92221828D01*
X200165251Y-92215030D01*
X200134259Y-92203701D01*
X200104433Y-92187840D01*
X200081412Y-92171889D01*
X200059138Y-92153037D01*
X200037610Y-92131285D01*
X200017777Y-92107305D01*
X200000589Y-92082109D01*
X199986045Y-92055697D01*
X199974145Y-92028070D01*
X199964890Y-91999227D01*
X199958279Y-91969169D01*
X199954313Y-91937895D01*
X199952991Y-91905406D01*
X199954550Y-91874394D01*
X199959228Y-91844821D01*
X199967025Y-91816687D01*
X199977941Y-91789993D01*
X199991976Y-91764738D01*
X199997348Y-91756640D01*
X200017028Y-91733304D01*
X200038084Y-91714958D01*
X200063371Y-91697611D01*
X200092890Y-91681264D01*
X200119552Y-91668906D01*
X200148923Y-91657187D01*
X200172728Y-91648818D01*
X200200244Y-91640375D01*
X200233913Y-91631681D01*
X200273737Y-91622734D01*
X200303704Y-91616629D01*
X200336407Y-91610413D01*
X200371844Y-91604085D01*
X200410017Y-91597645D01*
X200450925Y-91591092D01*
X200494567Y-91584428D01*
X200540945Y-91577652D01*
X200590057Y-91570764D01*
X200641905Y-91563764D01*
X200696487Y-91556652D01*
X200724804Y-91553054D01*
X200753805Y-91549428D01*
X200783489Y-91545774D01*
X200813631Y-91542122D01*
X200844005Y-91538502D01*
X200874611Y-91534914D01*
X200905449Y-91531358D01*
X200936519Y-91527834D01*
X200967821Y-91524342D01*
X200999355Y-91520882D01*
X201031120Y-91517453D01*
X201063118Y-91514057D01*
X201095347Y-91510693D01*
X201127808Y-91507361D01*
X201160502Y-91504061D01*
X201193427Y-91500793D01*
X201226584Y-91497557D01*
X201259973Y-91494353D01*
X201293594Y-91491181D01*
X201327447Y-91488040D01*
X201361531Y-91484932D01*
X201395848Y-91481856D01*
X201430397Y-91478812D01*
X201465177Y-91475800D01*
X201500190Y-91472819D01*
X201535434Y-91469871D01*
X201570910Y-91466955D01*
X201606618Y-91464071D01*
X201642558Y-91461218D01*
X201678730Y-91458398D01*
X201715134Y-91455610D01*
X201751770Y-91452853D01*
X201788638Y-91450129D01*
X201825737Y-91447437D01*
X201863069Y-91444776D01*
X201838355Y-91430987D01*
X201813434Y-91417171D01*
X201788304Y-91403328D01*
X201762967Y-91389458D01*
X201737422Y-91375562D01*
X201711669Y-91361639D01*
X201685708Y-91347690D01*
X201659539Y-91333713D01*
X201633162Y-91319711D01*
X201606577Y-91305681D01*
X201579784Y-91291625D01*
X201552783Y-91277542D01*
X201525575Y-91263433D01*
X201498158Y-91249297D01*
X201470534Y-91235134D01*
X201442701Y-91220944D01*
X201414661Y-91206728D01*
X201386413Y-91192486D01*
X201357957Y-91178216D01*
X201329293Y-91163920D01*
X201300421Y-91149597D01*
X201271341Y-91135248D01*
X201242053Y-91120872D01*
X201212557Y-91106469D01*
X201182853Y-91092040D01*
X201152942Y-91077584D01*
X201122822Y-91063101D01*
X201092495Y-91048592D01*
X201061959Y-91034056D01*
X201031216Y-91019493D01*
X201000265Y-91004904D01*
X200969106Y-90990288D01*
X200929791Y-90972400D01*
X200891348Y-90954731D01*
X200853776Y-90937282D01*
X200817077Y-90920053D01*
X200781249Y-90903044D01*
X200746292Y-90886255D01*
X200712207Y-90869685D01*
X200678994Y-90853336D01*
X200646653Y-90837207D01*
X200615183Y-90821297D01*
X200584585Y-90805608D01*
X200554859Y-90790138D01*
X200526004Y-90774889D01*
X200498021Y-90759859D01*
X200470910Y-90745049D01*
X200444670Y-90730459D01*
X200419302Y-90716089D01*
X200394806Y-90701939D01*
X200371181Y-90688009D01*
X200326547Y-90660808D01*
X200285400Y-90634487D01*
X200247739Y-90609046D01*
X200213565Y-90584484D01*
X200182878Y-90560802D01*
X200155677Y-90538000D01*
X200143384Y-90526929D01*
X200120329Y-90505150D01*
X200098761Y-90483830D01*
X200078680Y-90462968D01*
X200060087Y-90442565D01*
X200034986Y-90412820D01*
X200013232Y-90384107D01*
X199994825Y-90356425D01*
X199979765Y-90329775D01*
X199968051Y-90304156D01*
X199957639Y-90271603D01*
X199953177Y-90240884D01*
X199952991Y-90233491D01*
X199954387Y-90205874D01*
X199960062Y-90172853D01*
X199970102Y-90141498D01*
X199984506Y-90111809D01*
X200003276Y-90083786D01*
X200021435Y-90062567D01*
X200042387Y-90042415D01*
X200069214Y-90023861D01*
X200095437Y-90011570D01*
X200126889Y-90000670D01*
X200163571Y-89991161D01*
X200190932Y-89985595D01*
X200220617Y-89980648D01*
X200252627Y-89976319D01*
X200286961Y-89972608D01*
X200323619Y-89969516D01*
X200362602Y-89967042D01*
X200403909Y-89965187D01*
X200447541Y-89963950D01*
X200493498Y-89963332D01*
X200517347Y-89963254D01*
X200547683Y-89963538D01*
X200580012Y-89964172D01*
X200608962Y-89964886D01*
X200641941Y-89965803D01*
X200678952Y-89966925D01*
X200719993Y-89968251D01*
X200749592Y-89969248D01*
X200780983Y-89970335D01*
X200814166Y-89971513D01*
X200849139Y-89972782D01*
X200885905Y-89974142D01*
X200904959Y-89974855D01*
X200952653Y-89976180D01*
X201004122Y-89976913D01*
X201059366Y-89977055D01*
X201088403Y-89976903D01*
X201118384Y-89976604D01*
X201149309Y-89976157D01*
X201181177Y-89975562D01*
X201213989Y-89974819D01*
X201247744Y-89973928D01*
X201282443Y-89972889D01*
X201318086Y-89971702D01*
X201354673Y-89970367D01*
X201392203Y-89968884D01*
X201430677Y-89967254D01*
X201470094Y-89965475D01*
X201510455Y-89963548D01*
X201551760Y-89961474D01*
X201594008Y-89959251D01*
X201637200Y-89956881D01*
X201681336Y-89954362D01*
X201726415Y-89951696D01*
X201772438Y-89948882D01*
X201819405Y-89945919D01*
X201867315Y-89942809D01*
X201916169Y-89939551D01*
X201965967Y-89936145D01*
X202016708Y-89932591D01*
X202068393Y-89928889D01*
X202121022Y-89925039D01*
X202084014Y-89902541D01*
X202045327Y-89879232D01*
X202004960Y-89855113D01*
X201962915Y-89830184D01*
X201919189Y-89804444D01*
X201873785Y-89777894D01*
X201826701Y-89750533D01*
X201802529Y-89736549D01*
X201777938Y-89722362D01*
X201752926Y-89707973D01*
X201727495Y-89693381D01*
X201701644Y-89678586D01*
X201675373Y-89663589D01*
X201648682Y-89648389D01*
X201621571Y-89632987D01*
X201594041Y-89617382D01*
X201566091Y-89601575D01*
X201537720Y-89585565D01*
X201508930Y-89569352D01*
X201479720Y-89552937D01*
X201450091Y-89536319D01*
X201420041Y-89519498D01*
X201389572Y-89502475D01*
X201358683Y-89485250D01*
X201327373Y-89467821D01*
X200771206Y-89157323D01*
X200743536Y-89143608D01*
X200715386Y-89130599D01*
X200689180Y-89118814D01*
X200658607Y-89105289D01*
X200623668Y-89090024D01*
X200597950Y-89078882D01*
X200570290Y-89066966D01*
X200540691Y-89054278D01*
X200509150Y-89040816D01*
X200475669Y-89026581D01*
X200440248Y-89011573D01*
X200421809Y-89003780D01*
X200392966Y-88991679D01*
X200365038Y-88979434D01*
X200338026Y-88967043D01*
X200311930Y-88954507D01*
X200286749Y-88941826D01*
X200262484Y-88928999D01*
X200216701Y-88902910D01*
X200174581Y-88876240D01*
X200136123Y-88848989D01*
X200101328Y-88821156D01*
X200070195Y-88792743D01*
X200042725Y-88763748D01*
X200018918Y-88734173D01*
X199998774Y-88704016D01*
X199982292Y-88673278D01*
X199969472Y-88641959D01*
X199960316Y-88610058D01*
X199954822Y-88577577D01*
X199952991Y-88544515D01*
X199954423Y-88511527D01*
X199958722Y-88480805D01*
X199965886Y-88452349D01*
X199975915Y-88426158D01*
X199991734Y-88397721D01*
X200011678Y-88372546D01*
X200034654Y-88350978D01*
X200060076Y-88333872D01*
X200087946Y-88321229D01*
X200118263Y-88313048D01*
X200145396Y-88309639D01*
X200162492Y-88309082D01*
X200190671Y-88311259D01*
X200217967Y-88317017D01*
X200246863Y-88326373D01*
X200249841Y-88327507D01*
X200276356Y-88338894D01*
X200302174Y-88351466D01*
X200326954Y-88364187D01*
X200355402Y-88379274D01*
X200387518Y-88396729D01*
X200414012Y-88411374D01*
X200442570Y-88427350D01*
X200462754Y-88438740D01*
X200493671Y-88456004D01*
X200524491Y-88472992D01*
X200555216Y-88489704D01*
X200585845Y-88506139D01*
X200616377Y-88522300D01*
X200646814Y-88538184D01*
X200677155Y-88553792D01*
X200707400Y-88569124D01*
X200737549Y-88584181D01*
X200767602Y-88598961D01*
X200787584Y-88608662D01*
X200817852Y-88623400D01*
X200849033Y-88638954D01*
X200881125Y-88655324D01*
X200914129Y-88672510D01*
X200948044Y-88690511D01*
X200982871Y-88709328D01*
X201018610Y-88728961D01*
X201042943Y-88742503D01*
X201067680Y-88756407D01*
X201092823Y-88770674D01*
X201118371Y-88785303D01*
X201144324Y-88800295D01*
X201157452Y-88807927D01*
X201183664Y-88823220D01*
X201209582Y-88838390D01*
X201235207Y-88853438D01*
X201260539Y-88868363D01*
X201285578Y-88883166D01*
X201310324Y-88897845D01*
X201334776Y-88912403D01*
X201358935Y-88926837D01*
X201382801Y-88941149D01*
X201406374Y-88955339D01*
X201441183Y-88976393D01*
X201475332Y-88997171D01*
X201508822Y-89017674D01*
X201541652Y-89037900D01*
X202201546Y-89439160D01*
X202226281Y-89454072D01*
X202250499Y-89468611D01*
X202274200Y-89482776D01*
X202308781Y-89503324D01*
X202342198Y-89523033D01*
X202374453Y-89541902D01*
X202405543Y-89559931D01*
X202435470Y-89577121D01*
X202464233Y-89593471D01*
X202491833Y-89608981D01*
X202518269Y-89623652D01*
X202535247Y-89632966D01*
X202573899Y-89654257D01*
X202610697Y-89674966D01*
X202645638Y-89695095D01*
X202678725Y-89714642D01*
X202709956Y-89733609D01*
X202739332Y-89751994D01*
X202766852Y-89769798D01*
X202792517Y-89787021D01*
X202816327Y-89803663D01*
X202848563Y-89827536D01*
X202876625Y-89850102D01*
X202900512Y-89871360D01*
X202920225Y-89891310D01*
X202931048Y-89903884D01*
X202949601Y-89928792D01*
X202965680Y-89954724D01*
X202979286Y-89981680D01*
X202990418Y-90009659D01*
X202999076Y-90038661D01*
X203005260Y-90068687D01*
X203008971Y-90099737D01*
X203010208Y-90131811D01*
X203009131Y-90161091D01*
X203005900Y-90189219D01*
X203000515Y-90216196D01*
X202990755Y-90248297D01*
X202977630Y-90278599D01*
X202961140Y-90307102D01*
X202941284Y-90333805D01*
X202919059Y-90357260D01*
X202895034Y-90376017D01*
X202869210Y-90390075D01*
X202841587Y-90399435D01*
X202812165Y-90404096D01*
X202780943Y-90404060D01*
X202767950Y-90402729D01*
G37*
G36*
X202370785Y-87829344D02*
G01*
X202364092Y-87775657D01*
X202357830Y-87721565D01*
X202354861Y-87694367D01*
X202352000Y-87667068D01*
X202349247Y-87639668D01*
X202346602Y-87612166D01*
X202344065Y-87584563D01*
X202341636Y-87556858D01*
X202339315Y-87529053D01*
X202337102Y-87501145D01*
X202334996Y-87473137D01*
X202332999Y-87445028D01*
X202331110Y-87416817D01*
X202329329Y-87388504D01*
X202327655Y-87360091D01*
X202326090Y-87331576D01*
X202324632Y-87302960D01*
X202323283Y-87274243D01*
X202322041Y-87245424D01*
X202320908Y-87216504D01*
X202319882Y-87187483D01*
X202318964Y-87158360D01*
X202318155Y-87129136D01*
X202317453Y-87099811D01*
X202316859Y-87070385D01*
X202316373Y-87040857D01*
X202315995Y-87011228D01*
X202315726Y-86981498D01*
X202315564Y-86951666D01*
X202315510Y-86921733D01*
X202316187Y-86890115D01*
X202318221Y-86858724D01*
X202321609Y-86827562D01*
X202326354Y-86796627D01*
X202332453Y-86765920D01*
X202339909Y-86735442D01*
X202348719Y-86705191D01*
X202358886Y-86675168D01*
X202370407Y-86645373D01*
X202383285Y-86615806D01*
X202392622Y-86596221D01*
X202407307Y-86568294D01*
X202422699Y-86543113D01*
X202438799Y-86520679D01*
X202461367Y-86495041D01*
X202485193Y-86474286D01*
X202510277Y-86458414D01*
X202536619Y-86447426D01*
X202564220Y-86441322D01*
X202585746Y-86439948D01*
X202616894Y-86442231D01*
X202647643Y-86449078D01*
X202677992Y-86460491D01*
X202707941Y-86476468D01*
X202731612Y-86492537D01*
X202755027Y-86511527D01*
X202778187Y-86533439D01*
X202799779Y-86557014D01*
X202818492Y-86581336D01*
X202834326Y-86606404D01*
X202847281Y-86632219D01*
X202857357Y-86658779D01*
X202864555Y-86686087D01*
X202868873Y-86714140D01*
X202870313Y-86742940D01*
X202869562Y-86772320D01*
X202867308Y-86803137D01*
X202864182Y-86830695D01*
X202859951Y-86859308D01*
X202854617Y-86888977D01*
X202849515Y-86918502D01*
X202845468Y-86946684D01*
X202842082Y-86977864D01*
X202840132Y-87007216D01*
X202839604Y-87030919D01*
X202835510Y-87593229D01*
X202836181Y-87624137D01*
X202837767Y-87654110D01*
X202840286Y-87687914D01*
X202842973Y-87717716D01*
X202846258Y-87749971D01*
X202850139Y-87784678D01*
X202853442Y-87812318D01*
X202854617Y-87821838D01*
X202858296Y-87850990D01*
X202861484Y-87879758D01*
X202864182Y-87908142D01*
X202866389Y-87936142D01*
X202868105Y-87963759D01*
X202869562Y-87997739D01*
X202870251Y-88031120D01*
X202870313Y-88044305D01*
X202869797Y-88079948D01*
X202868249Y-88113431D01*
X202865670Y-88144756D01*
X202862060Y-88173921D01*
X202857417Y-88200927D01*
X202849623Y-88233576D01*
X202839995Y-88262387D01*
X202828532Y-88287359D01*
X202811625Y-88313176D01*
X202791569Y-88334212D01*
X202768081Y-88351682D01*
X202741161Y-88365587D01*
X202710809Y-88375926D01*
X202684056Y-88381631D01*
X202655107Y-88385054D01*
X202623961Y-88386194D01*
X202590168Y-88385779D01*
X202556519Y-88384531D01*
X202523014Y-88382452D01*
X202489653Y-88379541D01*
X202456436Y-88375798D01*
X202423363Y-88371224D01*
X202390434Y-88365818D01*
X202357649Y-88359580D01*
X202325007Y-88352511D01*
X202292510Y-88344610D01*
X202260157Y-88335877D01*
X202227947Y-88326313D01*
X202195882Y-88315916D01*
X202163960Y-88304689D01*
X202132183Y-88292629D01*
X202100549Y-88279738D01*
X202069243Y-88266111D01*
X202038620Y-88251844D01*
X202008679Y-88236938D01*
X201979420Y-88221391D01*
X201950844Y-88205205D01*
X201922951Y-88188380D01*
X201895739Y-88170914D01*
X201869211Y-88152809D01*
X201843364Y-88134064D01*
X201818200Y-88114679D01*
X201793718Y-88094654D01*
X201769919Y-88073990D01*
X201746802Y-88052686D01*
X201724368Y-88030742D01*
X201702616Y-88008158D01*
X201681547Y-87984935D01*
X201660501Y-87960472D01*
X201638821Y-87934169D01*
X201616507Y-87906028D01*
X201593558Y-87876047D01*
X201569974Y-87844227D01*
X201545757Y-87810567D01*
X201520905Y-87775068D01*
X201495418Y-87737730D01*
X201469297Y-87698553D01*
X201442542Y-87657536D01*
X201415152Y-87614680D01*
X201387127Y-87569984D01*
X201358469Y-87523449D01*
X201343901Y-87499492D01*
X201329175Y-87475075D01*
X201314291Y-87450198D01*
X201299248Y-87424862D01*
X201284046Y-87399065D01*
X201268686Y-87372809D01*
X201251663Y-87343788D01*
X201234885Y-87315499D01*
X201218352Y-87287942D01*
X201202065Y-87261117D01*
X201186023Y-87235023D01*
X201170226Y-87209661D01*
X201154675Y-87185031D01*
X201139368Y-87161132D01*
X201124307Y-87137966D01*
X201094921Y-87093827D01*
X201066515Y-87052616D01*
X201039091Y-87014331D01*
X201012647Y-86978974D01*
X200987184Y-86946543D01*
X200962703Y-86917039D01*
X200939202Y-86890462D01*
X200916683Y-86866813D01*
X200895144Y-86846090D01*
X200864675Y-86820493D01*
X200845589Y-86807087D01*
X200817951Y-86789892D01*
X200791081Y-86774387D01*
X200764979Y-86760574D01*
X200739644Y-86748453D01*
X200707059Y-86734922D01*
X200675838Y-86724398D01*
X200645983Y-86716881D01*
X200617492Y-86712370D01*
X200590366Y-86710867D01*
X200557978Y-86713938D01*
X200526837Y-86723150D01*
X200501840Y-86735519D01*
X200477709Y-86752153D01*
X200454444Y-86773052D01*
X200432046Y-86798216D01*
X200415412Y-86820959D01*
X200400996Y-86845516D01*
X200388798Y-86871885D01*
X200378817Y-86900066D01*
X200371055Y-86930061D01*
X200365510Y-86961867D01*
X200362183Y-86995487D01*
X200361074Y-87030919D01*
X200362736Y-87069291D01*
X200367720Y-87108659D01*
X200376027Y-87149022D01*
X200383411Y-87176483D01*
X200392272Y-87204388D01*
X200402609Y-87232735D01*
X200414423Y-87261524D01*
X200427715Y-87290756D01*
X200442482Y-87320430D01*
X200458727Y-87350547D01*
X200476449Y-87381107D01*
X200495647Y-87412108D01*
X200516322Y-87443553D01*
X200538474Y-87475440D01*
X200550103Y-87491549D01*
X200572993Y-87522778D01*
X200594407Y-87552657D01*
X200614344Y-87581188D01*
X200632803Y-87608370D01*
X200649786Y-87634203D01*
X200665293Y-87658687D01*
X200685783Y-87692885D01*
X200702951Y-87724047D01*
X200716796Y-87752175D01*
X200730087Y-87784957D01*
X200737471Y-87812345D01*
X200739132Y-87829344D01*
X200737899Y-87862072D01*
X200734201Y-87892867D01*
X200728036Y-87921730D01*
X200719406Y-87948660D01*
X200708310Y-87973658D01*
X200691740Y-88001103D01*
X200688633Y-88005407D01*
X200668337Y-88028367D01*
X200645833Y-88046576D01*
X200621122Y-88060035D01*
X200594204Y-88068744D01*
X200565079Y-88072702D01*
X200554880Y-88072966D01*
X200524685Y-88071383D01*
X200495089Y-88066635D01*
X200466093Y-88058721D01*
X200437697Y-88047642D01*
X200409900Y-88033397D01*
X200382704Y-88015987D01*
X200371993Y-88008137D01*
X200348716Y-87987526D01*
X200328698Y-87966512D01*
X200306484Y-87940735D01*
X200282075Y-87910196D01*
X200264583Y-87887192D01*
X200246115Y-87862070D01*
X200226671Y-87834832D01*
X200206252Y-87805478D01*
X200184858Y-87774007D01*
X200162487Y-87740419D01*
X200139141Y-87704715D01*
X200114819Y-87666894D01*
X200089522Y-87626957D01*
X200076508Y-87606195D01*
X200050973Y-87564136D01*
X200027086Y-87522236D01*
X200004846Y-87480497D01*
X199984254Y-87438918D01*
X199965309Y-87397498D01*
X199948011Y-87356239D01*
X199932361Y-87315140D01*
X199918358Y-87274200D01*
X199906003Y-87233420D01*
X199895295Y-87192801D01*
X199886234Y-87152341D01*
X199878821Y-87112041D01*
X199873055Y-87071901D01*
X199868936Y-87031922D01*
X199866465Y-86992102D01*
X199865642Y-86952442D01*
X199866305Y-86908351D01*
X199868297Y-86865306D01*
X199871615Y-86823305D01*
X199876262Y-86782350D01*
X199882235Y-86742439D01*
X199889537Y-86703574D01*
X199898166Y-86665753D01*
X199908122Y-86628977D01*
X199919406Y-86593246D01*
X199932017Y-86558560D01*
X199945956Y-86524920D01*
X199961222Y-86492324D01*
X199977816Y-86460773D01*
X199995737Y-86430267D01*
X200014986Y-86400805D01*
X200035563Y-86372389D01*
X200057069Y-86345285D01*
X200079280Y-86319929D01*
X200102194Y-86296321D01*
X200125812Y-86274463D01*
X200150134Y-86254353D01*
X200175159Y-86235992D01*
X200200888Y-86219379D01*
X200227321Y-86204515D01*
X200254458Y-86191400D01*
X200282298Y-86180034D01*
X200310842Y-86170416D01*
X200340090Y-86162547D01*
X200370042Y-86156426D01*
X200400697Y-86152055D01*
X200432056Y-86149432D01*
X200464119Y-86148557D01*
X200499916Y-86149266D01*
X200535826Y-86151394D01*
X200571847Y-86154939D01*
X200607981Y-86159902D01*
X200644226Y-86166284D01*
X200680583Y-86174084D01*
X200717052Y-86183302D01*
X200753633Y-86193938D01*
X200790327Y-86205992D01*
X200827132Y-86219464D01*
X200864049Y-86234355D01*
X200901078Y-86250664D01*
X200938219Y-86268390D01*
X200975471Y-86287535D01*
X201012836Y-86308098D01*
X201050313Y-86330080D01*
X201087729Y-86353943D01*
X201124910Y-86380322D01*
X201161856Y-86409218D01*
X201198568Y-86440631D01*
X201235045Y-86474559D01*
X201271287Y-86511005D01*
X201307296Y-86549966D01*
X201343069Y-86591444D01*
X201360868Y-86613127D01*
X201378608Y-86635439D01*
X201396289Y-86658380D01*
X201413912Y-86681950D01*
X201431476Y-86706149D01*
X201448982Y-86730977D01*
X201466429Y-86756434D01*
X201483817Y-86782520D01*
X201501147Y-86809236D01*
X201518417Y-86836580D01*
X201535630Y-86864554D01*
X201552783Y-86893157D01*
X201569878Y-86922389D01*
X201586915Y-86952250D01*
X201603893Y-86982740D01*
X201620812Y-87013859D01*
X201634276Y-87038466D01*
X201647628Y-87062644D01*
X201673997Y-87109706D01*
X201699918Y-87155047D01*
X201725392Y-87198665D01*
X201750417Y-87240562D01*
X201774995Y-87280736D01*
X201799124Y-87319189D01*
X201822806Y-87355919D01*
X201846040Y-87390928D01*
X201868827Y-87424214D01*
X201891165Y-87455778D01*
X201913056Y-87485621D01*
X201934498Y-87513741D01*
X201955493Y-87540139D01*
X201976040Y-87564815D01*
X201996140Y-87587769D01*
X202016156Y-87609425D01*
X202036626Y-87630207D01*
X202057549Y-87650114D01*
X202078925Y-87669147D01*
X202100754Y-87687306D01*
X202123037Y-87704590D01*
X202145772Y-87721000D01*
X202168961Y-87736536D01*
X202192603Y-87751197D01*
X202216698Y-87764984D01*
X202241246Y-87777897D01*
X202266248Y-87789935D01*
X202291702Y-87801099D01*
X202317610Y-87811388D01*
X202343971Y-87820803D01*
X202370785Y-87829344D01*
G37*
D15*
G36*
X135696116Y-101015035D02*
G01*
X135745013Y-101045594D01*
X135765469Y-101068607D01*
X135789683Y-101120062D01*
X135789683Y-101302637D01*
X135553221Y-101273079D01*
X135553221Y-101066373D01*
X135572349Y-101030507D01*
X135583818Y-101020471D01*
X135622766Y-101005866D01*
X135696116Y-101015035D01*
G37*
G36*
X135696116Y-99164464D02*
G01*
X135745013Y-99195023D01*
X135765469Y-99218036D01*
X135789683Y-99269491D01*
X135789683Y-99358329D01*
X135785617Y-99379227D01*
X135789683Y-99389436D01*
X135789683Y-99452066D01*
X135553221Y-99422508D01*
X135553221Y-99215802D01*
X135572349Y-99179936D01*
X135583818Y-99169900D01*
X135622766Y-99155295D01*
X135696116Y-99164464D01*
G37*
G36*
X137140496Y-102263846D02*
G01*
X134842704Y-102263846D01*
X134842704Y-101370450D01*
X135332783Y-101370450D01*
X135341973Y-101399741D01*
X135350624Y-101429201D01*
X135351439Y-101429907D01*
X135351762Y-101430936D01*
X135375338Y-101450616D01*
X135398534Y-101470715D01*
X135399600Y-101470868D01*
X135400429Y-101471560D01*
X135430911Y-101475370D01*
X135461282Y-101479737D01*
X135462262Y-101479289D01*
X135883270Y-101531914D01*
X135913644Y-101536282D01*
X135914624Y-101535834D01*
X136310882Y-101585366D01*
X136357488Y-101577786D01*
X136404624Y-101535395D01*
X136421359Y-101474250D01*
X136402380Y-101413764D01*
X136353713Y-101373140D01*
X136005583Y-101329624D01*
X136005583Y-101103030D01*
X136008805Y-101078645D01*
X135998858Y-101057509D01*
X135992280Y-101035104D01*
X135985585Y-101029302D01*
X135960763Y-100976558D01*
X135958250Y-100960515D01*
X135937388Y-100937045D01*
X135916248Y-100913205D01*
X135916179Y-100913185D01*
X135906381Y-100902163D01*
X135899477Y-100887534D01*
X135796626Y-100823254D01*
X135777979Y-100807688D01*
X135754497Y-100804752D01*
X135731718Y-100798375D01*
X135723553Y-100800884D01*
X135627874Y-100788924D01*
X135601541Y-100783245D01*
X135581877Y-100790618D01*
X135561150Y-100793990D01*
X135552755Y-100801539D01*
X135500323Y-100821201D01*
X135480286Y-100824181D01*
X135459453Y-100842409D01*
X135437332Y-100859031D01*
X135435829Y-100863080D01*
X135423837Y-100873573D01*
X135406061Y-100883509D01*
X135393083Y-100907842D01*
X135378293Y-100931103D01*
X135378314Y-100935533D01*
X135352080Y-100984722D01*
X135337321Y-101007688D01*
X135337321Y-101028317D01*
X135333135Y-101048516D01*
X135337321Y-101059410D01*
X135337321Y-101353869D01*
X135332783Y-101370450D01*
X134842704Y-101370450D01*
X134842704Y-99823836D01*
X135335131Y-99823836D01*
X135340204Y-99887027D01*
X135378635Y-99937444D01*
X135865348Y-100114167D01*
X135689130Y-100139131D01*
X135669894Y-100137440D01*
X135644559Y-100150742D01*
X135618514Y-100162572D01*
X135616711Y-100165363D01*
X135613767Y-100166910D01*
X135599645Y-100191798D01*
X135584130Y-100215831D01*
X135584123Y-100219155D01*
X135582483Y-100222046D01*
X135584058Y-100250606D01*
X135583999Y-100279224D01*
X135585790Y-100282025D01*
X135585974Y-100285344D01*
X135602748Y-100308531D01*
X135618162Y-100332625D01*
X135621180Y-100334011D01*
X135623131Y-100336707D01*
X135649783Y-100347146D01*
X135675772Y-100359080D01*
X135679063Y-100358613D01*
X135863963Y-100431032D01*
X135417718Y-100481501D01*
X135374194Y-100499811D01*
X135338327Y-100552083D01*
X135336414Y-100615447D01*
X135369062Y-100669788D01*
X135425906Y-100697851D01*
X136310224Y-100597839D01*
X136330991Y-100599665D01*
X136354976Y-100587071D01*
X136379948Y-100576566D01*
X136382743Y-100572491D01*
X136387118Y-100570195D01*
X136400490Y-100546628D01*
X136415815Y-100524294D01*
X136415964Y-100519357D01*
X136418403Y-100515059D01*
X136416910Y-100488006D01*
X136417728Y-100460930D01*
X136415183Y-100456694D01*
X136414911Y-100451761D01*
X136399026Y-100429804D01*
X136385079Y-100406590D01*
X136380651Y-100404404D01*
X136377754Y-100400399D01*
X136352523Y-100390517D01*
X136328236Y-100378526D01*
X136323325Y-100379081D01*
X136113817Y-100297023D01*
X136313104Y-100268791D01*
X136333743Y-100270087D01*
X136357555Y-100256813D01*
X136382371Y-100245543D01*
X136384954Y-100241541D01*
X136389115Y-100239222D01*
X136401971Y-100215182D01*
X136416755Y-100192283D01*
X136416764Y-100187520D01*
X136419011Y-100183321D01*
X136416829Y-100156149D01*
X136416886Y-100128890D01*
X136414319Y-100124877D01*
X136413938Y-100120130D01*
X136397410Y-100098446D01*
X136382723Y-100075489D01*
X136378396Y-100073502D01*
X136375508Y-100069713D01*
X136349883Y-100060409D01*
X136325113Y-100049034D01*
X136320396Y-100049702D01*
X135467526Y-99740029D01*
X135420400Y-99737070D01*
X135365027Y-99767935D01*
X135335131Y-99823836D01*
X134842704Y-99823836D01*
X134842704Y-99519879D01*
X135332783Y-99519879D01*
X135341973Y-99549170D01*
X135350624Y-99578630D01*
X135351439Y-99579336D01*
X135351762Y-99580365D01*
X135375338Y-99600045D01*
X135398534Y-99620144D01*
X135399600Y-99620297D01*
X135400429Y-99620989D01*
X135430911Y-99624799D01*
X135461282Y-99629166D01*
X135462262Y-99628718D01*
X135883270Y-99681343D01*
X135913644Y-99685711D01*
X135914624Y-99685263D01*
X136310882Y-99734795D01*
X136357488Y-99727215D01*
X136404624Y-99684824D01*
X136421359Y-99623679D01*
X136402380Y-99563193D01*
X136353713Y-99522569D01*
X136005583Y-99479053D01*
X136005583Y-99431182D01*
X136376135Y-99218114D01*
X136408780Y-99183998D01*
X136420887Y-99121771D01*
X136397430Y-99062877D01*
X136345856Y-99026014D01*
X136282539Y-99022886D01*
X135993599Y-99189026D01*
X135992280Y-99184533D01*
X135985585Y-99178731D01*
X135960763Y-99125987D01*
X135958250Y-99109944D01*
X135937388Y-99086474D01*
X135916248Y-99062634D01*
X135916179Y-99062614D01*
X135906381Y-99051592D01*
X135899477Y-99036963D01*
X135796626Y-98972683D01*
X135777979Y-98957117D01*
X135754497Y-98954181D01*
X135731718Y-98947804D01*
X135723553Y-98950313D01*
X135627874Y-98938353D01*
X135601541Y-98932674D01*
X135581877Y-98940047D01*
X135561150Y-98943419D01*
X135552755Y-98950968D01*
X135500323Y-98970630D01*
X135480286Y-98973610D01*
X135459453Y-98991838D01*
X135437332Y-99008460D01*
X135435829Y-99012509D01*
X135423837Y-99023002D01*
X135406061Y-99032938D01*
X135393083Y-99057271D01*
X135378293Y-99080532D01*
X135378314Y-99084962D01*
X135352080Y-99134151D01*
X135337321Y-99157117D01*
X135337321Y-99177746D01*
X135333135Y-99197945D01*
X135337321Y-99208839D01*
X135337321Y-99503298D01*
X135332783Y-99519879D01*
X134842704Y-99519879D01*
X134842704Y-98288203D01*
X137140496Y-98288203D01*
X137140496Y-102263846D01*
G37*
%TO.C,C8*%
X166861066Y-79432223D02*
X166819942Y-79473347D01*
X166819942Y-79473347D02*
X166696571Y-79514471D01*
X166696571Y-79514471D02*
X166614323Y-79514471D01*
X166614323Y-79514471D02*
X166490952Y-79473347D01*
X166490952Y-79473347D02*
X166408704Y-79391099D01*
X166408704Y-79391099D02*
X166367581Y-79308852D01*
X166367581Y-79308852D02*
X166326457Y-79144356D01*
X166326457Y-79144356D02*
X166326457Y-79020985D01*
X166326457Y-79020985D02*
X166367581Y-78856490D01*
X166367581Y-78856490D02*
X166408704Y-78774242D01*
X166408704Y-78774242D02*
X166490952Y-78691995D01*
X166490952Y-78691995D02*
X166614323Y-78650871D01*
X166614323Y-78650871D02*
X166696571Y-78650871D01*
X166696571Y-78650871D02*
X166819942Y-78691995D01*
X166819942Y-78691995D02*
X166861066Y-78733118D01*
X167354552Y-79020985D02*
X167272304Y-78979861D01*
X167272304Y-78979861D02*
X167231181Y-78938737D01*
X167231181Y-78938737D02*
X167190057Y-78856490D01*
X167190057Y-78856490D02*
X167190057Y-78815366D01*
X167190057Y-78815366D02*
X167231181Y-78733118D01*
X167231181Y-78733118D02*
X167272304Y-78691995D01*
X167272304Y-78691995D02*
X167354552Y-78650871D01*
X167354552Y-78650871D02*
X167519047Y-78650871D01*
X167519047Y-78650871D02*
X167601295Y-78691995D01*
X167601295Y-78691995D02*
X167642419Y-78733118D01*
X167642419Y-78733118D02*
X167683542Y-78815366D01*
X167683542Y-78815366D02*
X167683542Y-78856490D01*
X167683542Y-78856490D02*
X167642419Y-78938737D01*
X167642419Y-78938737D02*
X167601295Y-78979861D01*
X167601295Y-78979861D02*
X167519047Y-79020985D01*
X167519047Y-79020985D02*
X167354552Y-79020985D01*
X167354552Y-79020985D02*
X167272304Y-79062109D01*
X167272304Y-79062109D02*
X167231181Y-79103233D01*
X167231181Y-79103233D02*
X167190057Y-79185480D01*
X167190057Y-79185480D02*
X167190057Y-79349975D01*
X167190057Y-79349975D02*
X167231181Y-79432223D01*
X167231181Y-79432223D02*
X167272304Y-79473347D01*
X167272304Y-79473347D02*
X167354552Y-79514471D01*
X167354552Y-79514471D02*
X167519047Y-79514471D01*
X167519047Y-79514471D02*
X167601295Y-79473347D01*
X167601295Y-79473347D02*
X167642419Y-79432223D01*
X167642419Y-79432223D02*
X167683542Y-79349975D01*
X167683542Y-79349975D02*
X167683542Y-79185480D01*
X167683542Y-79185480D02*
X167642419Y-79103233D01*
X167642419Y-79103233D02*
X167601295Y-79062109D01*
X167601295Y-79062109D02*
X167519047Y-79020985D01*
%TO.C,C4*%
X139531066Y-86699523D02*
X139489942Y-86740647D01*
X139489942Y-86740647D02*
X139366571Y-86781771D01*
X139366571Y-86781771D02*
X139284323Y-86781771D01*
X139284323Y-86781771D02*
X139160952Y-86740647D01*
X139160952Y-86740647D02*
X139078704Y-86658399D01*
X139078704Y-86658399D02*
X139037581Y-86576152D01*
X139037581Y-86576152D02*
X138996457Y-86411656D01*
X138996457Y-86411656D02*
X138996457Y-86288285D01*
X138996457Y-86288285D02*
X139037581Y-86123790D01*
X139037581Y-86123790D02*
X139078704Y-86041542D01*
X139078704Y-86041542D02*
X139160952Y-85959295D01*
X139160952Y-85959295D02*
X139284323Y-85918171D01*
X139284323Y-85918171D02*
X139366571Y-85918171D01*
X139366571Y-85918171D02*
X139489942Y-85959295D01*
X139489942Y-85959295D02*
X139531066Y-86000418D01*
X140271295Y-86206037D02*
X140271295Y-86781771D01*
X140065676Y-85877047D02*
X139860057Y-86493904D01*
X139860057Y-86493904D02*
X140394666Y-86493904D01*
%TO.C,C1*%
X150296066Y-103451823D02*
X150254942Y-103492947D01*
X150254942Y-103492947D02*
X150131571Y-103534071D01*
X150131571Y-103534071D02*
X150049323Y-103534071D01*
X150049323Y-103534071D02*
X149925952Y-103492947D01*
X149925952Y-103492947D02*
X149843704Y-103410699D01*
X149843704Y-103410699D02*
X149802581Y-103328452D01*
X149802581Y-103328452D02*
X149761457Y-103163956D01*
X149761457Y-103163956D02*
X149761457Y-103040585D01*
X149761457Y-103040585D02*
X149802581Y-102876090D01*
X149802581Y-102876090D02*
X149843704Y-102793842D01*
X149843704Y-102793842D02*
X149925952Y-102711595D01*
X149925952Y-102711595D02*
X150049323Y-102670471D01*
X150049323Y-102670471D02*
X150131571Y-102670471D01*
X150131571Y-102670471D02*
X150254942Y-102711595D01*
X150254942Y-102711595D02*
X150296066Y-102752718D01*
X151118542Y-103534071D02*
X150625057Y-103534071D01*
X150871800Y-103534071D02*
X150871800Y-102670471D01*
X150871800Y-102670471D02*
X150789552Y-102793842D01*
X150789552Y-102793842D02*
X150707304Y-102876090D01*
X150707304Y-102876090D02*
X150625057Y-102917214D01*
%TO.C,TP1*%
X157203019Y-78066671D02*
X157696505Y-78066671D01*
X157449762Y-78930271D02*
X157449762Y-78066671D01*
X157902124Y-78066671D02*
X158477857Y-78930271D01*
X158477857Y-78066671D02*
X157902124Y-78930271D01*
%TO.C,C7*%
X144611066Y-101702523D02*
X144569942Y-101743647D01*
X144569942Y-101743647D02*
X144446571Y-101784771D01*
X144446571Y-101784771D02*
X144364323Y-101784771D01*
X144364323Y-101784771D02*
X144240952Y-101743647D01*
X144240952Y-101743647D02*
X144158704Y-101661399D01*
X144158704Y-101661399D02*
X144117581Y-101579152D01*
X144117581Y-101579152D02*
X144076457Y-101414656D01*
X144076457Y-101414656D02*
X144076457Y-101291285D01*
X144076457Y-101291285D02*
X144117581Y-101126790D01*
X144117581Y-101126790D02*
X144158704Y-101044542D01*
X144158704Y-101044542D02*
X144240952Y-100962295D01*
X144240952Y-100962295D02*
X144364323Y-100921171D01*
X144364323Y-100921171D02*
X144446571Y-100921171D01*
X144446571Y-100921171D02*
X144569942Y-100962295D01*
X144569942Y-100962295D02*
X144611066Y-101003418D01*
X144898933Y-100921171D02*
X145474666Y-100921171D01*
X145474666Y-100921171D02*
X145104552Y-101784771D01*
%TO.C,D2*%
X131442581Y-82359271D02*
X131442581Y-81495671D01*
X131442581Y-81495671D02*
X131648200Y-81495671D01*
X131648200Y-81495671D02*
X131771571Y-81536795D01*
X131771571Y-81536795D02*
X131853819Y-81619042D01*
X131853819Y-81619042D02*
X131894942Y-81701290D01*
X131894942Y-81701290D02*
X131936066Y-81865785D01*
X131936066Y-81865785D02*
X131936066Y-81989156D01*
X131936066Y-81989156D02*
X131894942Y-82153652D01*
X131894942Y-82153652D02*
X131853819Y-82235899D01*
X131853819Y-82235899D02*
X131771571Y-82318147D01*
X131771571Y-82318147D02*
X131648200Y-82359271D01*
X131648200Y-82359271D02*
X131442581Y-82359271D01*
X132265057Y-81577918D02*
X132306181Y-81536795D01*
X132306181Y-81536795D02*
X132388428Y-81495671D01*
X132388428Y-81495671D02*
X132594047Y-81495671D01*
X132594047Y-81495671D02*
X132676295Y-81536795D01*
X132676295Y-81536795D02*
X132717419Y-81577918D01*
X132717419Y-81577918D02*
X132758542Y-81660166D01*
X132758542Y-81660166D02*
X132758542Y-81742414D01*
X132758542Y-81742414D02*
X132717419Y-81865785D01*
X132717419Y-81865785D02*
X132223933Y-82359271D01*
X132223933Y-82359271D02*
X132758542Y-82359271D01*
%TO.C,Y1*%
X162656762Y-98966033D02*
X162656762Y-99377271D01*
X162368895Y-98513671D02*
X162656762Y-98966033D01*
X162656762Y-98966033D02*
X162944628Y-98513671D01*
X163684857Y-99377271D02*
X163191372Y-99377271D01*
X163438115Y-99377271D02*
X163438115Y-98513671D01*
X163438115Y-98513671D02*
X163355867Y-98637042D01*
X163355867Y-98637042D02*
X163273619Y-98719290D01*
X163273619Y-98719290D02*
X163191372Y-98760414D01*
%TO.C,F1*%
X135348133Y-91685909D02*
X135060267Y-91685909D01*
X135060267Y-92138271D02*
X135060267Y-91274671D01*
X135060267Y-91274671D02*
X135471505Y-91274671D01*
X136252857Y-92138271D02*
X135759372Y-92138271D01*
X136006115Y-92138271D02*
X136006115Y-91274671D01*
X136006115Y-91274671D02*
X135923867Y-91398042D01*
X135923867Y-91398042D02*
X135841619Y-91480290D01*
X135841619Y-91480290D02*
X135759372Y-91521414D01*
%TO.C,R3*%
X139289566Y-82342671D02*
X139001700Y-81931433D01*
X138796081Y-82342671D02*
X138796081Y-81479071D01*
X138796081Y-81479071D02*
X139125071Y-81479071D01*
X139125071Y-81479071D02*
X139207319Y-81520195D01*
X139207319Y-81520195D02*
X139248442Y-81561318D01*
X139248442Y-81561318D02*
X139289566Y-81643566D01*
X139289566Y-81643566D02*
X139289566Y-81766937D01*
X139289566Y-81766937D02*
X139248442Y-81849185D01*
X139248442Y-81849185D02*
X139207319Y-81890309D01*
X139207319Y-81890309D02*
X139125071Y-81931433D01*
X139125071Y-81931433D02*
X138796081Y-81931433D01*
X139577433Y-81479071D02*
X140112042Y-81479071D01*
X140112042Y-81479071D02*
X139824176Y-81808061D01*
X139824176Y-81808061D02*
X139947547Y-81808061D01*
X139947547Y-81808061D02*
X140029795Y-81849185D01*
X140029795Y-81849185D02*
X140070919Y-81890309D01*
X140070919Y-81890309D02*
X140112042Y-81972556D01*
X140112042Y-81972556D02*
X140112042Y-82178175D01*
X140112042Y-82178175D02*
X140070919Y-82260423D01*
X140070919Y-82260423D02*
X140029795Y-82301547D01*
X140029795Y-82301547D02*
X139947547Y-82342671D01*
X139947547Y-82342671D02*
X139700804Y-82342671D01*
X139700804Y-82342671D02*
X139618557Y-82301547D01*
X139618557Y-82301547D02*
X139577433Y-82260423D01*
%TO.C,R2*%
X144890066Y-82342671D02*
X144602200Y-81931433D01*
X144396581Y-82342671D02*
X144396581Y-81479071D01*
X144396581Y-81479071D02*
X144725571Y-81479071D01*
X144725571Y-81479071D02*
X144807819Y-81520195D01*
X144807819Y-81520195D02*
X144848942Y-81561318D01*
X144848942Y-81561318D02*
X144890066Y-81643566D01*
X144890066Y-81643566D02*
X144890066Y-81766937D01*
X144890066Y-81766937D02*
X144848942Y-81849185D01*
X144848942Y-81849185D02*
X144807819Y-81890309D01*
X144807819Y-81890309D02*
X144725571Y-81931433D01*
X144725571Y-81931433D02*
X144396581Y-81931433D01*
X145219057Y-81561318D02*
X145260181Y-81520195D01*
X145260181Y-81520195D02*
X145342428Y-81479071D01*
X145342428Y-81479071D02*
X145548047Y-81479071D01*
X145548047Y-81479071D02*
X145630295Y-81520195D01*
X145630295Y-81520195D02*
X145671419Y-81561318D01*
X145671419Y-81561318D02*
X145712542Y-81643566D01*
X145712542Y-81643566D02*
X145712542Y-81725814D01*
X145712542Y-81725814D02*
X145671419Y-81849185D01*
X145671419Y-81849185D02*
X145177933Y-82342671D01*
X145177933Y-82342671D02*
X145712542Y-82342671D01*
%TO.C,U2*%
X147678019Y-91020671D02*
X147678019Y-91719775D01*
X147678019Y-91719775D02*
X147719142Y-91802023D01*
X147719142Y-91802023D02*
X147760266Y-91843147D01*
X147760266Y-91843147D02*
X147842514Y-91884271D01*
X147842514Y-91884271D02*
X148007009Y-91884271D01*
X148007009Y-91884271D02*
X148089257Y-91843147D01*
X148089257Y-91843147D02*
X148130380Y-91802023D01*
X148130380Y-91802023D02*
X148171504Y-91719775D01*
X148171504Y-91719775D02*
X148171504Y-91020671D01*
X148541619Y-91102918D02*
X148582743Y-91061795D01*
X148582743Y-91061795D02*
X148664990Y-91020671D01*
X148664990Y-91020671D02*
X148870609Y-91020671D01*
X148870609Y-91020671D02*
X148952857Y-91061795D01*
X148952857Y-91061795D02*
X148993981Y-91102918D01*
X148993981Y-91102918D02*
X149035104Y-91185166D01*
X149035104Y-91185166D02*
X149035104Y-91267414D01*
X149035104Y-91267414D02*
X148993981Y-91390785D01*
X148993981Y-91390785D02*
X148500495Y-91884271D01*
X148500495Y-91884271D02*
X149035104Y-91884271D01*
%TO.C,ZIF*%
X165760400Y-80733671D02*
X166336133Y-80733671D01*
X166336133Y-80733671D02*
X165760400Y-81597271D01*
X165760400Y-81597271D02*
X166336133Y-81597271D01*
X166665124Y-81597271D02*
X166665124Y-80733671D01*
X167364228Y-81144909D02*
X167076362Y-81144909D01*
X167076362Y-81597271D02*
X167076362Y-80733671D01*
X167076362Y-80733671D02*
X167487600Y-80733671D01*
%TO.C,D1*%
X131442581Y-98827271D02*
X131442581Y-97963671D01*
X131442581Y-97963671D02*
X131648200Y-97963671D01*
X131648200Y-97963671D02*
X131771571Y-98004795D01*
X131771571Y-98004795D02*
X131853819Y-98087042D01*
X131853819Y-98087042D02*
X131894942Y-98169290D01*
X131894942Y-98169290D02*
X131936066Y-98333785D01*
X131936066Y-98333785D02*
X131936066Y-98457156D01*
X131936066Y-98457156D02*
X131894942Y-98621652D01*
X131894942Y-98621652D02*
X131853819Y-98703899D01*
X131853819Y-98703899D02*
X131771571Y-98786147D01*
X131771571Y-98786147D02*
X131648200Y-98827271D01*
X131648200Y-98827271D02*
X131442581Y-98827271D01*
X132758542Y-98827271D02*
X132265057Y-98827271D01*
X132511800Y-98827271D02*
X132511800Y-97963671D01*
X132511800Y-97963671D02*
X132429552Y-98087042D01*
X132429552Y-98087042D02*
X132347304Y-98169290D01*
X132347304Y-98169290D02*
X132265057Y-98210414D01*
%TO.C,SW1*%
X166151076Y-99123271D02*
X165863210Y-98712033D01*
X165657591Y-99123271D02*
X165657591Y-98259671D01*
X165657591Y-98259671D02*
X165986581Y-98259671D01*
X165986581Y-98259671D02*
X166068829Y-98300795D01*
X166068829Y-98300795D02*
X166109952Y-98341918D01*
X166109952Y-98341918D02*
X166151076Y-98424166D01*
X166151076Y-98424166D02*
X166151076Y-98547537D01*
X166151076Y-98547537D02*
X166109952Y-98629785D01*
X166109952Y-98629785D02*
X166068829Y-98670909D01*
X166068829Y-98670909D02*
X165986581Y-98712033D01*
X165986581Y-98712033D02*
X165657591Y-98712033D01*
X166480067Y-99082147D02*
X166603438Y-99123271D01*
X166603438Y-99123271D02*
X166809057Y-99123271D01*
X166809057Y-99123271D02*
X166891305Y-99082147D01*
X166891305Y-99082147D02*
X166932429Y-99041023D01*
X166932429Y-99041023D02*
X166973552Y-98958775D01*
X166973552Y-98958775D02*
X166973552Y-98876528D01*
X166973552Y-98876528D02*
X166932429Y-98794280D01*
X166932429Y-98794280D02*
X166891305Y-98753156D01*
X166891305Y-98753156D02*
X166809057Y-98712033D01*
X166809057Y-98712033D02*
X166644562Y-98670909D01*
X166644562Y-98670909D02*
X166562314Y-98629785D01*
X166562314Y-98629785D02*
X166521191Y-98588661D01*
X166521191Y-98588661D02*
X166480067Y-98506414D01*
X166480067Y-98506414D02*
X166480067Y-98424166D01*
X166480067Y-98424166D02*
X166521191Y-98341918D01*
X166521191Y-98341918D02*
X166562314Y-98300795D01*
X166562314Y-98300795D02*
X166644562Y-98259671D01*
X166644562Y-98259671D02*
X166850181Y-98259671D01*
X166850181Y-98259671D02*
X166973552Y-98300795D01*
X167220295Y-98259671D02*
X167713781Y-98259671D01*
X167467038Y-99123271D02*
X167467038Y-98259671D01*
%TO.C,R6*%
X162354566Y-82232271D02*
X162066700Y-81821033D01*
X161861081Y-82232271D02*
X161861081Y-81368671D01*
X161861081Y-81368671D02*
X162190071Y-81368671D01*
X162190071Y-81368671D02*
X162272319Y-81409795D01*
X162272319Y-81409795D02*
X162313442Y-81450918D01*
X162313442Y-81450918D02*
X162354566Y-81533166D01*
X162354566Y-81533166D02*
X162354566Y-81656537D01*
X162354566Y-81656537D02*
X162313442Y-81738785D01*
X162313442Y-81738785D02*
X162272319Y-81779909D01*
X162272319Y-81779909D02*
X162190071Y-81821033D01*
X162190071Y-81821033D02*
X161861081Y-81821033D01*
X163094795Y-81368671D02*
X162930300Y-81368671D01*
X162930300Y-81368671D02*
X162848052Y-81409795D01*
X162848052Y-81409795D02*
X162806928Y-81450918D01*
X162806928Y-81450918D02*
X162724681Y-81574290D01*
X162724681Y-81574290D02*
X162683557Y-81738785D01*
X162683557Y-81738785D02*
X162683557Y-82067775D01*
X162683557Y-82067775D02*
X162724681Y-82150023D01*
X162724681Y-82150023D02*
X162765804Y-82191147D01*
X162765804Y-82191147D02*
X162848052Y-82232271D01*
X162848052Y-82232271D02*
X163012547Y-82232271D01*
X163012547Y-82232271D02*
X163094795Y-82191147D01*
X163094795Y-82191147D02*
X163135919Y-82150023D01*
X163135919Y-82150023D02*
X163177042Y-82067775D01*
X163177042Y-82067775D02*
X163177042Y-81862156D01*
X163177042Y-81862156D02*
X163135919Y-81779909D01*
X163135919Y-81779909D02*
X163094795Y-81738785D01*
X163094795Y-81738785D02*
X163012547Y-81697661D01*
X163012547Y-81697661D02*
X162848052Y-81697661D01*
X162848052Y-81697661D02*
X162765804Y-81738785D01*
X162765804Y-81738785D02*
X162724681Y-81779909D01*
X162724681Y-81779909D02*
X162683557Y-81862156D01*
%TO.C,U1*%
X159235019Y-81622671D02*
X159235019Y-82321775D01*
X159235019Y-82321775D02*
X159276142Y-82404023D01*
X159276142Y-82404023D02*
X159317266Y-82445147D01*
X159317266Y-82445147D02*
X159399514Y-82486271D01*
X159399514Y-82486271D02*
X159564009Y-82486271D01*
X159564009Y-82486271D02*
X159646257Y-82445147D01*
X159646257Y-82445147D02*
X159687380Y-82404023D01*
X159687380Y-82404023D02*
X159728504Y-82321775D01*
X159728504Y-82321775D02*
X159728504Y-81622671D01*
X160592104Y-82486271D02*
X160098619Y-82486271D01*
X160345362Y-82486271D02*
X160345362Y-81622671D01*
X160345362Y-81622671D02*
X160263114Y-81746042D01*
X160263114Y-81746042D02*
X160180866Y-81828290D01*
X160180866Y-81828290D02*
X160098619Y-81869414D01*
%TO.C,R1*%
X165046966Y-103534071D02*
X164759100Y-103122833D01*
X164553481Y-103534071D02*
X164553481Y-102670471D01*
X164553481Y-102670471D02*
X164882471Y-102670471D01*
X164882471Y-102670471D02*
X164964719Y-102711595D01*
X164964719Y-102711595D02*
X165005842Y-102752718D01*
X165005842Y-102752718D02*
X165046966Y-102834966D01*
X165046966Y-102834966D02*
X165046966Y-102958337D01*
X165046966Y-102958337D02*
X165005842Y-103040585D01*
X165005842Y-103040585D02*
X164964719Y-103081709D01*
X164964719Y-103081709D02*
X164882471Y-103122833D01*
X164882471Y-103122833D02*
X164553481Y-103122833D01*
X165869442Y-103534071D02*
X165375957Y-103534071D01*
X165622700Y-103534071D02*
X165622700Y-102670471D01*
X165622700Y-102670471D02*
X165540452Y-102793842D01*
X165540452Y-102793842D02*
X165458204Y-102876090D01*
X165458204Y-102876090D02*
X165375957Y-102917214D01*
%TO.C,J2*%
X187935015Y-78447671D02*
X187935015Y-79064528D01*
X187935015Y-79064528D02*
X187893892Y-79187899D01*
X187893892Y-79187899D02*
X187811644Y-79270147D01*
X187811644Y-79270147D02*
X187688273Y-79311271D01*
X187688273Y-79311271D02*
X187606025Y-79311271D01*
X188305130Y-78529918D02*
X188346254Y-78488795D01*
X188346254Y-78488795D02*
X188428501Y-78447671D01*
X188428501Y-78447671D02*
X188634120Y-78447671D01*
X188634120Y-78447671D02*
X188716368Y-78488795D01*
X188716368Y-78488795D02*
X188757492Y-78529918D01*
X188757492Y-78529918D02*
X188798615Y-78612166D01*
X188798615Y-78612166D02*
X188798615Y-78694414D01*
X188798615Y-78694414D02*
X188757492Y-78817785D01*
X188757492Y-78817785D02*
X188264006Y-79311271D01*
X188264006Y-79311271D02*
X188798615Y-79311271D01*
D19*
X190259305Y-79431702D02*
X190375419Y-79470407D01*
X190375419Y-79470407D02*
X190568943Y-79470407D01*
X190568943Y-79470407D02*
X190646352Y-79431702D01*
X190646352Y-79431702D02*
X190685057Y-79392997D01*
X190685057Y-79392997D02*
X190723762Y-79315588D01*
X190723762Y-79315588D02*
X190723762Y-79238178D01*
X190723762Y-79238178D02*
X190685057Y-79160769D01*
X190685057Y-79160769D02*
X190646352Y-79122064D01*
X190646352Y-79122064D02*
X190568943Y-79083359D01*
X190568943Y-79083359D02*
X190414124Y-79044654D01*
X190414124Y-79044654D02*
X190336714Y-79005950D01*
X190336714Y-79005950D02*
X190298009Y-78967245D01*
X190298009Y-78967245D02*
X190259305Y-78889835D01*
X190259305Y-78889835D02*
X190259305Y-78812426D01*
X190259305Y-78812426D02*
X190298009Y-78735016D01*
X190298009Y-78735016D02*
X190336714Y-78696312D01*
X190336714Y-78696312D02*
X190414124Y-78657607D01*
X190414124Y-78657607D02*
X190607647Y-78657607D01*
X190607647Y-78657607D02*
X190723762Y-78696312D01*
X190955990Y-78657607D02*
X191420447Y-78657607D01*
X191188219Y-79470407D02*
X191188219Y-78657607D01*
X191691380Y-79160769D02*
X192310657Y-79160769D01*
X193084752Y-79470407D02*
X192697704Y-79470407D01*
X192697704Y-79470407D02*
X192697704Y-78657607D01*
X193355685Y-79470407D02*
X193355685Y-78657607D01*
X193742733Y-79470407D02*
X193742733Y-78657607D01*
X193742733Y-78657607D02*
X194207190Y-79470407D01*
X194207190Y-79470407D02*
X194207190Y-78657607D01*
X194594238Y-79470407D02*
X194594238Y-78657607D01*
X195058695Y-79470407D02*
X194710353Y-79005950D01*
X195058695Y-78657607D02*
X194594238Y-79122064D01*
D15*
%TO.C,C5*%
X144611066Y-86699523D02*
X144569942Y-86740647D01*
X144569942Y-86740647D02*
X144446571Y-86781771D01*
X144446571Y-86781771D02*
X144364323Y-86781771D01*
X144364323Y-86781771D02*
X144240952Y-86740647D01*
X144240952Y-86740647D02*
X144158704Y-86658399D01*
X144158704Y-86658399D02*
X144117581Y-86576152D01*
X144117581Y-86576152D02*
X144076457Y-86411656D01*
X144076457Y-86411656D02*
X144076457Y-86288285D01*
X144076457Y-86288285D02*
X144117581Y-86123790D01*
X144117581Y-86123790D02*
X144158704Y-86041542D01*
X144158704Y-86041542D02*
X144240952Y-85959295D01*
X144240952Y-85959295D02*
X144364323Y-85918171D01*
X144364323Y-85918171D02*
X144446571Y-85918171D01*
X144446571Y-85918171D02*
X144569942Y-85959295D01*
X144569942Y-85959295D02*
X144611066Y-86000418D01*
X145392419Y-85918171D02*
X144981181Y-85918171D01*
X144981181Y-85918171D02*
X144940057Y-86329409D01*
X144940057Y-86329409D02*
X144981181Y-86288285D01*
X144981181Y-86288285D02*
X145063428Y-86247161D01*
X145063428Y-86247161D02*
X145269047Y-86247161D01*
X145269047Y-86247161D02*
X145351295Y-86288285D01*
X145351295Y-86288285D02*
X145392419Y-86329409D01*
X145392419Y-86329409D02*
X145433542Y-86411656D01*
X145433542Y-86411656D02*
X145433542Y-86617275D01*
X145433542Y-86617275D02*
X145392419Y-86699523D01*
X145392419Y-86699523D02*
X145351295Y-86740647D01*
X145351295Y-86740647D02*
X145269047Y-86781771D01*
X145269047Y-86781771D02*
X145063428Y-86781771D01*
X145063428Y-86781771D02*
X144981181Y-86740647D01*
X144981181Y-86740647D02*
X144940057Y-86699523D01*
%TO.C,C2*%
X155050066Y-103451823D02*
X155008942Y-103492947D01*
X155008942Y-103492947D02*
X154885571Y-103534071D01*
X154885571Y-103534071D02*
X154803323Y-103534071D01*
X154803323Y-103534071D02*
X154679952Y-103492947D01*
X154679952Y-103492947D02*
X154597704Y-103410699D01*
X154597704Y-103410699D02*
X154556581Y-103328452D01*
X154556581Y-103328452D02*
X154515457Y-103163956D01*
X154515457Y-103163956D02*
X154515457Y-103040585D01*
X154515457Y-103040585D02*
X154556581Y-102876090D01*
X154556581Y-102876090D02*
X154597704Y-102793842D01*
X154597704Y-102793842D02*
X154679952Y-102711595D01*
X154679952Y-102711595D02*
X154803323Y-102670471D01*
X154803323Y-102670471D02*
X154885571Y-102670471D01*
X154885571Y-102670471D02*
X155008942Y-102711595D01*
X155008942Y-102711595D02*
X155050066Y-102752718D01*
X155379057Y-102752718D02*
X155420181Y-102711595D01*
X155420181Y-102711595D02*
X155502428Y-102670471D01*
X155502428Y-102670471D02*
X155708047Y-102670471D01*
X155708047Y-102670471D02*
X155790295Y-102711595D01*
X155790295Y-102711595D02*
X155831419Y-102752718D01*
X155831419Y-102752718D02*
X155872542Y-102834966D01*
X155872542Y-102834966D02*
X155872542Y-102917214D01*
X155872542Y-102917214D02*
X155831419Y-103040585D01*
X155831419Y-103040585D02*
X155337933Y-103534071D01*
X155337933Y-103534071D02*
X155872542Y-103534071D01*
%TO.C,TP2*%
X155558066Y-78930271D02*
X155270200Y-78519033D01*
X155064581Y-78930271D02*
X155064581Y-78066671D01*
X155064581Y-78066671D02*
X155393571Y-78066671D01*
X155393571Y-78066671D02*
X155475819Y-78107795D01*
X155475819Y-78107795D02*
X155516942Y-78148918D01*
X155516942Y-78148918D02*
X155558066Y-78231166D01*
X155558066Y-78231166D02*
X155558066Y-78354537D01*
X155558066Y-78354537D02*
X155516942Y-78436785D01*
X155516942Y-78436785D02*
X155475819Y-78477909D01*
X155475819Y-78477909D02*
X155393571Y-78519033D01*
X155393571Y-78519033D02*
X155064581Y-78519033D01*
X155845933Y-78066671D02*
X156421666Y-78930271D01*
X156421666Y-78066671D02*
X155845933Y-78930271D01*
%TO.C,C6*%
X139531066Y-101702523D02*
X139489942Y-101743647D01*
X139489942Y-101743647D02*
X139366571Y-101784771D01*
X139366571Y-101784771D02*
X139284323Y-101784771D01*
X139284323Y-101784771D02*
X139160952Y-101743647D01*
X139160952Y-101743647D02*
X139078704Y-101661399D01*
X139078704Y-101661399D02*
X139037581Y-101579152D01*
X139037581Y-101579152D02*
X138996457Y-101414656D01*
X138996457Y-101414656D02*
X138996457Y-101291285D01*
X138996457Y-101291285D02*
X139037581Y-101126790D01*
X139037581Y-101126790D02*
X139078704Y-101044542D01*
X139078704Y-101044542D02*
X139160952Y-100962295D01*
X139160952Y-100962295D02*
X139284323Y-100921171D01*
X139284323Y-100921171D02*
X139366571Y-100921171D01*
X139366571Y-100921171D02*
X139489942Y-100962295D01*
X139489942Y-100962295D02*
X139531066Y-101003418D01*
X140271295Y-100921171D02*
X140106800Y-100921171D01*
X140106800Y-100921171D02*
X140024552Y-100962295D01*
X140024552Y-100962295D02*
X139983428Y-101003418D01*
X139983428Y-101003418D02*
X139901181Y-101126790D01*
X139901181Y-101126790D02*
X139860057Y-101291285D01*
X139860057Y-101291285D02*
X139860057Y-101620275D01*
X139860057Y-101620275D02*
X139901181Y-101702523D01*
X139901181Y-101702523D02*
X139942304Y-101743647D01*
X139942304Y-101743647D02*
X140024552Y-101784771D01*
X140024552Y-101784771D02*
X140189047Y-101784771D01*
X140189047Y-101784771D02*
X140271295Y-101743647D01*
X140271295Y-101743647D02*
X140312419Y-101702523D01*
X140312419Y-101702523D02*
X140353542Y-101620275D01*
X140353542Y-101620275D02*
X140353542Y-101414656D01*
X140353542Y-101414656D02*
X140312419Y-101332409D01*
X140312419Y-101332409D02*
X140271295Y-101291285D01*
X140271295Y-101291285D02*
X140189047Y-101250161D01*
X140189047Y-101250161D02*
X140024552Y-101250161D01*
X140024552Y-101250161D02*
X139942304Y-101291285D01*
X139942304Y-101291285D02*
X139901181Y-101332409D01*
X139901181Y-101332409D02*
X139860057Y-101414656D01*
%TO.C,C3*%
X160267766Y-103451823D02*
X160226642Y-103492947D01*
X160226642Y-103492947D02*
X160103271Y-103534071D01*
X160103271Y-103534071D02*
X160021023Y-103534071D01*
X160021023Y-103534071D02*
X159897652Y-103492947D01*
X159897652Y-103492947D02*
X159815404Y-103410699D01*
X159815404Y-103410699D02*
X159774281Y-103328452D01*
X159774281Y-103328452D02*
X159733157Y-103163956D01*
X159733157Y-103163956D02*
X159733157Y-103040585D01*
X159733157Y-103040585D02*
X159774281Y-102876090D01*
X159774281Y-102876090D02*
X159815404Y-102793842D01*
X159815404Y-102793842D02*
X159897652Y-102711595D01*
X159897652Y-102711595D02*
X160021023Y-102670471D01*
X160021023Y-102670471D02*
X160103271Y-102670471D01*
X160103271Y-102670471D02*
X160226642Y-102711595D01*
X160226642Y-102711595D02*
X160267766Y-102752718D01*
X160555633Y-102670471D02*
X161090242Y-102670471D01*
X161090242Y-102670471D02*
X160802376Y-102999461D01*
X160802376Y-102999461D02*
X160925747Y-102999461D01*
X160925747Y-102999461D02*
X161007995Y-103040585D01*
X161007995Y-103040585D02*
X161049119Y-103081709D01*
X161049119Y-103081709D02*
X161090242Y-103163956D01*
X161090242Y-103163956D02*
X161090242Y-103369575D01*
X161090242Y-103369575D02*
X161049119Y-103451823D01*
X161049119Y-103451823D02*
X161007995Y-103492947D01*
X161007995Y-103492947D02*
X160925747Y-103534071D01*
X160925747Y-103534071D02*
X160679004Y-103534071D01*
X160679004Y-103534071D02*
X160596757Y-103492947D01*
X160596757Y-103492947D02*
X160555633Y-103451823D01*
%TO.C,R5*%
X144890066Y-78151671D02*
X144602200Y-77740433D01*
X144396581Y-78151671D02*
X144396581Y-77288071D01*
X144396581Y-77288071D02*
X144725571Y-77288071D01*
X144725571Y-77288071D02*
X144807819Y-77329195D01*
X144807819Y-77329195D02*
X144848942Y-77370318D01*
X144848942Y-77370318D02*
X144890066Y-77452566D01*
X144890066Y-77452566D02*
X144890066Y-77575937D01*
X144890066Y-77575937D02*
X144848942Y-77658185D01*
X144848942Y-77658185D02*
X144807819Y-77699309D01*
X144807819Y-77699309D02*
X144725571Y-77740433D01*
X144725571Y-77740433D02*
X144396581Y-77740433D01*
X145671419Y-77288071D02*
X145260181Y-77288071D01*
X145260181Y-77288071D02*
X145219057Y-77699309D01*
X145219057Y-77699309D02*
X145260181Y-77658185D01*
X145260181Y-77658185D02*
X145342428Y-77617061D01*
X145342428Y-77617061D02*
X145548047Y-77617061D01*
X145548047Y-77617061D02*
X145630295Y-77658185D01*
X145630295Y-77658185D02*
X145671419Y-77699309D01*
X145671419Y-77699309D02*
X145712542Y-77781556D01*
X145712542Y-77781556D02*
X145712542Y-77987175D01*
X145712542Y-77987175D02*
X145671419Y-78069423D01*
X145671419Y-78069423D02*
X145630295Y-78110547D01*
X145630295Y-78110547D02*
X145548047Y-78151671D01*
X145548047Y-78151671D02*
X145342428Y-78151671D01*
X145342428Y-78151671D02*
X145260181Y-78110547D01*
X145260181Y-78110547D02*
X145219057Y-78069423D01*
%TO.C,J1*%
X133824133Y-82257671D02*
X133824133Y-82874528D01*
X133824133Y-82874528D02*
X133783010Y-82997899D01*
X133783010Y-82997899D02*
X133700762Y-83080147D01*
X133700762Y-83080147D02*
X133577391Y-83121271D01*
X133577391Y-83121271D02*
X133495143Y-83121271D01*
X134687733Y-83121271D02*
X134194248Y-83121271D01*
X134440991Y-83121271D02*
X134440991Y-82257671D01*
X134440991Y-82257671D02*
X134358743Y-82381042D01*
X134358743Y-82381042D02*
X134276495Y-82463290D01*
X134276495Y-82463290D02*
X134194248Y-82504414D01*
%TO.C,R4*%
X139302066Y-78151671D02*
X139014200Y-77740433D01*
X138808581Y-78151671D02*
X138808581Y-77288071D01*
X138808581Y-77288071D02*
X139137571Y-77288071D01*
X139137571Y-77288071D02*
X139219819Y-77329195D01*
X139219819Y-77329195D02*
X139260942Y-77370318D01*
X139260942Y-77370318D02*
X139302066Y-77452566D01*
X139302066Y-77452566D02*
X139302066Y-77575937D01*
X139302066Y-77575937D02*
X139260942Y-77658185D01*
X139260942Y-77658185D02*
X139219819Y-77699309D01*
X139219819Y-77699309D02*
X139137571Y-77740433D01*
X139137571Y-77740433D02*
X138808581Y-77740433D01*
X140042295Y-77575937D02*
X140042295Y-78151671D01*
X139836676Y-77246947D02*
X139631057Y-77863804D01*
X139631057Y-77863804D02*
X140165666Y-77863804D01*
D10*
%TO.C,C8*%
X171422852Y-80970800D02*
X170000348Y-80970800D01*
X171422852Y-79150800D02*
X170000348Y-79150800D01*
%TO.C,C4*%
X140386252Y-89224500D02*
X138963748Y-89224500D01*
X140386252Y-87404500D02*
X138963748Y-87404500D01*
%TO.C,C1*%
X149728748Y-100486800D02*
X151151252Y-100486800D01*
X149728748Y-102306800D02*
X151151252Y-102306800D01*
%TO.C,TP1*%
X158561000Y-79883000D02*
G75*
G03*
X158561000Y-79883000I-700000J0D01*
G01*
%TO.C,C7*%
X144043748Y-98707500D02*
X145466252Y-98707500D01*
X144043748Y-100527500D02*
X145466252Y-100527500D01*
%TO.C,D2*%
X129795000Y-78875000D02*
X129795000Y-81145000D01*
X129795000Y-81145000D02*
X133680000Y-81145000D01*
X133680000Y-78875000D02*
X129795000Y-78875000D01*
%TO.C,Y1*%
X161640000Y-99070000D02*
X161640000Y-93970000D01*
X161640000Y-93970000D02*
X149040000Y-93970000D01*
X149040000Y-99070000D02*
X161640000Y-99070000D01*
%TO.C,F1*%
X136588250Y-94247936D02*
X136588250Y-95452064D01*
X134768250Y-94247936D02*
X134768250Y-95452064D01*
%TO.C,R3*%
X138706436Y-82935400D02*
X140160564Y-82935400D01*
X138706436Y-84755400D02*
X140160564Y-84755400D01*
%TO.C,R2*%
X144306936Y-82935400D02*
X145761064Y-82935400D01*
X144306936Y-84755400D02*
X145761064Y-84755400D01*
%TO.C,U2*%
X138115000Y-90556000D02*
X144125000Y-90556000D01*
X140365000Y-97376000D02*
X144125000Y-97376000D01*
X144125000Y-90556000D02*
X144125000Y-91816000D01*
X144125000Y-97376000D02*
X144125000Y-96116000D01*
D20*
%TO.C,ZIF*%
X164692052Y-82466000D02*
X197215948Y-82466000D01*
X203330000Y-82751974D02*
X200832513Y-82751974D01*
X194694000Y-83386974D02*
X200197513Y-83386974D01*
X163404000Y-83754052D02*
X163404000Y-96077948D01*
X194059000Y-84012948D02*
X194059000Y-85917948D01*
X189410800Y-84356800D02*
X189410800Y-88896800D01*
X186870800Y-84356800D02*
X186870800Y-88896800D01*
X184330800Y-84356800D02*
X184330800Y-88896800D01*
X181790800Y-84356800D02*
X181790800Y-88896800D01*
X179250800Y-84356800D02*
X179250800Y-88896800D01*
X176710800Y-84356800D02*
X176710800Y-88896800D01*
X174170800Y-84356800D02*
X174170800Y-88896800D01*
X171630800Y-84356800D02*
X171630800Y-88896800D01*
X169090800Y-84356800D02*
X189410800Y-84356800D01*
X169090800Y-84356800D02*
X169090800Y-88896800D01*
X192154000Y-84647948D02*
X192154000Y-82466000D01*
X203965000Y-84656974D02*
X203965000Y-83386974D01*
X200197513Y-84656974D02*
X195329000Y-84656974D01*
X198504000Y-84656974D02*
X198504000Y-87187948D01*
X195329000Y-84656974D02*
X195329000Y-85917948D01*
X203330000Y-85291974D02*
X200832513Y-85291974D01*
X193424000Y-85917948D02*
X197234000Y-85917948D01*
X169090800Y-88896800D02*
X189410800Y-88896800D01*
X189410800Y-91036800D02*
X169090800Y-91036800D01*
X189410800Y-91036800D02*
X189410800Y-95576800D01*
X186870800Y-91036800D02*
X186870800Y-95576800D01*
X184330800Y-91036800D02*
X184330800Y-95576800D01*
X181790800Y-91036800D02*
X181790800Y-95576800D01*
X179250800Y-91036800D02*
X179250800Y-95576800D01*
X176710800Y-91036800D02*
X176710800Y-95576800D01*
X174170800Y-91036800D02*
X174170800Y-95576800D01*
X171630800Y-91036800D02*
X171630800Y-95576800D01*
X169090800Y-91036800D02*
X169090800Y-95576800D01*
X189410800Y-95576800D02*
X169090800Y-95576800D01*
X198504000Y-96077948D02*
X198504000Y-87187948D01*
X164692052Y-97366000D02*
X197215948Y-97366000D01*
X198444058Y-83365691D02*
G75*
G03*
X197215948Y-82466000I-1228108J-388359D01*
G01*
X203965000Y-83386974D02*
G75*
G03*
X203330000Y-82751974I-634999J1D01*
G01*
X200832513Y-82751974D02*
G75*
G03*
X200197513Y-83386974I-1J-634999D01*
G01*
X164692052Y-82466000D02*
G75*
G03*
X163404000Y-83754052I-2J-1288050D01*
G01*
X194694000Y-83386974D02*
G75*
G03*
X194059000Y-84012948I-8962J-625974D01*
G01*
X203330000Y-85291974D02*
G75*
G03*
X203965000Y-84656974I1J634999D01*
G01*
X200197513Y-84656974D02*
G75*
G03*
X200832513Y-85291974I634999J-1D01*
G01*
X198504000Y-87187948D02*
G75*
G03*
X197234000Y-85917948I-1269999J1D01*
G01*
X192154000Y-84647948D02*
G75*
G03*
X193424000Y-85917948I1269999J-1D01*
G01*
X197215948Y-97366000D02*
G75*
G03*
X198504000Y-96077948I2J1288050D01*
G01*
X163404000Y-96077948D02*
G75*
G03*
X164692052Y-97366000I1288050J-2D01*
G01*
D10*
%TO.C,D1*%
X129795000Y-99195000D02*
X129795000Y-101465000D01*
X129795000Y-101465000D02*
X133680000Y-101465000D01*
X133680000Y-99195000D02*
X129795000Y-99195000D01*
D21*
%TO.C,SW1*%
X168148000Y-98326000D02*
X177292000Y-98326000D01*
X177292000Y-98326000D02*
X177292000Y-101826000D01*
X177292000Y-101826000D02*
X168148000Y-101826000D01*
X168148000Y-101826000D02*
X168148000Y-98326000D01*
X171196000Y-99314000D02*
X174244000Y-99314000D01*
X174244000Y-99314000D02*
X174244000Y-100838000D01*
X174244000Y-100838000D02*
X171196000Y-100838000D01*
X171196000Y-100838000D02*
X171196000Y-99314000D01*
D10*
%TO.C,R6*%
X161771436Y-78973000D02*
X163225564Y-78973000D01*
X161771436Y-80793000D02*
X163225564Y-80793000D01*
%TO.C,U1*%
X151330000Y-90212000D02*
X151780000Y-90212000D01*
X151780000Y-90212000D02*
X151780000Y-91502000D01*
X158550000Y-90212000D02*
X158100000Y-90212000D01*
X151330000Y-89762000D02*
X151330000Y-90212000D01*
X158550000Y-89762000D02*
X158550000Y-90212000D01*
X151330000Y-83442000D02*
X151330000Y-82992000D01*
X158550000Y-83442000D02*
X158550000Y-82992000D01*
X151330000Y-82992000D02*
X151780000Y-82992000D01*
X158550000Y-82992000D02*
X158100000Y-82992000D01*
%TO.C,R1*%
X165917964Y-102306800D02*
X164463836Y-102306800D01*
X165917964Y-100486800D02*
X164463836Y-100486800D01*
%TO.C,J2*%
X174174000Y-81390800D02*
X174174000Y-80060800D01*
X175504000Y-81390800D02*
X174174000Y-81390800D01*
X176774000Y-81390800D02*
X186994000Y-81390800D01*
X176774000Y-81390800D02*
X176774000Y-78730800D01*
X186994000Y-81390800D02*
X186994000Y-78730800D01*
X176774000Y-78730800D02*
X186994000Y-78730800D01*
%TO.C,C5*%
X144043748Y-87404500D02*
X145466252Y-87404500D01*
X144043748Y-89224500D02*
X145466252Y-89224500D01*
%TO.C,C2*%
X155905252Y-102306800D02*
X154482748Y-102306800D01*
X155905252Y-100486800D02*
X154482748Y-100486800D01*
%TO.C,TP2*%
X156402000Y-79883000D02*
G75*
G03*
X156402000Y-79883000I-700000J0D01*
G01*
%TO.C,C6*%
X140386252Y-100527500D02*
X138963748Y-100527500D01*
X140386252Y-98707500D02*
X138963748Y-98707500D01*
%TO.C,C3*%
X161122952Y-102306800D02*
X159700448Y-102306800D01*
X161122952Y-100486800D02*
X159700448Y-100486800D01*
%TO.C,R5*%
X144306936Y-78744400D02*
X145761064Y-78744400D01*
X144306936Y-80564400D02*
X145761064Y-80564400D01*
D21*
%TO.C,J1*%
X133286500Y-83981000D02*
X133286500Y-85759000D01*
X132016500Y-83981000D02*
X133286500Y-83981000D01*
X128333500Y-84108000D02*
X111188500Y-84108000D01*
X111188500Y-84108000D02*
X111188500Y-95792000D01*
X128333500Y-84870000D02*
X128333500Y-95030000D01*
X111188500Y-95792000D02*
X128333500Y-95792000D01*
X133286500Y-95919000D02*
X133286500Y-94141000D01*
X132016500Y-95919000D02*
X133286500Y-95919000D01*
D10*
%TO.C,R4*%
X138718936Y-78744400D02*
X140173064Y-78744400D01*
X138718936Y-80564400D02*
X140173064Y-80564400D01*
%TD*%
M02*
