%TF.GenerationSoftware,KiCad,Pcbnew,7.0.1*%
%TF.CreationDate,2023-03-25T17:09:27-05:00*%
%TF.ProjectId,STM32_XTW2_CLONE,53544d33-325f-4585-9457-325f434c4f4e,1.2.1V*%
%TF.SameCoordinates,Original*%
%TF.FileFunction,Soldermask,Top*%
%TF.FilePolarity,Negative*%
%FSLAX46Y46*%
G04 Gerber Fmt 4.6, Leading zero omitted, Abs format (unit mm)*
G04 Created by KiCad (PCBNEW 7.0.1) date 2023-03-25 17:09:27*
%MOMM*%
%LPD*%
G01*
G04 APERTURE LIST*
G04 Aperture macros list*
%AMRoundRect*
0 Rectangle with rounded corners*
0 $1 Rounding radius*
0 $2 $3 $4 $5 $6 $7 $8 $9 X,Y pos of 4 corners*
0 Add a 4 corners polygon primitive as box body*
4,1,4,$2,$3,$4,$5,$6,$7,$8,$9,$2,$3,0*
0 Add four circle primitives for the rounded corners*
1,1,$1+$1,$2,$3*
1,1,$1+$1,$4,$5*
1,1,$1+$1,$6,$7*
1,1,$1+$1,$8,$9*
0 Add four rect primitives between the rounded corners*
20,1,$1+$1,$2,$3,$4,$5,0*
20,1,$1+$1,$4,$5,$6,$7,0*
20,1,$1+$1,$6,$7,$8,$9,0*
20,1,$1+$1,$8,$9,$2,$3,0*%
G04 Aperture macros list end*
%TA.AperFunction,Profile*%
%ADD10C,0.050000*%
%TD*%
%ADD11RoundRect,0.300800X0.325000X0.650000X-0.325000X0.650000X-0.325000X-0.650000X0.325000X-0.650000X0*%
%ADD12RoundRect,0.300800X-0.325000X-0.650000X0.325000X-0.650000X0.325000X0.650000X-0.325000X0.650000X0*%
%ADD13C,1.101600*%
%ADD14RoundRect,0.300800X-0.375000X-0.625000X0.375000X-0.625000X0.375000X0.625000X-0.375000X0.625000X0*%
%ADD15RoundRect,0.050800X2.250000X1.000000X-2.250000X1.000000X-2.250000X-1.000000X2.250000X-1.000000X0*%
%ADD16RoundRect,0.300800X-0.625000X0.375000X-0.625000X-0.375000X0.625000X-0.375000X0.625000X0.375000X0*%
%ADD17RoundRect,0.300800X-0.312500X-0.625000X0.312500X-0.625000X0.312500X0.625000X-0.312500X0.625000X0*%
%ADD18RoundRect,0.050800X-1.000000X-0.750000X1.000000X-0.750000X1.000000X0.750000X-1.000000X0.750000X0*%
%ADD19RoundRect,0.050800X-1.000000X-1.900000X1.000000X-1.900000X1.000000X1.900000X-1.000000X1.900000X0*%
%ADD20O,1.602740X2.301240*%
%ADD21C,2.101600*%
%ADD22RoundRect,0.125800X0.075000X-0.662500X0.075000X0.662500X-0.075000X0.662500X-0.075000X-0.662500X0*%
%ADD23RoundRect,0.125800X0.662500X-0.075000X0.662500X0.075000X-0.662500X0.075000X-0.662500X-0.075000X0*%
%ADD24RoundRect,0.300800X0.312500X0.625000X-0.312500X0.625000X-0.312500X-0.625000X0.312500X-0.625000X0*%
%ADD25RoundRect,0.050800X0.850000X-0.850000X0.850000X0.850000X-0.850000X0.850000X-0.850000X-0.850000X0*%
%ADD26O,1.801600X1.801600*%
%ADD27O,2.601600X1.601600*%
%ADD28O,2.601600X1.301600*%
%ADD29RoundRect,0.350800X-1.100000X0.300000X-1.100000X-0.300000X1.100000X-0.300000X1.100000X0.300000X0*%
G04 APERTURE END LIST*
D10*
%TO.C,J1*%
X111213900Y-109600000D02*
G75*
G03*
X111213900Y-109600000I-550000J0D01*
G01*
X111213900Y-114100000D02*
G75*
G03*
X111213900Y-114100000I-550000J0D01*
G01*
%TD*%
D11*
%TO.C,C4*%
X121927400Y-110214500D03*
X118977400Y-110214500D03*
%TD*%
D12*
%TO.C,C1*%
X129742400Y-123296800D03*
X132692400Y-123296800D03*
%TD*%
D11*
%TO.C,C8*%
X152964000Y-101960800D03*
X150014000Y-101960800D03*
%TD*%
D13*
%TO.C,TP1*%
X138638400Y-101783000D03*
%TD*%
D12*
%TO.C,C7*%
X124057400Y-121517500D03*
X127007400Y-121517500D03*
%TD*%
D14*
%TO.C,D2*%
X111457400Y-100965000D03*
X114257400Y-100965000D03*
%TD*%
D15*
%TO.C,Y1*%
X139967400Y-118420000D03*
X131467400Y-118420000D03*
%TD*%
D16*
%TO.C,F1*%
X116455650Y-115350000D03*
X116455650Y-118150000D03*
%TD*%
D17*
%TO.C,R7*%
X118760900Y-103378000D03*
X121685900Y-103378000D03*
%TD*%
D14*
%TO.C,D3*%
X111457400Y-103378000D03*
X114257400Y-103378000D03*
%TD*%
D17*
%TO.C,R3*%
X118748400Y-105841800D03*
X121673400Y-105841800D03*
%TD*%
%TO.C,R2*%
X124724700Y-105816400D03*
X127649700Y-105816400D03*
%TD*%
D18*
%TO.C,U2*%
X119842400Y-113566000D03*
X119842400Y-115866000D03*
D19*
X126142400Y-115866000D03*
D18*
X119842400Y-118166000D03*
%TD*%
D20*
%TO.C,ZIF*%
X168981400Y-108006000D03*
X166441400Y-108006000D03*
X163901400Y-108006000D03*
X161361400Y-108006000D03*
X158821400Y-108006000D03*
X156281400Y-108006000D03*
X153741400Y-108006000D03*
X151201400Y-108006000D03*
X151201400Y-115626000D03*
X153741400Y-115626000D03*
X156281400Y-115626000D03*
X158821400Y-115626000D03*
X161361400Y-115626000D03*
X163901400Y-115626000D03*
X166441400Y-115626000D03*
X168981400Y-115626000D03*
%TD*%
D14*
%TO.C,D1*%
X111457400Y-122230000D03*
X114257400Y-122230000D03*
%TD*%
D21*
%TO.C,SW1*%
X150247400Y-121976000D03*
X156747400Y-121976000D03*
%TD*%
D17*
%TO.C,R6*%
X141813400Y-101783000D03*
X144738400Y-101783000D03*
%TD*%
D22*
%TO.C,U1*%
X132967400Y-112664500D03*
X133467400Y-112664500D03*
X133967400Y-112664500D03*
X134467400Y-112664500D03*
X134967400Y-112664500D03*
X135467400Y-112664500D03*
X135967400Y-112664500D03*
X136467400Y-112664500D03*
X136967400Y-112664500D03*
X137467400Y-112664500D03*
X137967400Y-112664500D03*
X138467400Y-112664500D03*
D23*
X139879900Y-111252000D03*
X139879900Y-110752000D03*
X139879900Y-110252000D03*
X139879900Y-109752000D03*
X139879900Y-109252000D03*
X139879900Y-108752000D03*
X139879900Y-108252000D03*
X139879900Y-107752000D03*
X139879900Y-107252000D03*
X139879900Y-106752000D03*
X139879900Y-106252000D03*
X139879900Y-105752000D03*
D22*
X138467400Y-104339500D03*
X137967400Y-104339500D03*
X137467400Y-104339500D03*
X136967400Y-104339500D03*
X136467400Y-104339500D03*
X135967400Y-104339500D03*
X135467400Y-104339500D03*
X134967400Y-104339500D03*
X134467400Y-104339500D03*
X133967400Y-104339500D03*
X133467400Y-104339500D03*
X132967400Y-104339500D03*
D23*
X131554900Y-105752000D03*
X131554900Y-106252000D03*
X131554900Y-106752000D03*
X131554900Y-107252000D03*
X131554900Y-107752000D03*
X131554900Y-108252000D03*
X131554900Y-108752000D03*
X131554900Y-109252000D03*
X131554900Y-109752000D03*
X131554900Y-110252000D03*
X131554900Y-110752000D03*
X131554900Y-111252000D03*
%TD*%
D24*
%TO.C,R1*%
X147430800Y-123296800D03*
X144505800Y-123296800D03*
%TD*%
D25*
%TO.C,J2*%
X156281400Y-101960800D03*
D26*
X158821400Y-101960800D03*
X161361400Y-101960800D03*
X163901400Y-101960800D03*
X166441400Y-101960800D03*
%TD*%
D12*
%TO.C,C5*%
X124057400Y-110214500D03*
X127007400Y-110214500D03*
%TD*%
D11*
%TO.C,C2*%
X137446400Y-123296800D03*
X134496400Y-123296800D03*
%TD*%
D13*
%TO.C,TP2*%
X136479400Y-101783000D03*
%TD*%
D11*
%TO.C,C6*%
X121927400Y-121517500D03*
X118977400Y-121517500D03*
%TD*%
%TO.C,C3*%
X142664100Y-123296800D03*
X139714100Y-123296800D03*
%TD*%
D17*
%TO.C,R5*%
X124724700Y-100965000D03*
X127649700Y-100965000D03*
%TD*%
D27*
%TO.C,J1*%
X112793900Y-115350000D03*
D28*
X112793900Y-112850000D03*
X112793900Y-110850000D03*
D27*
X112793900Y-108350000D03*
D29*
X110663900Y-106000000D03*
X110663900Y-117700000D03*
%TD*%
D17*
%TO.C,R4*%
X118760900Y-100965000D03*
X121685900Y-100965000D03*
%TD*%
G36*
X138276809Y-111956915D02*
G01*
X138277267Y-111958624D01*
X138268600Y-112002199D01*
X138268600Y-113326801D01*
X138277266Y-113370372D01*
X138276808Y-113372081D01*
X138275173Y-113372758D01*
X138273641Y-113371873D01*
X138263849Y-113357217D01*
X138170951Y-113357217D01*
X138161158Y-113371872D01*
X138159626Y-113372757D01*
X138157991Y-113372080D01*
X138157533Y-113370371D01*
X138166200Y-113326801D01*
X138166200Y-112002199D01*
X138157532Y-111958624D01*
X138157990Y-111956915D01*
X138159625Y-111956238D01*
X138161157Y-111957123D01*
X138170952Y-111971782D01*
X138263848Y-111971782D01*
X138273642Y-111957123D01*
X138275174Y-111956238D01*
X138276809Y-111956915D01*
G37*
G36*
X137776809Y-111956915D02*
G01*
X137777267Y-111958624D01*
X137768600Y-112002199D01*
X137768600Y-113326801D01*
X137777266Y-113370372D01*
X137776808Y-113372081D01*
X137775173Y-113372758D01*
X137773641Y-113371873D01*
X137763849Y-113357217D01*
X137670951Y-113357217D01*
X137661158Y-113371872D01*
X137659626Y-113372757D01*
X137657991Y-113372080D01*
X137657533Y-113370371D01*
X137666200Y-113326801D01*
X137666200Y-112002199D01*
X137657532Y-111958624D01*
X137657990Y-111956915D01*
X137659625Y-111956238D01*
X137661157Y-111957123D01*
X137670952Y-111971782D01*
X137763848Y-111971782D01*
X137773642Y-111957123D01*
X137775174Y-111956238D01*
X137776809Y-111956915D01*
G37*
G36*
X137276809Y-111956915D02*
G01*
X137277267Y-111958624D01*
X137268600Y-112002199D01*
X137268600Y-113326801D01*
X137277266Y-113370372D01*
X137276808Y-113372081D01*
X137275173Y-113372758D01*
X137273641Y-113371873D01*
X137263849Y-113357217D01*
X137170951Y-113357217D01*
X137161158Y-113371872D01*
X137159626Y-113372757D01*
X137157991Y-113372080D01*
X137157533Y-113370371D01*
X137166200Y-113326801D01*
X137166200Y-112002199D01*
X137157532Y-111958624D01*
X137157990Y-111956915D01*
X137159625Y-111956238D01*
X137161157Y-111957123D01*
X137170952Y-111971782D01*
X137263848Y-111971782D01*
X137273642Y-111957123D01*
X137275174Y-111956238D01*
X137276809Y-111956915D01*
G37*
G36*
X136776809Y-111956915D02*
G01*
X136777267Y-111958624D01*
X136768600Y-112002199D01*
X136768600Y-113326801D01*
X136777266Y-113370372D01*
X136776808Y-113372081D01*
X136775173Y-113372758D01*
X136773641Y-113371873D01*
X136763849Y-113357217D01*
X136670951Y-113357217D01*
X136661158Y-113371872D01*
X136659626Y-113372757D01*
X136657991Y-113372080D01*
X136657533Y-113370371D01*
X136666200Y-113326801D01*
X136666200Y-112002199D01*
X136657532Y-111958624D01*
X136657990Y-111956915D01*
X136659625Y-111956238D01*
X136661157Y-111957123D01*
X136670952Y-111971782D01*
X136763848Y-111971782D01*
X136773642Y-111957123D01*
X136775174Y-111956238D01*
X136776809Y-111956915D01*
G37*
G36*
X136276809Y-111956915D02*
G01*
X136277267Y-111958624D01*
X136268600Y-112002199D01*
X136268600Y-113326801D01*
X136277266Y-113370372D01*
X136276808Y-113372081D01*
X136275173Y-113372758D01*
X136273641Y-113371873D01*
X136263849Y-113357217D01*
X136170951Y-113357217D01*
X136161158Y-113371872D01*
X136159626Y-113372757D01*
X136157991Y-113372080D01*
X136157533Y-113370371D01*
X136166200Y-113326801D01*
X136166200Y-112002199D01*
X136157532Y-111958624D01*
X136157990Y-111956915D01*
X136159625Y-111956238D01*
X136161157Y-111957123D01*
X136170952Y-111971782D01*
X136263848Y-111971782D01*
X136273642Y-111957123D01*
X136275174Y-111956238D01*
X136276809Y-111956915D01*
G37*
G36*
X135776809Y-111956915D02*
G01*
X135777267Y-111958624D01*
X135768600Y-112002199D01*
X135768600Y-113326801D01*
X135777266Y-113370372D01*
X135776808Y-113372081D01*
X135775173Y-113372758D01*
X135773641Y-113371873D01*
X135763849Y-113357217D01*
X135670951Y-113357217D01*
X135661158Y-113371872D01*
X135659626Y-113372757D01*
X135657991Y-113372080D01*
X135657533Y-113370371D01*
X135666200Y-113326801D01*
X135666200Y-112002199D01*
X135657532Y-111958624D01*
X135657990Y-111956915D01*
X135659625Y-111956238D01*
X135661157Y-111957123D01*
X135670952Y-111971782D01*
X135763848Y-111971782D01*
X135773642Y-111957123D01*
X135775174Y-111956238D01*
X135776809Y-111956915D01*
G37*
G36*
X135276809Y-111956915D02*
G01*
X135277267Y-111958624D01*
X135268600Y-112002199D01*
X135268600Y-113326801D01*
X135277266Y-113370372D01*
X135276808Y-113372081D01*
X135275173Y-113372758D01*
X135273641Y-113371873D01*
X135263849Y-113357217D01*
X135170951Y-113357217D01*
X135161158Y-113371872D01*
X135159626Y-113372757D01*
X135157991Y-113372080D01*
X135157533Y-113370371D01*
X135166200Y-113326801D01*
X135166200Y-112002199D01*
X135157532Y-111958624D01*
X135157990Y-111956915D01*
X135159625Y-111956238D01*
X135161157Y-111957123D01*
X135170952Y-111971782D01*
X135263848Y-111971782D01*
X135273642Y-111957123D01*
X135275174Y-111956238D01*
X135276809Y-111956915D01*
G37*
G36*
X134776809Y-111956915D02*
G01*
X134777267Y-111958624D01*
X134768600Y-112002199D01*
X134768600Y-113326801D01*
X134777266Y-113370372D01*
X134776808Y-113372081D01*
X134775173Y-113372758D01*
X134773641Y-113371873D01*
X134763849Y-113357217D01*
X134670951Y-113357217D01*
X134661158Y-113371872D01*
X134659626Y-113372757D01*
X134657991Y-113372080D01*
X134657533Y-113370371D01*
X134666200Y-113326801D01*
X134666200Y-112002199D01*
X134657532Y-111958624D01*
X134657990Y-111956915D01*
X134659625Y-111956238D01*
X134661157Y-111957123D01*
X134670952Y-111971782D01*
X134763848Y-111971782D01*
X134773642Y-111957123D01*
X134775174Y-111956238D01*
X134776809Y-111956915D01*
G37*
G36*
X134276810Y-111956911D02*
G01*
X134277268Y-111958620D01*
X134268600Y-112002199D01*
X134268600Y-113326801D01*
X134277266Y-113370372D01*
X134276808Y-113372081D01*
X134275173Y-113372758D01*
X134273641Y-113371873D01*
X134263849Y-113357217D01*
X134170951Y-113357217D01*
X134161158Y-113371872D01*
X134159626Y-113372757D01*
X134157991Y-113372080D01*
X134157533Y-113370371D01*
X134166200Y-113326801D01*
X134166200Y-112002199D01*
X134157533Y-111958629D01*
X134157991Y-111956920D01*
X134159626Y-111956243D01*
X134161158Y-111957128D01*
X134170948Y-111971781D01*
X134263845Y-111971782D01*
X134273643Y-111957119D01*
X134275175Y-111956234D01*
X134276810Y-111956911D01*
G37*
G36*
X133776810Y-111956911D02*
G01*
X133777268Y-111958620D01*
X133768600Y-112002199D01*
X133768600Y-113326801D01*
X133777266Y-113370372D01*
X133776808Y-113372081D01*
X133775173Y-113372758D01*
X133773641Y-113371873D01*
X133763849Y-113357217D01*
X133670951Y-113357217D01*
X133661158Y-113371872D01*
X133659626Y-113372757D01*
X133657991Y-113372080D01*
X133657533Y-113370371D01*
X133666200Y-113326801D01*
X133666200Y-112002199D01*
X133657533Y-111958629D01*
X133657991Y-111956920D01*
X133659626Y-111956243D01*
X133661158Y-111957128D01*
X133670948Y-111971781D01*
X133763845Y-111971782D01*
X133773643Y-111957119D01*
X133775175Y-111956234D01*
X133776810Y-111956911D01*
G37*
G36*
X133276810Y-111956911D02*
G01*
X133277268Y-111958620D01*
X133268600Y-112002199D01*
X133268600Y-113326801D01*
X133277266Y-113370372D01*
X133276808Y-113372081D01*
X133275173Y-113372758D01*
X133273641Y-113371873D01*
X133263849Y-113357217D01*
X133170951Y-113357217D01*
X133161158Y-113371872D01*
X133159626Y-113372757D01*
X133157991Y-113372080D01*
X133157533Y-113370371D01*
X133166200Y-113326801D01*
X133166200Y-112002199D01*
X133157533Y-111958629D01*
X133157991Y-111956920D01*
X133159626Y-111956243D01*
X133161158Y-111957128D01*
X133170948Y-111971781D01*
X133263845Y-111971782D01*
X133273643Y-111957119D01*
X133275175Y-111956234D01*
X133276810Y-111956911D01*
G37*
G36*
X140587478Y-110942591D02*
G01*
X140588155Y-110944226D01*
X140587270Y-110945758D01*
X140572617Y-110955548D01*
X140572616Y-111048446D01*
X140587277Y-111058242D01*
X140588162Y-111059774D01*
X140587485Y-111061409D01*
X140585776Y-111061867D01*
X140542201Y-111053200D01*
X139217599Y-111053200D01*
X139174020Y-111061868D01*
X139172311Y-111061410D01*
X139171634Y-111059775D01*
X139172519Y-111058243D01*
X139187182Y-111048445D01*
X139187181Y-110955548D01*
X139172528Y-110945758D01*
X139171643Y-110944226D01*
X139172320Y-110942591D01*
X139174029Y-110942133D01*
X139217599Y-110950800D01*
X140542201Y-110950800D01*
X140585769Y-110942133D01*
X140587478Y-110942591D01*
G37*
G36*
X132262478Y-110942591D02*
G01*
X132263155Y-110944226D01*
X132262270Y-110945758D01*
X132247617Y-110955548D01*
X132247616Y-111048446D01*
X132262277Y-111058242D01*
X132263162Y-111059774D01*
X132262485Y-111061409D01*
X132260776Y-111061867D01*
X132217201Y-111053200D01*
X130892599Y-111053200D01*
X130849020Y-111061868D01*
X130847311Y-111061410D01*
X130846634Y-111059775D01*
X130847519Y-111058243D01*
X130862182Y-111048445D01*
X130862181Y-110955548D01*
X130847528Y-110945758D01*
X130846643Y-110944226D01*
X130847320Y-110942591D01*
X130849029Y-110942133D01*
X130892599Y-110950800D01*
X132217201Y-110950800D01*
X132260769Y-110942133D01*
X132262478Y-110942591D01*
G37*
G36*
X139217599Y-110450800D02*
G01*
X140542201Y-110450800D01*
X140585771Y-110442133D01*
X140587480Y-110442591D01*
X140588157Y-110444226D01*
X140587272Y-110445758D01*
X140572617Y-110455551D01*
X140572617Y-110548449D01*
X140587273Y-110558241D01*
X140588158Y-110559773D01*
X140587481Y-110561408D01*
X140585772Y-110561866D01*
X140542201Y-110553200D01*
X139217599Y-110553200D01*
X139174024Y-110561867D01*
X139172315Y-110561409D01*
X139171638Y-110559774D01*
X139172523Y-110558242D01*
X139187182Y-110548448D01*
X139187182Y-110455552D01*
X139172523Y-110445757D01*
X139171638Y-110444225D01*
X139172315Y-110442590D01*
X139174024Y-110442132D01*
X139217599Y-110450800D01*
G37*
G36*
X130892599Y-110450800D02*
G01*
X132217201Y-110450800D01*
X132260771Y-110442133D01*
X132262480Y-110442591D01*
X132263157Y-110444226D01*
X132262272Y-110445758D01*
X132247617Y-110455551D01*
X132247617Y-110548449D01*
X132262273Y-110558241D01*
X132263158Y-110559773D01*
X132262481Y-110561408D01*
X132260772Y-110561866D01*
X132217201Y-110553200D01*
X130892599Y-110553200D01*
X130849024Y-110561867D01*
X130847315Y-110561409D01*
X130846638Y-110559774D01*
X130847523Y-110558242D01*
X130862182Y-110548448D01*
X130862182Y-110455552D01*
X130847523Y-110445757D01*
X130846638Y-110444225D01*
X130847315Y-110442590D01*
X130849024Y-110442132D01*
X130892599Y-110450800D01*
G37*
G36*
X139217599Y-109950800D02*
G01*
X140542201Y-109950800D01*
X140585771Y-109942133D01*
X140587480Y-109942591D01*
X140588157Y-109944226D01*
X140587272Y-109945758D01*
X140572617Y-109955551D01*
X140572617Y-110048449D01*
X140587273Y-110058241D01*
X140588158Y-110059773D01*
X140587481Y-110061408D01*
X140585772Y-110061866D01*
X140542201Y-110053200D01*
X139217599Y-110053200D01*
X139174024Y-110061867D01*
X139172315Y-110061409D01*
X139171638Y-110059774D01*
X139172523Y-110058242D01*
X139187182Y-110048448D01*
X139187182Y-109955552D01*
X139172523Y-109945757D01*
X139171638Y-109944225D01*
X139172315Y-109942590D01*
X139174024Y-109942132D01*
X139217599Y-109950800D01*
G37*
G36*
X130892599Y-109950800D02*
G01*
X132217201Y-109950800D01*
X132260771Y-109942133D01*
X132262480Y-109942591D01*
X132263157Y-109944226D01*
X132262272Y-109945758D01*
X132247617Y-109955551D01*
X132247617Y-110048449D01*
X132262273Y-110058241D01*
X132263158Y-110059773D01*
X132262481Y-110061408D01*
X132260772Y-110061866D01*
X132217201Y-110053200D01*
X130892599Y-110053200D01*
X130849024Y-110061867D01*
X130847315Y-110061409D01*
X130846638Y-110059774D01*
X130847523Y-110058242D01*
X130862182Y-110048448D01*
X130862182Y-109955552D01*
X130847523Y-109945757D01*
X130846638Y-109944225D01*
X130847315Y-109942590D01*
X130849024Y-109942132D01*
X130892599Y-109950800D01*
G37*
G36*
X140587480Y-109442591D02*
G01*
X140588157Y-109444226D01*
X140587272Y-109445758D01*
X140572617Y-109455551D01*
X140572617Y-109548449D01*
X140587273Y-109558241D01*
X140588158Y-109559773D01*
X140587481Y-109561408D01*
X140585772Y-109561866D01*
X140542201Y-109553200D01*
X139217599Y-109553200D01*
X139174020Y-109561868D01*
X139172311Y-109561410D01*
X139171634Y-109559775D01*
X139172519Y-109558243D01*
X139187182Y-109548445D01*
X139187181Y-109455548D01*
X139172528Y-109445758D01*
X139171643Y-109444226D01*
X139172320Y-109442591D01*
X139174029Y-109442133D01*
X139217599Y-109450800D01*
X140542201Y-109450800D01*
X140585771Y-109442133D01*
X140587480Y-109442591D01*
G37*
G36*
X132262480Y-109442591D02*
G01*
X132263157Y-109444226D01*
X132262272Y-109445758D01*
X132247617Y-109455551D01*
X132247617Y-109548449D01*
X132262273Y-109558241D01*
X132263158Y-109559773D01*
X132262481Y-109561408D01*
X132260772Y-109561866D01*
X132217201Y-109553200D01*
X130892599Y-109553200D01*
X130849020Y-109561868D01*
X130847311Y-109561410D01*
X130846634Y-109559775D01*
X130847519Y-109558243D01*
X130862182Y-109548445D01*
X130862181Y-109455548D01*
X130847528Y-109445758D01*
X130846643Y-109444226D01*
X130847320Y-109442591D01*
X130849029Y-109442133D01*
X130892599Y-109450800D01*
X132217201Y-109450800D01*
X132260771Y-109442133D01*
X132262480Y-109442591D01*
G37*
G36*
X139217599Y-108950800D02*
G01*
X140542201Y-108950800D01*
X140585771Y-108942133D01*
X140587480Y-108942591D01*
X140588157Y-108944226D01*
X140587272Y-108945758D01*
X140572617Y-108955551D01*
X140572617Y-109048449D01*
X140587273Y-109058241D01*
X140588158Y-109059773D01*
X140587481Y-109061408D01*
X140585772Y-109061866D01*
X140542201Y-109053200D01*
X139217599Y-109053200D01*
X139174024Y-109061867D01*
X139172315Y-109061409D01*
X139171638Y-109059774D01*
X139172523Y-109058242D01*
X139187182Y-109048448D01*
X139187182Y-108955552D01*
X139172523Y-108945757D01*
X139171638Y-108944225D01*
X139172315Y-108942590D01*
X139174024Y-108942132D01*
X139217599Y-108950800D01*
G37*
G36*
X130892599Y-108950800D02*
G01*
X132217201Y-108950800D01*
X132260771Y-108942133D01*
X132262480Y-108942591D01*
X132263157Y-108944226D01*
X132262272Y-108945758D01*
X132247617Y-108955551D01*
X132247617Y-109048449D01*
X132262273Y-109058241D01*
X132263158Y-109059773D01*
X132262481Y-109061408D01*
X132260772Y-109061866D01*
X132217201Y-109053200D01*
X130892599Y-109053200D01*
X130849024Y-109061867D01*
X130847315Y-109061409D01*
X130846638Y-109059774D01*
X130847523Y-109058242D01*
X130862182Y-109048448D01*
X130862182Y-108955552D01*
X130847523Y-108945757D01*
X130846638Y-108944225D01*
X130847315Y-108942590D01*
X130849024Y-108942132D01*
X130892599Y-108950800D01*
G37*
G36*
X140587480Y-108442591D02*
G01*
X140588157Y-108444226D01*
X140587272Y-108445758D01*
X140572617Y-108455551D01*
X140572617Y-108548449D01*
X140587273Y-108558241D01*
X140588158Y-108559773D01*
X140587481Y-108561408D01*
X140585772Y-108561866D01*
X140542201Y-108553200D01*
X139217599Y-108553200D01*
X139174020Y-108561868D01*
X139172311Y-108561410D01*
X139171634Y-108559775D01*
X139172519Y-108558243D01*
X139187182Y-108548445D01*
X139187181Y-108455548D01*
X139172528Y-108445758D01*
X139171643Y-108444226D01*
X139172320Y-108442591D01*
X139174029Y-108442133D01*
X139217599Y-108450800D01*
X140542201Y-108450800D01*
X140585771Y-108442133D01*
X140587480Y-108442591D01*
G37*
G36*
X132262480Y-108442591D02*
G01*
X132263157Y-108444226D01*
X132262272Y-108445758D01*
X132247617Y-108455551D01*
X132247617Y-108548449D01*
X132262273Y-108558241D01*
X132263158Y-108559773D01*
X132262481Y-108561408D01*
X132260772Y-108561866D01*
X132217201Y-108553200D01*
X130892599Y-108553200D01*
X130849020Y-108561868D01*
X130847311Y-108561410D01*
X130846634Y-108559775D01*
X130847519Y-108558243D01*
X130862182Y-108548445D01*
X130862181Y-108455548D01*
X130847528Y-108445758D01*
X130846643Y-108444226D01*
X130847320Y-108442591D01*
X130849029Y-108442133D01*
X130892599Y-108450800D01*
X132217201Y-108450800D01*
X132260771Y-108442133D01*
X132262480Y-108442591D01*
G37*
G36*
X140587478Y-107942591D02*
G01*
X140588155Y-107944226D01*
X140587270Y-107945758D01*
X140572617Y-107955548D01*
X140572616Y-108048446D01*
X140587277Y-108058242D01*
X140588162Y-108059774D01*
X140587485Y-108061409D01*
X140585776Y-108061867D01*
X140542201Y-108053200D01*
X139217599Y-108053200D01*
X139174020Y-108061868D01*
X139172311Y-108061410D01*
X139171634Y-108059775D01*
X139172519Y-108058243D01*
X139187182Y-108048445D01*
X139187181Y-107955548D01*
X139172528Y-107945758D01*
X139171643Y-107944226D01*
X139172320Y-107942591D01*
X139174029Y-107942133D01*
X139217599Y-107950800D01*
X140542201Y-107950800D01*
X140585769Y-107942133D01*
X140587478Y-107942591D01*
G37*
G36*
X132262478Y-107942591D02*
G01*
X132263155Y-107944226D01*
X132262270Y-107945758D01*
X132247617Y-107955548D01*
X132247616Y-108048446D01*
X132262277Y-108058242D01*
X132263162Y-108059774D01*
X132262485Y-108061409D01*
X132260776Y-108061867D01*
X132217201Y-108053200D01*
X130892599Y-108053200D01*
X130849020Y-108061868D01*
X130847311Y-108061410D01*
X130846634Y-108059775D01*
X130847519Y-108058243D01*
X130862182Y-108048445D01*
X130862181Y-107955548D01*
X130847528Y-107945758D01*
X130846643Y-107944226D01*
X130847320Y-107942591D01*
X130849029Y-107942133D01*
X130892599Y-107950800D01*
X132217201Y-107950800D01*
X132260769Y-107942133D01*
X132262478Y-107942591D01*
G37*
G36*
X139217599Y-107450800D02*
G01*
X140542201Y-107450800D01*
X140585771Y-107442133D01*
X140587480Y-107442591D01*
X140588157Y-107444226D01*
X140587272Y-107445758D01*
X140572617Y-107455551D01*
X140572617Y-107548449D01*
X140587273Y-107558241D01*
X140588158Y-107559773D01*
X140587481Y-107561408D01*
X140585772Y-107561866D01*
X140542201Y-107553200D01*
X139217599Y-107553200D01*
X139174024Y-107561867D01*
X139172315Y-107561409D01*
X139171638Y-107559774D01*
X139172523Y-107558242D01*
X139187182Y-107548448D01*
X139187182Y-107455552D01*
X139172523Y-107445757D01*
X139171638Y-107444225D01*
X139172315Y-107442590D01*
X139174024Y-107442132D01*
X139217599Y-107450800D01*
G37*
G36*
X130892599Y-107450800D02*
G01*
X132217201Y-107450800D01*
X132260771Y-107442133D01*
X132262480Y-107442591D01*
X132263157Y-107444226D01*
X132262272Y-107445758D01*
X132247617Y-107455551D01*
X132247617Y-107548449D01*
X132262273Y-107558241D01*
X132263158Y-107559773D01*
X132262481Y-107561408D01*
X132260772Y-107561866D01*
X132217201Y-107553200D01*
X130892599Y-107553200D01*
X130849024Y-107561867D01*
X130847315Y-107561409D01*
X130846638Y-107559774D01*
X130847523Y-107558242D01*
X130862182Y-107548448D01*
X130862182Y-107455552D01*
X130847523Y-107445757D01*
X130846638Y-107444225D01*
X130847315Y-107442590D01*
X130849024Y-107442132D01*
X130892599Y-107450800D01*
G37*
G36*
X139217599Y-106950800D02*
G01*
X140542201Y-106950800D01*
X140585771Y-106942133D01*
X140587480Y-106942591D01*
X140588157Y-106944226D01*
X140587272Y-106945758D01*
X140572617Y-106955551D01*
X140572617Y-107048449D01*
X140587273Y-107058241D01*
X140588158Y-107059773D01*
X140587481Y-107061408D01*
X140585772Y-107061866D01*
X140542201Y-107053200D01*
X139217599Y-107053200D01*
X139174024Y-107061867D01*
X139172315Y-107061409D01*
X139171638Y-107059774D01*
X139172523Y-107058242D01*
X139187182Y-107048448D01*
X139187182Y-106955552D01*
X139172523Y-106945757D01*
X139171638Y-106944225D01*
X139172315Y-106942590D01*
X139174024Y-106942132D01*
X139217599Y-106950800D01*
G37*
G36*
X130892599Y-106950800D02*
G01*
X132217201Y-106950800D01*
X132260771Y-106942133D01*
X132262480Y-106942591D01*
X132263157Y-106944226D01*
X132262272Y-106945758D01*
X132247617Y-106955551D01*
X132247617Y-107048449D01*
X132262273Y-107058241D01*
X132263158Y-107059773D01*
X132262481Y-107061408D01*
X132260772Y-107061866D01*
X132217201Y-107053200D01*
X130892599Y-107053200D01*
X130849024Y-107061867D01*
X130847315Y-107061409D01*
X130846638Y-107059774D01*
X130847523Y-107058242D01*
X130862182Y-107048448D01*
X130862182Y-106955552D01*
X130847523Y-106945757D01*
X130846638Y-106944225D01*
X130847315Y-106942590D01*
X130849024Y-106942132D01*
X130892599Y-106950800D01*
G37*
G36*
X140587480Y-106442591D02*
G01*
X140588157Y-106444226D01*
X140587272Y-106445758D01*
X140572617Y-106455551D01*
X140572617Y-106548449D01*
X140587273Y-106558241D01*
X140588158Y-106559773D01*
X140587481Y-106561408D01*
X140585772Y-106561866D01*
X140542201Y-106553200D01*
X139217599Y-106553200D01*
X139174020Y-106561868D01*
X139172311Y-106561410D01*
X139171634Y-106559775D01*
X139172519Y-106558243D01*
X139187182Y-106548445D01*
X139187181Y-106455548D01*
X139172528Y-106445758D01*
X139171643Y-106444226D01*
X139172320Y-106442591D01*
X139174029Y-106442133D01*
X139217599Y-106450800D01*
X140542201Y-106450800D01*
X140585771Y-106442133D01*
X140587480Y-106442591D01*
G37*
G36*
X132262480Y-106442591D02*
G01*
X132263157Y-106444226D01*
X132262272Y-106445758D01*
X132247617Y-106455551D01*
X132247617Y-106548449D01*
X132262273Y-106558241D01*
X132263158Y-106559773D01*
X132262481Y-106561408D01*
X132260772Y-106561866D01*
X132217201Y-106553200D01*
X130892599Y-106553200D01*
X130849020Y-106561868D01*
X130847311Y-106561410D01*
X130846634Y-106559775D01*
X130847519Y-106558243D01*
X130862182Y-106548445D01*
X130862181Y-106455548D01*
X130847528Y-106445758D01*
X130846643Y-106444226D01*
X130847320Y-106442591D01*
X130849029Y-106442133D01*
X130892599Y-106450800D01*
X132217201Y-106450800D01*
X132260771Y-106442133D01*
X132262480Y-106442591D01*
G37*
G36*
X139217599Y-105950800D02*
G01*
X140542201Y-105950800D01*
X140585771Y-105942133D01*
X140587480Y-105942591D01*
X140588157Y-105944226D01*
X140587272Y-105945758D01*
X140572617Y-105955551D01*
X140572617Y-106048449D01*
X140587273Y-106058241D01*
X140588158Y-106059773D01*
X140587481Y-106061408D01*
X140585772Y-106061866D01*
X140542201Y-106053200D01*
X139217599Y-106053200D01*
X139174024Y-106061867D01*
X139172315Y-106061409D01*
X139171638Y-106059774D01*
X139172523Y-106058242D01*
X139187182Y-106048448D01*
X139187182Y-105955552D01*
X139172523Y-105945757D01*
X139171638Y-105944225D01*
X139172315Y-105942590D01*
X139174024Y-105942132D01*
X139217599Y-105950800D01*
G37*
G36*
X130892599Y-105950800D02*
G01*
X132217201Y-105950800D01*
X132260771Y-105942133D01*
X132262480Y-105942591D01*
X132263157Y-105944226D01*
X132262272Y-105945758D01*
X132247617Y-105955551D01*
X132247617Y-106048449D01*
X132262273Y-106058241D01*
X132263158Y-106059773D01*
X132262481Y-106061408D01*
X132260772Y-106061866D01*
X132217201Y-106053200D01*
X130892599Y-106053200D01*
X130849024Y-106061867D01*
X130847315Y-106061409D01*
X130846638Y-106059774D01*
X130847523Y-106058242D01*
X130862182Y-106048448D01*
X130862182Y-105955552D01*
X130847523Y-105945757D01*
X130846638Y-105944225D01*
X130847315Y-105942590D01*
X130849024Y-105942132D01*
X130892599Y-105950800D01*
G37*
G36*
X134276809Y-103631915D02*
G01*
X134277267Y-103633624D01*
X134268600Y-103677199D01*
X134268600Y-105001801D01*
X134277267Y-105045376D01*
X134276809Y-105047085D01*
X134275174Y-105047762D01*
X134273642Y-105046877D01*
X134263846Y-105032216D01*
X134170948Y-105032217D01*
X134161158Y-105046870D01*
X134159626Y-105047755D01*
X134157991Y-105047078D01*
X134157533Y-105045369D01*
X134166200Y-105001801D01*
X134166200Y-103677199D01*
X134157532Y-103633624D01*
X134157990Y-103631915D01*
X134159625Y-103631238D01*
X134161157Y-103632123D01*
X134170952Y-103646782D01*
X134263848Y-103646782D01*
X134273642Y-103632123D01*
X134275174Y-103631238D01*
X134276809Y-103631915D01*
G37*
G36*
X133776809Y-103631915D02*
G01*
X133777267Y-103633624D01*
X133768600Y-103677199D01*
X133768600Y-105001801D01*
X133777267Y-105045376D01*
X133776809Y-105047085D01*
X133775174Y-105047762D01*
X133773642Y-105046877D01*
X133763846Y-105032216D01*
X133670948Y-105032217D01*
X133661158Y-105046870D01*
X133659626Y-105047755D01*
X133657991Y-105047078D01*
X133657533Y-105045369D01*
X133666200Y-105001801D01*
X133666200Y-103677199D01*
X133657532Y-103633624D01*
X133657990Y-103631915D01*
X133659625Y-103631238D01*
X133661157Y-103632123D01*
X133670952Y-103646782D01*
X133763848Y-103646782D01*
X133773642Y-103632123D01*
X133775174Y-103631238D01*
X133776809Y-103631915D01*
G37*
G36*
X133276809Y-103631915D02*
G01*
X133277267Y-103633624D01*
X133268600Y-103677199D01*
X133268600Y-105001801D01*
X133277267Y-105045376D01*
X133276809Y-105047085D01*
X133275174Y-105047762D01*
X133273642Y-105046877D01*
X133263846Y-105032216D01*
X133170948Y-105032217D01*
X133161158Y-105046870D01*
X133159626Y-105047755D01*
X133157991Y-105047078D01*
X133157533Y-105045369D01*
X133166200Y-105001801D01*
X133166200Y-103677199D01*
X133157532Y-103633624D01*
X133157990Y-103631915D01*
X133159625Y-103631238D01*
X133161157Y-103632123D01*
X133170952Y-103646782D01*
X133263848Y-103646782D01*
X133273642Y-103632123D01*
X133275174Y-103631238D01*
X133276809Y-103631915D01*
G37*
G36*
X138276809Y-103631915D02*
G01*
X138277267Y-103633624D01*
X138268600Y-103677199D01*
X138268600Y-105001801D01*
X138277266Y-105045372D01*
X138276808Y-105047081D01*
X138275173Y-105047758D01*
X138273641Y-105046873D01*
X138263849Y-105032217D01*
X138170951Y-105032217D01*
X138161158Y-105046872D01*
X138159626Y-105047757D01*
X138157991Y-105047080D01*
X138157533Y-105045371D01*
X138166200Y-105001801D01*
X138166200Y-103677199D01*
X138157532Y-103633624D01*
X138157990Y-103631915D01*
X138159625Y-103631238D01*
X138161157Y-103632123D01*
X138170952Y-103646782D01*
X138263848Y-103646782D01*
X138273642Y-103632123D01*
X138275174Y-103631238D01*
X138276809Y-103631915D01*
G37*
G36*
X137776809Y-103631915D02*
G01*
X137777267Y-103633624D01*
X137768600Y-103677199D01*
X137768600Y-105001801D01*
X137777266Y-105045372D01*
X137776808Y-105047081D01*
X137775173Y-105047758D01*
X137773641Y-105046873D01*
X137763849Y-105032217D01*
X137670951Y-105032217D01*
X137661158Y-105046872D01*
X137659626Y-105047757D01*
X137657991Y-105047080D01*
X137657533Y-105045371D01*
X137666200Y-105001801D01*
X137666200Y-103677199D01*
X137657532Y-103633624D01*
X137657990Y-103631915D01*
X137659625Y-103631238D01*
X137661157Y-103632123D01*
X137670952Y-103646782D01*
X137763848Y-103646782D01*
X137773642Y-103632123D01*
X137775174Y-103631238D01*
X137776809Y-103631915D01*
G37*
G36*
X137276809Y-103631915D02*
G01*
X137277267Y-103633624D01*
X137268600Y-103677199D01*
X137268600Y-105001801D01*
X137277266Y-105045372D01*
X137276808Y-105047081D01*
X137275173Y-105047758D01*
X137273641Y-105046873D01*
X137263849Y-105032217D01*
X137170951Y-105032217D01*
X137161158Y-105046872D01*
X137159626Y-105047757D01*
X137157991Y-105047080D01*
X137157533Y-105045371D01*
X137166200Y-105001801D01*
X137166200Y-103677199D01*
X137157532Y-103633624D01*
X137157990Y-103631915D01*
X137159625Y-103631238D01*
X137161157Y-103632123D01*
X137170952Y-103646782D01*
X137263848Y-103646782D01*
X137273642Y-103632123D01*
X137275174Y-103631238D01*
X137276809Y-103631915D01*
G37*
G36*
X136776809Y-103631915D02*
G01*
X136777267Y-103633624D01*
X136768600Y-103677199D01*
X136768600Y-105001801D01*
X136777266Y-105045372D01*
X136776808Y-105047081D01*
X136775173Y-105047758D01*
X136773641Y-105046873D01*
X136763849Y-105032217D01*
X136670951Y-105032217D01*
X136661158Y-105046872D01*
X136659626Y-105047757D01*
X136657991Y-105047080D01*
X136657533Y-105045371D01*
X136666200Y-105001801D01*
X136666200Y-103677199D01*
X136657532Y-103633624D01*
X136657990Y-103631915D01*
X136659625Y-103631238D01*
X136661157Y-103632123D01*
X136670952Y-103646782D01*
X136763848Y-103646782D01*
X136773642Y-103632123D01*
X136775174Y-103631238D01*
X136776809Y-103631915D01*
G37*
G36*
X136276809Y-103631915D02*
G01*
X136277267Y-103633624D01*
X136268600Y-103677199D01*
X136268600Y-105001801D01*
X136277266Y-105045372D01*
X136276808Y-105047081D01*
X136275173Y-105047758D01*
X136273641Y-105046873D01*
X136263849Y-105032217D01*
X136170951Y-105032217D01*
X136161158Y-105046872D01*
X136159626Y-105047757D01*
X136157991Y-105047080D01*
X136157533Y-105045371D01*
X136166200Y-105001801D01*
X136166200Y-103677199D01*
X136157532Y-103633624D01*
X136157990Y-103631915D01*
X136159625Y-103631238D01*
X136161157Y-103632123D01*
X136170952Y-103646782D01*
X136263848Y-103646782D01*
X136273642Y-103632123D01*
X136275174Y-103631238D01*
X136276809Y-103631915D01*
G37*
G36*
X135776809Y-103631915D02*
G01*
X135777267Y-103633624D01*
X135768600Y-103677199D01*
X135768600Y-105001801D01*
X135777266Y-105045372D01*
X135776808Y-105047081D01*
X135775173Y-105047758D01*
X135773641Y-105046873D01*
X135763849Y-105032217D01*
X135670951Y-105032217D01*
X135661158Y-105046872D01*
X135659626Y-105047757D01*
X135657991Y-105047080D01*
X135657533Y-105045371D01*
X135666200Y-105001801D01*
X135666200Y-103677199D01*
X135657532Y-103633624D01*
X135657990Y-103631915D01*
X135659625Y-103631238D01*
X135661157Y-103632123D01*
X135670952Y-103646782D01*
X135763848Y-103646782D01*
X135773642Y-103632123D01*
X135775174Y-103631238D01*
X135776809Y-103631915D01*
G37*
G36*
X135276809Y-103631915D02*
G01*
X135277267Y-103633624D01*
X135268600Y-103677199D01*
X135268600Y-105001801D01*
X135277266Y-105045372D01*
X135276808Y-105047081D01*
X135275173Y-105047758D01*
X135273641Y-105046873D01*
X135263849Y-105032217D01*
X135170951Y-105032217D01*
X135161158Y-105046872D01*
X135159626Y-105047757D01*
X135157991Y-105047080D01*
X135157533Y-105045371D01*
X135166200Y-105001801D01*
X135166200Y-103677199D01*
X135157532Y-103633624D01*
X135157990Y-103631915D01*
X135159625Y-103631238D01*
X135161157Y-103632123D01*
X135170952Y-103646782D01*
X135263848Y-103646782D01*
X135273642Y-103632123D01*
X135275174Y-103631238D01*
X135276809Y-103631915D01*
G37*
G36*
X134776809Y-103631915D02*
G01*
X134777267Y-103633624D01*
X134768600Y-103677199D01*
X134768600Y-105001801D01*
X134777266Y-105045372D01*
X134776808Y-105047081D01*
X134775173Y-105047758D01*
X134773641Y-105046873D01*
X134763849Y-105032217D01*
X134670951Y-105032217D01*
X134661158Y-105046872D01*
X134659626Y-105047757D01*
X134657991Y-105047080D01*
X134657533Y-105045371D01*
X134666200Y-105001801D01*
X134666200Y-103677199D01*
X134657532Y-103633624D01*
X134657990Y-103631915D01*
X134659625Y-103631238D01*
X134661157Y-103632123D01*
X134670952Y-103646782D01*
X134763848Y-103646782D01*
X134773642Y-103632123D01*
X134775174Y-103631238D01*
X134776809Y-103631915D01*
G37*
M02*
