%TF.GenerationSoftware,KiCad,Pcbnew,(7.0.0)*%
%TF.CreationDate,2023-03-02T18:54:12-05:00*%
%TF.ProjectId,STM32_XTW2,53544d33-325f-4585-9457-322e6b696361,rev?*%
%TF.SameCoordinates,Original*%
%TF.FileFunction,Legend,Bot*%
%TF.FilePolarity,Positive*%
%FSLAX46Y46*%
G04 Gerber Fmt 4.6, Leading zero omitted, Abs format (unit mm)*
G04 Created by KiCad (PCBNEW (7.0.0)) date 2023-03-02 18:54:12*
%MOMM*%
%LPD*%
G01*
G04 APERTURE LIST*
G04 APERTURE END LIST*
%TO.C,G\u002A\u002A\u002A*%
G36*
X193407834Y-90203881D02*
G01*
X193445441Y-90221646D01*
X193476393Y-90249942D01*
X193498910Y-90286370D01*
X193511216Y-90328527D01*
X193511531Y-90374015D01*
X193498078Y-90420433D01*
X193494372Y-90428055D01*
X193466659Y-90465622D01*
X193431104Y-90490638D01*
X193390783Y-90503042D01*
X193348774Y-90502775D01*
X193308153Y-90489777D01*
X193271998Y-90463990D01*
X193243385Y-90425354D01*
X193229100Y-90385956D01*
X193226443Y-90339225D01*
X193237333Y-90294356D01*
X193260385Y-90254615D01*
X193294215Y-90223265D01*
X193337439Y-90203570D01*
X193365348Y-90199047D01*
X193407834Y-90203881D01*
G37*
G36*
X193388602Y-82738611D02*
G01*
X193434420Y-82751314D01*
X193470708Y-82777875D01*
X193498230Y-82818828D01*
X193511904Y-82861600D01*
X193512255Y-82909589D01*
X193497919Y-82955004D01*
X193469912Y-82994787D01*
X193429255Y-83025880D01*
X193427240Y-83026964D01*
X193387458Y-83038934D01*
X193345355Y-83036484D01*
X193304481Y-83020932D01*
X193268385Y-82993598D01*
X193240619Y-82955798D01*
X193230154Y-82924662D01*
X193227681Y-82881128D01*
X193235640Y-82836673D01*
X193253513Y-82797623D01*
X193257782Y-82791477D01*
X193291117Y-82758828D01*
X193332660Y-82740978D01*
X193382291Y-82737981D01*
X193388602Y-82738611D01*
G37*
G36*
X193006080Y-82776463D02*
G01*
X193027916Y-82785102D01*
X193046708Y-82798712D01*
X193065083Y-82817633D01*
X193085414Y-82846449D01*
X193101991Y-82891496D01*
X193104092Y-82937932D01*
X193092214Y-82982550D01*
X193066853Y-83022144D01*
X193028508Y-83053507D01*
X193027687Y-83053984D01*
X192994070Y-83068390D01*
X192946297Y-83080929D01*
X192883688Y-83091717D01*
X192805564Y-83100872D01*
X192711243Y-83108513D01*
X192644081Y-83112498D01*
X192535217Y-83116154D01*
X192441291Y-83115360D01*
X192362659Y-83110134D01*
X192299675Y-83100493D01*
X192252693Y-83086453D01*
X192219715Y-83067838D01*
X192185891Y-83037407D01*
X192163000Y-83002967D01*
X192155528Y-82978030D01*
X192151790Y-82940168D01*
X192154376Y-82902413D01*
X192163268Y-82872570D01*
X192175899Y-82853282D01*
X192203064Y-82825193D01*
X192234606Y-82802803D01*
X192264622Y-82790869D01*
X192264686Y-82790857D01*
X192287947Y-82789540D01*
X192320679Y-82791344D01*
X192355819Y-82795881D01*
X192384675Y-82798995D01*
X192428291Y-82801063D01*
X192482053Y-82801953D01*
X192542504Y-82801735D01*
X192606187Y-82800479D01*
X192669645Y-82798252D01*
X192729421Y-82795127D01*
X192782059Y-82791171D01*
X192824100Y-82786455D01*
X192835734Y-82784809D01*
X192896027Y-82776967D01*
X192942764Y-82772735D01*
X192978572Y-82772454D01*
X193006080Y-82776463D01*
G37*
G36*
X192991327Y-90240928D02*
G01*
X193022479Y-90250130D01*
X193029191Y-90253873D01*
X193064095Y-90283760D01*
X193089588Y-90323803D01*
X193103437Y-90369427D01*
X193103412Y-90416058D01*
X193103103Y-90417780D01*
X193088462Y-90455342D01*
X193061374Y-90490747D01*
X193025975Y-90519691D01*
X192986396Y-90537873D01*
X192979280Y-90539785D01*
X192932549Y-90549469D01*
X192872960Y-90558287D01*
X192803931Y-90566015D01*
X192728879Y-90572433D01*
X192651223Y-90577317D01*
X192574379Y-90580447D01*
X192501767Y-90581599D01*
X192436803Y-90580552D01*
X192382905Y-90577084D01*
X192370205Y-90575732D01*
X192305455Y-90565693D01*
X192254858Y-90551196D01*
X192216307Y-90531201D01*
X192187698Y-90504671D01*
X192166924Y-90470567D01*
X192153946Y-90427587D01*
X192153513Y-90380301D01*
X192166450Y-90336147D01*
X192191689Y-90298593D01*
X192228168Y-90271107D01*
X192229023Y-90270672D01*
X192243503Y-90263965D01*
X192257880Y-90259601D01*
X192275552Y-90257362D01*
X192299918Y-90257030D01*
X192334374Y-90258387D01*
X192382320Y-90261214D01*
X192413764Y-90262761D01*
X192470788Y-90264137D01*
X192534571Y-90264342D01*
X192601728Y-90263476D01*
X192668876Y-90261640D01*
X192732631Y-90258937D01*
X192789611Y-90255466D01*
X192836430Y-90251329D01*
X192869706Y-90246629D01*
X192897998Y-90241973D01*
X192948496Y-90238178D01*
X192991327Y-90240928D01*
G37*
G36*
X193381729Y-95735817D02*
G01*
X193396797Y-95741398D01*
X193412332Y-95750997D01*
X193416908Y-95754224D01*
X193452960Y-95789381D01*
X193475418Y-95830399D01*
X193484507Y-95874353D01*
X193480450Y-95918316D01*
X193463471Y-95959364D01*
X193433796Y-95994571D01*
X193391647Y-96021012D01*
X193388703Y-96022226D01*
X193360272Y-96030802D01*
X193317404Y-96040298D01*
X193262225Y-96050422D01*
X193196861Y-96060883D01*
X193123437Y-96071390D01*
X193044078Y-96081651D01*
X192960909Y-96091375D01*
X192876056Y-96100272D01*
X192791645Y-96108051D01*
X192709800Y-96114419D01*
X192690330Y-96115670D01*
X192627484Y-96118512D01*
X192561435Y-96119955D01*
X192495058Y-96120070D01*
X192431226Y-96118928D01*
X192372810Y-96116602D01*
X192322685Y-96113161D01*
X192283722Y-96108679D01*
X192258797Y-96103224D01*
X192255095Y-96101861D01*
X192217861Y-96080855D01*
X192185046Y-96050540D01*
X192162854Y-96016521D01*
X192153040Y-95977414D01*
X192154586Y-95930940D01*
X192167755Y-95885951D01*
X192191520Y-95848460D01*
X192195013Y-95844659D01*
X192205948Y-95834090D01*
X192218060Y-95825706D01*
X192233319Y-95819233D01*
X192253695Y-95814393D01*
X192281156Y-95810910D01*
X192317673Y-95808509D01*
X192365214Y-95806914D01*
X192425750Y-95805847D01*
X192501250Y-95805033D01*
X192546731Y-95804555D01*
X192621419Y-95803369D01*
X192686110Y-95801555D01*
X192744623Y-95798823D01*
X192800774Y-95794884D01*
X192858379Y-95789448D01*
X192921258Y-95782224D01*
X192993226Y-95772925D01*
X193078100Y-95761259D01*
X193115283Y-95756226D01*
X193171796Y-95749121D01*
X193225672Y-95742931D01*
X193272208Y-95738188D01*
X193306700Y-95735422D01*
X193334253Y-95733951D01*
X193362443Y-95733566D01*
X193381729Y-95735817D01*
G37*
G36*
X192562287Y-93862105D02*
G01*
X192601016Y-93892970D01*
X192602785Y-93894837D01*
X192632851Y-93935401D01*
X192647423Y-93977397D01*
X192646484Y-94022137D01*
X192630017Y-94070929D01*
X192598004Y-94125086D01*
X192592564Y-94132920D01*
X192568847Y-94167152D01*
X192546330Y-94199754D01*
X192529251Y-94224593D01*
X192517854Y-94242512D01*
X192497634Y-94279607D01*
X192478578Y-94320304D01*
X192462591Y-94360082D01*
X192451576Y-94394422D01*
X192447437Y-94418802D01*
X192453110Y-94445984D01*
X192473265Y-94473387D01*
X192505927Y-94494647D01*
X192548921Y-94508419D01*
X192600071Y-94513353D01*
X192606194Y-94513281D01*
X192660893Y-94506847D01*
X192718358Y-94491384D01*
X192773676Y-94468851D01*
X192821932Y-94441208D01*
X192858211Y-94410415D01*
X192871847Y-94394338D01*
X192887060Y-94369636D01*
X192892895Y-94344057D01*
X192890082Y-94312782D01*
X192879354Y-94270992D01*
X192871982Y-94241991D01*
X192866657Y-94187268D01*
X192875459Y-94141577D01*
X192898493Y-94104558D01*
X192935865Y-94075848D01*
X192942702Y-94072157D01*
X192983529Y-94055340D01*
X193019217Y-94051604D01*
X193053940Y-94060403D01*
X193055488Y-94061057D01*
X193095294Y-94084348D01*
X193126833Y-94117998D01*
X193153151Y-94165224D01*
X193158482Y-94177655D01*
X193181684Y-94255930D01*
X193189043Y-94336744D01*
X193180763Y-94417725D01*
X193157049Y-94496502D01*
X193118106Y-94570702D01*
X193114956Y-94575436D01*
X193065399Y-94634853D01*
X193002642Y-94688283D01*
X192929525Y-94734570D01*
X192848886Y-94772564D01*
X192763564Y-94801110D01*
X192676399Y-94819055D01*
X192590228Y-94825247D01*
X192507890Y-94818533D01*
X192489729Y-94815014D01*
X192414013Y-94791081D01*
X192343769Y-94754303D01*
X192281231Y-94706625D01*
X192228634Y-94649991D01*
X192188211Y-94586345D01*
X192162197Y-94517634D01*
X192157909Y-94496136D01*
X192153835Y-94443364D01*
X192155887Y-94384771D01*
X192163669Y-94326910D01*
X192176784Y-94276334D01*
X192193154Y-94232829D01*
X192234642Y-94141446D01*
X192283662Y-94053558D01*
X192337586Y-93973644D01*
X192393790Y-93906181D01*
X192395001Y-93904907D01*
X192437225Y-93869360D01*
X192479665Y-93850347D01*
X192521594Y-93847913D01*
X192562287Y-93862105D01*
G37*
G36*
X192516968Y-92294389D02*
G01*
X192452864Y-92287846D01*
X192395468Y-92273492D01*
X192338647Y-92250036D01*
X192278504Y-92213094D01*
X192227078Y-92165623D01*
X192187519Y-92110747D01*
X192162311Y-92051267D01*
X192159338Y-92038531D01*
X192154684Y-91997693D01*
X192154880Y-91962616D01*
X192452582Y-91962616D01*
X192472134Y-91973080D01*
X192474414Y-91974201D01*
X192501101Y-91980986D01*
X192540041Y-91983999D01*
X192587510Y-91983494D01*
X192639787Y-91979728D01*
X192693148Y-91972955D01*
X192743870Y-91963431D01*
X192788230Y-91951411D01*
X192800996Y-91946930D01*
X192831799Y-91931923D01*
X192848626Y-91914464D01*
X192853733Y-91892524D01*
X192852235Y-91882381D01*
X192844779Y-91872831D01*
X192829109Y-91866828D01*
X192803074Y-91863973D01*
X192764522Y-91863866D01*
X192711300Y-91866108D01*
X192709275Y-91866217D01*
X192665239Y-91869062D01*
X192632803Y-91872757D01*
X192606837Y-91878406D01*
X192582209Y-91887113D01*
X192553789Y-91899980D01*
X192550306Y-91901658D01*
X192518553Y-91917941D01*
X192490988Y-91933657D01*
X192473241Y-91945618D01*
X192452582Y-91962616D01*
X192154880Y-91962616D01*
X192154937Y-91952413D01*
X192156600Y-91934912D01*
X192173431Y-91866180D01*
X192205695Y-91801196D01*
X192252338Y-91740956D01*
X192312307Y-91686459D01*
X192384548Y-91638701D01*
X192468008Y-91598679D01*
X192561634Y-91567392D01*
X192587105Y-91562428D01*
X192628666Y-91557693D01*
X192678407Y-91554275D01*
X192731623Y-91552334D01*
X192783610Y-91552032D01*
X192829663Y-91553531D01*
X192865076Y-91556991D01*
X192931895Y-91573683D01*
X192995441Y-91601902D01*
X193050984Y-91639417D01*
X193095668Y-91684290D01*
X193126636Y-91734579D01*
X193132713Y-91750735D01*
X193140759Y-91783543D01*
X193147215Y-91827531D01*
X193152576Y-91885571D01*
X193152666Y-91886766D01*
X193155917Y-91932097D01*
X193157493Y-91964345D01*
X193157125Y-91987221D01*
X193154548Y-92004432D01*
X193149494Y-92019690D01*
X193141696Y-92036703D01*
X193129098Y-92057697D01*
X193094519Y-92096040D01*
X193046858Y-92133906D01*
X192988568Y-92170218D01*
X192922103Y-92203899D01*
X192849917Y-92233871D01*
X192774463Y-92259058D01*
X192698195Y-92278382D01*
X192623566Y-92290766D01*
X192553030Y-92295134D01*
X192540041Y-92294866D01*
X192516968Y-92294389D01*
G37*
G36*
X192564988Y-89232649D02*
G01*
X192602033Y-89263041D01*
X192626810Y-89295610D01*
X192645296Y-89339173D01*
X192647667Y-89384522D01*
X192633932Y-89432828D01*
X192604102Y-89485260D01*
X192582525Y-89516553D01*
X192556911Y-89553747D01*
X192535031Y-89585560D01*
X192524672Y-89601413D01*
X192501880Y-89641302D01*
X192480902Y-89684143D01*
X192463597Y-89725652D01*
X192451823Y-89761544D01*
X192447437Y-89787535D01*
X192449657Y-89803534D01*
X192465079Y-89832468D01*
X192492428Y-89856711D01*
X192528434Y-89872822D01*
X192577176Y-89880553D01*
X192638229Y-89878482D01*
X192701265Y-89866168D01*
X192761758Y-89844884D01*
X192815177Y-89815902D01*
X192856995Y-89780495D01*
X192874058Y-89760065D01*
X192887861Y-89736093D01*
X192892770Y-89710775D01*
X192889504Y-89679380D01*
X192878781Y-89637180D01*
X192876350Y-89628698D01*
X192867909Y-89596312D01*
X192864361Y-89573240D01*
X192865243Y-89553926D01*
X192870093Y-89532817D01*
X192885755Y-89495564D01*
X192914372Y-89460199D01*
X192950756Y-89436122D01*
X192991888Y-89424128D01*
X193034751Y-89425013D01*
X193076326Y-89439573D01*
X193113594Y-89468604D01*
X193113797Y-89468822D01*
X193135471Y-89499660D01*
X193155831Y-89542054D01*
X193172704Y-89590698D01*
X193183916Y-89640286D01*
X193186164Y-89656361D01*
X193188100Y-89738599D01*
X193174138Y-89817372D01*
X193145020Y-89891678D01*
X193101486Y-89960520D01*
X193044275Y-90022896D01*
X192974130Y-90077808D01*
X192891790Y-90124255D01*
X192797996Y-90161238D01*
X192767387Y-90170321D01*
X192673517Y-90188779D01*
X192582356Y-90192887D01*
X192495454Y-90183047D01*
X192414358Y-90159659D01*
X192340616Y-90123122D01*
X192275778Y-90073837D01*
X192221390Y-90012204D01*
X192202993Y-89985464D01*
X192186733Y-89956842D01*
X192174452Y-89926265D01*
X192162717Y-89886367D01*
X192155350Y-89849350D01*
X192153042Y-89776567D01*
X192164449Y-89697373D01*
X192189080Y-89613289D01*
X192226442Y-89525837D01*
X192276041Y-89436539D01*
X192337385Y-89346916D01*
X192338647Y-89345236D01*
X192370764Y-89303233D01*
X192395800Y-89272792D01*
X192416242Y-89251641D01*
X192434574Y-89237507D01*
X192453282Y-89228117D01*
X192474850Y-89221198D01*
X192479989Y-89219918D01*
X192523801Y-89218108D01*
X192564988Y-89232649D01*
G37*
G36*
X192663313Y-81004190D02*
G01*
X192755216Y-81008869D01*
X192835554Y-81018314D01*
X192905936Y-81032657D01*
X192967971Y-81052031D01*
X192984342Y-81058964D01*
X193031743Y-81087667D01*
X193074108Y-81125403D01*
X193107541Y-81168271D01*
X193128147Y-81212374D01*
X193139206Y-81266836D01*
X193138001Y-81330109D01*
X193120816Y-81393157D01*
X193087348Y-81457800D01*
X193057941Y-81504367D01*
X193080721Y-81515980D01*
X193087401Y-81519575D01*
X193125556Y-81549481D01*
X193151720Y-81587121D01*
X193165712Y-81629413D01*
X193167352Y-81673273D01*
X193156461Y-81715619D01*
X193132857Y-81753368D01*
X193096361Y-81783437D01*
X193082593Y-81790490D01*
X193064074Y-81797481D01*
X193040303Y-81803986D01*
X193009621Y-81810273D01*
X192970365Y-81816606D01*
X192920876Y-81823250D01*
X192859492Y-81830472D01*
X192784553Y-81838537D01*
X192694396Y-81847710D01*
X192611109Y-81855558D01*
X192524588Y-81862324D01*
X192452777Y-81866100D01*
X192394607Y-81866896D01*
X192349008Y-81864721D01*
X192314910Y-81859586D01*
X192291244Y-81851500D01*
X192259122Y-81830445D01*
X192226338Y-81793203D01*
X192207194Y-81748612D01*
X192202739Y-81699424D01*
X192214017Y-81648388D01*
X192218948Y-81636225D01*
X192228901Y-81616846D01*
X192241782Y-81599877D01*
X192259465Y-81584196D01*
X192283821Y-81568683D01*
X192316724Y-81552216D01*
X192360045Y-81533674D01*
X192415657Y-81511935D01*
X192485434Y-81485880D01*
X192553466Y-81459988D01*
X192630948Y-81428039D01*
X192694743Y-81398588D01*
X192743914Y-81372074D01*
X192777524Y-81348937D01*
X192806445Y-81324793D01*
X192727112Y-81318587D01*
X192719800Y-81318088D01*
X192683249Y-81316704D01*
X192634717Y-81316046D01*
X192578094Y-81316118D01*
X192517267Y-81316920D01*
X192456124Y-81318454D01*
X192399454Y-81320137D01*
X192348843Y-81321251D01*
X192310856Y-81321441D01*
X192283212Y-81320633D01*
X192263624Y-81318753D01*
X192249809Y-81315729D01*
X192239484Y-81311487D01*
X192232641Y-81307641D01*
X192201370Y-81283579D01*
X192175140Y-81253766D01*
X192159346Y-81224084D01*
X192157311Y-81216843D01*
X192153402Y-81172390D01*
X192161128Y-81126096D01*
X192179380Y-81085643D01*
X192190127Y-81070435D01*
X192205703Y-81053186D01*
X192224109Y-81039891D01*
X192247697Y-81029858D01*
X192278817Y-81022392D01*
X192319818Y-81016801D01*
X192373051Y-81012389D01*
X192440866Y-81008465D01*
X192558236Y-81004142D01*
X192663313Y-81004190D01*
G37*
G36*
X192752876Y-95733629D02*
G01*
X192663821Y-95754218D01*
X192565867Y-95760854D01*
X192529404Y-95760298D01*
X192488960Y-95757479D01*
X192455122Y-95751567D01*
X192421934Y-95741770D01*
X192361215Y-95715861D01*
X192292910Y-95671403D01*
X192236466Y-95615151D01*
X192192569Y-95547822D01*
X192161905Y-95470134D01*
X192156371Y-95439616D01*
X192153833Y-95392788D01*
X192154786Y-95330434D01*
X192158104Y-95280738D01*
X192169647Y-95198929D01*
X192187901Y-95120742D01*
X192211953Y-95048388D01*
X192240894Y-94984077D01*
X192273813Y-94930020D01*
X192309798Y-94888429D01*
X192347940Y-94861515D01*
X192355378Y-94858042D01*
X192394245Y-94845729D01*
X192430360Y-94846834D01*
X192470180Y-94861347D01*
X192487950Y-94871584D01*
X192521179Y-94903898D01*
X192541832Y-94946514D01*
X192548934Y-94997743D01*
X192547602Y-95022992D01*
X192542221Y-95048389D01*
X192531143Y-95077455D01*
X192512726Y-95115532D01*
X192494881Y-95153497D01*
X192473371Y-95210108D01*
X192457969Y-95265088D01*
X192449088Y-95315798D01*
X192447141Y-95359597D01*
X192452542Y-95393846D01*
X192465702Y-95415905D01*
X192477813Y-95426163D01*
X192481359Y-95426427D01*
X192477464Y-95415101D01*
X192473836Y-95400468D01*
X192469730Y-95373666D01*
X192466491Y-95341958D01*
X192466754Y-95310281D01*
X192752134Y-95310281D01*
X192752250Y-95312292D01*
X192759047Y-95329278D01*
X192772116Y-95344807D01*
X192785568Y-95351601D01*
X192791383Y-95350495D01*
X192803112Y-95338778D01*
X192809281Y-95318892D01*
X192809526Y-95296635D01*
X192803484Y-95277805D01*
X192790793Y-95268199D01*
X192778884Y-95269350D01*
X192763276Y-95280331D01*
X192756976Y-95291542D01*
X192752134Y-95310281D01*
X192466754Y-95310281D01*
X192466977Y-95283527D01*
X192481298Y-95211077D01*
X192509574Y-95142990D01*
X192550326Y-95081900D01*
X192602075Y-95030444D01*
X192663342Y-94991256D01*
X192665559Y-94990171D01*
X192693623Y-94977735D01*
X192718615Y-94970533D01*
X192747190Y-94967220D01*
X192786000Y-94966449D01*
X192827984Y-94967715D01*
X192877931Y-94974694D01*
X192919400Y-94989401D01*
X192957007Y-95013661D01*
X192995363Y-95049300D01*
X193028025Y-95085819D01*
X193059154Y-95130620D01*
X193078847Y-95176515D01*
X193089088Y-95228479D01*
X193091856Y-95291488D01*
X193091112Y-95317841D01*
X193079214Y-95401224D01*
X193052416Y-95477218D01*
X193010171Y-95547073D01*
X192951934Y-95612040D01*
X192910165Y-95648323D01*
X192834500Y-95698519D01*
X192785568Y-95719567D01*
X192752876Y-95733629D01*
G37*
G36*
X192688482Y-90658473D02*
G01*
X192750738Y-90660035D01*
X192802122Y-90662972D01*
X192845109Y-90667596D01*
X192882174Y-90674215D01*
X192915792Y-90683140D01*
X192948439Y-90694681D01*
X192982588Y-90709147D01*
X193027337Y-90735131D01*
X193072245Y-90774699D01*
X193107663Y-90821226D01*
X193129890Y-90870653D01*
X193139148Y-90919656D01*
X193136544Y-90984961D01*
X193117262Y-91050783D01*
X193081411Y-91116575D01*
X193078536Y-91120857D01*
X193064140Y-91143018D01*
X193058391Y-91154907D01*
X193060414Y-91159708D01*
X193069339Y-91160601D01*
X193080063Y-91163823D01*
X193100384Y-91177473D01*
X193122684Y-91197980D01*
X193142547Y-91221140D01*
X193155561Y-91242746D01*
X193166175Y-91280511D01*
X193165841Y-91327963D01*
X193151369Y-91372023D01*
X193124287Y-91409913D01*
X193086119Y-91438854D01*
X193038393Y-91456066D01*
X193005538Y-91461897D01*
X192951322Y-91469824D01*
X192886257Y-91478036D01*
X192813731Y-91486210D01*
X192737136Y-91494018D01*
X192659861Y-91501136D01*
X192585297Y-91507239D01*
X192516834Y-91512001D01*
X192457861Y-91515096D01*
X192411770Y-91516201D01*
X192380494Y-91515726D01*
X192331550Y-91511820D01*
X192294423Y-91503227D01*
X192265967Y-91489057D01*
X192243038Y-91468418D01*
X192238185Y-91462646D01*
X192212712Y-91418886D01*
X192202126Y-91371889D01*
X192205814Y-91324615D01*
X192223163Y-91280026D01*
X192253559Y-91241081D01*
X192296390Y-91210741D01*
X192312836Y-91203305D01*
X192342757Y-91190962D01*
X192382437Y-91175249D01*
X192428713Y-91157418D01*
X192478423Y-91138720D01*
X192537643Y-91116174D01*
X192621637Y-91081807D01*
X192690657Y-91050229D01*
X192744174Y-91021687D01*
X192781658Y-90996430D01*
X192806950Y-90976112D01*
X192747792Y-90969776D01*
X192733137Y-90968706D01*
X192698632Y-90967575D01*
X192652437Y-90967076D01*
X192597724Y-90967211D01*
X192537665Y-90967986D01*
X192475431Y-90969405D01*
X192471979Y-90969501D01*
X192403172Y-90971326D01*
X192348960Y-90972275D01*
X192307114Y-90972004D01*
X192275402Y-90970171D01*
X192251596Y-90966431D01*
X192233464Y-90960440D01*
X192218777Y-90951854D01*
X192205304Y-90940330D01*
X192190814Y-90925523D01*
X192187808Y-90922230D01*
X192170659Y-90898661D01*
X192159792Y-90876084D01*
X192152604Y-90828173D01*
X192159367Y-90779208D01*
X192179656Y-90735299D01*
X192212337Y-90700243D01*
X192217952Y-90696162D01*
X192236057Y-90685651D01*
X192257969Y-90677218D01*
X192285563Y-90670644D01*
X192320711Y-90665712D01*
X192365289Y-90662201D01*
X192421169Y-90659895D01*
X192490226Y-90658573D01*
X192574334Y-90658018D01*
X192612880Y-90657977D01*
X192688482Y-90658473D01*
G37*
G36*
X192493900Y-88418220D02*
G01*
X192526136Y-88433706D01*
X192564726Y-88465704D01*
X192608246Y-88513854D01*
X192656708Y-88578168D01*
X192710124Y-88658658D01*
X192745010Y-88713225D01*
X192777511Y-88762040D01*
X192803365Y-88798107D01*
X192823408Y-88822516D01*
X192838476Y-88836361D01*
X192849403Y-88840734D01*
X192849962Y-88840705D01*
X192862035Y-88833506D01*
X192875690Y-88817450D01*
X192877015Y-88815362D01*
X192883041Y-88802192D01*
X192887566Y-88783553D01*
X192890974Y-88756579D01*
X192893649Y-88718405D01*
X192895976Y-88666164D01*
X192896198Y-88660361D01*
X192898271Y-88611952D01*
X192900523Y-88576974D01*
X192903467Y-88552252D01*
X192907616Y-88534610D01*
X192913483Y-88520872D01*
X192921584Y-88507865D01*
X192937582Y-88488430D01*
X192973755Y-88461171D01*
X193015357Y-88445707D01*
X193058283Y-88443265D01*
X193098430Y-88455068D01*
X193110631Y-88462489D01*
X193141378Y-88489912D01*
X193167476Y-88524320D01*
X193183424Y-88558986D01*
X193185605Y-88569634D01*
X193188871Y-88600557D01*
X193190955Y-88641704D01*
X193191855Y-88688696D01*
X193191569Y-88737156D01*
X193190095Y-88782707D01*
X193187430Y-88820973D01*
X193183573Y-88847576D01*
X193171674Y-88885855D01*
X193147986Y-88938704D01*
X193117889Y-88990535D01*
X193084941Y-89034604D01*
X193036181Y-89083046D01*
X192977945Y-89123073D01*
X192916454Y-89146969D01*
X192850991Y-89155102D01*
X192848421Y-89155102D01*
X192797703Y-89148756D01*
X192749553Y-89129747D01*
X192703002Y-89097251D01*
X192657080Y-89050445D01*
X192610820Y-88988506D01*
X192563251Y-88910610D01*
X192561455Y-88907423D01*
X192538303Y-88866559D01*
X192516093Y-88827696D01*
X192497270Y-88795090D01*
X192484277Y-88773000D01*
X192472145Y-88753282D01*
X192463998Y-88743144D01*
X192459266Y-88744605D01*
X192455199Y-88756067D01*
X192454790Y-88757572D01*
X192451386Y-88781143D01*
X192449270Y-88817147D01*
X192448416Y-88861534D01*
X192448799Y-88910256D01*
X192450389Y-88959265D01*
X192453162Y-89004511D01*
X192457091Y-89041947D01*
X192459068Y-89057341D01*
X192461824Y-89107055D01*
X192456415Y-89146270D01*
X192441915Y-89178878D01*
X192417396Y-89208774D01*
X192388077Y-89231963D01*
X192345667Y-89248830D01*
X192301427Y-89250066D01*
X192257927Y-89235709D01*
X192217737Y-89205797D01*
X192211350Y-89199111D01*
X192194127Y-89176217D01*
X192180708Y-89148153D01*
X192169509Y-89111007D01*
X192158940Y-89060867D01*
X192157071Y-89043820D01*
X192155458Y-89011289D01*
X192154512Y-88968459D01*
X192154307Y-88918888D01*
X192154915Y-88866134D01*
X192157205Y-88798150D01*
X192163507Y-88717744D01*
X192174031Y-88650254D01*
X192189404Y-88593529D01*
X192210250Y-88545414D01*
X192237192Y-88503758D01*
X192270856Y-88466407D01*
X192278387Y-88459585D01*
X192323694Y-88431206D01*
X192377462Y-88414259D01*
X192435571Y-88409634D01*
X192493900Y-88418220D01*
G37*
G36*
X192584293Y-82727653D02*
G01*
X192506430Y-82722008D01*
X192431308Y-82704074D01*
X192364909Y-82674815D01*
X192308625Y-82635224D01*
X192263852Y-82586292D01*
X192231983Y-82529013D01*
X192214413Y-82464379D01*
X192213871Y-82460057D01*
X192214358Y-82420064D01*
X192215689Y-82412040D01*
X192532000Y-82412040D01*
X192532253Y-82412264D01*
X192542551Y-82413416D01*
X192564911Y-82414227D01*
X192595183Y-82414534D01*
X192627180Y-82413330D01*
X192691696Y-82401466D01*
X192748514Y-82375997D01*
X192800603Y-82335785D01*
X192824230Y-82312317D01*
X192841831Y-82290550D01*
X192845172Y-82277356D01*
X192833909Y-82272218D01*
X192807700Y-82274619D01*
X192766200Y-82284043D01*
X192703709Y-82305106D01*
X192634343Y-82338512D01*
X192572534Y-82378636D01*
X192554161Y-82392919D01*
X192538159Y-82406027D01*
X192532000Y-82412040D01*
X192215689Y-82412040D01*
X192222067Y-82373595D01*
X192235460Y-82327642D01*
X192252995Y-82289196D01*
X192269659Y-82260953D01*
X192250546Y-82266863D01*
X192238451Y-82271003D01*
X192204172Y-82286608D01*
X192174673Y-82305153D01*
X192155793Y-82323171D01*
X192148471Y-82339926D01*
X192142854Y-82373282D01*
X192141695Y-82415678D01*
X192144857Y-82463007D01*
X192152202Y-82511160D01*
X192163592Y-82556028D01*
X192176099Y-82600809D01*
X192183546Y-82650024D01*
X192180875Y-82691177D01*
X192168170Y-82727337D01*
X192155185Y-82748538D01*
X192122119Y-82781606D01*
X192082151Y-82801814D01*
X192038489Y-82808412D01*
X191994337Y-82800648D01*
X191952903Y-82777771D01*
X191951654Y-82776766D01*
X191928572Y-82750496D01*
X191905369Y-82710711D01*
X191883881Y-82660530D01*
X191882443Y-82655939D01*
X191878765Y-82635297D01*
X191875969Y-82603244D01*
X191873988Y-82558401D01*
X191872753Y-82499391D01*
X191872197Y-82424836D01*
X191872101Y-82389847D01*
X191872060Y-82333404D01*
X191872385Y-82290252D01*
X191873283Y-82257988D01*
X191874961Y-82234208D01*
X191877624Y-82216505D01*
X191881481Y-82202477D01*
X191886737Y-82189719D01*
X191893599Y-82175826D01*
X191922593Y-82131258D01*
X191967183Y-82083449D01*
X192021797Y-82039328D01*
X192082874Y-82001737D01*
X192146854Y-81973521D01*
X192188228Y-81962092D01*
X192245166Y-81952584D01*
X192315834Y-81945923D01*
X192401233Y-81942015D01*
X192502367Y-81940770D01*
X192512036Y-81940784D01*
X192581671Y-81941400D01*
X192654582Y-81942831D01*
X192728243Y-81944961D01*
X192800128Y-81947672D01*
X192867711Y-81950848D01*
X192928466Y-81954372D01*
X192979866Y-81958126D01*
X193019385Y-81961994D01*
X193044497Y-81965860D01*
X193078784Y-81976857D01*
X193121536Y-82002997D01*
X193152556Y-82038886D01*
X193170234Y-82082446D01*
X193172958Y-82131598D01*
X193170974Y-82145998D01*
X193163899Y-82177330D01*
X193155010Y-82201494D01*
X193151425Y-82209924D01*
X193144214Y-82242126D01*
X193141600Y-82283092D01*
X193140537Y-82307497D01*
X193126638Y-82376112D01*
X193097727Y-82443555D01*
X193055179Y-82507967D01*
X193000370Y-82567489D01*
X192934676Y-82620260D01*
X192859472Y-82664422D01*
X192817216Y-82683769D01*
X192743736Y-82709018D01*
X192668229Y-82723156D01*
X192595183Y-82727070D01*
X192584293Y-82727653D01*
G37*
G36*
X192398322Y-96151398D02*
G01*
X192438212Y-96170684D01*
X192456431Y-96188717D01*
X192477295Y-96221395D01*
X192492348Y-96258430D01*
X192498134Y-96292780D01*
X192496346Y-96309440D01*
X192490916Y-96340065D01*
X192482510Y-96380766D01*
X192471803Y-96428286D01*
X192459470Y-96479369D01*
X192448683Y-96524032D01*
X192430014Y-96612425D01*
X192418623Y-96686232D01*
X192414465Y-96745920D01*
X192417499Y-96791954D01*
X192427680Y-96824801D01*
X192431273Y-96831134D01*
X192458878Y-96860198D01*
X192498443Y-96878001D01*
X192548967Y-96884054D01*
X192595567Y-96884067D01*
X192614895Y-96759184D01*
X192620934Y-96717164D01*
X192630943Y-96616078D01*
X192633912Y-96514903D01*
X192633956Y-96470413D01*
X192634668Y-96435100D01*
X192636476Y-96410433D01*
X192639798Y-96393133D01*
X192645050Y-96379920D01*
X192652650Y-96367514D01*
X192678481Y-96336557D01*
X192714353Y-96312671D01*
X192758094Y-96302021D01*
X192785655Y-96301428D01*
X192830790Y-96311789D01*
X192867816Y-96336943D01*
X192896567Y-96376756D01*
X192916876Y-96431093D01*
X192918891Y-96439625D01*
X192925451Y-96484012D01*
X192928999Y-96539035D01*
X192929468Y-96599821D01*
X192926791Y-96661500D01*
X192920899Y-96719198D01*
X192919905Y-96726481D01*
X192916279Y-96756258D01*
X192914360Y-96777783D01*
X192914549Y-96786808D01*
X192915835Y-96786964D01*
X192928716Y-96782992D01*
X192952551Y-96773380D01*
X192984159Y-96759595D01*
X193020360Y-96743103D01*
X193057971Y-96725372D01*
X193093814Y-96707867D01*
X193124707Y-96692056D01*
X193147469Y-96679406D01*
X193177821Y-96659451D01*
X193202296Y-96636762D01*
X193216577Y-96611588D01*
X193223894Y-96579715D01*
X193225138Y-96568341D01*
X193223955Y-96549863D01*
X193215548Y-96533026D01*
X193197354Y-96511216D01*
X193181615Y-96492780D01*
X193162251Y-96462690D01*
X193152654Y-96431291D01*
X193150067Y-96391612D01*
X193156338Y-96342604D01*
X193176209Y-96300778D01*
X193209470Y-96269139D01*
X193234566Y-96255210D01*
X193280151Y-96243323D01*
X193326471Y-96248303D01*
X193373597Y-96270163D01*
X193421599Y-96308917D01*
X193451013Y-96341207D01*
X193488098Y-96399877D01*
X193511226Y-96466461D01*
X193521158Y-96542751D01*
X193521654Y-96565629D01*
X193514265Y-96647567D01*
X193491861Y-96725947D01*
X193453827Y-96802470D01*
X193399546Y-96878840D01*
X193377298Y-96903932D01*
X193314956Y-96959009D01*
X193237626Y-97010408D01*
X193146495Y-97057557D01*
X193042746Y-97099883D01*
X192927567Y-97136811D01*
X192802142Y-97167769D01*
X192799699Y-97168289D01*
X192688688Y-97187703D01*
X192589604Y-97196067D01*
X192501398Y-97193194D01*
X192423021Y-97178892D01*
X192353426Y-97152973D01*
X192291565Y-97115248D01*
X192236390Y-97065526D01*
X192198822Y-97020438D01*
X192158192Y-96952218D01*
X192130608Y-96875601D01*
X192120402Y-96820884D01*
X192116964Y-96756166D01*
X192120797Y-96681573D01*
X192132023Y-96595811D01*
X192150766Y-96497588D01*
X192177149Y-96385608D01*
X192186792Y-96348612D01*
X192203613Y-96290492D01*
X192219427Y-96245825D01*
X192235170Y-96212450D01*
X192251779Y-96188208D01*
X192270189Y-96170938D01*
X192308323Y-96151972D01*
X192353225Y-96145164D01*
X192398322Y-96151398D01*
G37*
G36*
X192426515Y-85971980D02*
G01*
X192393980Y-85995121D01*
X192383574Y-85999735D01*
X192355397Y-86009059D01*
X192332477Y-86012681D01*
X192316797Y-86011148D01*
X192279922Y-85999473D01*
X192245086Y-85979487D01*
X192219728Y-85954997D01*
X192209250Y-85938685D01*
X192187576Y-85896907D01*
X192165662Y-85845805D01*
X192145353Y-85790220D01*
X192128491Y-85734993D01*
X192116918Y-85684963D01*
X192112387Y-85645276D01*
X192110872Y-85592024D01*
X192111868Y-85558398D01*
X192407522Y-85558398D01*
X192408097Y-85596527D01*
X192411306Y-85633580D01*
X192416517Y-85667304D01*
X192423098Y-85695447D01*
X192430415Y-85715759D01*
X192437839Y-85725987D01*
X192444735Y-85723880D01*
X192450473Y-85707187D01*
X192453171Y-85696969D01*
X192470467Y-85662264D01*
X192496643Y-85631133D01*
X192526492Y-85610221D01*
X192526805Y-85610081D01*
X192543803Y-85604239D01*
X192574110Y-85595463D01*
X192614642Y-85584582D01*
X192662311Y-85572425D01*
X192714034Y-85559821D01*
X192794444Y-85540202D01*
X192866303Y-85521311D01*
X192926398Y-85503551D01*
X192977259Y-85485959D01*
X193021414Y-85467571D01*
X193061391Y-85447424D01*
X193099721Y-85424555D01*
X193138931Y-85398002D01*
X193144755Y-85393798D01*
X193176013Y-85368647D01*
X193201975Y-85343615D01*
X193219704Y-85321786D01*
X193226267Y-85306244D01*
X193220310Y-85299645D01*
X193201208Y-85289430D01*
X193172428Y-85277604D01*
X193137560Y-85265503D01*
X193100193Y-85254462D01*
X193063913Y-85245818D01*
X193018329Y-85239210D01*
X192949280Y-85235587D01*
X192872728Y-85237050D01*
X192793397Y-85243204D01*
X192716013Y-85253653D01*
X192645299Y-85268002D01*
X192585982Y-85285854D01*
X192577555Y-85289184D01*
X192521740Y-85321422D01*
X192474517Y-85367624D01*
X192437191Y-85426555D01*
X192424003Y-85455440D01*
X192414895Y-85483444D01*
X192409987Y-85514123D01*
X192407634Y-85554593D01*
X192407522Y-85558398D01*
X192111868Y-85558398D01*
X192112603Y-85533579D01*
X192117265Y-85475441D01*
X192124548Y-85423114D01*
X192134137Y-85382101D01*
X192163657Y-85304283D01*
X192212237Y-85215129D01*
X192272892Y-85137843D01*
X192345615Y-85072433D01*
X192430400Y-85018906D01*
X192474773Y-84997737D01*
X192550300Y-84970347D01*
X192633701Y-84950347D01*
X192726963Y-84937401D01*
X192832068Y-84931176D01*
X192951004Y-84931339D01*
X192992328Y-84932627D01*
X193062889Y-84936470D01*
X193122031Y-84942656D01*
X193173383Y-84951921D01*
X193220575Y-84965001D01*
X193267235Y-84982632D01*
X193316992Y-85005550D01*
X193344576Y-85020137D01*
X193408957Y-85064283D01*
X193459705Y-85115450D01*
X193495475Y-85172382D01*
X193501902Y-85186620D01*
X193510503Y-85210096D01*
X193515493Y-85234178D01*
X193517804Y-85264300D01*
X193518367Y-85305901D01*
X193517974Y-85345579D01*
X193516040Y-85374418D01*
X193511452Y-85397312D01*
X193503097Y-85419787D01*
X193489859Y-85447370D01*
X193469864Y-85481907D01*
X193442838Y-85521074D01*
X193415426Y-85554921D01*
X193369500Y-85605670D01*
X193393993Y-85618336D01*
X193426219Y-85640499D01*
X193456341Y-85676771D01*
X193474444Y-85719373D01*
X193479722Y-85764879D01*
X193471371Y-85809858D01*
X193448586Y-85850883D01*
X193431199Y-85870843D01*
X193405482Y-85891865D01*
X193376161Y-85903859D01*
X193339000Y-85908313D01*
X193289767Y-85906714D01*
X193288715Y-85906640D01*
X193261938Y-85905398D01*
X193220789Y-85904277D01*
X193167691Y-85903308D01*
X193105067Y-85902522D01*
X193035340Y-85901950D01*
X192960931Y-85901622D01*
X192884263Y-85901569D01*
X192811420Y-85901622D01*
X192737152Y-85901487D01*
X192676818Y-85900986D01*
X192628777Y-85899965D01*
X192591383Y-85898270D01*
X192562994Y-85895745D01*
X192541967Y-85892235D01*
X192526657Y-85887586D01*
X192515421Y-85881644D01*
X192506615Y-85874253D01*
X192498597Y-85865259D01*
X192497641Y-85864124D01*
X192483909Y-85853010D01*
X192475554Y-85857921D01*
X192472734Y-85878773D01*
X192469151Y-85903142D01*
X192452795Y-85939513D01*
X192437839Y-85957990D01*
X192426515Y-85971980D01*
G37*
G36*
X193176472Y-87712556D02*
G01*
X193106605Y-87703775D01*
X193042262Y-87685178D01*
X192980526Y-87655311D01*
X192918375Y-87612711D01*
X192852789Y-87555917D01*
X192840060Y-87544041D01*
X192816752Y-87522985D01*
X192799605Y-87508433D01*
X192791641Y-87503000D01*
X192790172Y-87503599D01*
X192778587Y-87512022D01*
X192758835Y-87528312D01*
X192734189Y-87549802D01*
X192718125Y-87563847D01*
X192636607Y-87626254D01*
X192556175Y-87673162D01*
X192477421Y-87704441D01*
X192400936Y-87719958D01*
X192368357Y-87719792D01*
X192327311Y-87719582D01*
X192257137Y-87703182D01*
X192191004Y-87670627D01*
X192145908Y-87635647D01*
X192098271Y-87580010D01*
X192061553Y-87512617D01*
X192036605Y-87434769D01*
X192036516Y-87434380D01*
X192026891Y-87359737D01*
X192027593Y-87332921D01*
X192321807Y-87332921D01*
X192326644Y-87372067D01*
X192339215Y-87399284D01*
X192345816Y-87404654D01*
X192368357Y-87409413D01*
X192398754Y-87405022D01*
X192432854Y-87391811D01*
X192456942Y-87377710D01*
X192492235Y-87353453D01*
X192529838Y-87324851D01*
X192564445Y-87295970D01*
X192588935Y-87272604D01*
X192998042Y-87272604D01*
X193059975Y-87331435D01*
X193091963Y-87360494D01*
X193120391Y-87381631D01*
X193146886Y-87394054D01*
X193176170Y-87399924D01*
X193212968Y-87401400D01*
X193244399Y-87396957D01*
X193286908Y-87377114D01*
X193327613Y-87342496D01*
X193365142Y-87294345D01*
X193398124Y-87233902D01*
X193400070Y-87229543D01*
X193408235Y-87206986D01*
X193413249Y-87181918D01*
X193415799Y-87149544D01*
X193416573Y-87105067D01*
X193416582Y-87099383D01*
X193416217Y-87060142D01*
X193414428Y-87032456D01*
X193410324Y-87011525D01*
X193403012Y-86992549D01*
X193391600Y-86970729D01*
X193379189Y-86949985D01*
X193365131Y-86930297D01*
X193355388Y-86921052D01*
X193344519Y-86921485D01*
X193321425Y-86933347D01*
X193289552Y-86957653D01*
X193249705Y-86993770D01*
X193202688Y-87041065D01*
X193178618Y-87066625D01*
X193138219Y-87110671D01*
X193097862Y-87155801D01*
X193063471Y-87195444D01*
X192998042Y-87272604D01*
X192588935Y-87272604D01*
X192590745Y-87270877D01*
X192611390Y-87248747D01*
X192581094Y-87217124D01*
X192570135Y-87205220D01*
X192542682Y-87167359D01*
X192527930Y-87128685D01*
X192523534Y-87083764D01*
X192523658Y-87073372D01*
X192527667Y-87036573D01*
X192539149Y-87007537D01*
X192560575Y-86979298D01*
X192578567Y-86959362D01*
X192545156Y-86973210D01*
X192541337Y-86974850D01*
X192511295Y-86990405D01*
X192484343Y-87007959D01*
X192452432Y-87036963D01*
X192413475Y-87083881D01*
X192378180Y-87138136D01*
X192349863Y-87194514D01*
X192331842Y-87247798D01*
X192324858Y-87285061D01*
X192321807Y-87332921D01*
X192027593Y-87332921D01*
X192029044Y-87277508D01*
X192042366Y-87191626D01*
X192066250Y-87106023D01*
X192100085Y-87024634D01*
X192123515Y-86980377D01*
X192183575Y-86888602D01*
X192252286Y-86809979D01*
X192328856Y-86745224D01*
X192412493Y-86695056D01*
X192502404Y-86660192D01*
X192540900Y-86651139D01*
X192599697Y-86646852D01*
X192650484Y-86655768D01*
X192692129Y-86677430D01*
X192723499Y-86711383D01*
X192743462Y-86757172D01*
X192746425Y-86770221D01*
X192747195Y-86818206D01*
X192731310Y-86864080D01*
X192698657Y-86908217D01*
X192684235Y-86924649D01*
X192680456Y-86933376D01*
X192687393Y-86935734D01*
X192691450Y-86935969D01*
X192718087Y-86944466D01*
X192750626Y-86963549D01*
X192785139Y-86990996D01*
X192817132Y-87019900D01*
X192917983Y-86904987D01*
X192926166Y-86895697D01*
X192998651Y-86816832D01*
X193064570Y-86751980D01*
X193125143Y-86700275D01*
X193181593Y-86660855D01*
X193235140Y-86632855D01*
X193287006Y-86615412D01*
X193338413Y-86607663D01*
X193371336Y-86606926D01*
X193422279Y-86613002D01*
X193468406Y-86629812D01*
X193513532Y-86658972D01*
X193561472Y-86702097D01*
X193612543Y-86761490D01*
X193660150Y-86840162D01*
X193693390Y-86926878D01*
X193712031Y-87020786D01*
X193715840Y-87121030D01*
X193704584Y-87226759D01*
X193704097Y-87229521D01*
X193677720Y-87330623D01*
X193636075Y-87424458D01*
X193579334Y-87510709D01*
X193507667Y-87589062D01*
X193479552Y-87613923D01*
X193410574Y-87661956D01*
X193338203Y-87693983D01*
X193260736Y-87710638D01*
X193212968Y-87711725D01*
X193176472Y-87712556D01*
G37*
G36*
X192831301Y-92270147D02*
G01*
X192877106Y-92281470D01*
X192915940Y-92308166D01*
X192947552Y-92350078D01*
X192951378Y-92356619D01*
X192982468Y-92396868D01*
X193025834Y-92433481D01*
X193028995Y-92435745D01*
X193087696Y-92481651D01*
X193131337Y-92524694D01*
X193161103Y-92566522D01*
X193178178Y-92608783D01*
X193183748Y-92653122D01*
X193182627Y-92674756D01*
X193168141Y-92730163D01*
X193137105Y-92783063D01*
X193123800Y-92800980D01*
X193117822Y-92812864D01*
X193122053Y-92818942D01*
X193136424Y-92823307D01*
X193159292Y-92834883D01*
X193184473Y-92860246D01*
X193205813Y-92894265D01*
X193220625Y-92932527D01*
X193226220Y-92970622D01*
X193224596Y-92984455D01*
X193215843Y-93013824D01*
X193202400Y-93043819D01*
X193187573Y-93066256D01*
X193185272Y-93068872D01*
X193181154Y-93076757D01*
X193188247Y-93081280D01*
X193209380Y-93084853D01*
X193211358Y-93085137D01*
X193252794Y-93099427D01*
X193289229Y-93127060D01*
X193316075Y-93164606D01*
X193323765Y-93184475D01*
X193329211Y-93210650D01*
X193332743Y-93246401D01*
X193334888Y-93295396D01*
X193337710Y-93393959D01*
X193363831Y-93399183D01*
X193386899Y-93406698D01*
X193422862Y-93430460D01*
X193452448Y-93464660D01*
X193472508Y-93505254D01*
X193479895Y-93548200D01*
X193476901Y-93575583D01*
X193461520Y-93617337D01*
X193435782Y-93654150D01*
X193402751Y-93682037D01*
X193365488Y-93697016D01*
X193346786Y-93702162D01*
X193334066Y-93711423D01*
X193325830Y-93727988D01*
X193320484Y-93755067D01*
X193316437Y-93795867D01*
X193315669Y-93804836D01*
X193309072Y-93853123D01*
X193298283Y-93889538D01*
X193281606Y-93918326D01*
X193257342Y-93943732D01*
X193247628Y-93951603D01*
X193205808Y-93973225D01*
X193161404Y-93979120D01*
X193117369Y-93969289D01*
X193076658Y-93943732D01*
X193072507Y-93940008D01*
X193048566Y-93913219D01*
X193033373Y-93882884D01*
X193025387Y-93844710D01*
X193023067Y-93794405D01*
X193023067Y-93726798D01*
X192982850Y-93730740D01*
X192950319Y-93733631D01*
X192894968Y-93737825D01*
X192827660Y-93742353D01*
X192751016Y-93747081D01*
X192667661Y-93751878D01*
X192580216Y-93756609D01*
X192491306Y-93761142D01*
X192403553Y-93765345D01*
X192319580Y-93769085D01*
X192242011Y-93772228D01*
X192173468Y-93774643D01*
X192116574Y-93776195D01*
X192073954Y-93776753D01*
X192044180Y-93776699D01*
X192010757Y-93776013D01*
X191987744Y-93773959D01*
X191971218Y-93769808D01*
X191957257Y-93762834D01*
X191941935Y-93752312D01*
X191932768Y-93745344D01*
X191908281Y-93724084D01*
X191889865Y-93704603D01*
X191883440Y-93695412D01*
X191876131Y-93678028D01*
X191872550Y-93654126D01*
X191871600Y-93618533D01*
X191871725Y-93594830D01*
X191873351Y-93570512D01*
X191878570Y-93553315D01*
X191889480Y-93537408D01*
X191908183Y-93516962D01*
X191924317Y-93501123D01*
X191942838Y-93487319D01*
X191964171Y-93477443D01*
X191991138Y-93470834D01*
X192026562Y-93466831D01*
X192073265Y-93464770D01*
X192134067Y-93463991D01*
X192158097Y-93463717D01*
X192208484Y-93462553D01*
X192268891Y-93460607D01*
X192337244Y-93457989D01*
X192411472Y-93454811D01*
X192489502Y-93451183D01*
X192569262Y-93447216D01*
X192648680Y-93443021D01*
X192725684Y-93438709D01*
X192798200Y-93434390D01*
X192864158Y-93430176D01*
X192921483Y-93426176D01*
X192968106Y-93422503D01*
X193001952Y-93419265D01*
X193020950Y-93416576D01*
X193027416Y-93414767D01*
X193034327Y-93409528D01*
X193038130Y-93398178D01*
X193039765Y-93377112D01*
X193040170Y-93342723D01*
X193042053Y-93280822D01*
X193048501Y-93220026D01*
X193059314Y-93173057D01*
X193074266Y-93141239D01*
X193092918Y-93115045D01*
X193055876Y-93120106D01*
X193053704Y-93120397D01*
X193017632Y-93124131D01*
X192966835Y-93127950D01*
X192903358Y-93131759D01*
X192829243Y-93135463D01*
X192746537Y-93138967D01*
X192657283Y-93142177D01*
X192563526Y-93144998D01*
X192467311Y-93147337D01*
X192203655Y-93152963D01*
X192165441Y-93130568D01*
X192136883Y-93108860D01*
X192109372Y-93072052D01*
X192094393Y-93029530D01*
X192092001Y-92984615D01*
X192102255Y-92940622D01*
X192125211Y-92900871D01*
X192160926Y-92868679D01*
X192163915Y-92866779D01*
X192189066Y-92854275D01*
X192218948Y-92846541D01*
X192259629Y-92841932D01*
X192265700Y-92841476D01*
X192350701Y-92834304D01*
X192421225Y-92826650D01*
X192479580Y-92818181D01*
X192528073Y-92808567D01*
X192569009Y-92797476D01*
X192588898Y-92791132D01*
X192623286Y-92779309D01*
X192652166Y-92767422D01*
X192680419Y-92753113D01*
X192712925Y-92734022D01*
X192754567Y-92707790D01*
X192820501Y-92665630D01*
X192770591Y-92620464D01*
X192759012Y-92609427D01*
X192720952Y-92562828D01*
X192694231Y-92512261D01*
X192679386Y-92460419D01*
X192676954Y-92409992D01*
X192687471Y-92363673D01*
X192711475Y-92324154D01*
X192741672Y-92295384D01*
X192778284Y-92275841D01*
X192819784Y-92269734D01*
X192831301Y-92270147D01*
G37*
G36*
X196908115Y-85407502D02*
G01*
X197124600Y-85407511D01*
X197325185Y-85407533D01*
X197510491Y-85407571D01*
X197681140Y-85407630D01*
X197837756Y-85407715D01*
X197980960Y-85407830D01*
X198111377Y-85407979D01*
X198229627Y-85408167D01*
X198336335Y-85408397D01*
X198432122Y-85408675D01*
X198517611Y-85409004D01*
X198593424Y-85409389D01*
X198660185Y-85409835D01*
X198718516Y-85410345D01*
X198769040Y-85410924D01*
X198812379Y-85411577D01*
X198849155Y-85412307D01*
X198879992Y-85413119D01*
X198905512Y-85414018D01*
X198926338Y-85415008D01*
X198943092Y-85416092D01*
X198956397Y-85417276D01*
X198966876Y-85418564D01*
X198975150Y-85419961D01*
X198981844Y-85421469D01*
X198987579Y-85423095D01*
X199019330Y-85433646D01*
X199067775Y-85454550D01*
X199109299Y-85480663D01*
X199150373Y-85515665D01*
X199185745Y-85553622D01*
X199229807Y-85620661D01*
X199259777Y-85696829D01*
X199275718Y-85782306D01*
X199277693Y-85877270D01*
X199276552Y-85895068D01*
X199262586Y-85983682D01*
X199235684Y-86062904D01*
X199196425Y-86131886D01*
X199145389Y-86189777D01*
X199083157Y-86235730D01*
X199010308Y-86268893D01*
X198953967Y-86288034D01*
X197313735Y-86292267D01*
X195673502Y-86296500D01*
X197309244Y-87621534D01*
X197340934Y-87647204D01*
X197487310Y-87765796D01*
X197630684Y-87881981D01*
X197770459Y-87995275D01*
X197906036Y-88105192D01*
X198036819Y-88211248D01*
X198162209Y-88312957D01*
X198281610Y-88409833D01*
X198394423Y-88501392D01*
X198500050Y-88587149D01*
X198597895Y-88666617D01*
X198687360Y-88739313D01*
X198767847Y-88804750D01*
X198838759Y-88862443D01*
X198899497Y-88911908D01*
X198949465Y-88952659D01*
X198988065Y-88984210D01*
X199014699Y-89006077D01*
X199028769Y-89017774D01*
X199095380Y-89078446D01*
X199160188Y-89149283D01*
X199209920Y-89219682D01*
X199245457Y-89290922D01*
X199267683Y-89364286D01*
X199272495Y-89392145D01*
X199277864Y-89448190D01*
X199279387Y-89508196D01*
X199276984Y-89565366D01*
X199270577Y-89612900D01*
X199262125Y-89646365D01*
X199232435Y-89717982D01*
X199189550Y-89779474D01*
X199134308Y-89829998D01*
X199067550Y-89868711D01*
X198990112Y-89894769D01*
X198987700Y-89895204D01*
X198968032Y-89896838D01*
X198932846Y-89898369D01*
X198883225Y-89899797D01*
X198820249Y-89901121D01*
X198745001Y-89902341D01*
X198658562Y-89903456D01*
X198562014Y-89904467D01*
X198456438Y-89905371D01*
X198342917Y-89906170D01*
X198222532Y-89906862D01*
X198096364Y-89907447D01*
X197965495Y-89907925D01*
X197831008Y-89908295D01*
X197693983Y-89908557D01*
X197555503Y-89908710D01*
X197416649Y-89908754D01*
X197278502Y-89908688D01*
X197142145Y-89908513D01*
X197008658Y-89908227D01*
X196879125Y-89907829D01*
X196754626Y-89907321D01*
X196636243Y-89906700D01*
X196525058Y-89905968D01*
X196422153Y-89905122D01*
X196328608Y-89904163D01*
X196245507Y-89903091D01*
X196173929Y-89901904D01*
X196114959Y-89900603D01*
X196069676Y-89899187D01*
X196039162Y-89897655D01*
X196024500Y-89896008D01*
X195968451Y-89876655D01*
X195899454Y-89838226D01*
X195840828Y-89787024D01*
X195793374Y-89723961D01*
X195757893Y-89649953D01*
X195735185Y-89565912D01*
X195731891Y-89545624D01*
X195726254Y-89456278D01*
X195734916Y-89370009D01*
X195757315Y-89289023D01*
X195792885Y-89215527D01*
X195841063Y-89151727D01*
X195862878Y-89129499D01*
X195899247Y-89098975D01*
X195939726Y-89074421D01*
X195990634Y-89051608D01*
X196041433Y-89031234D01*
X196940040Y-89027000D01*
X197838646Y-89022767D01*
X196169690Y-87672334D01*
X196128112Y-87638688D01*
X195926589Y-87475542D01*
X195738155Y-87322864D01*
X195562696Y-87180562D01*
X195400100Y-87048544D01*
X195250255Y-86926718D01*
X195113049Y-86814992D01*
X194988368Y-86713274D01*
X194876102Y-86621472D01*
X194776136Y-86539495D01*
X194688360Y-86467249D01*
X194612660Y-86404644D01*
X194548925Y-86351587D01*
X194497041Y-86307986D01*
X194456897Y-86273749D01*
X194428380Y-86248785D01*
X194411378Y-86233000D01*
X194393758Y-86215168D01*
X194340255Y-86155569D01*
X194299451Y-86099179D01*
X194269440Y-86042582D01*
X194248319Y-85982361D01*
X194234183Y-85915101D01*
X194232206Y-85900393D01*
X194228989Y-85841904D01*
X194231245Y-85778370D01*
X194238512Y-85716950D01*
X194250329Y-85664804D01*
X194251056Y-85662470D01*
X194280193Y-85592900D01*
X194320561Y-85534966D01*
X194372999Y-85487910D01*
X194438344Y-85450975D01*
X194517433Y-85423404D01*
X194522821Y-85422029D01*
X194530004Y-85420471D01*
X194538482Y-85419027D01*
X194548880Y-85417695D01*
X194561825Y-85416469D01*
X194577941Y-85415346D01*
X194597855Y-85414321D01*
X194622192Y-85413388D01*
X194651576Y-85412545D01*
X194686635Y-85411786D01*
X194727993Y-85411107D01*
X194776276Y-85410504D01*
X194832110Y-85409972D01*
X194896119Y-85409506D01*
X194968930Y-85409103D01*
X195051167Y-85408757D01*
X195143458Y-85408465D01*
X195246426Y-85408222D01*
X195360698Y-85408023D01*
X195486899Y-85407864D01*
X195625655Y-85407741D01*
X195777591Y-85407649D01*
X195943333Y-85407584D01*
X196123506Y-85407541D01*
X196318735Y-85407515D01*
X196529647Y-85407503D01*
X196756867Y-85407501D01*
X196908115Y-85407502D01*
G37*
G36*
X192717294Y-84887749D02*
G01*
X192639048Y-84902118D01*
X192561033Y-84907175D01*
X192487549Y-84902457D01*
X192422894Y-84887504D01*
X192361348Y-84861260D01*
X192292922Y-84816764D01*
X192236422Y-84760563D01*
X192192524Y-84693363D01*
X192161905Y-84615867D01*
X192156371Y-84585349D01*
X192153833Y-84538521D01*
X192154786Y-84476167D01*
X192155313Y-84464547D01*
X192163787Y-84381342D01*
X192179807Y-84299169D01*
X192202328Y-84221176D01*
X192230304Y-84150512D01*
X192262688Y-84090325D01*
X192298436Y-84043764D01*
X192334364Y-84006267D01*
X192303201Y-84006267D01*
X192298425Y-84006120D01*
X192261677Y-83996409D01*
X192226145Y-83973574D01*
X192196545Y-83940522D01*
X192187017Y-83922359D01*
X192174141Y-83882132D01*
X192163857Y-83829927D01*
X192156405Y-83768673D01*
X192152025Y-83701299D01*
X192150958Y-83630736D01*
X192153444Y-83559912D01*
X192159723Y-83491758D01*
X192164038Y-83461603D01*
X192183176Y-83376877D01*
X192210834Y-83306446D01*
X192246923Y-83250429D01*
X192291351Y-83208943D01*
X192344029Y-83182108D01*
X192404867Y-83170042D01*
X192424302Y-83169117D01*
X192461491Y-83170942D01*
X192495379Y-83178908D01*
X192527520Y-83194302D01*
X192559470Y-83218408D01*
X192592783Y-83252512D01*
X192629013Y-83297899D01*
X192669717Y-83355857D01*
X192716448Y-83427669D01*
X192737827Y-83461107D01*
X192770440Y-83510704D01*
X192796344Y-83547665D01*
X192816632Y-83573319D01*
X192832395Y-83588993D01*
X192844725Y-83596014D01*
X192854716Y-83595710D01*
X192866618Y-83588951D01*
X192876704Y-83576288D01*
X192884101Y-83555937D01*
X192889364Y-83525590D01*
X192893052Y-83482936D01*
X192895720Y-83425665D01*
X192896254Y-83411023D01*
X192898182Y-83365329D01*
X192900383Y-83332450D01*
X192903403Y-83309131D01*
X192907787Y-83292120D01*
X192914080Y-83278162D01*
X192922828Y-83264005D01*
X192937208Y-83246013D01*
X192972611Y-83219138D01*
X193014174Y-83204057D01*
X193057560Y-83202002D01*
X193098430Y-83214201D01*
X193110631Y-83221622D01*
X193141378Y-83249046D01*
X193167476Y-83283453D01*
X193183424Y-83318119D01*
X193185128Y-83325567D01*
X193189001Y-83356801D01*
X193191315Y-83398819D01*
X193192108Y-83447102D01*
X193191420Y-83497135D01*
X193189290Y-83544402D01*
X193185758Y-83584385D01*
X193180863Y-83612567D01*
X193159355Y-83674225D01*
X193124523Y-83739652D01*
X193080823Y-83797259D01*
X193030215Y-83845228D01*
X192974661Y-83881742D01*
X192916122Y-83904983D01*
X192856557Y-83913134D01*
X192839888Y-83912773D01*
X192791110Y-83905726D01*
X192747816Y-83887917D01*
X192703719Y-83857039D01*
X192697160Y-83851513D01*
X192663162Y-83817664D01*
X192628674Y-83774070D01*
X192592144Y-83718603D01*
X192552017Y-83649134D01*
X192534819Y-83618158D01*
X192513721Y-83580885D01*
X192495389Y-83549259D01*
X192482476Y-83527901D01*
X192472167Y-83511926D01*
X192463757Y-83501598D01*
X192459054Y-83503161D01*
X192455000Y-83515201D01*
X192454633Y-83516586D01*
X192451282Y-83540263D01*
X192449215Y-83576383D01*
X192448402Y-83620872D01*
X192448812Y-83669659D01*
X192450417Y-83718671D01*
X192453187Y-83763835D01*
X192457091Y-83801080D01*
X192458057Y-83808251D01*
X192461921Y-83859770D01*
X192457855Y-83900193D01*
X192445042Y-83933370D01*
X192422665Y-83963151D01*
X192398206Y-83989334D01*
X192419374Y-83989334D01*
X192421965Y-83989368D01*
X192461048Y-83998282D01*
X192495771Y-84020927D01*
X192523649Y-84054376D01*
X192542198Y-84095702D01*
X192548934Y-84141979D01*
X192547997Y-84164646D01*
X192543200Y-84190328D01*
X192532701Y-84218369D01*
X192514708Y-84254671D01*
X192491644Y-84303967D01*
X192471805Y-84358628D01*
X192457510Y-84412338D01*
X192449216Y-84462284D01*
X192447378Y-84505653D01*
X192452455Y-84539632D01*
X192464902Y-84561408D01*
X192465461Y-84561915D01*
X192477107Y-84571688D01*
X192479701Y-84569083D01*
X192475485Y-84552137D01*
X192474279Y-84546618D01*
X192471378Y-84522004D01*
X192469419Y-84488109D01*
X192468867Y-84456014D01*
X192752134Y-84456014D01*
X192752250Y-84458025D01*
X192759047Y-84475011D01*
X192772116Y-84490540D01*
X192785568Y-84497334D01*
X192791383Y-84496229D01*
X192803112Y-84484511D01*
X192809281Y-84464625D01*
X192809526Y-84442369D01*
X192803484Y-84423539D01*
X192790793Y-84413932D01*
X192778884Y-84415083D01*
X192763276Y-84426065D01*
X192756976Y-84437275D01*
X192752134Y-84456014D01*
X192468867Y-84456014D01*
X192468773Y-84450553D01*
X192469013Y-84427206D01*
X192470784Y-84394849D01*
X192475556Y-84368844D01*
X192484826Y-84342410D01*
X192500093Y-84308763D01*
X192520399Y-84270861D01*
X192565414Y-84210180D01*
X192618574Y-84163053D01*
X192678496Y-84130146D01*
X192743793Y-84112127D01*
X192813080Y-84109663D01*
X192884971Y-84123421D01*
X192898933Y-84127855D01*
X192931522Y-84141204D01*
X192958493Y-84158983D01*
X192987554Y-84185882D01*
X193012120Y-84211840D01*
X193034148Y-84237079D01*
X193048773Y-84256034D01*
X193051566Y-84260356D01*
X193074942Y-84311724D01*
X193088337Y-84372831D01*
X193091802Y-84440119D01*
X193085389Y-84510035D01*
X193069150Y-84579022D01*
X193043137Y-84643526D01*
X193029937Y-84665583D01*
X193000016Y-84704341D01*
X192962044Y-84745325D01*
X192919984Y-84784656D01*
X192877801Y-84818455D01*
X192839458Y-84842843D01*
X192791474Y-84864527D01*
X192785568Y-84866376D01*
X192717294Y-84887749D01*
G37*
G36*
X197675770Y-94928350D02*
G01*
X197749683Y-94954918D01*
X197819370Y-94993878D01*
X197882511Y-95044046D01*
X197936786Y-95104240D01*
X197979875Y-95173274D01*
X198001410Y-95219676D01*
X198022480Y-95280494D01*
X198032605Y-95337972D01*
X198032873Y-95396700D01*
X198025536Y-95453613D01*
X198001666Y-95535460D01*
X197962663Y-95609834D01*
X197962384Y-95610252D01*
X197947170Y-95629839D01*
X197922223Y-95658361D01*
X197890002Y-95693159D01*
X197852968Y-95731574D01*
X197813582Y-95770947D01*
X197792494Y-95791651D01*
X197758458Y-95825119D01*
X197714454Y-95868426D01*
X197661582Y-95920485D01*
X197600943Y-95980213D01*
X197533639Y-96046525D01*
X197460771Y-96118334D01*
X197383440Y-96194557D01*
X197302746Y-96274109D01*
X197219792Y-96355904D01*
X197135679Y-96438859D01*
X196578924Y-96987992D01*
X196618938Y-97031279D01*
X196623611Y-97036229D01*
X196641334Y-97054590D01*
X196669503Y-97083505D01*
X196707150Y-97121987D01*
X196753302Y-97169048D01*
X196806991Y-97223701D01*
X196867247Y-97284960D01*
X196933098Y-97351836D01*
X197003575Y-97423343D01*
X197077708Y-97498493D01*
X197154526Y-97576299D01*
X197200090Y-97622433D01*
X197287759Y-97711274D01*
X197364620Y-97789376D01*
X197431416Y-97857623D01*
X197488894Y-97916896D01*
X197537799Y-97968077D01*
X197578875Y-98012049D01*
X197612868Y-98049694D01*
X197640524Y-98081894D01*
X197662587Y-98109532D01*
X197679803Y-98133490D01*
X197692917Y-98154650D01*
X197702674Y-98173895D01*
X197709820Y-98192107D01*
X197715099Y-98210168D01*
X197719258Y-98228960D01*
X197723041Y-98249366D01*
X197728197Y-98307512D01*
X197720149Y-98381357D01*
X197696342Y-98453564D01*
X197657396Y-98522380D01*
X197603931Y-98586053D01*
X197587209Y-98602040D01*
X197520055Y-98653409D01*
X197448164Y-98689940D01*
X197373193Y-98711290D01*
X197296802Y-98717114D01*
X197220650Y-98707070D01*
X197146395Y-98680813D01*
X197140734Y-98677973D01*
X197131275Y-98672481D01*
X197120356Y-98665082D01*
X197107326Y-98655138D01*
X197091534Y-98642017D01*
X197072328Y-98625083D01*
X197049057Y-98603700D01*
X197021070Y-98577235D01*
X196987716Y-98545052D01*
X196948342Y-98506517D01*
X196902299Y-98460995D01*
X196848934Y-98407851D01*
X196787596Y-98346449D01*
X196717634Y-98276156D01*
X196638396Y-98196336D01*
X196549232Y-98106355D01*
X196449490Y-98005578D01*
X196338518Y-97893369D01*
X196001234Y-97552238D01*
X195695935Y-97855269D01*
X195680524Y-97870564D01*
X195621603Y-97929005D01*
X195566450Y-97983654D01*
X195516243Y-98033347D01*
X195472160Y-98076922D01*
X195435377Y-98113215D01*
X195407074Y-98141062D01*
X195388427Y-98159301D01*
X195380613Y-98166767D01*
X195378475Y-98168757D01*
X195365577Y-98181267D01*
X195342332Y-98204051D01*
X195309887Y-98235977D01*
X195269390Y-98275913D01*
X195221990Y-98322725D01*
X195168833Y-98375281D01*
X195111069Y-98432449D01*
X195049845Y-98493095D01*
X195025522Y-98517166D01*
X194964070Y-98577675D01*
X194905625Y-98634804D01*
X194851467Y-98687325D01*
X194802879Y-98734010D01*
X194761141Y-98773633D01*
X194727536Y-98804966D01*
X194703344Y-98826783D01*
X194689847Y-98837856D01*
X194618860Y-98877027D01*
X194544486Y-98900147D01*
X194468202Y-98907228D01*
X194391292Y-98898419D01*
X194315040Y-98873866D01*
X194240727Y-98833718D01*
X194169637Y-98778120D01*
X194121227Y-98729430D01*
X194069820Y-98662304D01*
X194032932Y-98591275D01*
X194009176Y-98514062D01*
X194006040Y-98499318D01*
X193999908Y-98464002D01*
X193998353Y-98434755D01*
X194001364Y-98404116D01*
X194008928Y-98364624D01*
X194013408Y-98345433D01*
X194033799Y-98286169D01*
X194064533Y-98230610D01*
X194108261Y-98173663D01*
X194114205Y-98167142D01*
X194133302Y-98147251D01*
X194163069Y-98116904D01*
X194202622Y-98076984D01*
X194251077Y-98028373D01*
X194307549Y-97971951D01*
X194371153Y-97908601D01*
X194441005Y-97839206D01*
X194516219Y-97764646D01*
X194595912Y-97685804D01*
X194679198Y-97603561D01*
X194765194Y-97518799D01*
X195377020Y-96916306D01*
X194836112Y-96368662D01*
X194798714Y-96330800D01*
X194707000Y-96237918D01*
X194626184Y-96155939D01*
X194555545Y-96084018D01*
X194494366Y-96021315D01*
X194441927Y-95966986D01*
X194397510Y-95920189D01*
X194360395Y-95880082D01*
X194329864Y-95845821D01*
X194305197Y-95816566D01*
X194285677Y-95791472D01*
X194270583Y-95769698D01*
X194259197Y-95750401D01*
X194250800Y-95732738D01*
X194244672Y-95715868D01*
X194240097Y-95698948D01*
X194236353Y-95681134D01*
X194232722Y-95661586D01*
X194230573Y-95648066D01*
X194229434Y-95579037D01*
X194243412Y-95509252D01*
X194271255Y-95440797D01*
X194311713Y-95375757D01*
X194363534Y-95316220D01*
X194425469Y-95264271D01*
X194496267Y-95221996D01*
X194504253Y-95218103D01*
X194528134Y-95207366D01*
X194549142Y-95200587D01*
X194572227Y-95196863D01*
X194602341Y-95195291D01*
X194644433Y-95194967D01*
X194656398Y-95194981D01*
X194695244Y-95195562D01*
X194723578Y-95197679D01*
X194746533Y-95202258D01*
X194769240Y-95210227D01*
X194796833Y-95222515D01*
X194805035Y-95226457D01*
X194815587Y-95232118D01*
X194826865Y-95239143D01*
X194839668Y-95248294D01*
X194854793Y-95260335D01*
X194873039Y-95276028D01*
X194895203Y-95296137D01*
X194922084Y-95321425D01*
X194954481Y-95352654D01*
X194993191Y-95390588D01*
X195039012Y-95435990D01*
X195092743Y-95489623D01*
X195155183Y-95552250D01*
X195227128Y-95624633D01*
X195309378Y-95707537D01*
X195402731Y-95801723D01*
X195949361Y-96353384D01*
X196640942Y-95671659D01*
X196695912Y-95617471D01*
X196799231Y-95515635D01*
X196891568Y-95424710D01*
X196973654Y-95344051D01*
X197046220Y-95273012D01*
X197109999Y-95210949D01*
X197165723Y-95157217D01*
X197214123Y-95111171D01*
X197255932Y-95072166D01*
X197291881Y-95039557D01*
X197322702Y-95012699D01*
X197349128Y-94990947D01*
X197371889Y-94973655D01*
X197391718Y-94960180D01*
X197409347Y-94949876D01*
X197425508Y-94942099D01*
X197440933Y-94936202D01*
X197456352Y-94931542D01*
X197472499Y-94927472D01*
X197490106Y-94923349D01*
X197524547Y-94917128D01*
X197599952Y-94915359D01*
X197675770Y-94928350D01*
G37*
G36*
X196148114Y-80924420D02*
G01*
X196205531Y-80925313D01*
X196253250Y-80928314D01*
X196295368Y-80934415D01*
X196335984Y-80944608D01*
X196379198Y-80959883D01*
X196429108Y-80981233D01*
X196489814Y-81009648D01*
X196494391Y-81011819D01*
X196517083Y-81022433D01*
X196553924Y-81039550D01*
X196604005Y-81062752D01*
X196666422Y-81091619D01*
X196740266Y-81125735D01*
X196824632Y-81164680D01*
X196918612Y-81208037D01*
X197021300Y-81255388D01*
X197131790Y-81306313D01*
X197249175Y-81360395D01*
X197372547Y-81417216D01*
X197501001Y-81476358D01*
X197633629Y-81537402D01*
X197769526Y-81599930D01*
X197825879Y-81625865D01*
X197959628Y-81687505D01*
X198089291Y-81747379D01*
X198213998Y-81805081D01*
X198332879Y-81860203D01*
X198445063Y-81912339D01*
X198549682Y-81961082D01*
X198645866Y-82006025D01*
X198732744Y-82046761D01*
X198809447Y-82082884D01*
X198875105Y-82113987D01*
X198928849Y-82139662D01*
X198969808Y-82159504D01*
X198997112Y-82173105D01*
X199009893Y-82180058D01*
X199072620Y-82226665D01*
X199143192Y-82295011D01*
X199198632Y-82370659D01*
X199239289Y-82454221D01*
X199265516Y-82546308D01*
X199277661Y-82647533D01*
X199278227Y-82661747D01*
X199273650Y-82766438D01*
X199253663Y-82864446D01*
X199218678Y-82955066D01*
X199169109Y-83037591D01*
X199105370Y-83111315D01*
X199027873Y-83175530D01*
X198937033Y-83229532D01*
X198922621Y-83236270D01*
X198893238Y-83249518D01*
X198849973Y-83268781D01*
X198793621Y-83293714D01*
X198724977Y-83323971D01*
X198644834Y-83359206D01*
X198553989Y-83399073D01*
X198453234Y-83443227D01*
X198343366Y-83491322D01*
X198225178Y-83543012D01*
X198099464Y-83597951D01*
X197967021Y-83655793D01*
X197828641Y-83716193D01*
X197685120Y-83778805D01*
X197537252Y-83843282D01*
X197385832Y-83909281D01*
X197231655Y-83976453D01*
X197075514Y-84044455D01*
X196918205Y-84112939D01*
X196760522Y-84181561D01*
X196603259Y-84249974D01*
X196447212Y-84317832D01*
X196293174Y-84384791D01*
X196141941Y-84450503D01*
X195994307Y-84514624D01*
X195851066Y-84576807D01*
X195713013Y-84636707D01*
X195580942Y-84693977D01*
X195455649Y-84748273D01*
X195337928Y-84799248D01*
X195228573Y-84846557D01*
X195128379Y-84889854D01*
X195038140Y-84928792D01*
X194958651Y-84963027D01*
X194890707Y-84992212D01*
X194835102Y-85016002D01*
X194792630Y-85034051D01*
X194764087Y-85046012D01*
X194750267Y-85051542D01*
X194692628Y-85069809D01*
X194615582Y-85085802D01*
X194547425Y-85088734D01*
X194487159Y-85078709D01*
X194432139Y-85056165D01*
X194374812Y-85016707D01*
X194324985Y-84964466D01*
X194284066Y-84901280D01*
X194253464Y-84828985D01*
X194234587Y-84749418D01*
X194231159Y-84714151D01*
X194229782Y-84670684D01*
X194230862Y-84629301D01*
X194232203Y-84612413D01*
X194247999Y-84524727D01*
X194277877Y-84446182D01*
X194321605Y-84377156D01*
X194378956Y-84318027D01*
X194449700Y-84269173D01*
X194460239Y-84264264D01*
X194485964Y-84253044D01*
X194525981Y-84235919D01*
X194579595Y-84213178D01*
X194646107Y-84185114D01*
X194724822Y-84152017D01*
X194815041Y-84114179D01*
X194916067Y-84071890D01*
X195027205Y-84025443D01*
X195147756Y-83975127D01*
X195277023Y-83921234D01*
X195414310Y-83864055D01*
X195558919Y-83803881D01*
X195710153Y-83741004D01*
X195867315Y-83675715D01*
X196029709Y-83608304D01*
X196196636Y-83539062D01*
X196367400Y-83468282D01*
X196534820Y-83398902D01*
X196701031Y-83330001D01*
X196862467Y-83263057D01*
X197018450Y-83198353D01*
X197168300Y-83136170D01*
X197311337Y-83076792D01*
X197446883Y-83020501D01*
X197574257Y-82967580D01*
X197692780Y-82918310D01*
X197801772Y-82872976D01*
X197900555Y-82831858D01*
X197988449Y-82795240D01*
X198064774Y-82763404D01*
X198128850Y-82736633D01*
X198179999Y-82715209D01*
X198217541Y-82699415D01*
X198240796Y-82689534D01*
X198249086Y-82685847D01*
X198246443Y-82684295D01*
X198230282Y-82676763D01*
X198200494Y-82663472D01*
X198158289Y-82644937D01*
X198104879Y-82621677D01*
X198041476Y-82594208D01*
X197969291Y-82563048D01*
X197889536Y-82528712D01*
X197803421Y-82491720D01*
X197712158Y-82452587D01*
X197616960Y-82411830D01*
X197519036Y-82369967D01*
X197419599Y-82327514D01*
X197319859Y-82284990D01*
X197221029Y-82242910D01*
X197124320Y-82201792D01*
X197030943Y-82162153D01*
X196942110Y-82124510D01*
X196859032Y-82089380D01*
X196782920Y-82057280D01*
X196714986Y-82028727D01*
X196656441Y-82004238D01*
X196608497Y-81984331D01*
X196572366Y-81969522D01*
X196549257Y-81960328D01*
X196549144Y-81960286D01*
X196546163Y-81960934D01*
X196543688Y-81966090D01*
X196541674Y-81977135D01*
X196540074Y-81995450D01*
X196538840Y-82022415D01*
X196537925Y-82059411D01*
X196537283Y-82107818D01*
X196536868Y-82169017D01*
X196536631Y-82244388D01*
X196536527Y-82335311D01*
X196536517Y-82346776D01*
X196536221Y-82438324D01*
X196535553Y-82520904D01*
X196534541Y-82593191D01*
X196533214Y-82653855D01*
X196531599Y-82701571D01*
X196529726Y-82735009D01*
X196527622Y-82752843D01*
X196520735Y-82778373D01*
X196490740Y-82848038D01*
X196447291Y-82909590D01*
X196392100Y-82961611D01*
X196326880Y-83002683D01*
X196253344Y-83031388D01*
X196173203Y-83046309D01*
X196125583Y-83047695D01*
X196049377Y-83037686D01*
X195977322Y-83013687D01*
X195911410Y-82977160D01*
X195853635Y-82929568D01*
X195805992Y-82872374D01*
X195770472Y-82807042D01*
X195749070Y-82735034D01*
X195748528Y-82731240D01*
X195746885Y-82707713D01*
X195745489Y-82667586D01*
X195744340Y-82611117D01*
X195743440Y-82538559D01*
X195742792Y-82450170D01*
X195742398Y-82346203D01*
X195742260Y-82226916D01*
X195742379Y-82092563D01*
X195742758Y-81943401D01*
X195742839Y-81918485D01*
X195743258Y-81792283D01*
X195743658Y-81681698D01*
X195744068Y-81585621D01*
X195744518Y-81502938D01*
X195745036Y-81432540D01*
X195745653Y-81373314D01*
X195746398Y-81324149D01*
X195747299Y-81283934D01*
X195748387Y-81251556D01*
X195749691Y-81225906D01*
X195751239Y-81205871D01*
X195753062Y-81190340D01*
X195755189Y-81178201D01*
X195757649Y-81168344D01*
X195760471Y-81159656D01*
X195763685Y-81151027D01*
X195786482Y-81100628D01*
X195828500Y-81038324D01*
X195881915Y-80988050D01*
X195947710Y-80948726D01*
X195963470Y-80941429D01*
X195980975Y-80934432D01*
X195998584Y-80929675D01*
X196019663Y-80926725D01*
X196047578Y-80925152D01*
X196085694Y-80924523D01*
X196137378Y-80924407D01*
X196148114Y-80924420D01*
G37*
G36*
X196966245Y-90263873D02*
G01*
X197178698Y-90284273D01*
X197386050Y-90319424D01*
X197586600Y-90369272D01*
X197673309Y-90396382D01*
X197848369Y-90462849D01*
X198017786Y-90542885D01*
X198179953Y-90635446D01*
X198333265Y-90739484D01*
X198476115Y-90853954D01*
X198606895Y-90977808D01*
X198723998Y-91110001D01*
X198730804Y-91118479D01*
X198845220Y-91275188D01*
X198946960Y-91442708D01*
X199035671Y-91620261D01*
X199111000Y-91807066D01*
X199172594Y-92002344D01*
X199220099Y-92205315D01*
X199223632Y-92223404D01*
X199231700Y-92265024D01*
X199238871Y-92303223D01*
X199245201Y-92339195D01*
X199250748Y-92374141D01*
X199255567Y-92409255D01*
X199259716Y-92445737D01*
X199263250Y-92484783D01*
X199266228Y-92527591D01*
X199268704Y-92575357D01*
X199270737Y-92629281D01*
X199272381Y-92690558D01*
X199273695Y-92760387D01*
X199274734Y-92839965D01*
X199275556Y-92930489D01*
X199276216Y-93033156D01*
X199276771Y-93149165D01*
X199277278Y-93279711D01*
X199277794Y-93425994D01*
X199278241Y-93560335D01*
X199278603Y-93687879D01*
X199278839Y-93800455D01*
X199278938Y-93899073D01*
X199278889Y-93984747D01*
X199278680Y-94058489D01*
X199278302Y-94121312D01*
X199277742Y-94174228D01*
X199276991Y-94218249D01*
X199276038Y-94254389D01*
X199274871Y-94283659D01*
X199273480Y-94307073D01*
X199271853Y-94325642D01*
X199269981Y-94340379D01*
X199267851Y-94352298D01*
X199246660Y-94426242D01*
X199210834Y-94500907D01*
X199163420Y-94564429D01*
X199105302Y-94615871D01*
X199037362Y-94654294D01*
X198960485Y-94678761D01*
X198946429Y-94680322D01*
X198915579Y-94681974D01*
X198869914Y-94683505D01*
X198810528Y-94684915D01*
X198738516Y-94686205D01*
X198654973Y-94687374D01*
X198560994Y-94688423D01*
X198457673Y-94689353D01*
X198346106Y-94690162D01*
X198227386Y-94690852D01*
X198102609Y-94691423D01*
X197972870Y-94691875D01*
X197839263Y-94692208D01*
X197702883Y-94692423D01*
X197564825Y-94692519D01*
X197426184Y-94692497D01*
X197288054Y-94692357D01*
X197151530Y-94692100D01*
X197017707Y-94691725D01*
X196887680Y-94691233D01*
X196762543Y-94690624D01*
X196643391Y-94689898D01*
X196531320Y-94689056D01*
X196427423Y-94688097D01*
X196332796Y-94687023D01*
X196248533Y-94685832D01*
X196175729Y-94684526D01*
X196115479Y-94683105D01*
X196068878Y-94681569D01*
X196037020Y-94679917D01*
X196021000Y-94678151D01*
X196015846Y-94676901D01*
X195941056Y-94650036D01*
X195875509Y-94609696D01*
X195820039Y-94557057D01*
X195775479Y-94493295D01*
X195742662Y-94419587D01*
X195722422Y-94337110D01*
X195715592Y-94247038D01*
X195719249Y-94179772D01*
X195735542Y-94094179D01*
X195764338Y-94017564D01*
X195805040Y-93951078D01*
X195857052Y-93895870D01*
X195919779Y-93853091D01*
X195932619Y-93846042D01*
X195944315Y-93839435D01*
X195955266Y-93833470D01*
X195966313Y-93828113D01*
X195978300Y-93823330D01*
X195992067Y-93819085D01*
X196008457Y-93815344D01*
X196028311Y-93812073D01*
X196052471Y-93809238D01*
X196081779Y-93806803D01*
X196117077Y-93804734D01*
X196159206Y-93802997D01*
X196209008Y-93801557D01*
X196267325Y-93800379D01*
X196335000Y-93799429D01*
X196412873Y-93798673D01*
X196501786Y-93798076D01*
X196602582Y-93797604D01*
X196716102Y-93797221D01*
X196843188Y-93796894D01*
X196984681Y-93796588D01*
X197141424Y-93796268D01*
X197314259Y-93795900D01*
X198570151Y-93793103D01*
X198566187Y-93262135D01*
X198565826Y-93214740D01*
X198564907Y-93105423D01*
X198563910Y-93010778D01*
X198562743Y-92929184D01*
X198561315Y-92859020D01*
X198559533Y-92798662D01*
X198557306Y-92746490D01*
X198554541Y-92700881D01*
X198551146Y-92660214D01*
X198547030Y-92622865D01*
X198542100Y-92587214D01*
X198536265Y-92551639D01*
X198529433Y-92514517D01*
X198521511Y-92474226D01*
X198520739Y-92470390D01*
X198479735Y-92305422D01*
X198425663Y-92151186D01*
X198358542Y-92007710D01*
X198278394Y-91875023D01*
X198185235Y-91753154D01*
X198079087Y-91642131D01*
X197959969Y-91541984D01*
X197827900Y-91452740D01*
X197714467Y-91391456D01*
X197577892Y-91333329D01*
X197430712Y-91285217D01*
X197274731Y-91247417D01*
X197111753Y-91220223D01*
X196943582Y-91203931D01*
X196772024Y-91198835D01*
X196598881Y-91205230D01*
X196425958Y-91223413D01*
X196248964Y-91254866D01*
X196078267Y-91299183D01*
X195918632Y-91355510D01*
X195770338Y-91423618D01*
X195633666Y-91503279D01*
X195508895Y-91594265D01*
X195396306Y-91696348D01*
X195296178Y-91809299D01*
X195208791Y-91932891D01*
X195134426Y-92066894D01*
X195073361Y-92211080D01*
X195025877Y-92365221D01*
X195021452Y-92382567D01*
X195011932Y-92420280D01*
X195003594Y-92454740D01*
X194996349Y-92487293D01*
X194990111Y-92519284D01*
X194984792Y-92552060D01*
X194980305Y-92586966D01*
X194976561Y-92625348D01*
X194973475Y-92668551D01*
X194970957Y-92717922D01*
X194968922Y-92774805D01*
X194967280Y-92840547D01*
X194965945Y-92916493D01*
X194964830Y-93003989D01*
X194963847Y-93104380D01*
X194962908Y-93219014D01*
X194961926Y-93349234D01*
X194961118Y-93455038D01*
X194960201Y-93566969D01*
X194959308Y-93664088D01*
X194958407Y-93747551D01*
X194957468Y-93818512D01*
X194956459Y-93878127D01*
X194955349Y-93927550D01*
X194954108Y-93967938D01*
X194952704Y-94000445D01*
X194951107Y-94026226D01*
X194949285Y-94046437D01*
X194947207Y-94062233D01*
X194944842Y-94074769D01*
X194942160Y-94085200D01*
X194925195Y-94133326D01*
X194888816Y-94201971D01*
X194842217Y-94259296D01*
X194786716Y-94304082D01*
X194723633Y-94335111D01*
X194654288Y-94351162D01*
X194598201Y-94354094D01*
X194521541Y-94345669D01*
X194452574Y-94322672D01*
X194392098Y-94285772D01*
X194340907Y-94235636D01*
X194299799Y-94172933D01*
X194269568Y-94098333D01*
X194251011Y-94012502D01*
X194250354Y-94004645D01*
X194249328Y-93978672D01*
X194248415Y-93937928D01*
X194247624Y-93883774D01*
X194246965Y-93817570D01*
X194246444Y-93740674D01*
X194246071Y-93654446D01*
X194245854Y-93560245D01*
X194245802Y-93459431D01*
X194245923Y-93353363D01*
X194246225Y-93243400D01*
X194246680Y-93122117D01*
X194247229Y-93001177D01*
X194247878Y-92894619D01*
X194248686Y-92801093D01*
X194249717Y-92719252D01*
X194251029Y-92647746D01*
X194252683Y-92585229D01*
X194254741Y-92530350D01*
X194257263Y-92481763D01*
X194260310Y-92438119D01*
X194263942Y-92398069D01*
X194268221Y-92360265D01*
X194273206Y-92323360D01*
X194278959Y-92286005D01*
X194285541Y-92246851D01*
X194293012Y-92204551D01*
X194304637Y-92143594D01*
X194352503Y-91946135D01*
X194414390Y-91756691D01*
X194489986Y-91575951D01*
X194578980Y-91404607D01*
X194681058Y-91243349D01*
X194795908Y-91092867D01*
X194813840Y-91071714D01*
X194941876Y-90935600D01*
X195082099Y-90810790D01*
X195233786Y-90697700D01*
X195396210Y-90596746D01*
X195568649Y-90508344D01*
X195750376Y-90432909D01*
X195940668Y-90370856D01*
X196138800Y-90322601D01*
X196315314Y-90291735D01*
X196532850Y-90267550D01*
X196750395Y-90258281D01*
X196966245Y-90263873D01*
G37*
%TD*%
M02*
