%TF.GenerationSoftware,KiCad,Pcbnew,7.0.1*%
%TF.CreationDate,2023-03-25T16:35:45-05:00*%
%TF.ProjectId,STM32_XTW2_CLONE,53544d33-325f-4585-9457-325f434c4f4e,1.2.1V*%
%TF.SameCoordinates,Original*%
%TF.FileFunction,Drillmap*%
%TF.FilePolarity,Positive*%
%FSLAX45Y45*%
G04 Gerber Fmt 4.5, Leading zero omitted, Abs format (unit mm)*
G04 Created by KiCad (PCBNEW 7.0.1) date 2023-03-25 16:35:45*
%MOMM*%
%LPD*%
G01*
G04 APERTURE LIST*
%ADD10C,0.100000*%
%ADD11C,0.200000*%
G04 APERTURE END LIST*
D10*
X10777740Y-12610000D02*
X17508740Y-12610000D01*
X10777740Y-12610000D02*
X10777740Y-9810000D01*
X17508740Y-12610000D02*
G75*
G03*
X17508740Y-9810000I1360J1400000D01*
G01*
X17508740Y-9810000D02*
X10777740Y-9810000D01*
D11*
X11020359Y-12927524D02*
X11020359Y-12727524D01*
X11020359Y-12727524D02*
X11067978Y-12727524D01*
X11067978Y-12727524D02*
X11096550Y-12737048D01*
X11096550Y-12737048D02*
X11115597Y-12756096D01*
X11115597Y-12756096D02*
X11125121Y-12775143D01*
X11125121Y-12775143D02*
X11134645Y-12813239D01*
X11134645Y-12813239D02*
X11134645Y-12841810D01*
X11134645Y-12841810D02*
X11125121Y-12879905D01*
X11125121Y-12879905D02*
X11115597Y-12898953D01*
X11115597Y-12898953D02*
X11096550Y-12918001D01*
X11096550Y-12918001D02*
X11067978Y-12927524D01*
X11067978Y-12927524D02*
X11020359Y-12927524D01*
X11220359Y-12927524D02*
X11220359Y-12794191D01*
X11220359Y-12832286D02*
X11229883Y-12813239D01*
X11229883Y-12813239D02*
X11239407Y-12803715D01*
X11239407Y-12803715D02*
X11258454Y-12794191D01*
X11258454Y-12794191D02*
X11277502Y-12794191D01*
X11344168Y-12927524D02*
X11344168Y-12794191D01*
X11344168Y-12727524D02*
X11334645Y-12737048D01*
X11334645Y-12737048D02*
X11344168Y-12746572D01*
X11344168Y-12746572D02*
X11353692Y-12737048D01*
X11353692Y-12737048D02*
X11344168Y-12727524D01*
X11344168Y-12727524D02*
X11344168Y-12746572D01*
X11467978Y-12927524D02*
X11448930Y-12918001D01*
X11448930Y-12918001D02*
X11439407Y-12898953D01*
X11439407Y-12898953D02*
X11439407Y-12727524D01*
X11572740Y-12927524D02*
X11553692Y-12918001D01*
X11553692Y-12918001D02*
X11544168Y-12898953D01*
X11544168Y-12898953D02*
X11544168Y-12727524D01*
X11801311Y-12927524D02*
X11801311Y-12727524D01*
X11801311Y-12727524D02*
X11867978Y-12870382D01*
X11867978Y-12870382D02*
X11934645Y-12727524D01*
X11934645Y-12727524D02*
X11934645Y-12927524D01*
X12115597Y-12927524D02*
X12115597Y-12822763D01*
X12115597Y-12822763D02*
X12106073Y-12803715D01*
X12106073Y-12803715D02*
X12087026Y-12794191D01*
X12087026Y-12794191D02*
X12048930Y-12794191D01*
X12048930Y-12794191D02*
X12029883Y-12803715D01*
X12115597Y-12918001D02*
X12096549Y-12927524D01*
X12096549Y-12927524D02*
X12048930Y-12927524D01*
X12048930Y-12927524D02*
X12029883Y-12918001D01*
X12029883Y-12918001D02*
X12020359Y-12898953D01*
X12020359Y-12898953D02*
X12020359Y-12879905D01*
X12020359Y-12879905D02*
X12029883Y-12860858D01*
X12029883Y-12860858D02*
X12048930Y-12851334D01*
X12048930Y-12851334D02*
X12096549Y-12851334D01*
X12096549Y-12851334D02*
X12115597Y-12841810D01*
X12210835Y-12794191D02*
X12210835Y-12994191D01*
X12210835Y-12803715D02*
X12229883Y-12794191D01*
X12229883Y-12794191D02*
X12267978Y-12794191D01*
X12267978Y-12794191D02*
X12287026Y-12803715D01*
X12287026Y-12803715D02*
X12296549Y-12813239D01*
X12296549Y-12813239D02*
X12306073Y-12832286D01*
X12306073Y-12832286D02*
X12306073Y-12889429D01*
X12306073Y-12889429D02*
X12296549Y-12908477D01*
X12296549Y-12908477D02*
X12287026Y-12918001D01*
X12287026Y-12918001D02*
X12267978Y-12927524D01*
X12267978Y-12927524D02*
X12229883Y-12927524D01*
X12229883Y-12927524D02*
X12210835Y-12918001D01*
X12391788Y-12908477D02*
X12401311Y-12918001D01*
X12401311Y-12918001D02*
X12391788Y-12927524D01*
X12391788Y-12927524D02*
X12382264Y-12918001D01*
X12382264Y-12918001D02*
X12391788Y-12908477D01*
X12391788Y-12908477D02*
X12391788Y-12927524D01*
X12391788Y-12803715D02*
X12401311Y-12813239D01*
X12401311Y-12813239D02*
X12391788Y-12822763D01*
X12391788Y-12822763D02*
X12382264Y-12813239D01*
X12382264Y-12813239D02*
X12391788Y-12803715D01*
X12391788Y-12803715D02*
X12391788Y-12822763D01*
M02*
