M48
; DRILL file {KiCad (7.0.0)} date Thu Mar  2 18:54:05 2023
; FORMAT={-:-/ absolute / metric / decimal}
; #@! TF.CreationDate,2023-03-02T18:54:05-05:00
; #@! TF.GenerationSoftware,Kicad,Pcbnew,(7.0.0)
; #@! TF.FileFunction,Plated,1,2,PTH
FMAT,2
METRIC
; #@! TA.AperFunction,Plated,PTH,ViaDrill
T1C0.300
; #@! TA.AperFunction,Plated,PTH,ViaDrill
T2C0.400
; #@! TA.AperFunction,Plated,PTH,ComponentDrill
T3C0.600
; #@! TA.AperFunction,Plated,PTH,ComponentDrill
T4C0.800
; #@! TA.AperFunction,Plated,PTH,ComponentDrill
T5C1.000
; #@! TA.AperFunction,Plated,PTH,ComponentDrill
T6C1.200
%
G90
G05
T1
X128.27Y-77.216
X128.27Y-79.629
X128.27Y-82.042
X128.27Y-97.79
X128.27Y-100.457
X128.27Y-103.124
X132.258Y-103.124
X132.651Y-77.216
X134.874Y-100.33
X136.246Y-103.124
X136.449Y-84.582
X137.033Y-77.216
X137.185Y-86.106
X139.446Y-81.686
X140.233Y-103.124
X143.571Y-77.978
X144.221Y-103.124
X145.288Y-97.282
X146.05Y-97.282
X146.812Y-97.282
X147.447Y-77.216
X147.828Y-89.535
X147.828Y-90.297
X148.082Y-79.654
X148.209Y-103.124
X148.59Y-89.535
X148.59Y-90.297
X149.098Y-80.899
X149.098Y-81.661
X149.2Y-85.352
X149.352Y-77.216
X151.867Y-79.654
X152.908Y-88.189
X153.568Y-79.654
X153.67Y-88.189
X153.69Y-84.602
X154.432Y-88.189
X154.686Y-84.602
X155.194Y-88.189
X155.804Y-84.684
X155.804Y-85.446
X157.605Y-85.065
X157.605Y-86.627
X157.605Y-88.189
X159.766Y-79.883
X161.544Y-83.693
X161.544Y-84.455
X161.544Y-91.211
X161.544Y-92.1
X162.433Y-83.693
X162.433Y-84.455
X162.433Y-91.211
X162.433Y-92.1
X165.1Y-94.742
X165.1Y-95.885
X165.1Y-97.028
X167.208Y-103.124
X168.267Y-77.114
X170.58Y-103.124
X171.145Y-77.114
X173.952Y-103.124
X174.024Y-77.114
X176.903Y-77.114
X177.324Y-103.124
X179.273Y-88.24
X179.781Y-77.114
X180.264Y-100.584
X180.696Y-103.124
X180.873Y-100.584
X181.813Y-91.618
X182.668Y-77.216
X183.439Y-90.907
X184.067Y-103.124
X185.547Y-77.216
X187.439Y-103.124
X188.426Y-77.216
X190.811Y-103.124
X191.304Y-77.216
X194.183Y-77.216
X194.183Y-103.124
X198.374Y-77.927
X198.374Y-102.362
X202.184Y-80.086
X202.184Y-100.228
X205.435Y-83.947
X205.435Y-96.393
X206.832Y-88.036
X206.858Y-91.897
T2
X148.387Y-93.267
X149.352Y-93.267
T4
X170.424Y-86.106
X170.424Y-93.726
X172.964Y-86.106
X172.964Y-93.726
X175.504Y-86.106
X175.504Y-93.726
X178.044Y-86.106
X178.044Y-93.726
X180.584Y-86.106
X180.584Y-93.726
X183.124Y-86.106
X183.124Y-93.726
X185.664Y-86.106
X185.664Y-93.726
X188.204Y-86.106
X188.204Y-93.726
T5
X132.017Y-86.45
X132.017Y-88.95
X132.017Y-90.95
X132.017Y-93.45
X175.504Y-80.061
X178.044Y-80.061
X180.584Y-80.061
X183.124Y-80.061
X185.664Y-80.061
T6
X169.47Y-100.076
X175.97Y-100.076
T3
G00X130.837Y-84.1
M15
G01X128.936Y-84.1
M16
G05
G00X130.837Y-95.8
M15
G01X128.936Y-95.8
M16
G05
T0
M30
