M48
; DRILL file {KiCad 7.0.1} date Sat Mar 25 16:35:45 2023
; FORMAT={-:-/ absolute / inch / decimal}
; #@! TF.CreationDate,2023-03-25T16:35:45-05:00
; #@! TF.GenerationSoftware,Kicad,Pcbnew,7.0.1
; #@! TF.FileFunction,Plated,1,2,PTH
FMAT,2
INCH
; #@! TA.AperFunction,Plated,PTH,ViaDrill
T1C0.0118
; #@! TA.AperFunction,Plated,PTH,ViaDrill
T2C0.0157
; #@! TA.AperFunction,Plated,PTH,ComponentDrill
T3C0.0236
; #@! TA.AperFunction,Plated,PTH,ComponentDrill
T4C0.0315
; #@! TA.AperFunction,Plated,PTH,ComponentDrill
T5C0.0394
; #@! TA.AperFunction,Plated,PTH,ComponentDrill
T6C0.0472
%
G90
G05
T1
X4.2932Y-3.9022
X4.2932Y-3.9972
X4.2932Y-4.0922
X4.2932Y-4.7122
X4.2932Y-4.8172
X4.2932Y-4.9222
X4.4502Y-4.9222
X4.4657Y-3.9022
X4.5532Y-4.8122
X4.6072Y-4.9222
X4.6152Y-4.1922
X4.6382Y-3.9022
X4.6442Y-4.2522
X4.7332Y-4.1185
X4.7642Y-4.9222
X4.85Y-4.12
X4.85Y-4.157
X4.9104Y-3.912
X4.9212Y-4.9222
X4.9632Y-4.6922
X4.9932Y-4.6922
X5.0232Y-4.6922
X5.0482Y-3.9022
X5.0632Y-4.3872
X5.0632Y-4.4172
X5.0732Y-3.975
X5.0782Y-4.9222
X5.0932Y-4.3872
X5.0932Y-4.4172
X5.112Y-4.215
X5.122Y-4.024
X5.122Y-4.054
X5.1232Y-3.9022
X5.2222Y-3.9982
X5.2632Y-4.3342
X5.2892Y-3.9982
X5.2932Y-4.3342
X5.294Y-4.193
X5.3232Y-4.3342
X5.3332Y-4.193
X5.3532Y-4.3342
X5.3772Y-4.1962
X5.3772Y-4.2262
X5.4481Y-4.2112
X5.4481Y-4.2727
X5.4481Y-4.3342
X5.5332Y-4.0072
X5.6032Y-4.1572
X5.6032Y-4.1872
X5.6032Y-4.4532
X5.6032Y-4.4882
X5.6382Y-4.1572
X5.6382Y-4.1872
X5.6382Y-4.4532
X5.6382Y-4.4882
X5.7432Y-4.5922
X5.7432Y-4.6372
X5.7432Y-4.6822
X5.8262Y-4.9222
X5.8679Y-3.8982
X5.959Y-4.9222
X5.9812Y-3.8982
X6.0917Y-4.9222
X6.0945Y-3.8982
X6.2079Y-3.8982
X6.2245Y-4.9222
X6.3012Y-4.3362
X6.3212Y-3.8982
X6.3402Y-4.8222
X6.3572Y-4.9222
X6.3642Y-4.8222
X6.4012Y-4.4692
X6.4349Y-3.9022
X6.4652Y-4.4412
X6.49Y-4.9222
X6.5482Y-3.9022
X6.6227Y-4.9222
X6.6615Y-3.9022
X6.7555Y-4.9222
X6.7749Y-3.9022
X6.8882Y-3.9022
X6.8882Y-4.9222
X7.0532Y-3.9302
X7.0532Y-4.8922
X7.2032Y-4.0152
X7.2032Y-4.8082
X7.3312Y-4.1672
X7.3312Y-4.6572
X7.3862Y-4.3282
X7.3872Y-4.4802
T2
X5.0852Y-4.5342
X5.1232Y-4.5342
T4
X5.9528Y-4.2522
X5.9528Y-4.5522
X6.0528Y-4.2522
X6.0528Y-4.5522
X6.1528Y-4.2522
X6.1528Y-4.5522
X6.2528Y-4.2522
X6.2528Y-4.5522
X6.3528Y-4.2522
X6.3528Y-4.5522
X6.4528Y-4.2522
X6.4528Y-4.5522
X6.5528Y-4.2522
X6.5528Y-4.5522
X6.6528Y-4.2522
X6.6528Y-4.5522
T5
X4.4407Y-4.2657
X4.4407Y-4.3642
X4.4407Y-4.4429
X4.4407Y-4.5413
X6.1528Y-4.0142
X6.2528Y-4.0142
X6.3528Y-4.0142
X6.4528Y-4.0142
X6.5528Y-4.0142
T6
X5.9153Y-4.8022
X6.1712Y-4.8022
T3
G00X4.3942Y-4.1732
M15
G01X4.3194Y-4.1732
M16
G05
G00X4.3942Y-4.6339
M15
G01X4.3194Y-4.6339
M16
G05
T0
M30
