%TF.GenerationSoftware,KiCad,Pcbnew,7.0.1*%
%TF.CreationDate,2023-03-25T17:10:46-05:00*%
%TF.ProjectId,STM32_XTW2_CLONE,53544d33-325f-4585-9457-325f434c4f4e,1.2.1V*%
%TF.SameCoordinates,Original*%
%TF.FileFunction,Paste,Top*%
%TF.FilePolarity,Positive*%
%FSLAX46Y46*%
G04 Gerber Fmt 4.6, Leading zero omitted, Abs format (unit mm)*
G04 Created by KiCad (PCBNEW 7.0.1) date 2023-03-25 17:10:46*
%MOMM*%
%LPD*%
G01*
G04 APERTURE LIST*
G04 Aperture macros list*
%AMRoundRect*
0 Rectangle with rounded corners*
0 $1 Rounding radius*
0 $2 $3 $4 $5 $6 $7 $8 $9 X,Y pos of 4 corners*
0 Add a 4 corners polygon primitive as box body*
4,1,4,$2,$3,$4,$5,$6,$7,$8,$9,$2,$3,0*
0 Add four circle primitives for the rounded corners*
1,1,$1+$1,$2,$3*
1,1,$1+$1,$4,$5*
1,1,$1+$1,$6,$7*
1,1,$1+$1,$8,$9*
0 Add four rect primitives between the rounded corners*
20,1,$1+$1,$2,$3,$4,$5,0*
20,1,$1+$1,$4,$5,$6,$7,0*
20,1,$1+$1,$6,$7,$8,$9,0*
20,1,$1+$1,$8,$9,$2,$3,0*%
G04 Aperture macros list end*
%ADD10RoundRect,0.224600X0.325000X0.650000X-0.325000X0.650000X-0.325000X-0.650000X0.325000X-0.650000X0*%
%ADD11RoundRect,0.224600X-0.325000X-0.650000X0.325000X-0.650000X0.325000X0.650000X-0.325000X0.650000X0*%
%ADD12RoundRect,0.224600X-0.375000X-0.625000X0.375000X-0.625000X0.375000X0.625000X-0.375000X0.625000X0*%
%ADD13R,4.449200X1.949200*%
%ADD14RoundRect,0.224600X-0.625000X0.375000X-0.625000X-0.375000X0.625000X-0.375000X0.625000X0.375000X0*%
%ADD15RoundRect,0.224600X-0.312500X-0.625000X0.312500X-0.625000X0.312500X0.625000X-0.312500X0.625000X0*%
%ADD16R,1.949200X1.449200*%
%ADD17R,1.949200X3.749200*%
%ADD18RoundRect,0.049600X0.075000X-0.662500X0.075000X0.662500X-0.075000X0.662500X-0.075000X-0.662500X0*%
%ADD19RoundRect,0.049600X0.662500X-0.075000X0.662500X0.075000X-0.662500X0.075000X-0.662500X-0.075000X0*%
%ADD20RoundRect,0.224600X0.312500X0.625000X-0.312500X0.625000X-0.312500X-0.625000X0.312500X-0.625000X0*%
G04 APERTURE END LIST*
D10*
%TO.C,C4*%
X121927400Y-110214500D03*
X118977400Y-110214500D03*
%TD*%
D11*
%TO.C,C1*%
X129742400Y-123296800D03*
X132692400Y-123296800D03*
%TD*%
D10*
%TO.C,C8*%
X152964000Y-101960800D03*
X150014000Y-101960800D03*
%TD*%
D11*
%TO.C,C7*%
X124057400Y-121517500D03*
X127007400Y-121517500D03*
%TD*%
D12*
%TO.C,D2*%
X111457400Y-100965000D03*
X114257400Y-100965000D03*
%TD*%
D13*
%TO.C,Y1*%
X139967400Y-118420000D03*
X131467400Y-118420000D03*
%TD*%
D14*
%TO.C,F1*%
X116455650Y-115350000D03*
X116455650Y-118150000D03*
%TD*%
D15*
%TO.C,R7*%
X118760900Y-103378000D03*
X121685900Y-103378000D03*
%TD*%
D12*
%TO.C,D3*%
X111457400Y-103378000D03*
X114257400Y-103378000D03*
%TD*%
D15*
%TO.C,R3*%
X118748400Y-105841800D03*
X121673400Y-105841800D03*
%TD*%
%TO.C,R2*%
X124724700Y-105816400D03*
X127649700Y-105816400D03*
%TD*%
D16*
%TO.C,U2*%
X119842400Y-113566000D03*
X119842400Y-115866000D03*
D17*
X126142400Y-115866000D03*
D16*
X119842400Y-118166000D03*
%TD*%
D12*
%TO.C,D1*%
X111457400Y-122230000D03*
X114257400Y-122230000D03*
%TD*%
D15*
%TO.C,R6*%
X141813400Y-101783000D03*
X144738400Y-101783000D03*
%TD*%
D18*
%TO.C,U1*%
X132967400Y-112664500D03*
X133467400Y-112664500D03*
X133967400Y-112664500D03*
X134467400Y-112664500D03*
X134967400Y-112664500D03*
X135467400Y-112664500D03*
X135967400Y-112664500D03*
X136467400Y-112664500D03*
X136967400Y-112664500D03*
X137467400Y-112664500D03*
X137967400Y-112664500D03*
X138467400Y-112664500D03*
D19*
X139879900Y-111252000D03*
X139879900Y-110752000D03*
X139879900Y-110252000D03*
X139879900Y-109752000D03*
X139879900Y-109252000D03*
X139879900Y-108752000D03*
X139879900Y-108252000D03*
X139879900Y-107752000D03*
X139879900Y-107252000D03*
X139879900Y-106752000D03*
X139879900Y-106252000D03*
X139879900Y-105752000D03*
D18*
X138467400Y-104339500D03*
X137967400Y-104339500D03*
X137467400Y-104339500D03*
X136967400Y-104339500D03*
X136467400Y-104339500D03*
X135967400Y-104339500D03*
X135467400Y-104339500D03*
X134967400Y-104339500D03*
X134467400Y-104339500D03*
X133967400Y-104339500D03*
X133467400Y-104339500D03*
X132967400Y-104339500D03*
D19*
X131554900Y-105752000D03*
X131554900Y-106252000D03*
X131554900Y-106752000D03*
X131554900Y-107252000D03*
X131554900Y-107752000D03*
X131554900Y-108252000D03*
X131554900Y-108752000D03*
X131554900Y-109252000D03*
X131554900Y-109752000D03*
X131554900Y-110252000D03*
X131554900Y-110752000D03*
X131554900Y-111252000D03*
%TD*%
D20*
%TO.C,R1*%
X147430800Y-123296800D03*
X144505800Y-123296800D03*
%TD*%
D11*
%TO.C,C5*%
X124057400Y-110214500D03*
X127007400Y-110214500D03*
%TD*%
D10*
%TO.C,C2*%
X137446400Y-123296800D03*
X134496400Y-123296800D03*
%TD*%
%TO.C,C6*%
X121927400Y-121517500D03*
X118977400Y-121517500D03*
%TD*%
%TO.C,C3*%
X142664100Y-123296800D03*
X139714100Y-123296800D03*
%TD*%
D15*
%TO.C,R5*%
X124724700Y-100965000D03*
X127649700Y-100965000D03*
%TD*%
%TO.C,R4*%
X118760900Y-100965000D03*
X121685900Y-100965000D03*
%TD*%
M02*
