%TF.GenerationSoftware,KiCad,Pcbnew,(7.0.0)*%
%TF.CreationDate,2023-03-02T18:54:12-05:00*%
%TF.ProjectId,STM32_XTW2,53544d33-325f-4585-9457-322e6b696361,rev?*%
%TF.SameCoordinates,Original*%
%TF.FileFunction,Paste,Top*%
%TF.FilePolarity,Positive*%
%FSLAX46Y46*%
G04 Gerber Fmt 4.6, Leading zero omitted, Abs format (unit mm)*
G04 Created by KiCad (PCBNEW (7.0.0)) date 2023-03-02 18:54:12*
%MOMM*%
%LPD*%
G01*
G04 APERTURE LIST*
G04 Aperture macros list*
%AMRoundRect*
0 Rectangle with rounded corners*
0 $1 Rounding radius*
0 $2 $3 $4 $5 $6 $7 $8 $9 X,Y pos of 4 corners*
0 Add a 4 corners polygon primitive as box body*
4,1,4,$2,$3,$4,$5,$6,$7,$8,$9,$2,$3,0*
0 Add four circle primitives for the rounded corners*
1,1,$1+$1,$2,$3*
1,1,$1+$1,$4,$5*
1,1,$1+$1,$6,$7*
1,1,$1+$1,$8,$9*
0 Add four rect primitives between the rounded corners*
20,1,$1+$1,$2,$3,$4,$5,0*
20,1,$1+$1,$4,$5,$6,$7,0*
20,1,$1+$1,$6,$7,$8,$9,0*
20,1,$1+$1,$8,$9,$2,$3,0*%
G04 Aperture macros list end*
%ADD10RoundRect,0.224600X0.325000X0.650000X-0.325000X0.650000X-0.325000X-0.650000X0.325000X-0.650000X0*%
%ADD11RoundRect,0.224600X-0.325000X-0.650000X0.325000X-0.650000X0.325000X0.650000X-0.325000X0.650000X0*%
%ADD12RoundRect,0.224600X-0.375000X-0.625000X0.375000X-0.625000X0.375000X0.625000X-0.375000X0.625000X0*%
%ADD13R,4.449200X1.949200*%
%ADD14RoundRect,0.224600X-0.625000X0.375000X-0.625000X-0.375000X0.625000X-0.375000X0.625000X0.375000X0*%
%ADD15RoundRect,0.224600X-0.312500X-0.625000X0.312500X-0.625000X0.312500X0.625000X-0.312500X0.625000X0*%
%ADD16R,1.949200X1.449200*%
%ADD17R,1.949200X3.749200*%
%ADD18RoundRect,0.049600X0.075000X-0.662500X0.075000X0.662500X-0.075000X0.662500X-0.075000X-0.662500X0*%
%ADD19RoundRect,0.049600X0.662500X-0.075000X0.662500X0.075000X-0.662500X0.075000X-0.662500X-0.075000X0*%
%ADD20RoundRect,0.224600X0.312500X0.625000X-0.312500X0.625000X-0.312500X-0.625000X0.312500X-0.625000X0*%
G04 APERTURE END LIST*
D10*
%TO.C,C8*%
X172186600Y-80060800D03*
X169236600Y-80060800D03*
%TD*%
%TO.C,C4*%
X141150000Y-88314500D03*
X138200000Y-88314500D03*
%TD*%
D11*
%TO.C,C1*%
X148965000Y-101396800D03*
X151915000Y-101396800D03*
%TD*%
%TO.C,C7*%
X143280000Y-99617500D03*
X146230000Y-99617500D03*
%TD*%
D12*
%TO.C,D2*%
X130680000Y-80010000D03*
X133480000Y-80010000D03*
%TD*%
D13*
%TO.C,Y1*%
X159189999Y-96519999D03*
X150689999Y-96519999D03*
%TD*%
D14*
%TO.C,F1*%
X135678250Y-93450000D03*
X135678250Y-96250000D03*
%TD*%
D15*
%TO.C,R3*%
X137971000Y-83845400D03*
X140896000Y-83845400D03*
%TD*%
%TO.C,R2*%
X143571500Y-83845400D03*
X146496500Y-83845400D03*
%TD*%
D16*
%TO.C,U2*%
X139064999Y-91665999D03*
X139064999Y-93965999D03*
D17*
X145364999Y-93965999D03*
D16*
X139064999Y-96265999D03*
%TD*%
D12*
%TO.C,D1*%
X130680000Y-100330000D03*
X133480000Y-100330000D03*
%TD*%
D15*
%TO.C,R6*%
X161036000Y-79883000D03*
X163961000Y-79883000D03*
%TD*%
D18*
%TO.C,U1*%
X152190000Y-90764500D03*
X152690000Y-90764500D03*
X153190000Y-90764500D03*
X153690000Y-90764500D03*
X154190000Y-90764500D03*
X154690000Y-90764500D03*
X155190000Y-90764500D03*
X155690000Y-90764500D03*
X156190000Y-90764500D03*
X156690000Y-90764500D03*
X157190000Y-90764500D03*
X157690000Y-90764500D03*
D19*
X159102500Y-89352000D03*
X159102500Y-88852000D03*
X159102500Y-88352000D03*
X159102500Y-87852000D03*
X159102500Y-87352000D03*
X159102500Y-86852000D03*
X159102500Y-86352000D03*
X159102500Y-85852000D03*
X159102500Y-85352000D03*
X159102500Y-84852000D03*
X159102500Y-84352000D03*
X159102500Y-83852000D03*
D18*
X157690000Y-82439500D03*
X157190000Y-82439500D03*
X156690000Y-82439500D03*
X156190000Y-82439500D03*
X155690000Y-82439500D03*
X155190000Y-82439500D03*
X154690000Y-82439500D03*
X154190000Y-82439500D03*
X153690000Y-82439500D03*
X153190000Y-82439500D03*
X152690000Y-82439500D03*
X152190000Y-82439500D03*
D19*
X150777500Y-83852000D03*
X150777500Y-84352000D03*
X150777500Y-84852000D03*
X150777500Y-85352000D03*
X150777500Y-85852000D03*
X150777500Y-86352000D03*
X150777500Y-86852000D03*
X150777500Y-87352000D03*
X150777500Y-87852000D03*
X150777500Y-88352000D03*
X150777500Y-88852000D03*
X150777500Y-89352000D03*
%TD*%
D20*
%TO.C,R1*%
X166653400Y-101396800D03*
X163728400Y-101396800D03*
%TD*%
D11*
%TO.C,C5*%
X143280000Y-88314500D03*
X146230000Y-88314500D03*
%TD*%
D10*
%TO.C,C2*%
X156669000Y-101396800D03*
X153719000Y-101396800D03*
%TD*%
%TO.C,C6*%
X141150000Y-99617500D03*
X138200000Y-99617500D03*
%TD*%
%TO.C,C3*%
X161886700Y-101396800D03*
X158936700Y-101396800D03*
%TD*%
D15*
%TO.C,R5*%
X143571500Y-79654400D03*
X146496500Y-79654400D03*
%TD*%
%TO.C,R4*%
X137983500Y-79654400D03*
X140908500Y-79654400D03*
%TD*%
M02*
