%TF.GenerationSoftware,KiCad,Pcbnew,7.0.1*%
%TF.CreationDate,2023-03-25T17:09:27-05:00*%
%TF.ProjectId,STM32_XTW2_CLONE,53544d33-325f-4585-9457-325f434c4f4e,1.2.1V*%
%TF.SameCoordinates,Original*%
%TF.FileFunction,Legend,Bot*%
%TF.FilePolarity,Positive*%
%FSLAX46Y46*%
G04 Gerber Fmt 4.6, Leading zero omitted, Abs format (unit mm)*
G04 Created by KiCad (PCBNEW 7.0.1) date 2023-03-25 17:09:27*
%MOMM*%
%LPD*%
G01*
G04 APERTURE LIST*
G04 APERTURE END LIST*
%TO.C,Ge*%
G36*
X121283341Y-115439100D02*
G01*
X121340759Y-115456476D01*
X121390739Y-115487463D01*
X121431088Y-115530693D01*
X121459617Y-115584800D01*
X121464945Y-115605121D01*
X121468901Y-115645665D01*
X121467733Y-115690621D01*
X121461760Y-115733046D01*
X121451301Y-115766001D01*
X121442634Y-115782213D01*
X121405306Y-115830106D01*
X121357467Y-115865733D01*
X121301161Y-115887851D01*
X121238433Y-115895220D01*
X121226531Y-115894904D01*
X121164994Y-115884452D01*
X121112076Y-115859466D01*
X121068232Y-115820236D01*
X121033922Y-115767046D01*
X121017345Y-115722692D01*
X121009716Y-115664883D01*
X121016558Y-115608899D01*
X121036566Y-115557032D01*
X121068434Y-115511575D01*
X121110856Y-115474819D01*
X121162527Y-115449057D01*
X121222142Y-115436581D01*
X121283341Y-115439100D01*
G37*
G36*
X122881569Y-111289119D02*
G01*
X122986153Y-111313463D01*
X123082171Y-111351504D01*
X123168824Y-111402978D01*
X123245312Y-111467621D01*
X123252008Y-111474399D01*
X123311892Y-111544751D01*
X123357844Y-111619808D01*
X123391517Y-111702790D01*
X123414567Y-111796917D01*
X123415569Y-111802627D01*
X123423320Y-111869097D01*
X123425849Y-111941486D01*
X123423138Y-112012457D01*
X123415173Y-112074672D01*
X123412258Y-112089324D01*
X123389800Y-112174283D01*
X123358871Y-112248663D01*
X123317207Y-112317053D01*
X123262546Y-112384043D01*
X123247247Y-112399885D01*
X123218089Y-112427085D01*
X123185596Y-112454782D01*
X123152893Y-112480549D01*
X123123109Y-112501959D01*
X123099369Y-112516585D01*
X123084803Y-112522000D01*
X123083294Y-112520963D01*
X123074704Y-112509035D01*
X123060674Y-112486046D01*
X123042742Y-112454858D01*
X123022447Y-112418334D01*
X123001327Y-112379336D01*
X122980921Y-112340726D01*
X122962767Y-112305366D01*
X122948404Y-112276118D01*
X122939370Y-112255846D01*
X122937205Y-112247411D01*
X122938325Y-112246633D01*
X122950224Y-112240018D01*
X122969866Y-112229923D01*
X123006921Y-112207770D01*
X123056004Y-112164928D01*
X123092878Y-112114451D01*
X123098543Y-112104053D01*
X123107621Y-112085109D01*
X123113336Y-112066787D01*
X123116461Y-112044698D01*
X123117769Y-112014454D01*
X123118033Y-111971667D01*
X123118020Y-111960163D01*
X123117495Y-111920151D01*
X123115687Y-111891687D01*
X123111893Y-111870408D01*
X123105411Y-111851955D01*
X123095539Y-111831967D01*
X123093190Y-111827612D01*
X123064139Y-111784221D01*
X123028288Y-111750672D01*
X122980570Y-111722123D01*
X122968941Y-111716658D01*
X122907712Y-111696032D01*
X122836433Y-111682569D01*
X122759336Y-111676266D01*
X122680657Y-111677119D01*
X122604630Y-111685124D01*
X122535488Y-111700278D01*
X122477466Y-111722576D01*
X122430281Y-111753119D01*
X122387648Y-111795626D01*
X122357815Y-111843910D01*
X122352022Y-111859248D01*
X122341760Y-111903213D01*
X122336429Y-111953003D01*
X122336573Y-112001473D01*
X122342739Y-112041479D01*
X122343329Y-112043548D01*
X122362963Y-112089960D01*
X122394527Y-112132507D01*
X122439668Y-112172983D01*
X122500029Y-112213184D01*
X122503924Y-112216610D01*
X122505688Y-112223325D01*
X122503570Y-112234833D01*
X122496792Y-112253185D01*
X122484580Y-112280433D01*
X122466157Y-112318626D01*
X122440745Y-112369817D01*
X122437835Y-112375640D01*
X122415197Y-112420812D01*
X122395329Y-112460245D01*
X122379423Y-112491583D01*
X122368676Y-112512474D01*
X122364282Y-112520560D01*
X122363671Y-112520914D01*
X122352770Y-112517063D01*
X122330865Y-112503517D01*
X122299598Y-112481364D01*
X122260612Y-112451697D01*
X122237935Y-112432863D01*
X122174423Y-112365842D01*
X122122004Y-112286979D01*
X122081476Y-112197632D01*
X122053634Y-112099156D01*
X122050867Y-112085371D01*
X122044224Y-112045160D01*
X122040647Y-112006252D01*
X122039741Y-111962602D01*
X122041109Y-111908167D01*
X122045112Y-111841023D01*
X122052454Y-111783174D01*
X122064238Y-111731961D01*
X122081664Y-111682215D01*
X122105930Y-111628767D01*
X122146789Y-111557821D01*
X122208236Y-111480659D01*
X122281285Y-111415423D01*
X122365391Y-111362446D01*
X122460007Y-111322058D01*
X122564590Y-111294591D01*
X122678593Y-111280377D01*
X122769217Y-111278736D01*
X122881569Y-111289119D01*
G37*
G36*
X125001866Y-115027962D02*
G01*
X125000665Y-115090156D01*
X124996102Y-115143013D01*
X124987278Y-115182421D01*
X124973301Y-115210092D01*
X124953280Y-115227738D01*
X124926324Y-115237070D01*
X124891541Y-115239800D01*
X124863089Y-115238469D01*
X124834506Y-115230923D01*
X124814378Y-115214375D01*
X124798132Y-115186200D01*
X124797359Y-115184472D01*
X124790920Y-115166857D01*
X124786514Y-115146064D01*
X124783784Y-115118655D01*
X124782371Y-115081196D01*
X124781919Y-115030250D01*
X124781733Y-114909600D01*
X125001866Y-114909600D01*
X125001866Y-115027962D01*
G37*
G36*
X125391333Y-123417063D02*
G01*
X125391267Y-123431189D01*
X125388263Y-123500756D01*
X125380052Y-123556689D01*
X125365621Y-123601373D01*
X125343960Y-123637196D01*
X125314056Y-123666545D01*
X125274899Y-123691807D01*
X125243426Y-123706151D01*
X125185114Y-123722135D01*
X125121748Y-123728962D01*
X125056764Y-123727049D01*
X124993600Y-123716812D01*
X124935692Y-123698665D01*
X124886478Y-123673027D01*
X124849396Y-123640312D01*
X124846779Y-123637090D01*
X124827598Y-123608101D01*
X124813894Y-123574674D01*
X124804969Y-123533739D01*
X124800126Y-123482225D01*
X124798666Y-123417063D01*
X124798666Y-123308533D01*
X125391333Y-123308533D01*
X125391333Y-123417063D01*
G37*
G36*
X122352354Y-115409133D02*
G01*
X123147666Y-115409133D01*
X123147666Y-115925600D01*
X122351800Y-115925600D01*
X122351800Y-116112389D01*
X121622352Y-116107633D01*
X121593376Y-116076008D01*
X121564400Y-116044382D01*
X121564400Y-115671304D01*
X121564399Y-115658343D01*
X121564433Y-115566763D01*
X121564656Y-115490417D01*
X121565250Y-115427799D01*
X121566400Y-115377404D01*
X121568286Y-115337727D01*
X121571092Y-115307260D01*
X121575000Y-115284500D01*
X121580193Y-115267941D01*
X121586853Y-115256076D01*
X121595162Y-115247400D01*
X121605303Y-115240408D01*
X121617459Y-115233593D01*
X121617966Y-115233319D01*
X121626025Y-115229660D01*
X121636353Y-115226659D01*
X121650580Y-115224253D01*
X121670336Y-115222376D01*
X121697249Y-115220964D01*
X121732948Y-115219953D01*
X121779064Y-115219279D01*
X121837225Y-115218878D01*
X121909060Y-115218684D01*
X121996199Y-115218633D01*
X122347566Y-115218633D01*
X122352354Y-115409133D01*
G37*
G36*
X124146733Y-108272962D02*
G01*
X125896925Y-108271636D01*
X125919296Y-108294006D01*
X125941666Y-108316376D01*
X125941666Y-125372091D01*
X125896925Y-125416832D01*
X120180099Y-125412500D01*
X120131687Y-125389809D01*
X120119916Y-125383976D01*
X120060171Y-125343913D01*
X120009092Y-125291856D01*
X119970476Y-125231534D01*
X119943033Y-125175790D01*
X119943033Y-116904477D01*
X120082474Y-116904477D01*
X120082483Y-117229328D01*
X120082503Y-117553654D01*
X120082536Y-117877010D01*
X120082581Y-118198954D01*
X120082638Y-118519041D01*
X120082707Y-118836830D01*
X120082788Y-119151875D01*
X120082881Y-119463734D01*
X120082987Y-119771963D01*
X120083105Y-120076119D01*
X120083234Y-120375758D01*
X120083376Y-120670437D01*
X120083531Y-120959712D01*
X120083697Y-121243141D01*
X120083875Y-121520279D01*
X120084066Y-121790682D01*
X120084269Y-122053909D01*
X120084484Y-122309514D01*
X120084711Y-122557056D01*
X120084950Y-122796089D01*
X120085202Y-123026171D01*
X120085465Y-123246859D01*
X120085741Y-123457708D01*
X120086029Y-123658276D01*
X120086329Y-123848119D01*
X120086641Y-124026794D01*
X120086965Y-124193856D01*
X120087302Y-124348863D01*
X120087650Y-124491371D01*
X120088011Y-124620937D01*
X120088384Y-124737118D01*
X120088769Y-124839469D01*
X120089167Y-124927547D01*
X120089576Y-125000910D01*
X120089998Y-125059112D01*
X120090431Y-125101712D01*
X120090877Y-125128266D01*
X120091335Y-125138329D01*
X120103238Y-125169862D01*
X120133719Y-125214202D01*
X120176194Y-125247400D01*
X120213966Y-125268567D01*
X122180350Y-125270754D01*
X124146733Y-125272942D01*
X124146733Y-123333517D01*
X124620866Y-123333517D01*
X124620993Y-123377315D01*
X124621749Y-123445733D01*
X124623122Y-123505878D01*
X124625040Y-123555587D01*
X124627430Y-123592693D01*
X124630223Y-123615033D01*
X124638815Y-123648292D01*
X124668148Y-123718567D01*
X124709955Y-123782429D01*
X124761904Y-123836675D01*
X124821664Y-123878102D01*
X124860492Y-123896180D01*
X124935619Y-123919277D01*
X125018241Y-123932399D01*
X125104416Y-123935501D01*
X125190205Y-123928537D01*
X125271665Y-123911460D01*
X125344856Y-123884224D01*
X125346818Y-123883280D01*
X125413049Y-123842076D01*
X125468728Y-123788497D01*
X125512689Y-123724238D01*
X125543766Y-123650994D01*
X125560793Y-123570461D01*
X125561860Y-123559518D01*
X125563963Y-123526768D01*
X125565721Y-123484252D01*
X125567120Y-123434637D01*
X125568142Y-123380594D01*
X125568773Y-123324791D01*
X125568998Y-123269898D01*
X125568802Y-123218585D01*
X125568167Y-123173520D01*
X125567081Y-123137373D01*
X125565526Y-123112814D01*
X125563488Y-123102511D01*
X125559497Y-123101840D01*
X125540316Y-123100825D01*
X125506728Y-123099885D01*
X125460281Y-123099040D01*
X125402523Y-123098307D01*
X125335003Y-123097704D01*
X125259270Y-123097251D01*
X125176871Y-123096966D01*
X125089355Y-123096867D01*
X124620866Y-123096867D01*
X124620866Y-123333517D01*
X124146733Y-123333517D01*
X124146733Y-122919209D01*
X124620866Y-122919209D01*
X125089355Y-122917037D01*
X125564900Y-122914833D01*
X125567262Y-122812970D01*
X125569624Y-122711106D01*
X124929900Y-122313700D01*
X125249516Y-122311482D01*
X125569133Y-122309263D01*
X125569133Y-122217643D01*
X125568816Y-122187128D01*
X125567636Y-122154170D01*
X125565788Y-122130675D01*
X125563488Y-122120378D01*
X125559497Y-122119707D01*
X125540316Y-122118692D01*
X125506728Y-122117752D01*
X125460281Y-122116907D01*
X125402523Y-122116173D01*
X125335003Y-122115571D01*
X125259270Y-122115118D01*
X125176871Y-122114833D01*
X125089355Y-122114733D01*
X124620866Y-122114733D01*
X124620866Y-122325077D01*
X124923550Y-122513158D01*
X124956410Y-122533600D01*
X125019532Y-122572997D01*
X125077667Y-122609451D01*
X125129247Y-122641968D01*
X125172703Y-122669554D01*
X125206465Y-122691216D01*
X125228964Y-122705958D01*
X125238630Y-122712787D01*
X125239939Y-122715324D01*
X125236360Y-122717878D01*
X125225786Y-122719915D01*
X125206797Y-122721491D01*
X125177974Y-122722659D01*
X125137897Y-122723473D01*
X125085147Y-122723987D01*
X125018304Y-122724256D01*
X124935947Y-122724333D01*
X124620866Y-122724333D01*
X124620866Y-122919209D01*
X124146733Y-122919209D01*
X124146733Y-119862659D01*
X124597687Y-119862659D01*
X124612555Y-119952107D01*
X124619276Y-119975836D01*
X124650674Y-120051053D01*
X124694131Y-120115010D01*
X124748884Y-120166939D01*
X124814173Y-120206071D01*
X124889237Y-120231636D01*
X124934643Y-120242191D01*
X124932271Y-120139704D01*
X124929900Y-120037217D01*
X124901755Y-120029937D01*
X124890140Y-120025680D01*
X124860450Y-120006588D01*
X124830379Y-119978185D01*
X124804218Y-119944886D01*
X124786256Y-119911105D01*
X124785033Y-119907754D01*
X124775983Y-119864465D01*
X124774724Y-119814420D01*
X124780937Y-119765032D01*
X124794305Y-119723718D01*
X124800568Y-119711723D01*
X124837043Y-119663916D01*
X124886991Y-119626141D01*
X124950159Y-119598550D01*
X125026297Y-119581299D01*
X125032626Y-119580415D01*
X125089355Y-119577229D01*
X125110728Y-119576029D01*
X125183749Y-119583732D01*
X125249759Y-119602780D01*
X125306830Y-119632425D01*
X125353034Y-119671923D01*
X125386441Y-119720528D01*
X125390583Y-119729576D01*
X125404149Y-119776995D01*
X125409071Y-119830071D01*
X125405164Y-119882180D01*
X125392240Y-119926699D01*
X125371701Y-119959782D01*
X125332683Y-119996326D01*
X125281371Y-120024950D01*
X125219883Y-120044208D01*
X125196600Y-120049189D01*
X125196600Y-120245969D01*
X125241050Y-120241308D01*
X125286537Y-120233510D01*
X125358534Y-120208209D01*
X125424239Y-120169001D01*
X125481468Y-120117629D01*
X125528035Y-120055836D01*
X125561756Y-119985367D01*
X125564596Y-119976711D01*
X125574358Y-119932584D01*
X125580784Y-119879183D01*
X125583538Y-119822464D01*
X125582280Y-119768384D01*
X125576671Y-119722900D01*
X125574897Y-119714575D01*
X125549507Y-119638953D01*
X125509572Y-119569240D01*
X125456820Y-119507170D01*
X125392978Y-119454475D01*
X125319773Y-119412888D01*
X125238933Y-119384140D01*
X125238075Y-119383920D01*
X125187072Y-119374960D01*
X125126371Y-119370498D01*
X125062469Y-119370534D01*
X125001868Y-119375070D01*
X124951066Y-119384105D01*
X124894988Y-119401836D01*
X124815379Y-119440111D01*
X124746753Y-119489915D01*
X124689947Y-119549843D01*
X124645799Y-119618487D01*
X124615147Y-119694442D01*
X124598831Y-119776302D01*
X124597687Y-119862659D01*
X124146733Y-119862659D01*
X124146733Y-118423267D01*
X124620360Y-118423267D01*
X124625100Y-118636493D01*
X124928468Y-118825205D01*
X124962487Y-118846389D01*
X125025398Y-118885687D01*
X125083193Y-118921948D01*
X125134327Y-118954191D01*
X125177253Y-118981437D01*
X125210423Y-119002705D01*
X125232292Y-119017017D01*
X125241311Y-119023392D01*
X125241714Y-119024342D01*
X125236002Y-119026787D01*
X125219270Y-119028772D01*
X125190533Y-119030328D01*
X125148805Y-119031484D01*
X125093101Y-119032273D01*
X125022437Y-119032723D01*
X124935826Y-119032867D01*
X124620866Y-119032867D01*
X124620866Y-119227742D01*
X125092883Y-119225555D01*
X125126371Y-119225400D01*
X125564900Y-119223367D01*
X125569624Y-119019639D01*
X125249762Y-118820936D01*
X124929900Y-118622234D01*
X125249516Y-118620015D01*
X125569133Y-118617797D01*
X125569133Y-118526176D01*
X125568816Y-118495661D01*
X125567636Y-118462703D01*
X125565788Y-118439208D01*
X125563488Y-118428911D01*
X125559471Y-118428238D01*
X125540254Y-118427223D01*
X125506633Y-118426284D01*
X125460156Y-118425439D01*
X125402370Y-118424706D01*
X125334824Y-118424104D01*
X125259065Y-118423651D01*
X125176642Y-118423366D01*
X125089102Y-118423267D01*
X124620360Y-118423267D01*
X124146733Y-118423267D01*
X124146733Y-115528009D01*
X124620866Y-115528009D01*
X124620866Y-115762535D01*
X124802900Y-115870274D01*
X124843091Y-115894201D01*
X124888913Y-115921855D01*
X124927952Y-115945837D01*
X124958249Y-115964927D01*
X124977847Y-115977907D01*
X124984788Y-115983556D01*
X124980426Y-115987280D01*
X124963277Y-115998647D01*
X124934974Y-116016306D01*
X124897493Y-116039047D01*
X124852809Y-116065659D01*
X124802900Y-116094933D01*
X124621157Y-116200767D01*
X124621011Y-116317683D01*
X124621043Y-116332278D01*
X124621690Y-116372082D01*
X124623042Y-116403706D01*
X124624937Y-116424233D01*
X124627216Y-116430745D01*
X124627893Y-116430335D01*
X124639323Y-116423424D01*
X124663285Y-116408939D01*
X124698175Y-116387850D01*
X124742390Y-116361127D01*
X124794324Y-116329738D01*
X124852375Y-116294654D01*
X124914938Y-116256844D01*
X125196310Y-116086798D01*
X125380605Y-116084516D01*
X125564900Y-116082233D01*
X125567277Y-115978517D01*
X125569654Y-115874800D01*
X125196348Y-115874800D01*
X124908607Y-115701404D01*
X124620866Y-115528009D01*
X124146733Y-115528009D01*
X124146733Y-114697934D01*
X124620866Y-114697934D01*
X124620998Y-114958283D01*
X124621017Y-114977853D01*
X124621377Y-115058398D01*
X124622362Y-115124486D01*
X124624204Y-115178149D01*
X124627138Y-115221420D01*
X124631396Y-115256330D01*
X124637212Y-115284911D01*
X124644820Y-115309196D01*
X124654453Y-115331218D01*
X124666344Y-115353007D01*
X124687997Y-115383023D01*
X124725157Y-115413456D01*
X124772728Y-115432542D01*
X124832549Y-115441256D01*
X124864171Y-115442148D01*
X124915805Y-115437294D01*
X124957847Y-115422428D01*
X124993950Y-115395958D01*
X125027769Y-115356296D01*
X125051849Y-115323055D01*
X125065371Y-115355511D01*
X125080816Y-115384823D01*
X125117257Y-115427068D01*
X125164676Y-115459630D01*
X125220278Y-115480783D01*
X125281266Y-115488800D01*
X125318956Y-115487788D01*
X125372845Y-115478410D01*
X125419270Y-115458043D01*
X125462738Y-115425107D01*
X125481956Y-115405864D01*
X125518685Y-115354710D01*
X125544373Y-115293519D01*
X125560045Y-115220138D01*
X125562119Y-115198999D01*
X125564387Y-115160605D01*
X125566319Y-115110984D01*
X125567818Y-115053253D01*
X125568788Y-114990527D01*
X125569133Y-114925921D01*
X125569133Y-114697934D01*
X124620866Y-114697934D01*
X124146733Y-114697934D01*
X124146733Y-113478317D01*
X124185965Y-113455242D01*
X124199456Y-113447253D01*
X124366115Y-113339471D01*
X124523964Y-113220399D01*
X124620360Y-113135977D01*
X124620866Y-113135534D01*
X124670596Y-113091982D01*
X124803604Y-112956165D01*
X124931281Y-112803257D01*
X125050381Y-112635271D01*
X125155159Y-112459006D01*
X125245221Y-112275359D01*
X125320176Y-112085224D01*
X125379629Y-111889494D01*
X125423187Y-111689066D01*
X125450458Y-111484834D01*
X125452682Y-111455620D01*
X125455437Y-111397373D01*
X125457105Y-111329894D01*
X125457695Y-111257538D01*
X125457217Y-111184662D01*
X125455679Y-111115621D01*
X125453091Y-111054771D01*
X125449461Y-111006467D01*
X125431352Y-110869640D01*
X125396463Y-110693083D01*
X125349368Y-110517495D01*
X125291162Y-110346389D01*
X125222938Y-110183275D01*
X125145791Y-110031665D01*
X125136105Y-110014544D01*
X125044628Y-109865220D01*
X124946077Y-109726722D01*
X124837204Y-109594781D01*
X124714763Y-109465129D01*
X124667257Y-109418627D01*
X124559034Y-109319773D01*
X124451304Y-109231966D01*
X124339940Y-109151958D01*
X124220816Y-109076502D01*
X124146733Y-109032269D01*
X124146733Y-108415525D01*
X122180350Y-108417713D01*
X120213966Y-108419900D01*
X120176194Y-108441067D01*
X120148912Y-108459900D01*
X120113540Y-108500202D01*
X120091335Y-108550138D01*
X120091164Y-108551917D01*
X120090710Y-108568146D01*
X120090269Y-108600701D01*
X120089840Y-108649138D01*
X120089423Y-108713013D01*
X120089018Y-108791883D01*
X120088625Y-108885305D01*
X120088245Y-108992835D01*
X120087876Y-109114030D01*
X120087520Y-109248447D01*
X120087176Y-109395641D01*
X120086844Y-109555169D01*
X120086524Y-109726589D01*
X120086216Y-109909456D01*
X120085921Y-110103327D01*
X120085637Y-110307758D01*
X120085366Y-110522307D01*
X120085107Y-110746530D01*
X120084860Y-110979983D01*
X120084625Y-111222222D01*
X120084403Y-111472805D01*
X120084192Y-111731288D01*
X120083994Y-111997227D01*
X120083808Y-112270179D01*
X120083634Y-112549701D01*
X120083472Y-112835349D01*
X120083322Y-113126680D01*
X120083185Y-113423250D01*
X120083059Y-113724615D01*
X120082946Y-114030333D01*
X120082845Y-114339960D01*
X120082756Y-114653052D01*
X120082680Y-114969166D01*
X120082615Y-115287858D01*
X120082563Y-115608686D01*
X120082522Y-115931205D01*
X120082494Y-116254972D01*
X120082478Y-116579544D01*
X120082474Y-116904477D01*
X119943033Y-116904477D01*
X119943033Y-108513033D01*
X119965724Y-108464621D01*
X119971557Y-108452850D01*
X120011620Y-108393105D01*
X120063677Y-108342026D01*
X120123999Y-108303410D01*
X120179742Y-108275967D01*
X123038334Y-108273801D01*
X124146733Y-108272962D01*
G37*
G36*
X125399800Y-115049637D02*
G01*
X125399797Y-115056603D01*
X125399537Y-115108040D01*
X125398628Y-115145964D01*
X125396763Y-115173443D01*
X125393636Y-115193539D01*
X125388940Y-115209318D01*
X125382367Y-115223845D01*
X125376920Y-115233222D01*
X125349883Y-115260783D01*
X125314774Y-115277122D01*
X125275289Y-115282158D01*
X125235127Y-115275807D01*
X125197987Y-115257989D01*
X125167568Y-115228620D01*
X125164538Y-115224271D01*
X125158876Y-115213584D01*
X125154759Y-115199693D01*
X125151860Y-115179851D01*
X125149854Y-115151314D01*
X125148415Y-115111336D01*
X125147217Y-115057170D01*
X125144401Y-114909600D01*
X125399800Y-114909600D01*
X125399800Y-115049637D01*
G37*
G36*
X122011439Y-117740661D02*
G01*
X122080866Y-117737467D01*
X122097085Y-117737533D01*
X122264098Y-117746383D01*
X122423880Y-117770311D01*
X122577168Y-117809588D01*
X122724699Y-117864482D01*
X122867211Y-117935265D01*
X123005441Y-118022207D01*
X123140127Y-118125577D01*
X123243349Y-118219305D01*
X123356530Y-118341889D01*
X123455987Y-118473304D01*
X123541246Y-118612665D01*
X123611834Y-118759085D01*
X123667278Y-118911678D01*
X123707103Y-119069556D01*
X123730837Y-119231834D01*
X123738271Y-119362591D01*
X123733168Y-119529982D01*
X123711627Y-119694251D01*
X123673875Y-119854649D01*
X123620138Y-120010428D01*
X123550640Y-120160840D01*
X123465610Y-120305136D01*
X123365272Y-120442567D01*
X123351211Y-120459541D01*
X123304929Y-120511251D01*
X123250782Y-120567082D01*
X123192440Y-120623549D01*
X123133571Y-120677169D01*
X123077846Y-120724458D01*
X123028932Y-120761931D01*
X123004743Y-120778747D01*
X122868993Y-120861319D01*
X122726291Y-120928705D01*
X122576382Y-120980983D01*
X122419011Y-121018229D01*
X122253924Y-121040520D01*
X122080866Y-121047934D01*
X122065109Y-121047876D01*
X121893630Y-121039341D01*
X121730422Y-121016180D01*
X121574911Y-120978189D01*
X121426520Y-120925166D01*
X121284672Y-120856907D01*
X121148790Y-120773210D01*
X121018300Y-120673872D01*
X120997110Y-120655854D01*
X120873135Y-120538308D01*
X120763797Y-120412385D01*
X120669222Y-120278307D01*
X120589537Y-120136294D01*
X120524869Y-119986568D01*
X120475344Y-119829350D01*
X120441088Y-119664861D01*
X120435034Y-119616154D01*
X120429974Y-119549133D01*
X120426894Y-119473979D01*
X120425794Y-119394851D01*
X120426601Y-119322346D01*
X120727055Y-119322346D01*
X120727363Y-119372235D01*
X120728738Y-119435034D01*
X120730094Y-119479453D01*
X120733150Y-119544887D01*
X120737341Y-119598475D01*
X120742947Y-119643432D01*
X120750246Y-119682975D01*
X120760481Y-119726884D01*
X120802719Y-119865176D01*
X120858620Y-119994835D01*
X120928920Y-120117198D01*
X121014356Y-120233601D01*
X121115666Y-120345381D01*
X121127270Y-120356934D01*
X121234709Y-120454608D01*
X121344011Y-120536652D01*
X121457372Y-120604231D01*
X121576992Y-120658513D01*
X121705069Y-120700664D01*
X121843799Y-120731851D01*
X121855961Y-120733907D01*
X121919097Y-120741366D01*
X121991553Y-120745686D01*
X122069600Y-120746991D01*
X122149507Y-120745407D01*
X122227548Y-120741060D01*
X122299994Y-120734075D01*
X122363115Y-120724577D01*
X122413183Y-120712692D01*
X122421100Y-120709338D01*
X122427844Y-120702346D01*
X122427840Y-120702126D01*
X122427786Y-120701069D01*
X122427389Y-120699349D01*
X122426265Y-120696096D01*
X122424029Y-120690438D01*
X122420295Y-120681506D01*
X122414678Y-120668427D01*
X122406793Y-120650331D01*
X122396255Y-120626347D01*
X122382679Y-120595605D01*
X122365679Y-120557232D01*
X122344870Y-120510359D01*
X122319867Y-120454114D01*
X122290286Y-120387627D01*
X122255740Y-120310025D01*
X122215844Y-120220440D01*
X122170215Y-120117999D01*
X122118465Y-120001831D01*
X122060211Y-119871067D01*
X122042734Y-119831853D01*
X122000176Y-119736518D01*
X121959686Y-119646026D01*
X121921797Y-119561556D01*
X121887043Y-119484292D01*
X121855958Y-119415415D01*
X121829076Y-119356106D01*
X121806931Y-119307546D01*
X121790056Y-119270919D01*
X121778986Y-119247404D01*
X121774254Y-119238184D01*
X121762243Y-119231095D01*
X121738018Y-119227996D01*
X121709391Y-119231174D01*
X121682595Y-119240475D01*
X121673556Y-119246139D01*
X121649255Y-119273111D01*
X121630436Y-119312350D01*
X121617990Y-119360765D01*
X121612805Y-119415262D01*
X121615772Y-119472749D01*
X121618489Y-119491847D01*
X121630499Y-119546248D01*
X121649779Y-119598956D01*
X121678669Y-119656817D01*
X121707584Y-119709422D01*
X121596022Y-119814988D01*
X121562108Y-119846548D01*
X121529875Y-119875443D01*
X121503594Y-119897831D01*
X121485332Y-119911950D01*
X121477160Y-119916044D01*
X121470786Y-119910023D01*
X121456270Y-119890367D01*
X121438305Y-119861702D01*
X121419160Y-119827914D01*
X121401101Y-119792886D01*
X121386395Y-119760504D01*
X121364493Y-119698636D01*
X121344633Y-119622751D01*
X121331388Y-119547217D01*
X121326295Y-119507000D01*
X121072778Y-119507000D01*
X121077566Y-119316500D01*
X121326650Y-119311818D01*
X121331930Y-119280292D01*
X121337192Y-119252109D01*
X121362930Y-119160179D01*
X121399635Y-119079512D01*
X121446801Y-119010887D01*
X121503922Y-118955084D01*
X121570493Y-118912881D01*
X121587987Y-118903959D01*
X121608444Y-118891580D01*
X121616996Y-118882009D01*
X121616123Y-118873081D01*
X121615929Y-118872690D01*
X121610373Y-118860612D01*
X121598849Y-118835021D01*
X121582158Y-118797711D01*
X121561101Y-118750478D01*
X121536478Y-118695118D01*
X121509090Y-118633427D01*
X121479738Y-118567200D01*
X121476329Y-118559504D01*
X121447235Y-118494043D01*
X121420209Y-118433601D01*
X121396044Y-118379925D01*
X121375531Y-118334760D01*
X121359463Y-118299854D01*
X121348634Y-118276953D01*
X121343836Y-118267802D01*
X121338313Y-118267298D01*
X121321321Y-118275378D01*
X121295592Y-118292507D01*
X121263162Y-118317056D01*
X121226071Y-118347398D01*
X121186355Y-118381903D01*
X121146052Y-118418943D01*
X121107200Y-118456892D01*
X121049735Y-118518204D01*
X120957988Y-118633361D01*
X120881801Y-118754526D01*
X120820690Y-118882632D01*
X120774174Y-119018611D01*
X120741769Y-119163397D01*
X120740334Y-119171900D01*
X120734454Y-119210145D01*
X120730409Y-119245302D01*
X120728007Y-119281369D01*
X120727055Y-119322346D01*
X120426601Y-119322346D01*
X120426673Y-119315908D01*
X120429530Y-119241307D01*
X120434365Y-119175207D01*
X120441177Y-119121767D01*
X120454422Y-119051922D01*
X120496385Y-118889510D01*
X120552553Y-118736116D01*
X120623137Y-118591389D01*
X120708342Y-118454980D01*
X120808380Y-118326537D01*
X120923457Y-118205711D01*
X121033036Y-118110228D01*
X121646313Y-118110228D01*
X121650382Y-118122590D01*
X121660781Y-118149051D01*
X121677044Y-118188529D01*
X121698707Y-118239946D01*
X121725303Y-118302221D01*
X121756368Y-118374273D01*
X121791436Y-118455022D01*
X121830042Y-118543389D01*
X121871722Y-118638294D01*
X121916009Y-118738655D01*
X121962439Y-118843393D01*
X121980218Y-118883395D01*
X122037727Y-119012509D01*
X122088864Y-119126850D01*
X122133906Y-119227012D01*
X122173129Y-119313591D01*
X122206807Y-119387182D01*
X122235217Y-119448380D01*
X122258635Y-119497780D01*
X122277335Y-119535977D01*
X122291594Y-119563567D01*
X122301687Y-119581145D01*
X122307890Y-119589305D01*
X122322620Y-119599711D01*
X122362220Y-119614294D01*
X122405611Y-119615356D01*
X122448668Y-119603160D01*
X122487261Y-119577965D01*
X122510658Y-119552013D01*
X122531209Y-119512789D01*
X122542823Y-119463611D01*
X122546408Y-119401775D01*
X122546407Y-119401325D01*
X122540104Y-119315102D01*
X122520823Y-119236721D01*
X122487327Y-119162605D01*
X122438382Y-119089180D01*
X122400323Y-119039661D01*
X122492478Y-118946770D01*
X122507861Y-118931358D01*
X122541199Y-118898572D01*
X122571068Y-118869991D01*
X122594684Y-118848255D01*
X122609264Y-118836004D01*
X122633894Y-118818128D01*
X122661944Y-118851414D01*
X122683864Y-118879810D01*
X122724059Y-118944322D01*
X122760293Y-119018068D01*
X122790482Y-119096005D01*
X122812539Y-119173091D01*
X122824382Y-119244284D01*
X122830166Y-119308034D01*
X123084166Y-119316500D01*
X123088950Y-119506556D01*
X122959666Y-119508895D01*
X122830381Y-119511234D01*
X122823978Y-119555789D01*
X122818941Y-119584704D01*
X122794349Y-119667733D01*
X122756641Y-119744705D01*
X122707438Y-119813598D01*
X122648360Y-119872387D01*
X122581027Y-119919049D01*
X122507060Y-119951561D01*
X122463354Y-119965663D01*
X122503492Y-120055948D01*
X122515833Y-120083721D01*
X122535149Y-120127214D01*
X122558674Y-120180201D01*
X122584990Y-120239490D01*
X122612682Y-120301889D01*
X122640331Y-120364207D01*
X122644445Y-120373468D01*
X122669375Y-120429081D01*
X122692120Y-120478978D01*
X122711759Y-120521200D01*
X122727370Y-120553788D01*
X122738034Y-120574782D01*
X122742828Y-120582223D01*
X122754884Y-120577652D01*
X122777692Y-120563991D01*
X122808225Y-120543204D01*
X122843831Y-120517279D01*
X122881855Y-120488199D01*
X122919643Y-120457950D01*
X122954542Y-120428518D01*
X122983897Y-120401887D01*
X123073217Y-120310540D01*
X123170293Y-120193239D01*
X123251471Y-120071742D01*
X123317222Y-119945117D01*
X123368016Y-119812432D01*
X123404324Y-119672755D01*
X123426618Y-119525153D01*
X123431709Y-119458474D01*
X123431055Y-119310540D01*
X123414174Y-119164398D01*
X123381441Y-119021489D01*
X123333234Y-118883254D01*
X123269927Y-118751133D01*
X123191899Y-118626568D01*
X123169792Y-118597046D01*
X123123629Y-118541688D01*
X123069396Y-118482416D01*
X123010647Y-118422788D01*
X122950939Y-118366362D01*
X122893827Y-118316694D01*
X122842866Y-118277344D01*
X122797754Y-118247290D01*
X122726401Y-118205074D01*
X122650754Y-118165439D01*
X122576454Y-118131289D01*
X122509136Y-118105525D01*
X122458993Y-118089930D01*
X122312980Y-118056409D01*
X122163697Y-118039451D01*
X122011439Y-118039078D01*
X121856499Y-118055312D01*
X121849833Y-118056384D01*
X121807268Y-118064213D01*
X121763362Y-118073686D01*
X121721714Y-118083875D01*
X121685928Y-118093852D01*
X121659605Y-118102689D01*
X121646347Y-118109458D01*
X121646313Y-118110228D01*
X121033036Y-118110228D01*
X121053783Y-118092150D01*
X121149681Y-118020881D01*
X121289654Y-117934177D01*
X121338313Y-117910548D01*
X121435620Y-117863295D01*
X121587652Y-117808207D01*
X121745821Y-117768890D01*
X121910202Y-117745318D01*
X122011439Y-117740661D01*
G37*
G36*
X121970799Y-123748800D02*
G01*
X121682820Y-123748800D01*
X121687166Y-122542300D01*
X121828983Y-122539979D01*
X121970799Y-122537657D01*
X121970799Y-123748800D01*
G37*
G36*
X122023810Y-114011560D02*
G01*
X122035996Y-114010754D01*
X122194624Y-114013737D01*
X122350527Y-114030117D01*
X122499891Y-114059893D01*
X122515012Y-114063793D01*
X122660558Y-114110760D01*
X122802510Y-114173457D01*
X122939603Y-114250923D01*
X123070574Y-114342197D01*
X123194158Y-114446319D01*
X123309091Y-114562327D01*
X123414109Y-114689261D01*
X123507948Y-114826160D01*
X123568766Y-114935297D01*
X123628420Y-115070779D01*
X123676123Y-115213969D01*
X123710837Y-115361682D01*
X123731522Y-115510733D01*
X123738380Y-115649582D01*
X123731688Y-115816380D01*
X123708819Y-115979844D01*
X123670138Y-116139099D01*
X123616012Y-116293270D01*
X123546805Y-116441483D01*
X123462885Y-116582862D01*
X123364617Y-116716535D01*
X123252366Y-116841624D01*
X123126500Y-116957257D01*
X123122470Y-116960609D01*
X122992813Y-117057254D01*
X122854961Y-117139286D01*
X122709584Y-117206511D01*
X122557357Y-117258735D01*
X122398950Y-117295763D01*
X122235037Y-117317402D01*
X122066289Y-117323456D01*
X121893380Y-117313730D01*
X121826573Y-117305601D01*
X121664937Y-117274254D01*
X121508844Y-117227303D01*
X121359132Y-117165290D01*
X121216637Y-117088753D01*
X121082196Y-116998233D01*
X120956648Y-116894268D01*
X120840830Y-116777399D01*
X120735578Y-116648165D01*
X120641730Y-116507105D01*
X120599224Y-116430592D01*
X120536902Y-116292147D01*
X120488011Y-116146199D01*
X120452616Y-115994605D01*
X120430778Y-115839221D01*
X120422562Y-115681903D01*
X120424925Y-115613882D01*
X120726633Y-115613882D01*
X120727148Y-115689016D01*
X120730036Y-115765721D01*
X120735133Y-115839392D01*
X120742274Y-115905425D01*
X120751294Y-115959216D01*
X120776679Y-116058815D01*
X120825451Y-116194583D01*
X120889443Y-116324018D01*
X120969076Y-116447934D01*
X121064770Y-116567145D01*
X121135213Y-116641294D01*
X121244065Y-116737027D01*
X121362386Y-116819787D01*
X121492433Y-116891285D01*
X121513755Y-116901449D01*
X121620781Y-116945993D01*
X121728266Y-116979248D01*
X121839795Y-117001981D01*
X121958955Y-117014959D01*
X122089333Y-117018949D01*
X122200325Y-117015017D01*
X122348571Y-116996897D01*
X122488907Y-116963886D01*
X122621763Y-116915788D01*
X122747570Y-116852410D01*
X122866756Y-116773558D01*
X122979752Y-116679038D01*
X123086988Y-116568656D01*
X123166482Y-116471242D01*
X123249482Y-116347733D01*
X123316618Y-116219221D01*
X123368297Y-116084776D01*
X123404928Y-115943468D01*
X123426919Y-115794367D01*
X123429960Y-115757377D01*
X123432150Y-115615473D01*
X123419821Y-115474024D01*
X123393394Y-115336391D01*
X123353288Y-115205933D01*
X123352462Y-115203717D01*
X123306827Y-115094881D01*
X123253988Y-114995002D01*
X123191683Y-114900649D01*
X123117653Y-114808392D01*
X123029634Y-114714798D01*
X122957952Y-114646131D01*
X122889079Y-114586715D01*
X122821581Y-114536070D01*
X122751634Y-114491335D01*
X122675419Y-114449649D01*
X122586307Y-114408476D01*
X122449960Y-114360571D01*
X122309767Y-114328215D01*
X122167219Y-114311318D01*
X122023810Y-114309791D01*
X121881032Y-114323542D01*
X121740378Y-114352484D01*
X121603341Y-114396525D01*
X121471412Y-114455577D01*
X121346085Y-114529550D01*
X121242284Y-114605285D01*
X121126871Y-114706919D01*
X121024967Y-114817541D01*
X120937031Y-114936434D01*
X120863524Y-115062885D01*
X120804905Y-115196178D01*
X120761635Y-115335598D01*
X120734174Y-115480431D01*
X120733381Y-115486743D01*
X120728656Y-115544923D01*
X120726633Y-115613882D01*
X120424925Y-115613882D01*
X120428030Y-115524507D01*
X120447246Y-115368889D01*
X120480274Y-115216907D01*
X120527175Y-115070415D01*
X120588015Y-114931270D01*
X120659352Y-114804220D01*
X120751106Y-114671562D01*
X120855152Y-114548051D01*
X120970167Y-114434759D01*
X121094828Y-114332760D01*
X121227810Y-114243127D01*
X121367791Y-114166935D01*
X121513445Y-114105257D01*
X121663450Y-114059166D01*
X121725828Y-114044998D01*
X121878459Y-114021174D01*
X122023810Y-114011560D01*
G37*
G36*
X122504200Y-123748800D02*
G01*
X122216220Y-123748800D01*
X122220566Y-122542300D01*
X122362383Y-122539979D01*
X122504200Y-122537657D01*
X122504200Y-123748800D01*
G37*
G36*
X122790445Y-109989394D02*
G01*
X122868690Y-109995446D01*
X122937874Y-110006856D01*
X122996405Y-110022878D01*
X123089817Y-110061380D01*
X123174883Y-110113265D01*
X123249266Y-110177253D01*
X123297086Y-110231915D01*
X123349693Y-110312854D01*
X123388597Y-110402648D01*
X123414511Y-110502700D01*
X123416021Y-110511542D01*
X123420953Y-110551666D01*
X123424511Y-110598067D01*
X123426007Y-110642400D01*
X123426023Y-110647218D01*
X123419200Y-110756237D01*
X123398381Y-110856062D01*
X123363297Y-110947399D01*
X123313682Y-111030951D01*
X123249266Y-111107424D01*
X123237256Y-111119177D01*
X123208860Y-111144662D01*
X123177174Y-111170882D01*
X123145375Y-111195428D01*
X123116641Y-111215891D01*
X123094152Y-111229861D01*
X123081085Y-111234929D01*
X123076342Y-111228652D01*
X123065221Y-111210092D01*
X123049373Y-111182140D01*
X123030366Y-111147711D01*
X123009768Y-111109721D01*
X122989146Y-111071086D01*
X122970068Y-111034720D01*
X122954101Y-111003539D01*
X122942814Y-110980459D01*
X122937773Y-110968396D01*
X122938796Y-110964522D01*
X122950436Y-110953863D01*
X122971130Y-110942397D01*
X123004159Y-110923122D01*
X123045602Y-110887254D01*
X123080745Y-110844110D01*
X123104602Y-110799044D01*
X123108970Y-110785679D01*
X123118247Y-110739122D01*
X123122372Y-110686311D01*
X123121018Y-110634591D01*
X123113858Y-110591308D01*
X123109893Y-110578663D01*
X123083084Y-110526074D01*
X123042835Y-110480046D01*
X122991679Y-110443003D01*
X122932149Y-110417369D01*
X122925297Y-110415346D01*
X122847435Y-110399229D01*
X122761607Y-110392071D01*
X122673446Y-110393788D01*
X122588588Y-110404299D01*
X122512666Y-110423520D01*
X122500200Y-110428154D01*
X122449700Y-110455492D01*
X122405106Y-110492830D01*
X122370089Y-110536602D01*
X122348319Y-110583240D01*
X122339660Y-110618396D01*
X122333715Y-110687848D01*
X122343522Y-110752307D01*
X122368712Y-110810745D01*
X122408918Y-110862137D01*
X122463770Y-110905453D01*
X122484900Y-110918720D01*
X122503071Y-110930150D01*
X122511052Y-110935197D01*
X122510322Y-110939471D01*
X122503350Y-110956295D01*
X122490712Y-110983213D01*
X122473858Y-111017432D01*
X122454241Y-111056156D01*
X122433310Y-111096591D01*
X122412518Y-111135941D01*
X122393315Y-111171412D01*
X122377153Y-111200209D01*
X122365482Y-111219537D01*
X122359755Y-111226600D01*
X122345420Y-111221664D01*
X122321442Y-111207056D01*
X122291547Y-111185187D01*
X122258856Y-111158488D01*
X122226495Y-111129390D01*
X122197586Y-111100327D01*
X122193582Y-111095955D01*
X122139113Y-111024873D01*
X122095755Y-110943526D01*
X122062386Y-110849834D01*
X122058163Y-110834499D01*
X122051671Y-110806344D01*
X122047289Y-110777551D01*
X122044626Y-110744050D01*
X122043291Y-110701768D01*
X122042893Y-110646634D01*
X122043013Y-110604141D01*
X122043866Y-110560551D01*
X122045865Y-110527008D01*
X122049395Y-110499613D01*
X122054843Y-110474466D01*
X122062594Y-110447667D01*
X122073819Y-110414541D01*
X122117430Y-110318676D01*
X122173866Y-110233209D01*
X122242240Y-110159002D01*
X122321666Y-110096916D01*
X122411257Y-110047815D01*
X122510127Y-110012559D01*
X122554929Y-110002672D01*
X122628208Y-109993078D01*
X122708499Y-109988629D01*
X122790445Y-109989394D01*
G37*
G36*
X122766215Y-109026745D02*
G01*
X122813477Y-109026877D01*
X122887659Y-109029003D01*
X122950305Y-109033131D01*
X123078938Y-109048827D01*
X123266367Y-109085613D01*
X123448057Y-109138307D01*
X123623779Y-109206816D01*
X123793307Y-109291048D01*
X123956412Y-109390910D01*
X124112866Y-109506309D01*
X124157518Y-109544051D01*
X124213752Y-109595096D01*
X124274051Y-109652740D01*
X124334968Y-109713537D01*
X124393059Y-109774044D01*
X124444877Y-109830813D01*
X124486977Y-109880400D01*
X124546508Y-109957774D01*
X124650771Y-110112764D01*
X124741037Y-110274680D01*
X124816719Y-110442149D01*
X124877231Y-110613796D01*
X124921983Y-110788249D01*
X124950390Y-110964134D01*
X124952426Y-110982015D01*
X124956675Y-111019249D01*
X124960238Y-111050348D01*
X124962501Y-111069967D01*
X124963164Y-111076531D01*
X124965077Y-111110020D01*
X124966225Y-111155616D01*
X124966640Y-111209545D01*
X124966357Y-111268035D01*
X124965410Y-111327312D01*
X124963831Y-111383603D01*
X124961654Y-111433134D01*
X124958914Y-111472134D01*
X124957695Y-111484905D01*
X124930614Y-111677346D01*
X124887757Y-111863646D01*
X124829120Y-112043812D01*
X124754701Y-112217849D01*
X124664496Y-112385766D01*
X124558502Y-112547569D01*
X124436715Y-112703265D01*
X124299133Y-112852860D01*
X124275896Y-112875957D01*
X124133229Y-113004836D01*
X123983706Y-113118332D01*
X123827182Y-113216502D01*
X123663509Y-113299407D01*
X123492542Y-113367105D01*
X123314134Y-113419656D01*
X123128138Y-113457120D01*
X122934409Y-113479554D01*
X122732800Y-113487019D01*
X122692212Y-113486722D01*
X122491952Y-113476141D01*
X122299124Y-113450360D01*
X122113584Y-113409321D01*
X121935191Y-113352964D01*
X121763801Y-113281233D01*
X121599271Y-113194067D01*
X121441458Y-113091410D01*
X121290220Y-112973203D01*
X121145412Y-112839387D01*
X121137945Y-112831889D01*
X121004942Y-112686773D01*
X120887618Y-112535320D01*
X120785841Y-112377247D01*
X120699476Y-112212267D01*
X120628389Y-112040098D01*
X120572448Y-111860454D01*
X120531517Y-111673051D01*
X120505464Y-111477604D01*
X120504917Y-111471500D01*
X120501371Y-111413342D01*
X120499475Y-111343971D01*
X120499141Y-111267403D01*
X120499240Y-111260467D01*
X120903999Y-111260467D01*
X120909663Y-111420827D01*
X120929285Y-111590290D01*
X120962960Y-111750521D01*
X121010714Y-111901670D01*
X121037092Y-111967929D01*
X121109103Y-112117735D01*
X121195044Y-112260594D01*
X121293740Y-112395432D01*
X121404014Y-112521178D01*
X121524689Y-112636758D01*
X121654587Y-112741101D01*
X121792533Y-112833133D01*
X121937348Y-112911782D01*
X122087857Y-112975976D01*
X122242882Y-113024641D01*
X122284526Y-113034850D01*
X122445550Y-113064738D01*
X122611475Y-113081281D01*
X122779199Y-113084510D01*
X122945617Y-113074455D01*
X123107626Y-113051148D01*
X123262122Y-113014618D01*
X123392402Y-112971837D01*
X123530449Y-112913162D01*
X123660815Y-112842322D01*
X123785436Y-112758127D01*
X123906250Y-112659383D01*
X124025194Y-112544898D01*
X124119766Y-112441049D01*
X124228806Y-112302139D01*
X124321814Y-112158848D01*
X124399126Y-112010513D01*
X124461077Y-111856471D01*
X124508004Y-111696057D01*
X124540244Y-111528609D01*
X124543037Y-111507732D01*
X124549427Y-111443241D01*
X124554121Y-111370214D01*
X124556970Y-111293710D01*
X124557826Y-111218786D01*
X124556541Y-111150502D01*
X124552966Y-111093916D01*
X124547170Y-111041190D01*
X124518134Y-110868473D01*
X124474313Y-110703587D01*
X124415458Y-110546011D01*
X124341324Y-110395226D01*
X124251664Y-110250710D01*
X124146230Y-110111941D01*
X124024777Y-109978400D01*
X124022368Y-109975965D01*
X123889072Y-109852599D01*
X123749220Y-109744822D01*
X123602857Y-109652656D01*
X123450025Y-109576122D01*
X123290768Y-109515243D01*
X123125130Y-109470040D01*
X122953155Y-109440535D01*
X122913854Y-109436663D01*
X122844324Y-109432899D01*
X122766215Y-109431494D01*
X122684424Y-109432373D01*
X122603845Y-109435461D01*
X122529375Y-109440684D01*
X122465910Y-109447967D01*
X122450441Y-109450306D01*
X122283672Y-109483991D01*
X122124055Y-109532288D01*
X121970964Y-109595525D01*
X121823776Y-109674033D01*
X121681868Y-109768141D01*
X121544615Y-109878176D01*
X121411395Y-110004470D01*
X121357692Y-110061132D01*
X121268017Y-110165563D01*
X121190880Y-110270298D01*
X121123880Y-110378726D01*
X121064619Y-110494234D01*
X121059344Y-110505616D01*
X121002102Y-110646072D01*
X120958440Y-110789427D01*
X120927866Y-110938039D01*
X120909884Y-111094266D01*
X120903999Y-111260467D01*
X120499240Y-111260467D01*
X120500281Y-111187654D01*
X120502805Y-111108741D01*
X120506627Y-111034681D01*
X120511656Y-110969489D01*
X120517805Y-110917183D01*
X120538847Y-110796687D01*
X120583454Y-110612948D01*
X120642092Y-110438167D01*
X120715142Y-110271602D01*
X120802987Y-110112512D01*
X120906007Y-109960157D01*
X121024584Y-109813797D01*
X121159101Y-109672689D01*
X121173491Y-109658755D01*
X121258711Y-109579332D01*
X121339548Y-109510073D01*
X121420326Y-109447605D01*
X121505373Y-109388551D01*
X121599015Y-109329538D01*
X121711479Y-109266576D01*
X121872883Y-109191575D01*
X122042347Y-109129202D01*
X122217040Y-109080465D01*
X122394133Y-109046371D01*
X122422388Y-109042639D01*
X122488736Y-109036314D01*
X122565386Y-109031472D01*
X122647972Y-109028215D01*
X122732125Y-109026649D01*
X122766215Y-109026745D01*
G37*
G36*
X122099780Y-121464604D02*
G01*
X122190677Y-121465885D01*
X122353174Y-121484517D01*
X122511896Y-121519290D01*
X122666166Y-121570044D01*
X122815306Y-121636620D01*
X122958639Y-121718858D01*
X123095488Y-121816600D01*
X123107191Y-121826060D01*
X123151662Y-121864669D01*
X123201920Y-121911496D01*
X123254188Y-121962776D01*
X123304689Y-122014740D01*
X123349646Y-122063621D01*
X123385282Y-122105653D01*
X123438862Y-122176817D01*
X123525214Y-122311316D01*
X123597481Y-122451999D01*
X123654953Y-122597205D01*
X123696920Y-122745273D01*
X123722669Y-122894540D01*
X123724579Y-122910925D01*
X123729036Y-122949149D01*
X123732866Y-122981991D01*
X123735402Y-123003733D01*
X123736972Y-123027060D01*
X123737535Y-123067686D01*
X123736776Y-123118000D01*
X123734867Y-123174068D01*
X123731978Y-123231952D01*
X123728281Y-123287716D01*
X123723948Y-123337425D01*
X123719148Y-123377140D01*
X123717097Y-123390531D01*
X123683317Y-123550914D01*
X123633400Y-123706769D01*
X123567728Y-123857208D01*
X123486688Y-124001337D01*
X123390663Y-124138267D01*
X123322695Y-124220980D01*
X123206529Y-124342618D01*
X123082568Y-124449250D01*
X122950619Y-124540992D01*
X122810490Y-124617956D01*
X122661989Y-124680256D01*
X122504923Y-124728008D01*
X122339100Y-124761324D01*
X122278726Y-124768344D01*
X122204869Y-124773180D01*
X122123739Y-124775613D01*
X122040143Y-124775644D01*
X121958889Y-124773273D01*
X121884784Y-124768499D01*
X121822633Y-124761324D01*
X121688184Y-124735737D01*
X121534617Y-124692729D01*
X121388939Y-124635764D01*
X121249261Y-124564086D01*
X121113690Y-124476933D01*
X121086457Y-124456590D01*
X121036717Y-124415851D01*
X120981985Y-124367605D01*
X120925841Y-124315223D01*
X120871865Y-124262081D01*
X120823640Y-124211552D01*
X120784744Y-124167009D01*
X120746475Y-124118267D01*
X120655116Y-123983196D01*
X120578052Y-123839571D01*
X120515737Y-123688434D01*
X120468626Y-123530829D01*
X120437171Y-123367800D01*
X120434357Y-123345350D01*
X120428974Y-123279043D01*
X120426021Y-123202626D01*
X120425726Y-123161787D01*
X120727159Y-123161787D01*
X120727164Y-123208493D01*
X120728476Y-123247488D01*
X120731292Y-123282802D01*
X120735811Y-123318467D01*
X120742230Y-123358515D01*
X120761136Y-123451903D01*
X120800285Y-123586084D01*
X120852698Y-123711891D01*
X120919280Y-123831095D01*
X121000937Y-123945472D01*
X121098574Y-124056795D01*
X121177008Y-124133369D01*
X121290235Y-124226563D01*
X121408960Y-124304399D01*
X121534509Y-124367616D01*
X121668211Y-124416952D01*
X121811393Y-124453144D01*
X121827341Y-124456101D01*
X121890504Y-124464422D01*
X121964249Y-124470087D01*
X122044031Y-124473062D01*
X122125305Y-124473308D01*
X122203526Y-124470790D01*
X122274149Y-124465472D01*
X122332629Y-124457316D01*
X122424535Y-124437269D01*
X122558449Y-124396540D01*
X122682510Y-124343385D01*
X122798703Y-124276760D01*
X122909013Y-124195624D01*
X123015426Y-124098936D01*
X123069854Y-124042246D01*
X123167701Y-123924794D01*
X123249589Y-123802786D01*
X123315971Y-123675286D01*
X123367302Y-123541360D01*
X123404033Y-123400072D01*
X123426618Y-123250486D01*
X123433340Y-123114771D01*
X123424821Y-122968798D01*
X123400291Y-122825460D01*
X123360227Y-122685910D01*
X123305107Y-122551299D01*
X123235408Y-122422779D01*
X123151607Y-122301501D01*
X123054182Y-122188617D01*
X122943610Y-122085279D01*
X122931236Y-122074992D01*
X122809754Y-121984290D01*
X122685097Y-121909872D01*
X122556229Y-121851259D01*
X122422115Y-121807973D01*
X122281718Y-121779534D01*
X122251252Y-121775722D01*
X122179509Y-121770470D01*
X122099780Y-121768611D01*
X122017002Y-121770011D01*
X121936117Y-121774538D01*
X121862063Y-121782061D01*
X121799781Y-121792447D01*
X121768918Y-121799499D01*
X121630276Y-121841640D01*
X121495898Y-121899686D01*
X121366952Y-121972991D01*
X121244611Y-122060905D01*
X121130043Y-122162783D01*
X121066417Y-122228636D01*
X120978326Y-122333845D01*
X120904701Y-122441957D01*
X120844041Y-122555270D01*
X120794844Y-122676082D01*
X120775041Y-122736317D01*
X120758544Y-122797246D01*
X120746343Y-122858316D01*
X120737761Y-122923707D01*
X120732121Y-122997597D01*
X120728746Y-123084167D01*
X120728261Y-123103338D01*
X120727159Y-123161787D01*
X120425726Y-123161787D01*
X120425428Y-123120586D01*
X120427129Y-123037410D01*
X120431057Y-122957584D01*
X120437143Y-122885596D01*
X120445320Y-122825933D01*
X120473509Y-122694846D01*
X120520240Y-122542223D01*
X120580070Y-122399494D01*
X120652726Y-122267394D01*
X120694647Y-122203450D01*
X120794294Y-122072358D01*
X120905277Y-121951702D01*
X121026325Y-121842388D01*
X121156163Y-121745316D01*
X121293519Y-121661392D01*
X121437121Y-121591517D01*
X121585694Y-121536594D01*
X121737966Y-121497527D01*
X121857067Y-121477678D01*
X122025082Y-121463552D01*
X122099780Y-121464604D01*
G37*
%TD*%
M02*
